<mxfile host="app.diagrams.net" agent="Mozilla/5.0 (Macintosh; Intel Mac OS X 10_15_7) AppleWebKit/537.36 (KHTML, like Gecko) Chrome/133.0.0.0 Safari/537.36" version="26.0.5">
  <diagram name="Page-1" id="OJ0B6wZqJQuu71wRebE_">
    <mxGraphModel dx="3217" dy="2734" grid="1" gridSize="10" guides="1" tooltips="1" connect="1" arrows="1" fold="1" page="1" pageScale="1" pageWidth="827" pageHeight="1169" math="0" shadow="0">
      <root>
        <mxCell id="0" />
        <mxCell id="1" parent="0" />
        <mxCell id="53FAQnl19w3FAYiEGPFC-14" value="" style="shape=image;verticalLabelPosition=bottom;labelBackgroundColor=default;verticalAlign=top;aspect=fixed;imageAspect=0;image=data:image/png,iVBORw0KGgoAAAANSUhEUgAAB4IAAARaCAYAAACpGr8vAAAAAXNSR0IArs4c6QAAAERlWElmTU0AKgAAAAgAAYdpAAQAAAABAAAAGgAAAAAAA6ABAAMAAAABAAEAAKACAAQAAAABAAAHgqADAAQAAAABAAAEWgAAAAAlSLs6AABAAElEQVR4AezdB7yP5f/H8fdZ9t5SVkSRERHZI0lkJEkblfzTUKl+Le2SllLRlqRCiZSRjKzIKBTZe+99xv/63Md9fM90OMPhvK7f73u+97ju67ru5/09p8fD5/u5rqDly5dHSgpyLwoCCCCAAAIIIIAAAggggAACCCCAAAIIIIAAAggggAACCCCAwNkvEBXq7iGoXLlyZ/+tcAcIJCEQFRXlnbW3KPc/uY3ISHtFKkfla5O4klMIIIAAAggggAACCCCAAAIIIIAAAggggAACCCCAAAIInF0C/44bGGSBYAoC57RAdAjYv8XoILAFhiOiIhUeEeGf4B0BBBBAAAEEEEAAAQQQQAABBBBAAAEEEEAAAQQQQACBc0Yg+Jy5E24EgcQEjkeCo7OBLSPYSwhWZHikjh0LT+wqjiOAAAIIIIAAAggggAACCCCAAAIIIIAAAggggAACCCBw1goQCD5rHx0DT75AQE6wFwWWIiIjXEZwlMIJBCefkZoIIIAAAggggAACCCCAAAIIIIAAAggggAACCCCAAAJnjQCB4LPmUTHQlAtER4FtjWDLDo6IcFNDh5MRnHJXWkAAAQQQQAABBBBAAAEEEEAAAQQQQAABBBBAAAEEEMhoAgSCM9oTYTxpL+CCwLZGcJStEWwRYQoCCCCAAAIIIIAAAggggAACCCCAAAIIIIAAAggggAAC55gAgeBz7IFyO8kUsACwCwR7qcHJvIRqCCCAAAIIIIAAAggggAACCCCAAAIIIIAAAggggAACCJwtAgSCz5YnxTjTRCDSxYIpCCCAAAIIIIAAAggggAACCCCAAAIIIIAAAggggAACCJxrAgSCz7Unyv0kKBA4AXTgdoKVOYgAAggggAACCCCAAAIIIIAAAggggAACCCCAAAIIIIDAWS5AIPgsf4AM//QFCAifvh1XIoAAAggggAACCCCAAAIIIIAAAggggAACCCCAAAIIZGwBAsEZ+/kwujQROB4C9t4IB6cJMY0igAACCCCAAAIIIIAAAggggAACCCCAAAIIIIAAAgicUQECwWeUn84RQAABBBBAAAEEEEAAAQQQQAABBBBAAAEEEEAAAQQQQACB1BcgEJz6prSYQQXI/c2gD4ZhIYAAAggggAACCCCAAAIIIIAAAggggAACCCCAAAIIpLoAgeBUJ6VBBBBAAAEEEEAAAQQQQAABBBBAAAEEEEAAAQQQQAABBBBA4MwKEAg+s/70jgACCCCAAAIIIIAAAggggAACCCCAAAIIIIAAAggggAACCKS6QGiqt0iDCCCQMoFaNaRbOiu46iWK/GeJdNfDKWuPqxFAAAEEEEAAAQQQQAABBBBAAAEEEEAAAQQQQAABBDKdAIHgTPfIueEMK1C9hoI6dVZE5UukMCnymBtphETafoZ9YgwMAQQQQAABBBBAAAEEEEAAAQQQQAABBBBAAAEE0kmgTaOaerxnF6+3WtUqxfT61kfDve3er34cc4yNaAECwXwSEMgIAlVqKujR5xXsfiOjwqUgN6YIRSlkwWL3k4IAAggggAACCCCAAAIIIIAAAggggAACCCCAAAIIZF6Bmd++qcDgb6DEA906ebv2bkFhAsIndAgEn7BgC4EzI1C5hkLvf17hR13wd7mbCnrZ34q6/gZvLFEffnrSMfXv09WrM2X2Qo3+bW6s+kmdi1UxgR3/2tT6g2nf1GlYu2oCPSld/ij7/SfklOCgUuGg9WnFvqE0Y+7fMS3GNT0TY4sZDBsIIIAAAggggAACCCCAAAIIIIAAAggggAACCGRQAfv381GDX0r26PygcNx/h092A+dYRQLB59gD5XbOPoGQe15UuMsC1goXBB4zTEGPu8xgNy100KjvkpUN7P9RswBnYLFArp2b47KKT/UPnv1h9ds91WsDxxC4bUFgv83A47Zdt2Zl1en4YNzDqbpvwVj/20JxA+an05EfKE8ssOz7+237fdu+OQR+Kym1x+b3yTsCCCCAAAIIIIAAAggggAACCCCAAAIIIIAAAmezwKkEgf379GMRqRXf8NtN6t3iKn5SWHr2m9SY7ByB4JMJcR6BNBSIuvdNHXOZwMErl0rjhyrywRcUbJnBP34rffXJafccGIQMzEQ97QZT+UJ/vn5r1v4gW5DUpnVI62Bwat6G/x+SuAF46yPQ3wLxgc/Avy41x0JbCCCAAAIIIIAAAggggAACCCCAAAIIIIAAAgicawJ+QlZC9+X/23ti/+ZuxxNL5EqovZQe8wPWFu/ISIHg4JTeGNcjkFIBCwq26/5ESps5e64v46YLvtC9mndV8PmVFPTfUkX95ILALjM4ODxIwWNSFgQOhAjMOg08fjrb9m2W5JTk1LM/gv7Lf/aBGbPJ6Sc96iTnXuKOIzAIbP4W3Pbv1d5Dyl8VKxs47vXsI4AAAggggAACCCCAAAIIIIAAAggggAACCCCQ2QUC/609IQtLwLJ/c0+qWIZuehULTGfEQiA4Iz6VTDQmP1CZ2Nqx5xJFvvp3qshD46USVRV1QVVF1uqkiBXuD8PEoQq680WFuExg/fSNIr89/Uxg8wr84xj3j2DE8vFuHeLxihvgTOy4356dt2+z2HtC38Cx9iyj92T1rL24Jalpmq0vf2z+e0L9W5unUtcfQ+A1/rHAtvx7tnsLNLN9v9h/SALP2zTXVvzPtl8v8D3ucwk8xzYCCCCAAAIIIIAAAggggAACCCCAAAIIIIAAAggkLWAZv4H/Vp9Q7fRMQLOkMEt8s2SwjFQIBGekp5HJxuIHyiwYl1jq/rlEUuryTsrrbihk/UIFXdZJoasXK/i3odJNLynIZQJHTfxG+uH0g8AWTA+0NN/UKPZsAr/JktAfVwuY2h9Uq+fXTaheQuOxMSdUAu8l8HxC7QbWjTuGxNq3wK61ZSXQKqG27N78aR2sfuB/PGw77r7VoSCAAAIIIIAAAggggAACCCCAAAIIIIAAAggggMDpCfhJV0ldHfhv84nVC0zySqxOah1PKvEttfo41XYIBJ+qGPVTRSCzBYENLYuitG7kEyrd7kXl2bhY4b8PVVSHlxR1LEpRn7ipsX86/SCwtW9BTT+wafuplXVqz8q+yeJPaWxt2x9X/4+nH2j16/nfeolbz/b9Yt/S8V/+mBMLxvrfoInbv99vYODW6lr//nhtPzEHf0oI/7NoYwtsy/rz2/KD2/63iwK/0eOPz/7A+ybWVkJrB9txCgIIIIAAAggggAACCCCAAAIIIIAAAggggAACCCQtcLIgr/3bvv37vP/v90m3lvZnLb6Q2Kyqad974j0QCE7chjNpJGC/lBacC8zITKOuMlSz2/74RoUvqKKgTUt0aNZQFWv/kkLXLlHQ7y4TOCrlQzXXuMHUlLcaO6Bsz83/o+pP5+0Hcu3bOfaHzl7+ucT6tz/g/svqBAZjA6+x44HfoAns3/82kP8et661E3it366N1wK61r//WfTP+e923L8Xe09uSai/5F5LPQQQQAABBBBAAAEEEEAAAQQQQAABBBBAAAEEEEiegCVjJeff5E8Wr0hebyev5cdK7D0waezkV6ZtDQLBaetL6wkIWADOgmv2CxoYuEyg6jl1KMzdTcESlbVl1peq2P5FHf3ja8ltR1V30xOvmJvie335vaFegN039f/opLjhZDZgz9X69F/+ZQn9kbVv6ST1TZ2kxm4LwFux/k63JHatH1SOey+J1U+ofz9Q7mccJ1SHYwgggAACCCCAAAIIIIAAAggggAACCCCAAAIIIJC4gP9v7YnXSN6Z9Jq904/NJJS0lryRpk0tAsFp40qrJxGwQJ8Fgy3D0//lOMklZ/XpS+vfoaLnV9Y6lwl8WYcXtfuP4crq7qisywrOt2lxqt5bYNasP5VxUh2cSsartZNYUNSeo02ZHPdl44lb7EsA9rLgtRX7PAR+Q8b/A+8HZuNeb/t+Hf9cUnX9Ovbuj9O27V4C798PMlvbce/D9m2q6JMVvw1rO/CeAq9L7HhgHbYRQAABBBBAAAEEEEAAAQQQQAABBBBAAAEEEEAgZQLJyRpOWQ/RV1ssxOIICcVEUqP9022DQPDpynFdigXO5WBww/q3q1TpGrrCBYCv7fy6tq9bpOUzh+riK27SohH/8zKDC7js4Ai3VrBNE53axQ+wJhaMDMzSPVkANTBQGrjtj9kPyMbN4rVgZ0L1/evs3f4A+9cHZtAGjj+wDWvT78cPuCZW19oPvNb2A4tlJFsJDEL73wyKGyC2enHbSmjcVi8wED9q8EvxrrN7sOPJCdJbexQEEEAAAQQQQAABBBBAAAEEEEAAAQQQQAABBDKbgP9v/2fTfWfEJDACwWfTJ+gcHGtgMPhcub0WDW5XvdodVbrkparl3revX6xNq+fJftmmf91bu9z2gq8f0lL3Wvn1gzq2OuXTQse1SyzA6gcvzd0WLbeXBT3943HbsX2ra0FLe9m2Fcuq9b/VEpgla+35dS3YafVP9ofP/2MeGLQOHL8/VmvX2rRi4/X7j1vX79/GklT/gdf5QWg75meoB/brtxUYDPYD0TZuOx94zr8nG2vcdvx7sHMUBBBAAAEEEEAAAQQQQAABBBBAAAEEEEAAAQQQiC8Q+G/48c9KlvB2sviD/+/9CV2f2scsRpARk8AIBKf2k6a9UxawQJkF786VEhwVpTBFacPaRcpyfLudywquUadzut6iH4wMDLD6x/yBWEDVz4z1jwW+23n7Q2lt2MtKYBDWr2vTHfh/UP26/rX2xzqpEvjH3A/IWn0LMPtt2r7fvx0LDD7Hrev3b8dtDEn173vYNf5/MCzAnFC/1pafMWxtx61nx/xifQaa2HF//NaOmce9B/9a3hFAAAEEEEAAAQQQQAABBBBAAAEEEEAAAQQQQEAxy0smZGGxJQu8+v/2HreO/Tu/n1AW91xa7Nt4rCQ2nrToMzltBi1fvjyqXLlyyalLHQTOSoEoF4yNciO3d/dDEZGRCj8WrsNHjmrfgUMq2/jWVL2vfg//qGMK0pQ536lmrY464lpfu3GpZs4YpnUuG/hsLRYoTSqo6t9Xcuv59ZP7firtnkrdk/WfWm2lVjsnGy/nEUAAAQQQQAABBBBAAAEEEEAAAQQQQAABBBA4VwQs09YPsp7KPVmyVnoWf5zpHYBO6h7/HTdQBIKTEuLcOSGQ3oHgtx4erUlzRmj52r9UqmQVrXCZwbXr3KTpM4dpzVkcCD4nPgzcBAIIIIAAAggggAACCCCAAAIIIIAAAggggAACCJxVAn6QNTmDtlk5mZEzWsoCwUwNnZxPDXUQSKbADQ1uU1aXeNys1vVqVudGNXTvN1//nEqXuNhbMziZzVANAQQQQAABBBBAAAEEEEAAAQQQQAABBBBAAAEEEEDACdgUz3GXY4wLw7KMcUWi90MTPsxRBBA4HYEQd1GYXeitDSxt3LBEE2d+rX9W/3k6zXENAggggAACCCCAAAIIIIAAAggggAACCCCAAAIIIICAE7CAsL1sKcaGtat6JlNmL0zWspaZFZBAcGZ98tx3mghccv4lenfks96axAtXEfxNE2QaRQABBBBAAAEEEEAAAQQQQAABBBBAAAEEEEAAgUwrMPq3uQR/k/n0CQQnE4pqCCRH4Kmv+iSnGnUQQAABBBBAAAEEEEAAAQQQQAABBBBAAAEEEEAAAQQQSFMB1ghOU14aRwABBBBAAAEEEEAAAQQQQAABBBBAAAEEEEAAAQQQQAABBNJfgEBw+pvTIwIIIIAAAggggAACCCCAAAIIIIAAAggggAACCCCAAAIIIJCmAgSC05SXxhFAAAEEEEAAAQQQQAABBBBAAAEEEEAAAQQQQAABBBBAAIH0FyAQnP7m9HiGBILOUL90iwACCCCAAAIIIIAAAggggAACCCCAAAIIIIAAAggggEB6CxAITm9x+kMAAQQQQAABBBBAAAEEEEAAAQQQQAABBBBAAAEEEEAAAQTSWIBAcBoD03xGFDieG0yKcEZ8OIwJAQQQQAABBBBAAAEEEEAAAQQQQAABBBBAAAEEEEAgFQQIBKcCIk2czQJEg8/mp8fYEUAAAQQQQAABBBBAAAEEEEAAAQQQQAABBBBAAAEEEhYgEJywC0cRQAABBBBAAAEEEEAAAQQQQAABBBBAAAEEEEAAAQQQQACBs1aAQPBZ++gY+KkIBOb9Bm4r1s6ptEhdBBBAAAEEEEAAAQQQQAABBBBAAAEEEEAAAQQQQAABBDKuAIHgjPtsGFk6CBAHTgdkukAAAQQQQAABBBBAAAEEEEAAAQQQQAABBBBAAAEEEEh3AQLB6U5Oh2dcwEV/o4KCXDKw+597pyCAAAIIIIAAAggggAACCCCAAAIIIIAAAggggAACCCBwrgkQCD7Xnij3cxKB6MAv4d+TMHEaAQQQQAABBBBAAAEEEEAAAQQQQAABBBBAAAEEEEDgrBYgEHxWPz4Gf2oCfhDYMoHdlZYVTET41AipjQACCCCAAAIIIIAAAggggAACCCCAAAIIIIAAAgggcFYIEAg+Kx4Tg0yZwPFor3uLDgDbe5CCg4MVEsSvQMpsuRoBBBBAAAEEEEAAAQQQQAABBBBAAAEEEEAAAQQQQCAjCgQtX748asPmHdq5a4/2HtivI4ePKDwiQlFRbh1V++GK/54Rb4AxIXAyAX8dYPscWyDYPtbBISEKDorSnt17lSVrdoWEhsr7tEdGeef9Nu1aPv++Bu8IIIAAAggggAACCCCAAAIIIIAAAggggAACCCCAAAIZQcCPf9m7xb9CQ0NczCur8uTMpfz58qnMBQUUagPNnSunIqMilSVLqI4ePaaIyAgvWnY8DpwR7oUxIJBigShFul+EYC+w6/KBFRTifilcVnBYWHaFZcuioMjjXbgk4SDvw388kzjFPdMAAggggAACCCCAAAIIIIAAAggggAACCCCAAAIIIIAAAmkgYOEsFwkOcYGvLGFhyp4ju3LnzuF15AWC8+TJ5TIiQ5TDnYiMjFR4eLh7j84GToPh0CQCZ0QgOiPYvhVhn+3oIK8LC7svQORU1mzZ3RGX/RsQLD4jg6RTBBBAAAEEEEAAAQQQQAABBBBAAAEEEEAAAQQQQAABBE5BwJZDtYxge8/usoItGCyFR2cE58yZwwXDwlw28FEvAOxiwV45MSUuQeFTsKZqhhewD7hNE+2mg3bZ72FhOd2XIHK6MHCkHXXnWDc4wz9CBogAAggggAACCCCAAAIIIIAAAggggAACCCCAAAIIZGIBmw7aij9FtIsBu0BwkIv5ZnGxryw6dnjP8UBwjhxeFnBE9uzetLmWFXwiCBzdSPRPAsKBGmyfrQL2m+E+y+7/hw4eUNaseZQte1YFud8Q+6aElYQ//94pfiCAAAIIIIAAAggggAACCCCAAAIIIIAAAggggAACCCBwRgT8wG9g5xYUthiXnQt2U0SHhYVotx8IDgsNVVhoWPTawAFXWTCMgFgACJtnrUDgL4X/mbapoLNn261sbn3gHDldRrD7loTVs//5xf0G+Ju8I4AAAggggAACCCCAAAIIIIAAAggggAACCCCAAAIIIJBhBLyolp8afHxUwcEhbis6vuWtEWzTQlsWcPDxKaGj650IhmWYu2EgCKRYIPqDb8FgC/pmzZrFvbK6b0aERX9LwgWDo4v/nuIOaQABBBBAAAEEEEAAAQQQQAABBBBAAAEEEEAAAQQQQACBNBQ4kdgYnRkcPQOuFwi2gFhISPQCwmk4AppGIMMJRH/uQ2IW0HYzqWe4MTIgBBBAAAEEEEAAAQQQQAABBBBAAAEEEEAAAQQQQAABBJIj4C+DanW9QLAdsIzgwOlzk9MQdRA42wXssx8SEr02cFBQ9NzpZ/s9MX4EEEAAAQQQQAABBBBAAAEEEEAAAQQQQAABBBBAAIHMKxB8fAZcLxBsDIHR4czLwp1nNgFvTWBbF9gFge2Xgi9DZLZPAPeLAAIIIIAAAggggAACCCCAAAIIIIAAAggggAACCJybAtETRJ+b98ZdIYAAAggggAACCCCAAAIIIIAAAggggAACCCCAAAIIIIAAAplSgEBwpnzs3DQCCCCAAAIIIIAAAggggAACCCCAAAIIIIAAAggggAACCJzLAgSCz+Wny70hgAACCCCAAAIIIIAAAggggAACCCCAAAIIIIAAAggggECmFCAQnCkfOzeNAAIIIIAAAggggAACCCCAAAIIIIAAAggggAACCCCAAALnsgCB4HP56XJvCCCAAAIIIIAAAggggAACCCCAAAIIIIAAAggggAACCCCQKQUIBGfKx85NI4AAAggggAACCCCAAAIIIIAAAggggAACCCCAAAIIIIDAuSxAIPhcfrrcGwIIIIAAAggggAACCCCAAAIIIIAAAggggAACCCCAAAIIZEoBAsGZ8rFz0wgggAACCCCAAAIIIIAAAggggAACCCCAAAIIIIAAAgggcC4LhKbGzc1ZsFgz5v4dr6kHunVSUufiXcABBBBAAAEEEEAAAQQQQAABBBBAAAEEEEAAAQQQQAABBBBAAIEUC6Q4EPzWR8PV+9WP4w2kTaOaskCwBYgTOj9l9kKNGvxSvOs4gAACCCCAAAIIIIAAAggggAACCCCAAAIIIIAAAggggAACCCCQMoFMOTV0VFSU1mzYoq3bd6VM7zSu3rB522lcxSUIIIAAAggggAACCCCAAAIIIIAAAggggAACCCCAAAIIIIBA8gUyXSB47oKlqtj0Nl11yyOq0foeNb7hfq1etyn5YimoeeToMV10VVetWrsxBa1wKQIIIIAAAggggAACCCCAAAIIIIAAAggggAACCCCAAAIIIJC0QKYKBO/cvUdXd31Crz9+l/799Qutmzlc1zSprRt69lVERGTSUqlwNmuWMO2ZP0plSp6XCq3RBAIIIIAAAggggAACCCCAAAIIIIAAAggggAACCCCAAAIIIJCwQKYKBA8Z8Yua1LpUrZvXi9F4qHsn7d53QL/NnKdNW7arfff/yTJ3/dLrqbc0Z/5ib3fsxBlq6TKJm3Z+UJ8MG+NX0d2P9dOgL39Qs5se0k+TZuj2h17S3/+uiDn/8bAfvfoRERFq2+2JmCmpd+3Zp959B6hO23t1Z++XtdZNV23F2vvrn+jrDx0+opDyV2nbjt3euXUbt+rGns8qMjLtA9deh/xAAAEEEEAAAQQQQAABBBBAAAEEEEAAAQQQQAABBBBAAIGzTiDNA8EPdOukiOXj471GDX4p3bGWLF+jy6tWjNVvSEiIal16kZatWKfiRQtp07ZdmjprgVdn45Zt+nz0ZFWuUFaTZ8zTI698qFdcNvE7z/bSgCE/6Pufp3j1pvzxt3q+OEhP/t8tqlX9Ep1XpKC+G/NbTD9vf/a9Lr6olCLd2sTjps/X4SNHvUBuxx7PqHDBfPrug76qesmFanvXU97xXDmya8K0ud710+cs8t4nTJtzfH+hwkJDFByc5o8uZvxsIIAAAqkhcOigZC8KAggggAACCCCAAAIIIIAAAggggAACCCCAAAIIpL1AmkcT5yxYrLc+Gp7gK+1vL3YPW7fvUsG8eWIfdHsF8+XWtp17vOO3tGum0eOne9s//zpbXa5poBwuMDvwi+/1WI8bXcC2vCpVKKMH7myvEeOmevWWr92k1x66VY3qVlehAvnU8domGjZ2iqJc4HfJstU6dOSIalev5NX1f/z59zKtXL9Zj/ToohLFCuv+rjd4Y1i6fLWaN7hcE6fN86r+9OtMPXRbW42ZMMPbnzZ7kVo0rOU3wzsCCCCAAAIIIIAAAggggAACCCCAAAIIIIAAAggggAACCCAQTyA03pFUPjBj7t/q/erH8Vpt06imLFs4PUsJl/G7bWf0FMuB/dq0y5b1a6Xd1Q3U99171P+Z+zTil6l65O4bveMjJ82WvR5++SNv335cUaW8t12xdAldVvmimOPVK5dX9qxZtGDxf5o4/Q/d3r65l8EbETCd88o1G7Rm03YVr90x5jrb2LZjj+rXqqJO97+kvW7K6rFT/tDc0R+oWqvuOnDwkH6Z8aeefODWWNewgwACCCCAAAIIIIAAAggggAACCCCAAAIIIIAAAggggAACCAQKpHkgOLCzM719acWyGu3W8O0TMJCjx8I1c+G/6nFrO++oTQ9dt+pF+m7sr1q6cr0Lylb1jtevXlG9u98Qa31hv5mQBKZpvr1Dc/04YbrGTJ6tL9543K8a814gXx5Vr1Bac8cMijkWuNG0VmW988m33rTVeXLnVOtGtTT4q9EqWiCvzitaOLAq2wgggAACCCCAAAIIIIAAAggggAACCCCAAAIIIIAAAggggEAsgTSfGjpWb2d4p0v7Fvpr2Vp95AKqERER3lq9z/b/WKXPK6J6LgvXL52va6pbHnldXVo3lq0hbKVdi3p68+PvtG9/9AKXU2bO17jJs/xL4r23a9lIfQcOU2hIsCqWKxXvfK1ql2iLy/79wWUdWzl46IheGzhUBw4d9vZbNqqtZ979Sq2b1fX2r212pZdZfW2TK7x9fiCAAAIIIIAAAggggAACCCCAAAIIIIAAAggggAACCCCAAAKJCWSqQHCunNk1+avXNdyt31uoRgcVrdVRa9w6vd+831dBQUExRtc0iQ6+Xt+qUcyxHre21+VVKqh809t0UeNb9L/XP9aFpUrEnI+7UapEUe9Q4yuiM4rjnrcs31HvP6tn3x6iiq7NMg26eFVyZs/mvTe58jLvvVn9Gt57/drR7TSrF73vHeQHAggggAACCCCAAAIIIIAAAggggAACCCCAAAIIIIAAAgggkIBAppoa2u7/wtLna8LQ/l7mbVhoqLKExSewgHHE8vGxuKzeq0/00It97tLBg4dlgVy/LPol/hrIdi5uG9Zf4LGa1S7W/J8Ga8/e/bI+/exju9bGGVg3m1tzOHDf6lAQQAABBBBAAAEEEEAAAQQQQAABBBBAAAEEEEAAAQQQQACBhATiR0ETqpXEsbo1KydxNvFTDY9nuCZeI23P+Jm3p9pLqJsqOjAIfKrXJ1Q/b55cCR3mGAIIIIAAAggggAACCCCAAAIIIIAAAggggAACCCCAAAIIIHBaAikOBNeqVkn9+3TVlNkLYw3AD/RaoLhNo5qxztnO6QaQ4zXEAQQQQAABBBBAAAEEEEAAAQQQQAABBBBAAAEEEEAAAQQQQACBWAJBy5cvjypXrlysg+wgkFkENmzYoGzZ8ih7jpwKDg6KtVb02WqwfNVab+jly5Q8W2+BcZ+jAocORt9Y9hzn6A1yWwgggAACCCCAAAIIIIAAAggggAACCCCAAAIIZBCBdWv/U3AGGQvDQACBVBJ4+b1PZS8KAgicXOBYeLh27dl38oquxgG3PnxalP0HDqVZ22kxXtpEAAEEEEAAAQQQQAABBBBAAAEEEEAAAQQQODsEUjw19Nlxm4wSgcwh0H/QkMxxo9wlAikQOHT4iPp/OFS/zpqvuUtXKvzYMZW7oLjqVK2oTq2bq0m9+MsZDB46Sve/8qHeeewedevSNgW9R1+6ftM2vTX4K/3w60xt2LZTQcEhql25nOpWr6SuN7ZWmZIlUtwHDSCAAAIIIIAAAggggAACCCCAAAIIIIAAAghkbgEygjP38+fuzyEBCwIvXrYy1e8oPDwyVdpMrXaSGkxSfSR1LrE2IyKjFOleCZVj4REJHeZYBhdYvmqdmt3USy8N+lrLV2/UNXWrq2v7FsqRLauGjJmsa3s8qS++HRvvLrznHRmpYxHhsc799OvvuvWBvhr50+RYx5PaWbhkuS699k4NHD5WuXJk182tGuvWaxu5zOT9euPzkWp6y0Na/O+KpJrgHAIIIIAAAggggAACCCCAAAIIIIAAAggggAACJxUgI/ikRFRAIOMLjJ00NdWDwP+sWK2hI8dpw5atKpgvr9q1bKK6Nap4GK8M/EzlS1+gDtc09fbXrN/kTUf9/CM9tH7jFn04dKTee+ExhYQEa9uOXfr0m9Fa5tYuzuGCXnWqV9YNrVsoxK3J/EDf/mp3dSM1rF1Dx46Fq9+HXyhLWKju79pFYaEh8eDvfLivW9M5qwa6tv0SFRWlCdNmaezk33XATbFb8ryiurVDK5W+IDqjcvGyFfrq+5+1aet2FSlYQNc2q6d6l1f3Lrf+9+7b7/oM85vToz1uVf68efTZtz96pjaeKpeU1+0dWnt92xrMQ0b+pPWbtihP7lxqUremWjdrcE6sLx2DcI5uWFC/a5+XNf/fVercsoHefeERZXefJ79Mn7NA7e59Wvc8+7YucJ+jxleeyAy+97br1aX91crrnnlgWb1uk76b8LsqX1Qm8HCi2xZQ7nx/Xx1xWckvPnC7HujWOdZnx4LQ9zw3QFfd/rCWTvhSeXLlTLQtTiCAAAIIIIAAAggggAACCCCAAAIIIIAAAgggkJQAgeCkdDiHwFkgYEHgEeOSn42YnFvavmuP3hj8pdo2b6gra1XXP/+t1uBho1QgXx5VvLC0joUfU0TkiYzYyKhIHXXT68olz0a6rElv23VkGbVvfzxMpc4vpjeeflB79x7QW27fglutmtb3gr+REVGyYO6n3/6gXbv36qkHuiUYBLZgs5XDLoC2becuFS6Q39ufs3Cxvv/lN/3f7Z1UqkRxLyj82odD9ObTD2nf/oNef52uba4rXBD7v5Vr9O4X36pooYIqX6ak13+rxleqUd1aXlv2I0/unPro65E6eOiw+j/1oCyTeMBnX+nbsRN1c/trNODz4bqiWmU93vN2L7jcz/VVrFAh1XJT+lIytsDYidM1d/F/uqxCWQ169X/uiwpBsQZcr1Y19Xv0Lt3b9x19PXpCrECwVYwbBI51cTJ3/nW/S6s3blXxwgXiBYGtiVs7ttL46X9o5MQZmvHHQl3duG6CLUe435u440+w4vGD4RGRCnVfzEhpsWB6kGMLsh/JLIn1bb/37v8Kdl8KoSCAAAIIIIAAAggggAACCCCAAAIIIIAAAgikvgCB4NQ3pUUE0k0gqSBw3PWCK15YygVfGyRrbNPnzFeh/PnVskk9L+BT22Xxzv1riSbP+MMLBCerEVdp+ao12rh1mx655xYX/M3lvTpc08QL5Aa28dOv0zV/8TI92bOrVyfwnL/9+7wFqlWtkvYfOKiZ8xapjQtSW/ltxlzVvayKLilf1ttv6QK7W10W8vYduzXv76UuCzi/mtWv7Z2rVrmiWjaqq91793n79qNA/nwqmD9PzL5t7N9/SPny2HhzevffrVM77XaZwxbQskB0IReEzp4tm8qWPF//d9sNXr1YDbCTIQU+Gv6jN66et7RNNIjaunl9/TJlto64DHXL3vUz0z8eNlqfjfhZdu2N112lV9773GWhz9a8pf95bT773pf68ddZqlPtYr325H2J3r//2TuvUIFEg6k3XddcuXPmcF9GOBKrHQucfu4yhoeNnqiZfy9XqSIFdEXVi9Wn560qV/r8mLo2/fWdj7ysyyqV023XX6Nn3vxYU/5copcfuENNrqyhux7vp4plztfgfk/EXONvDB35sz74arTLgL9aXTu38Q/LsqXf+uQbzVjwjwsoh6hu1Qrq5s43q3/iSxRW+anXPtRvcxbqrafv0xgXeB8+borWbt2lvfPHeAFfuwcLyL/7xQj9+c8qBbuAct1qFXV1w1quvXYEhWPE2UAAAQQQQAABBBBAAAEEEEAAAQQQQAABBFIuQCA45Ya0gMAZEUgqCGwDirtesAWCk1s2b9uu888rHCtQVaJoEf3519LkNuHV27Zjp7JkCVPePLljrqtzfHpp/8A81+aS5Su96ZVLnFfEPxzrPdwF5GbM+0tdb2ijA4cO6YfxU2OmY960bYcucwFev2TNkkV33dTe2/1p8nQVK1zQP+W9+9NZ+weHjByr1es3ersXFCuqZg1qu+mqm+idT4fpqX7vq16tqqpTo6rzKOrVubFNC2+q6UVLl3nHL69ayZvO2m+P94wrsHTlOm9wV9S4NNFBFsyfV8Peez7eectCt6Dvjl17vXMFXXZ86RJFYgLBdtD2CxXIG+/awAOVK5ZTUHCI5v27UmMnTXdfzqgXeNrbvqbJlbJXYDkWHq7bH3xOo1ywuazr56ar6+uvZas09KffNHbaXI0a+LxqXxadlX7kyFFvXP+u2aBvf5nufYnBMpBDQ4NVwWX079q717vumQe7uc917N+5L1wg2O7zvWqXxHT/1kdf64m3P1P+XNnV7Ipq2rPvgH6cNk+jXb/vPHaPunVpG1N3rZsy3a7vfP9zWr91h7K6qbeL5Mvl/pZEV+n/4VA9PeALFXR/E65y6zNbUHnirIX6+fc/3d+XZXr3xUdTJXM5ZkBsIIAAAggggAACCCCAAAIIIIAAAggggAACmVgg5fNEZmI8bh2BMyVwsiBw3HF1aNk42dnAdq2bsFVB7n+BxQI5No3rqRSrn9QUsuER4V4Q2Nqcs+BvHTl6NMHmFy5ZpsiICFWuUE7VKlXUrj179a9bw9hKkPURZ6zeCffDhptU/1bPAtylzz/PexVxWZpWLLvylT73uamBL9fsBYv1+CsDYsbZpO7lernP/7k6F7gpuX/VM/3f98bjXciPDCtwyGVyW2DSShE3NXhKS/cu7TTk7Wf1uptK2sqzPW/29h+999Ykm7ZM87cfu9vmUFfHXs/pbrdm8Yy5i7xs86Qu/OTr0V4Q+IYW9TX3x4/1wSuP6feRH2rIa495gd7HXnvfm2I9sI39Bw/puiZXaN20b7Xit691983tvYzbW1xGs5WfJ88IrO7Wvd6mafOXqEr50qpycTnv3AKXqW9B4Moug3j2iA/1xVvP6IePX9OC0YOUM2sWPfLGx9464LEacjtm/eMHL2r7nNFaOWW493u4Y+ceLwicP09OzRwxUF86v8/eeErzfxysSmUv0Bc//qo/F53al03i9ss+AggggAACCCCAAAIIIIAAAggggAACCCCAwAkBAsEnLNhC4KwQONUgcKWLyp5SENgQbM3bDS4oFFhsiueiRaIDaNmzZtPRI25N4OPlyNHo7WzZsviHvPfCblpmy07cd+BAzHHLKh4/daa3HxoSqjIlz9OA5x51Uy4f1Tejx8fUC9x474tvdNi10+vZfnrkxbe8dYgnz5zrVSnqMh237twZU93G8tX347Rpy3Y3LXQBbdl24pxVGueyhBe5wLJfmrhgb+O6Nb1XlUvKe+saT5vzpw4eOaKm7twzD9zlgs8VNOqXydrpAtB2Ll/ePGrborFeeew+Rbpotz8Wv03eM57AFpc5biVn9mzKmSPbGR2gZdB+9uqjKlown4aMmaxmtz2sCk1vUt83Bmvxvyvije2AC+g+9fbnCnOB19ee6KlsWbPG1OnQqoma1q6q2S6bdl4CQdS3n31QBeNkKbdr2ci7fsQvU2LasY3xU6J/L7tc1yzmeF83rbQFrZ/vHTt7uHyZC/RY90464gLstp5y3NKuaR01rX95rCm4/cz7au5vkp9hb9fZ34m+D96puzq21N79J/5WxG2TfQQQQAABBBBAAAEEEEAAAQQQQAABBBBAAIFTEyAQfGpe1EbgjAtcVLZ0ssdgQeDed92S7Pp+xXq1qmmLm9Z5/NRZ3pq4Cxb/66Zt/VeNrqjhVbFpphcsWa4t23d6Adrpf8z3Mmtz58zpN+G9ly9dygvyfD9ustfOpq3bXdBovCw70y/1alZ3gbnsuuPG6zR51rxYQVqrs+f4er43t79GL/Tu4b3auwxnW1PY1uutX7u6mzZ6kVauXe9lFE+YNlNTZ89X/ry5dcVll2qTm+baxnfUrfn6twuyjXBjsemq/bLPrTlsgTb/ZWnP490asaPGTfLuzQLQ+1xwKpubctrWM/1ixE+a5sYZGRmlfW7d4MMuizlb2In2/HZ5P3sEHn1hgErV7xjvtdV9vtOq3HBtMy366TN9/GJvNalVxX1Od+rVj7/V5e17qNfT/V2W+b6Yrm3NX8vubemmZfaz1mNOuo16x6e6/m/N+sDD3nbgZ90/eVHZkrqiSgVNmbdYGzaf+MLHqPHTvCrtWjT03u0zPnX+UoW6z3ezetHrbPtt2Pvlx6ePXnZ8yu3Ac62bxp7a2s7ZtNS53O/65D8Xa8Cn32jn8Wm27ZxNhf2WC1rHXXPYzlEQQAABBBBAAAEEEEAAAQQQQAABBBBAAAEETk8g9PQu4yoEEDhTAuXLlNQnrz8Tq/v+g4bEWxPYKpxOENiuK1wgv+6/s7OGjBjrAre/2CHlzZVLFli2cnWjK7Vt524988YHsvV7S51fTD1vv8E7F/jD1iTtdUdnfTz8e9375CvKni2brqheWa2aNAis5m1XcWunNqlTUx99M1ovPtxDuXNFB5Vnzf/bCxQ3rF3DZRdGf3el2ZW19ePEaZr71xJdWbOatruxvP7hEC9wa1M9P3z3rcrm1iYt5l49b+2oISPH6ZPho71M3i7tWqpiuTIx/X/vMn3t5ZdH77lV/+fu5fPvxqinG3OUCwyXPr+4unVup3xuXdP7bu+kYT/8oqE//OxdUqNKRTVJIEjmt8d7xhAoZtnswcFujenDXtZpnuOfLxtd8aIFvemQ/ZFO+uMvLwvWsr3TsuTOlUOd27bwXus3bvXWvn518HB9NOIX/bNircZ+3l9hoaFavjp6bePRU+YoR6XoaZ0TGtfGzdtjHa5xfHrnWAeP73Rp01yzFv2rn3+doa43XedN72z3bUFpP1t3w+at7ksbh70rcldpkVAz3rG1G7fEO2d/Q+KWXDmz67t3n9Xtj76iPq9/pD5vfKL6VSuqnZvuumXjuu7vSPG4l7CPAAIIIIAAAggggAACCCCAAAIIIIAAAgggkAIBAsEpwONSBDKywOM970jR8CpXuFCvPtHLy7q1aaHf/exbjfxpkjq0aqbQ0BDdcUMb3XZ9ax0LD1fWgAzbGlUuiRWoLlGssJ6+v7uXrZvFZRYGrtn73gt9Yo3x5g6tZK/A0qJhHdkrsFiQ98OX/xdz6LqrGqlN84Yu6/eYG0vs6amrV64oe1n2sF0XWOL2H3ju0R63eVnEUVGRsdqscnF5t35qeS9AFhaaxVkwsUKgW0bdtumUy5Uoqv/WbXLTnm9VnvInvgzwYPebZC+/5Kraypt+3N9Pj/fzzyvivkxxvW68rrma3NRL0xcs1Xc/TlTndldrz+4T2cHdOiQekC1X6vxYQ80SFhJrP3CndfN66vXS+xr5y1QvEDx+6mwv+N25TbOYarv37I/ZTqrfUiWKxdQ72UYDl8H/17jP9eOEqZo0fa7GTpvr1iX+UA+9Nlgv9bpNvbre6K1jfLJ2OI8AAggggAACCCCAAAIIIIAAAggggAACCCBwcgECwSc3ogYCZ52ABYEtczg1igVPy5Y8X88+1F0hQbH/ZAQHB8UKAifVX9wAbVJ1T+ecBZiT6iNuEDg5fWQJi32/gddYdjPl7BK49KLSXiDYpg6/OCAQnJ53MfDz77Rm/Wbd0elal5leOl7XBfPnVXd37tF+g93058u9QHCZkiW8ejdeXV/vPNc73jWnc8CmmL6uYU19P3m2Nm7ZptETpnlTQNsUzX4pdUF0gDd/npyp1q+1bWs033jdVd7rmJuyfeqs+brnqf564q1PdaELZre+qr4/BN4RQAABBBBAAAEEEEAAAQQQQAABBBBAAAEEUiBAKlsK8LgUgYwo0MGtn5taQeDA+8vjpobOmZPgZ6AJ22eXwF1uCmQrNv3ygYPRUx6n9x1s3rpTA74a7dbfdhm4iZRdu/d4Z7Ifz2CvcGH0lzrGz1yoPW5d6tQqnVpHZ/8OHfmzxk6fr+ubXuGtre23b9Nnl3PTvu/ae0Cz3bq+KS3Df5yg+1zA1wLxfglzX7ZoWv9yPf/gnd6hwHN+Hd4RQAABBBBAAAEEEEAAAQQQQAABBBBAAAEETk+AQPDpuXEVAhlSwILArZrGX383Qw6WQSGQzgINr7hM7ZvV1ebtu9Sp55Peurhxh2ABz8jICO9wkILino63X7BAXu/Yth27451L6ECrplcqKDhEzw8cqpnz3FrEcco//63WkB8meUfr1Kjsvduavbe1aaqde/bqf69+IMuiDSxDvvtJHe5+XDt2RQeQA88ltd28QW3lypFdz7w7RJER4ep4bdN41fvcHT1l9iOvvBfP68+//lHDTj3119IV8a5L6EA2N237xyN/Ub8Pv9LRo8diVVm2cq23763lHOsMOwgggAACCCCAAAIIIIAAAggggAACCCCAAAKnK5D4vKen2yLXIYBAugvY+rj2SotM4HS/GTpEIA0F+j/ZS/v2H9SEWQtUvXV3Na1dRZXKl9Zul/W66N8V+nXOIq/3vv93i4oWLnDSkVzq1tK2MmjUeNk6xKXcOsTdurRN9Lral1XSxy88qDufeF1Nb+3t+q+qGpXKu7WmQ/WPC4aOnT5PR9x61l3bt9DVjevGtPPMQ900fd7f+sT1s9AFXls2qqUQF1Ce9sdC/frHX6pR8UJZdu2plBzZs6nzNQ01+Lufvcua1K0Z7/Ibr2uhHydO1+gpc1S3Qw9d36KBihctqD8WLtUYN9asISEKCTl5wNwatsDz1Vdepp9//1P1O96rdlfVk02xPnfRUo2YOENFC+aTn6UcbyAcQAABBBBAAAEEEEAAAQQQQAABBBBAAAEEEDhlgVP7V+NTbp4LEEAgPQQIAKeHMn2cCwIW3B056FUNGjpCQ7+fqO8mztS346d7t1YwT25d16i2Hrmniy67tGKybveSi8rq6Xu76LkPhqn/5yPU4LJLkgwEW6O2Pm5lF0B+55NvNHzi75o0e2FMX1XdOsYPdr1B7a5uHHPMNooVLqgZIz/Uc29+pGHjpuoF158Vy+h95I7r9ZDL3LWpnE+1dGzVxAsE161aUVmzZol3uQV5hw54Xh8NG6UBX4zU219+79UJDg1T20aX6zm3dnjZUtFrGMe7OM4BCzwPf+8FvfD2J/px8iw957KioxsLVgeXqf1krztk2c8UBBBAAAEEEEAAAQQQQAABBBBAAAEEEEAAgdQRCFq+fHlUuXLlUqc1WkHgLBPYsGGDsmXLo+w5cio42E0EG5S8zLaz7DYZLgIZQuDQwehhZM+RIYbjDeLwkSNat3GrChXIF2t93FMdoWUZb9i81WXLFlLe3LmSfXlkZJQ2bd2uQy4LuESxwi5DNutJr42KitKGTdvk/mDpPNef/e1Kr7Jz116XPb1PF7jM5zCXxZySsmv3Xm+66/OLFUkwCJ2StrkWAQQQQAABBBBAAAEEEEAAAQQQQAABBBDI7ALr1v4nAsGZ/VOQye+fQHAm/wBw++kqkBEDwekKQGcIIIAAAggggAACCCCAAAIIIIAAAggggAACCKSTgAWCg9OpL7pBAAEEEEAAAQQQQAABBBBAAAEEEEAAAQQQQAABBBBAAAEEEEgnAQLB6QRNNwgggAACCCCAAAIIIIAAAggggAACCCCAAAIIIIAAAggggEB6CRAITi9p+kEAAQQQQAABBBBAAAEEEEAAAQQQQAABBBBAAAEEEEAAAQTSSYBAcDpB0w0CCCCAAAIIIIAAAggggAACCCCAAAIIIIAAAggggAACCCCQXgIEgtNLmn4QQAABBBBAAAEEEEAAAQQQQAABBBBAAAEEEEAAAQQQQACBdBIgEJxO0HSDAAIIIIAAAggggAACCCCAAAIIIIAAAggggAACCCCAAAIIpJdAigPBb300XCHlr5K9J6f49e2a9C4HDx3Rth27Y14RERGxhhAREalNW7bHOnaqOytWr9cr7w7xLkuN9k61f+ojgAACCCCAAAIIIIAAAggggAACCCCAAAIIIIAAAggggAACKQ4E9371Y09xyuyF3vucBYuV2Csut9VLz/L19xN0QcObVa9jL+9VvPYN6njPU9q6fZc3jD8WLFGDTg+kaEibtu7UpyMnpFp7KRoMFyOAAAIIIIAAAggggAACCCCAAAIIIIAAAggggAACCCCAQKYUCE3Nu7bAbp2ODybaZP8+XRM9l14nml1eSWM+fdXr7vCRo3rytcG69YEX9fOXr+uKGpW1dNLnqTaU1G4v1QZGQwgggAACCCCAAAIIIIAAAggggAACCCCAAAIIIIAAAgggcE4LpDgj+GzWyZY1i3rccp0m/rFYNm30X/+s0N19+nm3NGXmfD3Vb7Cee/NT1W13r27u9bzWrN8cc7u79uxT774DVKftvbqz98tau2FLzDl/I7C9Hbt267quj+uXKbN1za2PqmHH+/TjhOl+VSXV3tBR49Xkxge815uDhysyMjLmOjYQQAABBBBAAAEEEEAAAQQQQAABBBBAAAEEEEAAAQQQQACBuAKZOhBsGEv/W6MyxQoqR/as2rP3gKb/ucQz2rFrr14a9K2qVSqnr955SsWLFFS7u5/2grAWiO3Y4xkVLphP333QV1UvuVBt73oqXoA2sL2jR8M1Zuo8jZkwQwNffFB3d2mtG3u/poMHD3nXJdbe7D//1v9e/0Tv9L1Pg195WN+Nm6ovvh0X9zmyjwACCCCAAAIIIIAAAggggAACCCCAAAIIIIAAAggggAACCMQIpOrU0DGtZuCNcdPn64W3P1NUVJTWbdqmH36dow+fvy/eiO28lTZX1ffen3+kmz5yawovXrZKR44e00qXHfxIjy4KCQnW/V1v0OsfjdDS5au9ukn9eOmxu5U7Vw6VLFFUdzzxttZv3q69+w8k2t6efQeVLVtWd00ulXLXfPd+Xx0Lj0iqC84hgAACCCCAAAIIIIAAAggggAACCCCAAAIIIIAAAggggEAmF8h0geDgkFBdULyI99hrVb9EfR+6U8WLFor3Mdizd3+sYzaNdPmSxbRpyw7t3rtPazZtV/HaHWPV2bZjj0JDQ2Idi7sTFhZNHhwcrCxhITp2zAWV12xItL3mDS5Xz5uvVfObH1ahfLl1c9tmuuvm6+I2yz4CCCCAAAIIIIAAAggggAACCCCAAAIIIIAAAggggAACCCAQI5DpAsEt6lyq2264JgYgsY2cObPHOmUZwpu371YBF4wNDg5S9QqlNXfMoFh1bGf6nEXxjp3sQIF8eRJt74CbOrrrjW103x0dvYzjB/u+q337D6pPz5tP1iznz0GB/oOGeHdV8cJSatW0gZavWqtlK1frnxVrZMes+MdHT5ji7duP3nfdErPNBgIIIIAAAggggAACCCCAAAIIIIAAAggggAACCCCAwLkvkOnXCE7sEYeFRsfIN2ze5lUZ+VN0UK1ShbKqVe0SbXHZvz/8MtU7d/DQEb02cKgOHDqcWHNJHk+qvU+/Gasbez6jo8fCdXH50rqscnlt3LI9yfY4eW4KWNDXgr32ssCvBYUt2HtR2dJq07yhFwC2O7fjL7/3qYfgB4fPTRHuCgEEEEAAAQQQQAABBBBAAAEEEEAAAQQQQAABBBBAIDGBVM8I7t+na2J9qW7Nypox9+9Ez2e0EyWLFtRtD72sdW4d3/0HD2vom48pu1uv116j3n9W3Z94Q31e+1i79h5Q7zvaKWf2bKd1C3ly50y0vTs7tdaipSt1cbPbFBoSomIF82rIW0+eVj9cdG4IWMbvPyuGeAFh27ZiQWIrtt+qqTR2UvSXFPy6dr58mZJeHX4ggAACCCCAAAIIIIAAAggggAACCCCAAAIIIIAAAgic+wJBy5cvjypXrtxp32m77k9o9G9zZQHgB7p1Omk7cxYsVp2OD3r1IpaPP2n9M1XBMoDfHzpaE4b21959B5TLTRVt6/rGLbaWsJ0LcUHa1CiJtXcsPFyHXOaxBY0pqSewYcMGZcuWR9lz5PSm/A4KCkq9xtOgJcv2tWmeLdBrQV4L8AZOAe1nANs5v+6dD/fVJ68/kwajSf0mw8Mj3Trb8X/PUr8nWjwTAocORveaPceZ6J0+EUAAAQQQQAABBBBA8+uehgAAQABJREFUAAEEEEAAAQQQQAABBBDIPALr1v6nFGcEjxr8kiy4W6tapWTJWb2Z376ZrLoZpVJSwde8eXKl6jATa8+mqg7LneLHlapjpbEzI+AHeC0YPGLc5FiDWLxspbfvTxdtdTu0bByrTnJ27nn8Ja/a0WPHvPcsYWHee4+bO2j2wr8168+/5R+zE21bNNKlFcrp+Xc+0tMPdNd5RQtry/adeuXdT1W/dnWt3bhZ//y32k1xHt2eXWPXN613uTq2au4FtIeM/EnrN21Rvrx51P7qRqp3eXWrpkFfjdB/q9arb++7XTZ+dNb9gE+/VgFXr0v7k6/37TXCDwQQQAABBBBAAAEEEEAAAQQQQAABBBBAAAEEEEAgkwmkSmQxuUFg3/ZU6/vXped7mZLnqf1VV6Znl/SFwEkFLBvYgrtWLAhc6aKy3rYfALZ9ywq2LGGra8ft/VTLi4/+n3fJqJ8nae6ipfL3c+fKoenzFrp1iUupe+f2Mc3myJ5FO3bu8QK9UVHSwcOH9c4nw1Ta/R61bdFYBw4edOcitPS/Ffpk+Gg988BdLpM+p7JlyaLde/e5e/pS1zS5Ur27d9Eyl+U86KtRypcnjypXuFDHwiO0fddujXL3e1O7ll6fliEf7o5TEEAAAQQQQAABBBBAAAEEEEAAAQQQQAABBBBAAAEEEhZgDtaEXVS9cnn1uO1EoCuRahxGIF0FbCpoC/T6awL7AeDAQViA2D/uB4oDzydnu2D+PLJXoQL5VaRQAW/b9rOERX93JG+enDHH7LifqWttR0VG6sMvR3jTpd99U3tvyu3cufz6+bzuCxXI512fM2c2/f7HAuVx51s3a6C8eXLr8qqV3Oti/Trjj5ihFitcSL/OnKuVa9fHHGMDgVMROHLkiHbv3nMql5z1ddesXq3333/vtO9j7NgxeuyxhzVjxu+n3UZaXbh58+ZEmx704ftatWpVouftxDE3O8HOnTsSrGOfk8PuyyypVawf6y8tys6dO7Vx44a0aPq02hz65Rf6+++/Er12165d3rOJiIhMtA4nEEAAAQQQQAABBBBAAAEEEEAAAQQQQCD1BAgEp54lLSGQLgL/rFij8mVK6vGed3jTPltg2AK+ftDXjtsrLcsfC5bo029Ge68h342J1dXwMeP11z//qduNbd36y1ljnUtoZ9O27Tq/eBEFrs9comgRbdqyLab6BSWK6KoGtfX5t2PkBRBc1jEFgVMRmDp1iu64vUuyLlmx4j/NmTM7WXVTq1Ja9Llt+1b98P2IZA1x7NgftWfPiUD5rJkz1e+1l9SixTUqV658stpIr0pHjx7Vta2u0rp167wu49qNHv2Dtm7dkuRw9uzZrUYNr9R//y2PVe/A/v1q2qSelixZEut4Snb6PPaIfvn5p5Q0Ee/ajRs36vbbuqjj9e103//dqyaN66XKZ9aC4PYFgNMtkyZN0po1q+NdboH13g/dr+vaXKP/PfGoGje6Up9/8Vm8eqdyIO5n9lSupS4CCCCAAAIIIIAAAggggAACCCCAAAKZRYBAcGZ50tznOSFgAWArdz7cN+Z+bD1gCwa3ad7Qe1+2crV3zqaQtuNpUYKDg1X6/PO8V8kLisfqws9G/nnKjFjHE92xoG5QUKzTtmdTTAeWNs0b6eChw5owbVbgYbYRSHUBCwIP//qrVG83qQbPRJ+B4+n77DPasuVE8HTRogVq3KS5GjduoiJFigRWPePbWdyU8rNmz9cFF1zgjeV07AoVKqyGjRpr/PhfYt3PFPeFgSJFiqp69eg1ymOdPM2d9wcO1rWtrzvNq+NfFhkZ5YKqvVSrdh1N+nWKRoz8Qf36vaV7e3RPNMs5fisJH9myZbOef+7phE+m4OgQF/TdvXu3Jk6aoq+GfauRo0brS3fMvnBwuiXuZ/Z020mN6zoNXqUlGw+lRlO0gQACCCCAAAIIIIAAAggggAACCCCAQKoKpMoawak6IhpDAIEkBWzN37GTpsoCvq2aNohZM9gyhS0YbMFiO29BYDtvxaaS9oPISTaezJM1qlRU47o1E6x92/XX6ryihfXye5+q6iUXqXa1ygnW8w8WK1xQ09z00FEu8utnBW/cul3FihT0q3jv2bJm0c3tr9H7Q75TgXx5VdC9KAicjoBNT9vHTXl8c5db9flnn+jQoYPq2u1uNW3aTB988J4GvPOW1+yRo0f07rsfeFnoX3z+iQsa/qz8+Qvojju76vLLa3t11q9fp/79X9PGDRvUqHFTl1W7W61atdall1bR//73mCpVquxlg95+Rzc1aNBIQ774VBMmjleI+zJFq1Zt1OnGzgn2aY1P/nWShgz5wq2H7TJgr71ON3S60esz8MeQLz9XsIK0ePHfWrZ8uWrWrKn77++t7NmzBVbztn/77VcN/XKIW5d7t2q78d/X6wFt375dzz7zlA4c2KcuN3XUy6+8rs2bN+ntt9/wrlm/bq3eG/ihLPg6adJEDf9mmPbv26eGDRvpzju7KywsTH/8MVsTJ05w9xSi5SuW69VX+umJx/uodZvr9O03X7t1vsN19933ulFKn3/+qfbt26vrr79BHW+IfT/2XB532bMD3n3fa9fu6YaO7bR4SXTW7pQpv2mxm3b47nt6qsc93fTKq/307bfD4z0vG7hlCX89bKjWrl2rps2a6957o9c9927q+I82bdrpzTdeV48ePWP+9owbN0bt218fs5/YM4j7bK+8sp43Dfe0aVNVuFAh3eDurXGTpl5Pb77RT/XrN9QVderEfJYmTpqgHNlzqJ3r65prWnn1vnTTKmd1zsuXL9O8efNUsWJFPfb4/5Q7d57AYWv+n/PcdNAb1b373THHa7jn3rx5Cy1dulQ2Fps5wT6zp9LP3Llz9cjDD7jfh0Pq3u0OPfnUsy6zenOsZzt40CfeFOvvvfuW5i9YoAvOP1/d77pHl1xSKWYsCW3Y9NUVKlT0Pkd23gLxjz3+pELdcgMWjF+4YL4eefQx71J7Zq+8/ILeevtd2WfinXfe1D/uvsqUKeM9q2zZs8f7zDZzz9gy2t8dED2uCy+80P0ePKTzzjtPs2fN0rRpvylHjpyaMmWy67uQej/cR9OmT9Mv48Yqa7bsLqv6fl1Wo4bX/8KFC/ThBwO1dds2Va9WTb3ufzDeM/AqBvw4FB4ptyrCKRf7wlOc70F5bcQ9Hnc/OR2d6jWnWj85Y6AOAggggAACCCCAAAIIIIAAAggggMCZFyAj+Mw/A0aAwCkLWIDXAr+W9WvFz/y14KufLWx1LCDs17F320+NcujgER04eCjmdeToifUvy5Uu6QWdWzW+Ul98N1Y7d+9Nsss6Napp1559+vm333XITR+6aOlyzVm4RI2viP5H+cCLLbBc5ZJy2uymk6YgcLoCtl7r7y5g96sLxvV97gXd2LmL+jz6kA66z3SnTl10Z9fuqlz5Uj399HNeF+8PHKA/589T/zfe1k033aye9/bQpk2bvGDb3Xd1U9myF+rNtwaoRIkSLtD7mfa4zEcr8+b94YKiL7ogZC9VrVpNw4Z9qcmTJ7nszTf1zLPP6+OPB3kZkQn1OXPmDL322st65JE+eurpvhr61Rca/8vPXruBP1a7tXBfeul5de58s151gdF/li5xwc3XAqt420uW/K2nn/qf7n/gIQ18d5BWu+l7Pxo8SEWLFtMLL77i1Xm9/9uqU/dKtXEB3DZt2nqBTDtnwV6bWtvupee997l++ruA7N96xe1b2bljp74c8rmKlzhPDz7QW0eOHHWBtymyNYpfermfmw64nRe4/frroXq27/N64MGH9eKLz2u1Ox9Y8ufP7613668xO3HCeO+0PwX0JBdAL1CwoPvSSKRbt3i6109CdhbUtkDivT3vc87PubF9pnkuyBm3NGjQwAUad7jg6WLvlAUdLdjc8nhgNqlnEPfZDnH3v9gZDxgwUN263a3HH39EK45PO23B2R07o/9mveMC7DNnz3TP7DXvWbw74G2Nc8FIK2tWr9Kzzz6lJi4T2z5Pa9asccHs+Jnpq9esUoWLL/aei3fh8R8vuwC8BYGtnE4/tWpf4X3G7Xp77vZ5jvtsLRv53nu7K2fOXO5LEu/rGvelh6533ir7QkRSpc117fSN+xLBwPcGxEzpbV+8qFnzchfwvlj2hYZdu6J/byxYmzVrVi9o/NTTT7jPaFH3ZYmPVNuNr2vX27wgctzPrI2r13093OejkDeui12bliFtx3fs3KFPP/3Y68dcLQjd+tqrdcxNMd7/jXfUsEFDPfzw/d7wD7lZJ7p3u1MdO3bSe+994K3t/PzzJ2bgSOoeEzq3fMth3fjxKl397n/q9fU67T8cHS2e+u9etf1ghdp9uEK9hq2NOV7r9X/18Lfr1fr9Ffpn0yHd9tkqPfTNOjV5Z7m3fSQ89lQZloXc6aNV6vnVWjV4a5m6Dlmt0fN3qeOglbK2hs3a6Q3LHN6euEWt3vtPLd1YvphxYn3swD6t8oQle3XtwBVqPmC53pm4NaHb4hgCCCCAAAIIIIAAAggggAACCCCAwFkkQCD4LHpYDBWBQAF/OmjLELbpoS0b2F832PYt6OtPG23Zw36w2LKDU1r+XrZC9z39WszLgrhxS5sWjVW4QD59NGyUl+0b97y/XzB/Hj3Y7SZNdVO99nzyVQ129Ttd21xVK1Xwq8R6v+m6lrLsYAoCKRV45JHHdP75F3jZtuHhEdq8ZZPL+M3nsghLeMdtSmTLrPz004/Uu3cf73i9+g1c5nBTL7Pwr78WuuDxfi/Qa9dY8NQrx1P81rnMxvtdYLT2FVeoQIECXoB1oAtoWbuWWVz50ku94GHcPq2NoUO/0F139dDFl1yi8uUv0m233alffhkX3X7Az5UrV7qA3fm6tEoVXXhhOT3U+1GN+n5UQI3ozbJly2n0jz+7zM3KLgszzAXV6mihG39oaKgXaMuZM7eKFz9POXPkUJ48eb02rV0Lwlmm/ldDh+gelzlrAW2bkvmJ/z3tps922cH798X0dcvNt8XKDO3arbuXkdnBZf9a6dDhBs+1Tp26KufuafXqlTHX+huN3FTUfxxfn3mSC9R36XKLprrAoBULzNapc6Vf1XtPyG7r1q1exqe5ValS1U3zfJkLfK+KdZ3tZM2azT37Ni5jOzrAbkH6GjUu98Zo55N6BnGf7b69e5XTZfjmzp1Llp371dffqWCh2FNqh4eHexnRjz/2pEqVKuV92eC+Xve7rO/PrTs3rfNOhbjnYZnDJUuWdBm+V2nFyv+8c4E/9rrM19wuEJtYOd1+7NkXK3aeu4fc3nO3z4Zf/GdrU4Zv2bzFZZM/6OoW88ZoweARI77zqyb4bs9g+DcjtWHDerVr20q33tI5Zk1ju9dq7nM1dWr0c5444Re1bBmdJb3P3asFnfMXyK/rXXB24PuDZEsT2Ocy8DO7ePFfWrd+vfc7Y+O6/Y6uXjZx4BrQTVzg2X5PLQvbimW0Fy9eXG3bXe9Ni27rIx91swAcPnJIudxztN9T+xsRmHmd4M0lctCCrz2/Wa9nrimmn/+vnMoVzqIhs6K/EDDmr70adFNJfX/PhcqXI0STlkSvz71oX7iuvTSvxtx7odyfJA1fdVCPtyymyfeXV4jLqf992YnfN+v2mKvzw7qDerX9+frt/ou0bne4eo/brG+6l9Xou8rqCRf8dcPQT4v26N8tRzS6x4Ven6P/3qM5Kw94Iw/sc/3Oo3rVXTPszjL6pWc5zV57QHNXRddL5DY5jAACCCCAAAIIIIAAAggggAACCCCQwQVO/CtfBh8ow0MAgdgClhHsT/1s0z770z/btmUFV7qorJc17AeA7Wo/Szi500S3bdFI9gosPW+NDuoEHvO3P3n9GX9TYaEhevahu2P2bePicmUUWMc/acdffuw+HT58RNmyZfUPe+9x+8uXJ7cGvvh4rDrsIHA6AhYQtRIcHOSyK0MVfiw8XjO2Zuphl6ne8frrYmVglnbT1G51a+qWKl1GISEJf6eqVKky3tTQfqOWbfjM071dgGqnC6IVd1Pujvemy/XPB77blMT26tfv5ZjDldx003HLv/8s8YK7/vELLiipgwf2xwrQ2jkL6r337quaNWeWSpUspZkzfndB3cv8y076vmrVSjc1b9mYehZss6l2N27c5B2rUSP+VPHBwSHeOfPJ7qbzLVW6dMz1Wd2XOY4l4F2vXgMNdBnYli1qa/V2uL6Ty0R+SfXdtNoWuLUAqgU6T1YsCOyXLFmyepmd/n7gu63d+9CD93sB+7FjflTbtu1iTif1DOI+227d79Jbb76hq1s0dwHeym7K75tUNsDLGt26dYs39pLO3y8WoF+5IjrYa0Hg9u06+Ke8gP2xgNkW/BP5CxT0pkH29+O+p1Y/fruBz3aDy/y9sHy5WJ/5cuXKa+4fc/zqib7bFxVefOlVPfHkM/rZZUFbxu6gwZ/psssuc9OIt3UZ7+NUr159LXEZ1PXcVNpWXnz5NZfh3k+ffPKRGrnpyG91X4iwDPW4Ze3aNS5AvUn169WKdWqXC65byZbtxFTpWd3nIZ/7Iob93lsJyxLdnk3BbtnC77np4N/o38+bNr3F1S1dFnLs/455FyXjx4bdxzR1+xEXvN3vvbbvD9eWvdGf3f9dU1zj/tqj9buPauJ/+1U874l7qlsudpC/cO7ocxcVyaqdBxP+7OfKFv036OLCWdXq4tzedNPWZqi7xUNHIzXV9dHxsvxu+vYg95Kur5pP09yxWmVzenfi9zlv9QFN33FUw2dHZwyHubp/bzikmmWi6yXjtqmCAAIIIIAAAggggAACCCCAAAIIIJDBBAgEZ7AHwnAQSI5A3Cme/X0/wGtBYD8A7AeLrY5ND20ZxBm1xA0CZ9RxMq7MI5A3T/T6rL+M/9Vl9RaMdeOzZ8/S9iSmKbfMxcDy1puvq7oLetl6uVYefbR34OlY21WrVXcBqLu8gGisE3F2LFgamJW7a/cuFyjL4gKvsQM3o0d/7zJwV+v7UWO9IJ6trTvup5/itJb4rmVH7thxYjrZAwcPeusKFyxYQKtWrvCyNBO/Ovlnqrn7/vefpRozdoy3tm+FChVctuZmTXBZoo2bNElWQ2XKXOjuMToIfbILLGPYgoQ///yTFi6cr7ffeTfmkqSeQdxnG+kWiLX1fG3d2/nzba3dB13G6puqVSt6LWlrNF++At601rt371RBN4WxlR073Hro7ksBVuyzZkHek5UL3VTkNtX3kSOHveC4X7/HPd29qctr1KyVKv347Qbeq029vHXzZv+U975t21YVdp+PpMrrr7+q9h06esFxyzzu4LYXuHWBp039zQsEN2t2lTed9+gfvldzt95vjhzZvWz8/M5swID33TIEBzXBrSVs61hPmTJDOXPFDpbmzZtPF11UwWXDj4k3jJ9+GqsqVavHO57QgaNuumj7HR3mMrq3bd2mjz8ZpIce6uVmBfgioepJHjvsArBWyhWNDkLbe97sId501Z0+WaVeDQqrc3mb6vxEM/lCooPT/pH2JXP4m4m+X1/qRJ1iuUNVMn/8GTPCXVpwaMCfI/c9LW8c1mhgn4eORal+oSyxxlyyYPz2Eh0MJxBAAAEEEEAAAQQQQAABBBBAAAEEMpxAwD8LZbixMSAEEEhAwA/6WqDXD+7aFNBWLCvYjtm5wIxhO2cB4YwcBLYxUhDICALZ3RS/e49PeWwBp4YNG2vQoA+8wEmUi9p8M/xrrXFB1couQ9cCr7Z+rpV//vknyeEfdoE7y3q3Ymuqjh0zOiYYE9innb+qeQt99ulHOrB/v+3Kgs62dmrccqkLZP711yI3pe1Rbwr2r74cosZueuW4WcqW1XzsmNWJdAHcA3r2mSe9AKvfXq5cOVxAObov/1jge8trrnXrH3/qraNsxz9zGZp169aLCWgG1k3JdpYsWbx1igd9OFAN3NqtVq66qoXL0HxN9a5skGDTce0SrJTIQZv2ul37Di5w+4Dr52rlypU7pmZyn4Fd8MQTfbzPSKiLsFWvXsObgnjbtm0xbdmGBTevanG1PnV29jk6cuSIPvv8E2966lgVT7Jj04BXqHiJ3n7rTS/D2Noa74Kki9znoFr16inqx4Li9hm1dbQTKtWqXaa9+/Z52ep23tbKHjXyO/d5vTqh6jHHbOrsDwa+63327OD27dv057x5ssx6K7Y+dIMGjWQB46uPTwsdGRmhllc38T77FjyuV6+eN649ri0rgZ/ZatWqeVNrm4MV+7x/6D5DloV/KmXZsn/V4qomrq0dLrhd2JtCfdOmDV4Te9w01SdbCzmwr1KFsqqKC8yWyB+mRhVzq3KJbMqWJUj73DrB6112cLNL8qi4O/fUzB1u+uaAaHBgI6m0Xddl/o5100FbNxEuKPyj265d5kQA2e+mesnsXp3LXQawjbmwG79NXW3TSx86mrZj9MfAOwIIIIAAAggggAACCCCAAAIIIIBA6goQCE5dT1pDIM0FLOhrQd4R4yZ7wV0L+toawHaMggACKReoVauWli5e4oJbjb3G+vZ9UWvXrFHTJvXc9LRXurVNZ6lQ4cLeerr9+r2hJ//3mBo3ulKv93vFBbQSz+js0eM+jRs3RnXr1FSPe+/SlW69YVsz1UrcPrvcfKubYriKCxw29QJTNj3uBQFTCnsXuR82zW01t/5q+3Zt1KRxPS1YuECPPPq4fzrm/dprW3uZwnXr1HLBtWbeesaHDh+KOd+6dVs3VW83L8gdczBg44YbOrusympu6uMmzqGhl835wov/z959wEdRrX0c/5NCEgIhNJHei/TeBKkiRemCioCAgAj3FbuigFwLFrAjgggXrHRFioooIKAgCChYiIKASJPeS5L3nFlm2YSEFJKQhN95383Ozpw5c+a7G7mfPPs853mfHim3aQPMthUqVNh5btashfNsg5xxtdh2cfW51L7Wrds4h215Yt+W2PfAnjN06DB9/90Kx7ZZ00amhHVxZ/1c3/Hs9rBhT5n1iv8yho1M5msTFTOlvHv0vCt2twRfv/zya86a1jc0qud8JqdOmWzWH37frO/ryWBP7nXsmtkVKlZUi+aNTdbxpovmERISrDffHKfXX3/F+Sx069rJrJH9H9WoWfOivr47Hjc+4eHh5p4bO5/nNq1vcgL89nPntkbnA//16tV3dtkS0K++OlYjnxqudre0Vof2tzhrYBcsWNA57vuZtQH8N8y8xo59Ta1aNXd8bSc736S0SpUqO+sM39qlk25u28rJUh4x4mlniE8+naOXXoz/M1/rnS268Y0I7yOrqcv8VufC+s+Mv9Vj8lbd9d52nTEZtzlNYLWHKc3c4s0ItR37h9oXyaa9Zm3g1GwdqueSnU/H8X+q3bg/Vb1QNt1QzvNZ8b1uuQIh6lsnj255+0/d9u5WvbRotxME/uqXI3riE89/q3z7s40AAggggAACCCCAAAIIIIAAAgggkP4FskRERESXLl06/c+UGSKQCgI7d+40ZUHDFGLWurTrBdrssPTebHlnG/x1s4Dd+dpgsM36ddcKtusEd27d1Nnn9uEZgSspcPKE5+om4TbdN7sO7bFjx03wKqd3rja70FZ7tmvVus2W5w0MDNLJE8cVFByi+ibIO2vWpypatKjb5aLno0ePeAN2vgfjuua5c5Emu/FEjExV33OeeXqkcufJY4JxgxXfuL79bTZwsJln7Ixh28dmPIaGhjrrCfue47tt53P6zGknCO67/0pvx2WXUnNK6D3wvc6JEyeNbZYYnxHf4+62/SzZ7OG41rt1+yTm2ZMJHhXv9ZJzHZthfPDgQSdL91L/JtqS5KGh2ZP072ZkZJSOHDksW8rZXaPXvc+ZM6c7wefhw0e6u7zP9pzQ0BwXfW7j+sza34Ns2bJf1Nc7WCI2rMHhw0fMPMNi3J+df1y/OwkNecxkAbvr+Lp9T5/zlGu26/amVTtjrmnf00BTGvpSLcqkANsy0aFBF74varOC03Cql5oexxBAAAEEEEAAAQQQQAABBBBAAAEEEimwY/sfCkhkX7ohgEA6ELBBXhsEtgFft0S0DQjPXbTU2W+P24CwbZNGj/D2cXbwAwEEEi0QEGBKovoEge2JcWUXDujf1yllXLZMOc2f/5mqmazZSwWB7Thu1qbd9m1xXdMGC33LFfv2j70d37i+/WygN76WM+eFoHd8fex8AgLSXyQ/Lrv47iGp+5PyHtjyz4lpcX2WEnNe7D62lPalWnKuYwOFuXPnvtSwzrHEfi59B7JBVFsG2rfZ8ucrVq7QhPHj9NprY30PebfDwuL+bMb1mU3M74F34Hg2rEHs33/bNTlBYHte7CCw3RdkMnTTutms4MQ0G6QPDYrZlyBwYuTogwACCCCAAAIIIIAAAggggAACCKQ/AQLB6e89YUYIxCtQpkRRJ9DrBoFtRxv43bR5i/ccWyLaPuLKGvZ2YgMBBFJE4JVX39RcUzJ2xYrlqmtK2rZr1z5Fxk3sILVq1zbZj/EHdxM7Dv0QuFICh02271dffanHH39S11WocKWmwXURQAABBBBAAAEEEEAAAQQQQAABBBDIlAKUhs6Ubys3lViBjFgaOrH3Rj8E0ptARioNnd7smA8CCCCAAAIIIIAAAggggAACCCCAAAIIIIAAAkkRsKWhLyz+lZQz6YsAAggggAACCCCAAAIIIIAAAggggAACCCCAAAIIIIAAAgggkG4FCASn27eGiSGAAAIIIIAAAggggAACCCCAAAIIIIAAAggggAACCCCAAALJEyAQnDw3zkIAAQQQQAABBBBAAAEEEEAAAQQQQAABBBBAAAEEEEAAAQTSrQCB4HT71jAxBBBAAAEEEEAAAQQQQAABBBBAAAEEEEAAAQQQQAABBBBAIHkCBIKT58ZZCCCAAAIIIIAAAggggAACCCCAAAIIIIAAAggggAACCCCAQLoVIBCcbt8aJoYAAggggAACCCCAAAIIIIAAAggggAACCCCAAAIIIIAAAggkT4BAcPLcOAsBBBBAAAEEEEAAAQQQQAABBBBAAAEEEEAAAQQQQAABBBBItwIEgtPtW8PEEEAAAQQQQAABBBBAAAEEEEAAAQQQQAABBBBAAAEEEEAAgeQJBCTvNM9Zr06c5mw0qFVJdapVvJyhOBcBBBBAAAEEEEAAAQQQQAABBBBAAAEEEEAAAQQQQAABBBBAIIUEkh0IXr1+kx584V1nGu2a1NKcd55LoSkxDAIIIIAAAggggAACCCCAAAIIIIAAAggggAACCCCAAAIIIIDA5QgkOxBsM4C/m/GKVq7Z6ASEO/YbmqR5NK5bVUPu7pakc+iMAAIIIIAAAggggAACCCCAAAIIIIAAAggggAACCCCAAAIIIJCwQLIDwXZoGwy2D5sZPHfJmoSv5tPDBoLTuh0/eUp79+5X0cIF5O9/8fLI23fuUY7QEOUKD0vS1A4fOabn3nxPzzzST4EBl0Ua73UXLftB9jpdbm4abx8OIIAAAggggAACCCCAAAIIIIAAAggggAACCCCAAAIIIIAAAlbg4mhoMlzGPNo3yWddiWzgaZ98pdItemvB1ysvmu/mLTtUokkPPf7ChIuOJbTjhAkwj548R2fPRibUNcbx3/7YpmXfr4+xL74X6zZu1rJVG+I7zH4EEEAAAQQQQAABBBBAAAEEEEAAAQQQQAABBBBAAAEEEEDAK5AigeCkBnWTEzj2zjgFNiZNW3DRKFNnLnT2Zc8WctGx1NrxrQnsvvPRZ6k1POMigAACCCCAAAIIIIAAAggggAACCCCAAAIIIIAAAggggMBVKpBidYzbNamV6PLQSQ0cp+R7c2vLBlr03U/auv0flSha0Bn65KnTemfGl7qrfbMYl1r49Xca+94nOnDoqJqYUtbDhtylkOAg2QDu3EUr5O/np1/++EvjRz0U47x3PpirzVv/1vOPDzAlqP01/6uVenPKHJ05d07d2zVXn9tv1gtj39fQV6c65506PUwz3n5ab02ZLb8sWbR2Y4Q2bv5LjWpX1ogHeis0JDjG+PZFfHOzx9b89JteHv+xtu3apxtqV9Gw+3oqmwlwR0ZG6o3JMzXr8+XKlytM99/dVY2uQIluO0caAggggAACCCCAAAIIIIAAAggggAACCCCAAAIIIIAAAgiknkCKZATb6T0+qHuiZnmls4GzBgaob+cb9f7sL7zztYHaGuVLqGyJwt5960ww9u6hr2jkA300a/zTivjrb7084WPn+L8HDunlKZ+oaKFr9N8HY5bFnjJ9gV6ZPEsP9O/mBIG/WblWDz8/3gSF++v1p/5Pb7z3qT75fKn6db9Fj/fronqVy+j1kfc540aY4PGgp8dpgDk2efSjWvfLHxr+0kTvnNyNS81tm1nnuE2fJ9Sj802aNnaETp0+rf8Mf805dZRZx3jl2k16/7UnNbBHB7UbMEJ/79rrDsszAggggAACCCCAAAIIIIAAAggggAACCCCAAAIIIIAAAghkEoEUywiuU61igiQ2a/hKZgPbCZ46fUa9urRSq7se06ODesgGht/5eJ4G3tlOP/26xXsP5UoV1cbPJypnWHYdOmIygutV05ffrvEetxv39urkvN6151/n+ZMvluqB5ydq7adjVeCaPM6+t6Z+oscG3qaqFco4r4f06aRZC5epQ6vGKlboWpUsskcF8ud1jv36x3aVNMHlWlWvc16PevhuNe/1mMYMH+y8dn9cam7T5y5Wt1YN1bpZfaf7sCG9NOH9uSYbOErPTZylnz57y1w3v/PofGN9ff7N97r7jnbu0DxnAIH5i5fptz+3JXmm5UsVU9vmNyT5PE5AAAEEEEAAAQQQQAABBBBAAAEEEEAAAQQQQAABBBDIeAIpFgh+deI05+5tsLdxHOWGG9SqpMQEi1Ob8MzZc6pYzmT/Fi9ogqDfqWxJE/D9Y4cJnDbQDxt+814+MNBfw16cosXfb1CZYgU0f8V6Na5W3nu8Sa2LA989Hh7tHM+fL7e33+zFq2QfD426kNlbr4onKOztdH7jx9+2qnalUt7dJcx1j504qSNHj3v32Y1LzW3b37tVqnghb//c4Tn12OAe2m4yhU+bEtjV2w9SSGCg97hvFrR3JxvpXmDT5i2aNHqEbFB41sJvEj3fts0T3TVddzx3LkoBAUkraHD2XKQCA/wveV/R0dHmSxPRSR7bnhcVFW2qACRtTpeczPmDiZl3YsahDwIIIIAAAggggAACCCCAAAIIIIAAAggggEDKC9i/D9OuDoEsZnnXjNZSLBC81Kyba9ucd55L1wbuL+SAO27Wu9MWqFLZ4rrnttYKyhoo39/VDz9ZpN9NOei18yY4wZ3/TZuvafOWeO/Nz6wPHLt9+9EYjZkwTU+++I43i7dR9fJ6sF9X3XJjw9jdL3pdOH8eHT56wrt//8GjCjBB21Czvq9vu9Tc8uUJ1/6Dh73dbSbwzt37lCtnDmfflq+nyvahZXyB5GYGJ+XO12/8Ta//b5oeu/cu86WJYt5Th4wco1PmiwW25cmV08l479iqucZOmabfzLrZZ86e9fbNaj7DzRvWVuliRTT+g9ka+8xj+nb1j5o6a77JyL/wpYTra1U1Jc3b6sixYxry1Bh1at1UN/tkMNvf3UXffq/536zQ8eMnVbRgfvU0/c+Zz/jo8e8513Ov6447etj92rVnn96bvcCUQd+jsBzZ1axBLd3S4gb5/gfb/p58PPcLM691ZrxIZ/3wPl3bm8z+vLrncc9/02KPPfDOzqpQtpRmzFuk5Ws36JwJNFcqW9JUHLjZVBLIoZ2m7PrTr3u+AOLnl0XXmrGa1KupG+rW8Npc6l6/+naVFny9QoeNR8H8+dTtlptUuXwpZ9xhY8Y5Y7j3mcWMP+7Zx73jsoEAAggggAACCCCAAAIIIIAAAggggAACCCCQugJuvMmNLbmvU/eqjH4lBC7EEzxB/wuvr8RsknbNFAsEu5f1L9PS3Yz3+bsZr1zx7OCbWzTUf/47TkvW/KIN896+aK6nT53R6TPnFBUdpZPHT6vvk6+pQsnCF/Xz3VGtYlmNf/4h1elwrwn2VFH7m25Qx5sa6pV3Z6pJ/RrKkT2bln63TidMAK1103oKCQkygd8L2b71qpTT+JlfmOuedUpWv23KSndpVueiLMNLza1Ns3rq9n/PaHDvLrrWZCZP/2yxKX09X19//KraN6mtl97+yKxXPMAJgk02+xvXr2YyiC99X773yPaVFyhbsrg6myCpbbbcs30kptnzktqW/bDeOWX5mvUxAsFnTWa9/R2qV6Oq9v67X2+bAG9oSIj6dmtvgsCR+vWPPzVp2lyNGNJf2UNDFZw1qylnvcUbII4ygVf7ZYpnH7lQ9jwoyBMU/v7Hjc41l32/Tm2bNfIGbFdv2KRPvliiwXd1M6XNCzhB4RdNAPilof/nHeeZNyaqRJGC6t6hjTNGtuBgvWGC0/WqVTLrmN+lXXv/1UvmnGvz5lWd6hey+pet+tGsn/2TnvxPX9ks+unzvtTrkz7WqMcGe8ee8/lirfnpV+9r+/s8a+Fi/fTbH3rsnl7KZr6wMXXWPL05ZbqGDu5jvlgS7dzvg/3v1DV5c5sA+VZNnv6ZCS7nU5kSRZz5xXevP/78q2YsWKzBPbuqdPEisv6vTfpQY0xg2/0fE0P63KFCBfI74/ADAQQQQAABBBBAAAEEEEAAAQQQQAABBBBAIO0E7N9pbQDY82yDg/a1faZlRgFP4DeLE6/wbEd7Yxfp/X5TLBBsM4Hd8tAJ3XR6KBGdzQRh+93a0gSstqt4kQIXTbnrLc01d/FKXVOri7IFZ1XvDs319fms54s6++zImztcH7zyuNoPeEpVriutgT076Z89+1WmeS+FZQvWNblzatJLjzpnNKpbTY+8MFFlmtypiCXvKzgoq26ofp1q33KPyYo8rgImkDtt7Aif0T2bl5pb7WoVNPSe21TTjJEjNEQFTPbvpNGe64199gENeuJllWx0hyJNGdumdSura7vmF43PjvQtUKZEURNILJrqkzx89JhZNztCPTq1NdnwX+qOdq0UHBzkvW5oSDblNdnA9lGhdHFt+2eX+bJDqHM8Ty5P1rn9fYid0e4OEGLGypMrzH3pfV5usnK73dJSc774Rr9v2WYC3cWdY0tWrlGDGlVUoUxJ53Xrptdr7/6DOnT4mAmIXuPsy58nl/KZa7rj2rLKNnM5b+5cCjFB4ZJFC2twr64KOz9P5yTz4/iJEwoyv395zO+n7dexVVNtNte2mcLuWHYMG9B1X9tji1f8oN5d26loYc9/Q25v30pPvDjWlGLfLf/zVQPCw8LMnMy86uTSjPmLtf2f3d5AcHz3utQEpmtXuU5Vzq8tfmOjurIFJ9wsbDvvPD73aV/TEEAAAQQQQAABBBBAAAEEEEAAAQQQQAABBFJfwA0CR0VF6cMN0XrxZ3/9cTbjlQxOfanMdYXSgdF6pHKk7qiaxUl0s8H/jJAZnGKB4NXrN3nf0SF3d/Nuuxv2+Mo1nkw/d19aP/e5/WbZh9ueeaS/u+k8P/fYAO/r8JzZNW/yCzpmStDagJXv2p8dWzeWfbitQP68ioz40n2p+jUra++aWd7XLwwdqGcf7a8TJ06Z0rSeQJk9WKxQfm1b8ZGOHbtQDrrlDTX1+OCeOnzkmCkvm907xiP3dvduX2puttPdd7RTn9tuNsGtU04WsntigWvyaPY7z+r4yVPyM3XM7X3RMp6Auy5wRVOG2K4VnNhm+z/Yv0diu2vVup+dksRN6tfUZ4u/1dqNv+r6WtW85+/au0+79+3XXvPYaObRsWUT77HEbBw3619/vmSFt2ujOjW078BB7TSlnBvUrKIdJmC6wmQku4HgXeY6NSpdWKc7yGQZ97+jk/f8uDbsmsC3tbtJH37yuQlqbza/m1VVu2pFJ+Pet3+T+rXMGuG/6NHn39D15toNa1VXbZNFfKm2/9AhEyiONEZ5vd3y583j/AOw22RJFzKZv7btNlnIdtmAX4zRCfO7V6aYJwP/r7//ifde9/x7wFm/3J5v1zU/Zx7WPtCUsN9jxrNt4sdzTHnsa53tWlUqOmWjnRf8QAABBBBAAAEEEEAAAQQQQAABBBBAAAEEEEgVARsEjjKJdlFRkfrABIHvWZc1Va7DoOlPwAb7+/8YYCoJn1H3qrbqqb95KN0Hg1MsEDxq7Aeau2SN887EFQhO6Hj6e0s9M8pusmpTogX4+8cIArtjBgYEKFf4xVmRvkFgt2/s50vNzZbdtaVr42qhIcFx7WZfBhOwQV03KJwaU/921XrnSw32Gy31a1Qy6+eujxEI/mr5atmHbQ1rV1Oz62sneRr79h/ynnPu3DnzZZENqmgyfm1mcZ2qlfTWezNMmefWTiZyFlNVwxRe8PZP7EazBrVVuVxprTDllWct/FrzvlqmRwb2MutmX/i9yx6aTcNNGev1m37TClMievjLb6tLm2amhHvDeC/jVvnwnZN3nXifCiBjp073jnFvjy7e7OFL3av5IpH9MpHTbEnqpd//qFOnzzhrItu1lm0rWaSQCp8vDR0eduELJs5BfiCAAAIIIIAAAggggAACCCCAAAIIIIAAAgikqICbCRxtlhS1yyeO3kisJUWBM8hgozcGqmuFU8qaNYspB+5vZp2+M4NTLBCcQd6fdD3NhnWqKDSU/3Ck6zcpHU3OBoF/+3NbqszIk626VzPNOrU2G/i0CULaZjNV85vyyLbZktFNG9TSm/+bpn8PHEryt15syegends6Y9kf50wZZzewPPCJUc4/pLa0xpqffzGB5urKb0ql7z1wwNvfrqU9a8FXalq/tmxWflztwOEj2vT7H85axh1uaqo2Zs3hYaPf0jffrVGnVs28p2zY9LtymGz9mlUqOI+lq9Zq6sz5JrhdRzbzOK6WJzzcyf79x2ToFjtfGtqWqrZzviZvLu8pTz90rylNHa7HnntdNqvZtoTutcA1ebXTZFzb1u2Wm5zHvU8+77x2f9i5FbrWk3Xs7uMZAQQQQAABBBBAAAEEEEAAAQQQQAABBBBAIPUEPBnBUaZa5FlTDjplEglTb7aMnBoCNjPYvv9RUf4mLuKX5NhIaszpUmOmWCDYXSO4Qa24y6kmdPxSk7xajnVq0/hquVXu8zIE2ja/wZQNLu6MYJ/b3ZjynxubrZozLIeeHNzHuY5NTn3qlfH6bu0G2YCqb+vYsqmGvTxOP//252WVJ97wy2Zn2KfuHyA3a/29OQv07ap1TiC4Ud3q+ujTL0xQt7IJgF6jRd9+r2XmmG9A13dedtuWQJ86a4HOnjmnJiYz+KhZ9/jUmTMKDgyM0XVTxBb9GvGX7u/fXTmzZ9fBQ0cUYMpK29IO8bWAAD81MyWlP1u0zJR5v9asyZ1NM+YtUnETFC5euKB27trrPTXIlHRu17Kxps9fpCb1apr1h7c7x+K7V1uO+80p01XXZEVXLl/GBNoPOsFj74Bm4+jx46b8e3bvrvjWYvZ2YAMBBBBAAAEEEEAAAQQQQAABBBBAAAEEEEAgRQQiz0WlyDgMkjEFnPc/g6y+mmKBYPtWxVUS2vctTOi4b1+2EUAgboGIrZ4gYtxHL3+vzVZd+ePP6tCisfKYTFa33diorgnKrjeB5ybuLue5UMFrTOnoypppgpyVypVM9rdflpvSzXYN4KImqOq2Vo3r68W3p2qPyaRtYNb3tZnHo8e/55RJLpT/Gj00oKdTNtrtH/s53ASz/3NXNyeA/MGnnzuHa1Ypr2YN68bo2rlNc30wZ6EeNVm7NqM3Z44cGti9s+waw5dqnds2dzKXR746wQnUlitZTIN6do3ToGGd6lr4zQqTYb1MtiT2pe61WsVyuqNDK02aMddZQzwwMEB1qlVwymUfOHTYmdKL46bEmNo7LwyLsZZ5jIO8QAABBBBAAAEEEEAAAQQQQAABBBBAAAEEEEgRAScr2JSHpl29AlHm/befg4zQskRERESXLl06I8yVOSKQ4gI7d+40gcQwhWQLNdmfZrVX7yKvKX6pFBvQXRe4c+umTmnoTZu3JGrsimVLyq4rnNGb/Y/rmbNn4y3ZHN/9nTx1ygR2s5pMX7/4uigyKlqnT51WtmxJK9Fuz4uMjFRWE7BN6XbCzDskKChDfDYTuveTJzw9QuJevjyh0zmOAAIIIIAAAggggAACCCCAAAIIIIAAAghcMQFPWehokxR0VsdNxcaCszzLKF6xCXHhKybwT+cDZqnXUBNvCEzXsaUd2/9Q/BGRK8bHhRFAIDECtkR0+VLFEtM1U/Wxwfr41u291I2GBAdfMghsz/U3XwZIahDYPS81gsB27Gxm3hnhCwp2rjQEEEAAAQQQQAABBBBAAAEEEEAAAQQQQAABBBBIPwIpn76Wfu6NmSCQqQXGTHgvU98fN4cAAggggAACCCCAAAIIIIAAAggggAACCCCAAAIIIJB8AQLBybfjTASuiIDNBLYPGgIIIIAAAggggAACCCCAAAIIIIAAAggggAACCGRMgXfqeebd7/uMMf9r/aXdkZc315QY4/JmcPWdTSD46nvPuWMEEEAAAQQQQAABBBBAAAEEEEAAAQQQQAABBBBAAIErKFCzYMpc/OGy0os3Sv3mShN3XBgzepBn++hpaetB6a010vhtnn0bu0gV80snz0p/H5Hm/S49sd68jr5wvt2yQcSXa0o9qko5Q0zfQ9JL30lvbPH0i7hNWvKXdM4EiPuYfgFmQVqzAqPTzph928x1y04z8zPn9zPHw80YOw9Lr60242w2+6tJD18v2b5uW7dTen6VNK2TZ09klGeOs36RHv9J+u4Wu8yjVOdT9wzJBtU7V5AqTJF+6SXlMtfxHbOvselj5nD9+dU2rckve6VHlkrfH7swTmbcIhCcGd9V7gkBBBBAAAEEEEAAAQQQQAABBBBAAAEEEEAAAQQQQCDTC3Qu57nFLtfFDARHmaDu9I3SFPO4yQRA32xj+i3wBIOPmEBoxH7pns+lGvlMgLWRJ3jae2VMrodMkPme2iZYu0habAK0AypKr9wk/WBWrrQB1CCTJWyDv2PWSR+ZwG6wef3F7eZaJst5xh+eYGyHa8z5DaURX0sf/yn1NfN8voUJ6O6WAk3Q2M7zxo8uXPfEOaloqJTVjDVovvS7CRw3L+KZ4+8HpC9NEPrJxlJVE+zdcNJz3o2lzHjbPRnLWU3k8yMTMH7bPNy22cx1gBlv/T9mLib4m9+cO9Lc81stzf3PdntlzmcCwZnzfeWuEEAAAQQQQAABBBBAAAEEEEAAAQQQQAABBBBAAAEEMrFAvexSbRMkHbNCGlzXZN9mlTaf8dzwSRNQ3XlE+twET+2jbB4TWDVBXZsVHGmCr7uOSl+bDF/7CA30BFeH/yDtMFnCbutismyX/WUyeE0A17ZHfpTMqQo31/Ftv5nAsn3kM8FW27absZeZAK5tvcM9z7+b7GA7t2d/lg6bvnYOth03+9y+nj2eQLDd3nncBKDNefYxqI5UJZ8J8NrMYBPE7VzSBII3Sa1yS8XMNZ751j1b+sfn+hf2Sqciz1/LzK1OhDTQeGT2RiA4s7/D3B8CCCCAAAIIIIAAAggggAACCCCAAAIIIIAAAggggECmE+he3gRdTVBz2AbprupSz7ImoGsygONqm/ZJTUzwNK621pRJtpm9tU1QdceeCz0KhUnrTOaubUVMsDinCfROMMHXf32CxZ6j8f/8eKfU3QSS3+8g9TdB6Nm/mZLQ5mHi1OpqHjmCpIU3Xjj/JROMdlv5XJ6AcYuiUnYTfP5+lwkmmyDyCpP928Lcy3Azl3alpP0npA92uGdJD15vSl/n87zebDKf7zMBbNsKmMB56zwmYB0stTd26814mb0RCM7s7zD3hwACCCCAAAIIIIAAAggggAACCCCAAAIIIIAAAgggcMUE7Bq2sdcErl7AM50fO8Wc1tp/zHq638fcF9+rduVMENVkttq1fReZYKsNbsYXCLZr95r/j7P5nz9gYsExm885YxpIN5vrhZiA8EsrTHbw+phd43tl59bClKDuVcgEfk1Z6DEtzZrD5h5bzr9whg1Su+2ICTK7GcfP+wSIh35lSl3v9vT6dLMJJreQSpvgsA0If3HewB1j+yHJHXOHyQ52W5m8pjx1RyksyGQlm7LSnT5xj2TeZwLBmfe95c4QQAABBBBAAAEEEEAAAQQQQAABBBBAAAEEEEAAAQQyocDt15oSyuFm7dvaJshqsoGDz0f8Wpqs3i9NKejYrdI10tY49tt+Nc2xyCiz9m+s43+bgGopk5VrW9el5od5HO/vvEz0j9tNwLtwDhM8NsHbKTulNmY94fm3mWBwMc8QR02G70PrYw5n1wi2rcN0k7Vr5rC+hwn6mvty2wdbpf+alOIhVSQb3H30G/eI53mGyRSOPaY9suwvqbEJQL9WQ+pT09M3s/8kEJzZ32HuDwEEEEAAAQQQQAABBBBAAAEEEEAAAQQQQAABBBBA4IoJxJXh62YC15idvGndarJrD5is1s7nz7fZvHNvNWWYzf4vTcZuVrMjdzapmQkWtzNZsy3LmBLJCz3XsgnAuUIku8bw9SZQe199adrP0jaTjevbpv0iPW8ybx8y504yGcd1zFiB9kJJaEVNEPi/zaQ9x6UZJhO4ZJjn5GNmbWDbbAC7qpmn205HulueZzund380awSbNZDH/SStMePsM32+NsFgu2+rWT94jilt7dvsvfmOueOU71HpBTNO96pmreFa5nl5zGOZ7RWB4Mz2jnI/CCCAAAIIIIAAAggggAACCCCAAAIIIIAAAggggAACmVagoInu3VjaBGfXSktMxqzbbCasU755pQnYmvV8e5tM4e5VPJnA95vyzG9s8fQMC5Yq5zdr7faU/j4svbdeetiMFbuNNiWX7bq6w24wpZhbSmdNAHaJCcBO/S12z/hfv2AygYvnlMa2kSYHesb4n8kKttnB1Uwmsp3n+t4Xzt+4Rxqx7MJruzXaBKnvtIHbOibwfT77d46Zgy2FbUtjx259bMavebhtwDx3y/P8j8kmnmDu96EGnuDy8iMxj2emV1kiIiKiS5c2nxYaAlehwM6dOxUcHKaQbKHyMwXys2Sx34OhIYBAagicPOEZNcTn212pcR3GRAABBBBAAAEEEEAAAQQQQAABBBBAAAEEUlogOjpaUVHROnfurI4fP66Cs3Jf1iUuNyP4si6ejJMrmODxZpNZa2KoyWo2M7WCydSNMGPYdYMzcvun8wGFhoYqICAwXceWdmz/Q9adhgACCCCAAAIIIIAAAggggAACCCCAAAIIIIAAAggggAACCMQp8IsJ4F5OswHkn05ezgicmxwBAsHJUeMcBBBAAAEEEEAAAQQQQAABBBBAAAEEEEAAAQQQQAABBJIpsNasl0tDILUFCASntjDjI4AAAggggAACCCCAAAIIIIAAAggggAACCCCAAAIIIOAj0O97nxdsIpBKAn6pNC7DIoAAAggggAACCCCAAAIIIIAAAggggAACCCCAAAIIIIAAAghcIQECwVcInssigAACCCCAAAIIIIAAAggggAACCCCAAAIIIIAAAggggAACqSVAIDi1ZBkXAQQQQAABBBBAAAEEEEAAAQQQQAABBBBAAAEEEEAAAQQQuEICBIKvEDyXRQABBBBAAAEEEEAAAQQQQAABBBBAAAEEEEAAAQQQQAABBFJLIFUDwavXb0qteTMuAggggAACCCCAAAIIIIAAAggggAACCCCAAAIIIIAAAmkqkCVLFtn/o129As4nwHwOMkJLtUDwqxOnqf6t98s+0xBAAAEEEEAAAQQQQAABBBBAAAEEEEAAAQQQQAABBBDIDAI2GFwyICoz3Ar3kEQB+77b9z+jtFQJBHfsN1QPvvCuY2Cf/cu0FNnBGeUjwTwRQAABBKH1pXMAAEAASURBVBBAAAEEEEAAAQQQQAABBBBAAAEEEEAAAQRiCzjZwCYI6OefRQNLHo59mNdXgYB93+37734W0vstB6TkBG2w12YBx9Xs/jGP9tWQu7vFdThN90VHR2v7P3sVGhKkvLnD0/TaXAyBtBKI2LpdcxctdS63afMW5/nxQb1VpkTRtJoC10EAAQQQQAABBBBAAAEEEEAAAQQQQAABBBBAIFMIeLJAo00A0E/+AYHqXOaQdu/Zq+lHSmpHdGCmuEduIn6BIlnOqmvYFvO+5zDvf7jzObCJwek9OzjFAsG2BLSbBRwfk3v8SgaDV/zwk+56+EXlCM2mYydOKl+uME0bO0KFC1wT37Qzxf7pny3WjTfUUa6cOTLF/XATlxaYv3iZZi385qJOm7f8lW4DwfYLGlFR0fL3T5VCBRdZsAMBBBBAAAEEEEAAAQQQQAABBBBAAAEEEEAAgaQK+Pn5KWtgoLJnD9WdlQ+r2c4lOnPmjOzfuGmZU8AGe7NmzaqChQo777t9/+3nICO0FAkEJyYI7GLYYPDSVRs0553n3F1p9rx73wHd3G+4Zr81TE0b1HSuO2bCx7pt8H+1fNabaTaPK3GhAcPe0PJpLxMIvhL4qXxNm/lrm830dbOA3Qzg5F56yXdrNHXWfOcfs9zhOVXlutLq0LKJgoODtHPXXg0bM84Z2v7HzrYsflk07tnHNeHDWfrx59+dfUHBWVWqSCHdevONKnBNXueYn/mm1N23d3SOuz/Onj2nGfMWafnaDTp3LlKVypZUry43KyQkRMNGv6V61SurY6umTvftf+/Sc2Mnm8oCd+jrlau1ZsOveuzeu1S2ZDF3OH2x9DtN++xL3d7uJvPlh3rOdb//caNzL26nDjeZewnKqo9Nv0fu6amSRQs7h+y5y1evV69bb9bo8e85+86cPes8u/c6etj9yp4txB2KZwQQQAABBBBAAAEEEEAAAQQQQAABBBBAAIGrRMDNCvb3DzB/Lw9R4cKFFB4ertOnTysqmjWDM+vHwMY2goKCnCBwUFCwSWgLMJnA6T8b2L4flx0ItuWg3UzfxL7Bc5eskQ0ep3Vm8HuzPtfNjWt6g8B2vv3vaGfK567Qvv2HlC9PuA4eOqJnXpuilet+VcnC+fXwwDtUrWIZ59bufvgFNbu+umYv/FZ/7/pXXW9ponY3NtBTL/9Pm//aqab1quq/D92toKyBemvKbPmZT8HajRHauPkvNapdWSMe6G3KUQc7Y322aLkmfjxfh48eV5smdTWkXzcTqArQ/oOH1OehF3Rvzw567d1ZOn7ypB7q30233NjQOe/g4aN65tX/OfO7rlQRPfVAHxUtlF/fmuD6l8tW65q84Zo+f5ly58yu5x8boGzmeoOGvaIjx0+oXtch+nD0w2asRvph/S8aNfYD7dp3UA2qX6fh9/dWzrDszjX4kTEEbNB3lAmK2ta5dVMnEOy+rmiCqe1ubCybAeybGdy2+Q2JurmoSM8/WM88MkiHzGduxrwv9dqkj/TIwF7ebzUN6XOHChXIH2O8syaQe12ZErqzY1udMv/wLfj6W7341hSNGf6A7DE/v4v/IZy1cLF++u0PPXZPL2UzAdaps+bpzSnTNXRwH7Vq0kDTTZC4ZaP6Cg0N1mdmvFLFCqt8qeJavGK1c+3la9bHCAQvW/Wjsz8yKtJ5tte1geJ+t3fyzjVbSFZ9t+Yn8y2ts5o6c76G3dfPyUSOMufYwG/xwgX17CODnf7PvDFRJYoUVPcObZzX7u+wdzA2EEAAAQQQQAABBBBAAAEEEEAAAQQQQAABBK4aATcYHGDKQ9us0MDArIqMNH+PJiM4834GTLzP399fAQEB5j33zzBBYPuGXHbecp1qFRUZ8aXaNamV6Df4uxmvpHkQ2E7utz+2q3qlsjHmmSN7Ni2d8YYTBI6KilLH/k+aiH6IZr49Ut3aNVOLno/orx27nHNmfLlSD4x6Ry8OvUejnxyoh198V+Vu7GuCY7drypjH9PmyNSZotdjpG7H1bw16epwGdL9Fk0c/qnW//KHhL010jn2xdJUeePZtPfmfHubYYyZYvFmPPvuWc+zMmXOat2yt5i1aqbeevd85/7YHX9QJU8bazu/WgSOcudr5Va1QSh36D3P2/3vgkJ6bMENhoaF6/7UnVaZ4YT1kxix4rcnEfP4hz/xfe8IEsmuZ4PIptbxrqPp2a6tZ40eawNc5DXnqDacPPzKGQOwgsA3wjpngyWC1d2CDwDZD2O63QWHb3GfnRSJ+hJqgbN5cOVXafJb6d++i37dscx7uqXnM+tp5TGl19+Huz5o1wNlX6Np8uqlxAx0+dkx7/t3vHo7xHGkCzotX/KB2LRuraOECzprdt7dvpT+3/a3tO3ebL1DUUM7s2bV45SonE3ntT7+qS9vm3jFsQNh+GeXU6TPOvi3b/zZfrjjmfDnC28ls5AwL9c7Tzjck2POFjCCTFXzc/G4t+vZ73+7mP+b+3v758+RSPp97Te/1/mPcCC8QQAABBBBAAAEEEEAAAQQQQAABBBBAAAEEUlzA/p3YZoTa4GDWrEFOdnCQyRDmkTkNbPa3fZ/t+23f94wUJ7jsjGD3t8eWek6oRLQNFl+JktDuHA+YbN+w0PhLutoyszv27NfwIb2dN9MGsnqsXKcpMxaabN4+zprCYx7tq5LFCjmPLCbqf0P1ck7ZXHuNm5vW0W8R25zL/WqCziULXaNaVa9zXo96+G417/WYyYwcrHHvfaonB3dX7WoVnGMvm33FGvfQyAf7Oq/tj+dMNq8NUtts395DX9Pfu//VkWPHteXv3SZLubuZn5/u69tVoyfO0q8Rf3nP69XVk7V4mwlitx8wQoHm2wkF8+cz951NRQrkkw3u2aziY6fOKCxHqFOy115r+8493jHYSP8CbuavnakN9to1geMrB+3uL1/qQvnkpN6hDZ7a9Q5sWehy58swT/x4jooWvNYZqlaViqpcvpSzbb/McOrUaZ05d1bfr/vJ/Mcx0AR4c8V5yf2HDjnflCqYP6/3eP68eZxvUe02weNiJjjcqVUzTZ09T1t3/KOaVa4z2bmFvH0LmpLTNvN47c+/6vpaVZ0s3wY1qpgMfc/vodvRZsAHZ53rvAww39DqYUpP2xZg/qN9Z6c25ndypmpXqcAXthwVfiCAAAIIIIAAAggggAACCCCAAAIIIIAAAggkJHAhGBh9PjBoIoS0TC1w4T3POLeZIoFgGwBuUKuSN8s3rlLRNoDqloK+EmWh7VtyTd5cOnjkWLzvztYdu1WpdFEnCOx2qlCmuJat3uC+NAHggt7tri3qquUNtb2vg8xC0UePn3Re//jbVtWu5AmM2R0lihVwAslHTCnoX/7cocdLFvGeZwPOOUwJ5x3/7FHu8DBnf6ApE22bZ9Fxf5015Wq3bNupbaYkdYG6tzrH3B/79h92Nn3XLbXBt1MmIBdXy5Uzh+aPf0pDTYbyblMaumubRnpwwG1xdWVfOhRw1wS2U7MloW3zLf9sX9tAsc0AdoPAtl9iy0Lb8+Nq0SYj3Xex+5ImIFv4fGnocJNx67YNv2zWvU8+72TVFr72Gj3Yr4f5QoK/ezjGs1spw3x3yrvffpvGadGeJ/uFiQVLvtVPv0bomYfuPX/Q83Tm3Dk1qlNDK35YrzpVK2rljz87a/7+/PufMfrZ3yNb7tk2P3/3Ap4uVSuUVZUKpfXenAUqa7KoaQgggAACCCCAAAIIIIAAAggggAACCCCAAAIIJFYgIwYHE3tv9Mv4ApcdCPZdI9gN9tqgcP1b7/fq2FLQtoS07eu73w0Mezum8kbFsiaou+qnGFex2bH1Og7S8hmvO+vr7tgds4Ttrr37naxZe1I5E8wNNDXfE9MK589jStSe8Hbdf/CoAgIDnYxce2zv/oPeY7Y0rV3DN58pQevUkfceiblhg8TVyxXXmnkTYh4wr+YsXKo6lUpftD+uHafNuqj1alTUtzPfkL2/V96ZrjsGP63P3x8dV3f2pTMBW/J50ugRThawmw0c1xTdILANCF9uENiWHref04LmSwtua3Z9HdkvMcRuNSqV1z13dnG+xODnFzPoGrtvnvBwp98/e/91sn/tcfu7Ycug2y9u2Gb/Ea1WoZxZzzdSBXwyh+0xm3Vcp2olfTT3Cy1a9p1TytpmEZ815c59W80q5c3a4PGXr7+jfWsNfeFNHTpyxPc0thFAAAEEEEAAAQQQQAABBBBAAAEEEEAAAQQQQACBDCuQImsE20CvLftsM4Fttq+7brANDLtBYLvfDQJfqTWCe3S6ScvW/uIETW1m4zmzePeLb32ocsULOuvu1qleUYfM+qLzv1rpvKF/mzK4k2Z+oY6tGib5Da5XpZy++2mzbNDVXuvtqZ+oS7M6Tknn225uqtcmz3HW/bUDvzpxulo3rO4NfMV3sTomM3KPyf799ItlTpcTJ0+b+X/grPkb3znu/nCz7vHRY57A9Mbft6hMs17at/+QCXLnUZN6VfXXrn1uV54ziEBigrs2CPxg/x7JuiMb+D1mvqAQsXWHxn8wS6XMWsHXlS7hHevo8eNOcNj2sw+3+Qf4OdnAcQWBT544fdE5zerX0meLlumfPfvMZ/S4ZsxbZLJ3C3gzeD3jxhNQNlnDoaHBpmR0ec3+YoluqFvDnUaM59jXtb+Xvi08LIc6t2lBiXRfFLYRQAABBBBAAAEEEEAAAQQQQAABBBBAAAEEEEAgQwtcdkawvXsb+PVdI3jpqg3Oazfjt2O/oZq7ZI0TLL6SawTnMhm1i99/UQOfeEWDR451ArTN6lbRe68+6byJoaY88+xxI3X3oy/pgefeNqWcT+mZIb1Uv2blJL/JwUFZzfrB16n2Lfc4a/sWyJdb08aOcMbpc/vN2m7KQNtgbHBQoK4rWVgTnn8owWvYNX3njHtK/Ya+rEdffNeUuT6uB3t3lJ13Qq1Hh+Zq22+4Xnq4j+z1nxjYTfU6DVJocLApIX1G458dktAQHE+nAm5AOHZ5aDcIbEtJ2yzi5LT/G/GS8oTnVNXryqhT6+YxFkB/cdyUGEO+88KwGK/jerFx85/6z/AXvYce6HenOrdt7mTwjnx1gs6di3TWIB7Us2uMa3lPiGejYa1qsmt8161eKc4esa/bvmVj5ciWLUbfpiYgvXLtBh07/4WJGAd5gQACCCCAAAIIIIAAAggggAACCCCAAAIIIIAAAghkMIEsERER0aVLJ66kcGLuzWb+umsE24xgGxS2QWC3bHRixkiLPjaDMTgoyMnQjet6di3fHNmzJSkY5TvOA0+9oXx5c+rxwT112KxLnDMsu+9hZ9tmJJ8+fcYpF33RwQR22DGzh4bEWM84gVNky2DbcwIDPPF/m6l8yOwLN2sGX6017Hfu3Kng4DCFZAs1JYrNSrXeBWoT0ryyx21wd+6ipSpfqpgzEbdEtA0G2wBwuxsbO8Hf+YuX6bc/tyU7Kzgt7zIyKtopjZ71/PrYaXltrpU2AifPV8sPiRmDT5uLcxUEEEAAAQQQQAABBBBAAAEEEEAAAQQQQAABBK4igR3b/1CKZAT7mtksYHeNYN+AsJsd7Nv3Sm6HZgu55OVt9m1KtbiCwHbsAH9/BSQwj/jmEN+Y8fW3+3OZgK9vs0FPmyVNy3gCo8ZOdiZt1wH2rAEsZx3gsiWLOwFgGygeM+E92eOdWzfNEDfobwLx/n4p/p+kDHHvTBIBBBBAAAEEEEAAAQQQQAABBBBAAAEEEEAAAQQQSGmBVIm6uGsE2+xgGxS2r6+21rBOFWft0qvtvrnf1BewWb6+zQZ73fLPtgS0GwB2+7ilo93XPCOAAAIIIIAAAggggAACCCCAAAIIIIAAAggggAACCGR+gVQJBLts6S0L2J1XWjx3atM4LS7DNa5CgdhrAVuC+NYAfnxQ76tQiFtGAAEEEEAAAQQQQAABBBBAAAEEEEAAAQQQQAABBBBI1UAwvAggkLoC7nrAvlex6wPb5q4T7HuMbQQQQAABBBBAAAEEEEAAAQQQQAABBBBAAAEEEEAAgatDgEDw1fE+c5eZRMCWgLbB3/KlisldDzj2rdns4Af794i9m9cIIIAAAggggAACCCCAAAIIIIAAAggggAACCCCAAAJXkQCB4KvozeZWM74AQd6M/x5yBwgggAACCCCAAAIIIIAAAggggAACCCCAAAIIIIBAWgj4pcVFuAYCCCCAAAIIIIAAAggggAACCCCAAAIIIIAAAggggAACCCCAQNoJEAhOO2uuhAACCCCAAAIIIIAAAggggAACCCCAAAIIIIAAAggggAACCKSJAKWh04SZiyCAAAIIXGmB6Ohomf93mt2mIYAAAggggAACCCCAAAIIIIAAAggggAACCCCQkECWLFmcLvbJ3U7onPRynEBwenknmAcCCCCAQKoJREVFK8A/WoGBbiEMzz/cqXZBBkYAAQQQQAABBBBAAAEEEEAAAQQQQAABBBDIVAJnz0bpXKTk55dx/r7s/kU8U70R3AwCCCCAAAJWwGb+njP/MkdHnfUJAmODAAIIIIAAAggggAACCCCAAAIIIIAAAggggEDSBGyikf1bs/M35wxSdZJAcNLeY3ojgAACCGQgAftvcWTkOQUHUwAjA71tTBUBBBBAAAEEEEAAAQQQQAABBBBAAAEEEEiXAvZvzfZvzhkkDiwCwenyY8SkEEAAAQRSQsBmBNuy0H5+/HOXEp6MgQACCCCAAAIIIIAAAggggAACCCCAAAIIXM0C9m/N9m/O9m/PGaHxl/GM8C4xRwQQQACBZAtklH+Qk32DnIgAAggggAACCCCAAAIIIIAAAggggAACCCCQZgIZ6W/OBILT7GPBhRBAAAEEEEAAAQQQQAABBBBAAAEEEEAAAQQQQAABBBBAAIG0ESAQnDbOXAUBBBBAAAEEEEAAAQQQQAABBBBAAAEEEEAAAQQQQAABBBBIMwECwWlGzYUQQAABBBBAAAEEEEAAAQQQQAABBBBAAAEEEEAAAQQQQACBtBEgEJw2zlwFAQQQQAABBBBAAAEEEEAAAQQQQAABBBBAAAEEEEAAAQQQSDMBAsFpRs2FEEAAAQQQQAABBBBAAAEEEEAAAQQQQAABBBBAAAEEEEAAgbQRIBCcNs5cBQEEEEAAAQQQQAABBBBAAAEEEEAAAQQQQAABBBBAAAEEEEgzAQLBaUbNhRBAAAEEEEAAAQQQQAABBBBAAAEEEEAAAQQQQAABBBBAAIG0ESAQnDbOXAWBNBGI2Lo9Ta7DRRBAAAEEEEAAAQQQQAABBBBAAAEEEEAAAQQQQAABBNK3QED6nh6zQwCBhARs8HfuoqXatHmLt2vn1k2d7bbNb/DuYwMBBFJWYMOhXc6AVcMLpOzAjIYAAggggAACCCCAAAIIIIAAAggggAACCCCAQAoIEAhOAUSGQCCtBWzwd/OWv/Tbn9u8AeCKZUs607AB4VkLv3G27bMNCpctWVxlShRN62lyPQQyncC729Zo1cGdmndwR4x7uzlXEdXNVUh9i9WKsZ8XCCCAAAIIIIAAAggggAACCCCAAAIIIIAAAghcKQFKQ18pea6LwGUI2AxgN9j7+KDeso8H+/dQ+VLFLhrV9hs1dvJF+xOzIzo6WufORSWma4w+yTknxgC8QCCdCdjs3/7rP9WwLd87M7OB34XVO+vpkvWch91pj9k+bqZwcm9h9erVKlOmjJ5++ul4hzh79qxee+01LV26NN4+9kDPnj2dsfbt23fJfpd7cNy4cc51Pv/888sdivMRQAABBBBAAAEEEEAAAQQQQAABBBBAAAEEUkiAjOAUgmQYBNJawGYA2+BvarTIyCh9PPcLfbt6nc5FRqpE0YLq07W9ClyTVxM+nKXvf9yorIGB3kt3uKmJWjVpoH37D2ry9LnabDKWs2ULUf3qldT1lptMMPms7hsxWvf26qoq5Us75321bJUWr/xBox4b7Iz548+/O/vteWWKF9Yd7VspZ1gOZx47d+9V+5ZNNHr8e06fMyYIZps7hwf636mX33lfg3t1U6VypZxjX327SvMXL9czDw9SaGiws48fCCRHwAZ2W6+b5ZxqA7++Wb9uWWi7z2YL22CwzRa2QWL3WHKumdA5O3fu1JtvvqlGjRqpcePGTvdZs2Zpz5496t27t0JCQhIaIt0d3759u+bNm6cqVaqoYcOG6W5+TAgBBBBAAAEEEEAAAQQQQAABBBBAAAEEEMhoAgSCM9o7xnwRSAOBZat+1Mq1P+nJ//RV7vCcmj7vS70+6WMnaHv2XKQpNV1M/W7v5J1JtpCsioyK1mvvfqRiha/Vy8Pv15Ejx/WqeR2WPVTNG9aVDd5GR13ILj4XFanT5wO6dszrypTQnR3b6viJE3p/zgK989EnemhAD0WZoLQ9XrxwQT37yGDnms+8MVElihRU9w5tnNe5w3OoWoWy+sxkSttA8Nmz5zTv6+Vq0bA2QWDvu8RGcgXG/rXaOTWh4K4NBtfKWcgJGttzJlRrn9xLJnhe8eLFNX/+fOXPn9/bd+bMmVqzZo3uuOOODBkI/vvvv/XKK6/o7rvvJhDsfVfZQAABBBBAAAEEEEAAAQQQQAABBBBAAAEEki9AIDj5dpyJQKYVsMHYoKCsypM7p0KCg9WxVVOzJvE22Uxh23KGhSpPrrAY9//bn3/pn7379PA9PUzwN7vz6NymmfYdOBijX3wvsmYNcMa049avWUWzFiyO0TUgwN97zfx5cilf7nDva9ux401N9cRLb5l1k//Srj3/KsqUtW7RqF6MMXiBQFIFbJavzfC1mcCJyfC1fWxfmxlsz/XNHk7qtW3/H3/8Ud99953CwsLUvHlzFSxY0Bnm6NGj+uGHH1SgQAHVrFnTyaS1QWDb3n//fdWrV0+1al1Yr9j2X7Jkif755x9VrlxZTZs2VZYsWZz+Cxcu1IEDB9S1a1cFns/0X7ZsmXbs2KG2bdsqPDzc6bd7924tX77c2V++fHk1aNBAOXPmdI7F9eOzzz4zXwg5orp166p0aU8lgLVr1zrBaj8/P2feNWrUcE5dsWKF/ve//znbEydOVOHChdW5c2cFm//+0BBAAAEEEEAAAQQQQAABBBBAAAEEEEAAAQSSJ5AigeCO/YZq7hLPH6ATO43vZryiOtUqJrZ7ivQ7cfK0/tmzVzlz5FD20BAT4ApKkXFtcGzoC+P12L3dlSs8ZnAsRS6QBoNEmvK/u/cd8JbadS8Zasr07tqzTzPmfaPHBqdOGWL3WjynH4Em9Wvphw2/6NHn39D1JijbsFZ11a5WyTvBH9b/ouCsc53XASag06PLzaYstPn8ZA10yjm7HW1A17ZTp8+4u+J9/vfAIfMZ3K9jx086JanLly4Rb9+4DuTPl0eN69bQp18sMXM5pA4tblCwCWbTELgcgVUHd8quB5xQQNctH22zhm1fe559JHTepeY2depUJ6hrg6EnzJczbClou69cuXI6ePCgnnrqKTVr1swJso4dO9Y7lF072P433TcQ3KVLF1Oi/ZxOnz6tKJOZb7OGR44c6Zzz7rvvasOGDWrfvr03EDxnzhwnuFy7dm0nEGyDzAMHDtShQ4eUw/wbagPLdh3jSZMm6dprr/Ve290YP368Ro8e7QSvu3Xr5uweNWqU09/ej52LfQwZMkSDBg3S4sWLnUC1e769HxuEJhDsivCMAAIIIIAAAggggAACCCCAAAIIIIAAAiklYJepK1q0aEoNl67H8bvc2b06cVqSg8D2mqPGfnC5l07y+R9/skjlbuyrhrf+n4o36q567QZq8fIfkjxO7BOioqM0evIcHTUBrPTcDh46YgK6X8c5xd//3KGixqRBp8GOjzWyj88WLdeuvQc0efaiOM9j55UVmL94mVkH98LDzqZz66YxHnYt4aS27KHZNHxIf/Xq1FZ7/j2o4S+/rYXfLPcOY7P5bKlm+yhapICz3yTgejMMvR2TsLF1+z967s1J5vGu9h86rD63tkvC2Z6ut9x4g7bs2Ck/vyxqVK9mks/nBARiC9hs4Lq5CsXeHeO1GwSOsdO8sOdebvvqq6+0bt062SCqzdq1weDYzf4PlpUrV3oDvzZT+L777ovRzQZV7Tg2u7hixYr68MMP9euvv8boE98LG1R+8sknneCyXcPXZim/+uqrioiI8Gbx+p5rg8g2CGwzlV9++WUFBATIZhjboHGrVq2cjGCbGWzXAX799de1detWDR8+XFOmTHGGsaWh7f24mci+Y7ONAAIIIIAAAggggAACCCCAAAIIIIAAAggkRuC9996TfcRuNgg8efJk2eeroaVIRnBGgmrdsLrmTX5B0SZqterHTbr9vmc18fkHzBqmtTPSbSRrrjtNZu89w9/UrTc3i/f8376eKn//mN8PWL76p3j7c+DKCJQvVUyzFn6jTZu3xJiADQK3bX5DjH2zFo5UUoPBGzb9brL+QlWzSgXnsXTVWk2dOV/Nrq/jjF2zSnk1bXCh7Kzdmc+Uaz5tMn+PHj+uHKGhTr8ff/5V/x48pGYN6ppgkL/OnLmQGWzXDA71Kftau1oFDbzzVn21bJU++Wqpc35Sf4SH5VDxQgVUpEB+BZrr0RC4HAEb4I3dYpd79g0C+64hPKh4HScQbI8npqR07Ou4r4sUKeJs2jLJNmj6zTffOBm97vHEPt97773mv+3+yp07t3r16qVHHnlE33//va677roEh7AB4z///FM2s9dmI9vWpk0bJxCcJ0+eGOfbgO/s2bOVN29ejRs3TtmyZXOO2/WMbRswYIATGLbBYTueLTW9atUqlSiRtAoAzmD8QAABBBBAAAEEEEAAAQQQQAABBBBAAAEE4hFo3LixE/C1weAePTwVb90gcMmSJckIjsftot0Nal0oF3vRwUvsaFy36iWOpv4huzZivZqVNOrhvnpy9GTvBQ8ePqoHR76h+h3uVZ8HR2n7zj3OsaXfrdOwl97Rf1+ZrAYd79Wd//e0tv2923ue74bNvHXH6D54pNZvinAOf/rFMj0+ary369ZtO9Wp3xM6feas7n74BX34yZfqMmCYk6n88jvT9MdfO5zr1Gl3jx59bpzTzz15/lcr1brHw2p++/2a9NE8d7cGPPaSyeL9Vva69rxRb051ji1YvFJ1b71fh44e0829H9UWc+3ktvjub9n362Pcn52zdXLbS29/6GQY29e2tLC9d+tsrQ4fOeZ24zkRAmVLFk9ErwtdbOA4KW1TxBZNnvaZDhw+4qwLbN9zG8j18/MEV0+eOK3jJ056H/YzXKZ4MScY/IkJUJ86ddpkkv+rj+d+qZNmOyDAzxwvqhVrftKJU6d00Iy7xpSevq5M8Yum1bh+TadE+cIlKy46lpgd7rqnielLHwQSI1Arpycj2AZ17dq//dd/6pwWXxDYHlxzOPn/jXXn5Lv+rv1cFytWzCntbMtCJ7XZwKvb3HWGd+26ONDt9vF9tusK2+ZbKsXOx5Z1dv8HlNt/xowZTuawDQD7zv+PP/5wunTs2FF2fWH7+M9//uPsS+w83GvwjAACCCCAAAIIIIAAAggggAACCCCAAAIIJCRg/57Zu3dvbdmyxckM9g0Cx/67ZkJjZeTjF/4ynMy7sOv8jnm0r5au2pCkEZIbQE7SRRLRuUGtyrrzkdFOsCrIrG9668ARatGguma+PVIz53+jDv2Hac1nb2v/wSN6bsIMzRk7TD27tNLYKXPUccBw55jvZezaix37P2nWKq3ijLH2p9/UoucjWvPJW6pSvpS63Pe8Hh54m3KH59SCb75XiFnD1F53xpcrNW/ZGq2c/qpZx3i/Gnd/SA+/+K7WzX3LZDYG6Lb/PK1K5UuoR6dW+mblWj38/Hh99PqTCvAP0J33P6fcuXKoQ6vG+uLbtZr06RKt/+RNnTx5Sm3uNnOpV12N65t7em2obu4/XBOef8gJ2PnO+8J2tJMt7b6OHVS71P2VKVlErfoN04gHejtrs878Yrn++mef3jPZ13acCR8t0CcT/qvjZl4t7xqq90c/ouqVy2jUG+9ryFNvaPLLj7uX5TkBgTIlEle73paNti12lnACw6tzm+b6YM5C8wWE153sQ7uu9sDunb1Zths3/6n/DH/RO0z7lo3VvmUT/V/v2/XutE9075PPmzW4g1WveiW1bebJUO57ewdN+GC2/m/4Syag7KfqlcqqU6uLs9MDAwPU8abGem/2QjW9PvNn6nsR2Uh3Am4m79i/VmtCtfZOZu/TJet5g8Fu6WffTODYN+GOEXt/Yl6fPBlzuYFT5ksUtoWEhOi4ybxPbrPrBNsWej5zP65xbAlot7n93Ou7++N7rlSpkjZu3KgPPvjAGyh21/q1Ja5tVrJvK1y4sO9LthFAAAEEEEAAAQQQQAABBBBAAAEEEEAAgRQRcIPBthS0DQjbTOCrKQhsES87EGwHGXJ3N+dhtzNayx0epmgTvP33wGGzFuoBbTFZvg8P7O6UR76vb1eNnjhLv0b85Q2OtmvZyLnFpx++WxPrdjWlebeqfOkL2ZZrNvyqHSaQO3xIb6cMZ6Fr86nHynWaMmOhCZD20Q3Vy5m1Vlepe8eWmvPlCg3u2d4Z75jJrrQB9ZLFCjmPLCbz0vatcl1p5/jNTevot4htzvZbUz/RYyaYXLVCGef1kD6dTJngZU4geIdZz/fVof1UsZynzGajGtcpYusO2YB3kYL5FJ4juwrmz+ecF9ePoAptZa9t2/WVS2nJ9NdjdEvo/qqXKSob/C5u1o3NnzunyhYtqJ9+/UNh2UMVpWhVKFtCh0z277FTZxRmSg8XuCavnntsgDfzOsbFeHFJAVsG2paHjq9FbN3uHLf9ktqCsmZVn27t1cus03vaZPRmyxbsHWJQz67e7dgb9vM+/L5+Jnv9jJPV6/tFgtw5w/TYvXfp7NlzTiDYtwR57DEb1akh+7Dtjo6tY19Gjw3qfdE+d8eljrl9eEYgsQI35/KUZnb79y3mKYluM4Ntiy8IvOrgTsU+1x0jsc++pdQPHz6sX375RTZo6pZbjj2O+/tmv7ATu9n/kZMvn+e//XZ9XttshrFtuXLlcp6PHDmi7NmzO9u+P0qVKuX8zq5evdq72waT+/bt65SWfuKJJ7z7bZavLT3drl07vfDCC6pbt67Kli2rypUry55vy1M3a3bhCyDbtm3zzuNS8/degA0EEEAAAQQQQAABBBBAAAEEEEAAAQQQQCAJAm4weOnSpVddENgypUggePX6TVq5ZmMS2D3B4ySdkEqdbXlnP5NVmz9fbn239mdt2/WvCtS9NcbV9u0/fFHp4mCTyVum6LXaZYK+voHgrTt2q1Lpos4fu91BKpQprmWrPRnTPTq00GwTtL2xUW39sOlPtbzBs+aq7VuyWEH3FHVtUdccq+19bQNzR497ssNmL14l+3ho1ETv8XpVPEFhu6OiCba6LdhkG9vAW2Lb6V8WOEHw+PondH+3NKunb012+OY/d5iszoZO4PmLJatVqEA+tW9az8kMzpUzh+aPf0pDX5qo3fsOqmubRnpwwG3xXZL98QjYLN/f/tx20TrBtrsNAo8aO9k5M6nZwL6X8/fLEiMI7HvsUtv28xpfsxm/NAQyikDdXIWcDGDftYHdYLAtGR1Xxq/ta7OFbfbw5bZhw4apSpUqmjNnjrPG9p133hnvkMWLF9cPP/ygd955R02bNlWdOhf+fbFrBN933306evSoJkyYoPDwcLVs2dIZy46/ZMkSjRw50tln1w72bddee63sGsW27PPQoUOdcRcsWOCs7duhQwffrk7Q15aEfv7559WzZ09nLeJp06Y5JVimT58uez87d+50Atp2fWC7dvBnn32m0qVLO/vsYHYudi3iFi1aKCwsLMb4vEAAAQQQQAABBBBAAAEEEEAAAQQQQAABBJIqYIPBV1smsGt02RGZVydO04MvvOuOl+hnW0p6zjvPJbp/anX85ru1alStrMleDDDlmsNUvVxxrZk34aLL2Wxh3xZtyh3v/veQOSeH725dkzdcO3bvj7Fv1979Tuar3XlLy+t17zNvO+sBd73pehNkC3H6litWwJTdDYxxXnwvGlUvrwf7ddUtNza8qEtFU57Z/3xG70UHU2BHQvfXomEtPWLKVodlz6ZnzPrLtqTwrfeMULWKpUzpYM987Xqy9WpU1Lcz3zDryO7XK+9M1x2Dn9bn749OgRleXUM82L+Hxkx4L0Yw2JaDdjOFH79E5uzVJcXdIpA8ARv0tdm9NgPYN/DrBoNjj+quI2yzgePrE/uc+F7b9St+/vlnffzxxwoKCnICq3fddVd83dW9e3d9/fXXmjhxouw6wm4g2J57//33a8yYMTp27JiTgfvKK694M4ttBu+6deucc20QtlGjRmrVqpU+//xz77WGDx/ulKSePXu2ExDOnz+/RowYoS5dunj7+G7Ur1/fCf7akiuvvfaaNyBsg81vvvmms46wzVC2Y9ggsG0227lr166yAeNHH31UX331FYFgX1S2EUAAAQQQQAABBBBAAAEEEEAAAQQQQACBJApcdiA4iddLN933/ntQXy5brUfGTNHS915w5lWnWgXtMdm/n36xTO1vukEnTp7Wm5NnalBvuzaqh2rn7n2y5W9nL1jqnFOxXMkY91SnekUdOnpM879aqbYtGujvXXs1aeYXZj1fT+nMPLnC1bFxLSd4vmDi0zHOTewLm2n7yrsz1aR+DeUwAdel363TCVO+t7XJuL1Uy2bWbD1m+p0xGcI28J2cltD9Va9cVkvX/qI8Juu3YtmSTgZwUFCA3pn5pUY/Oci55Mbft6hNnye08fOJJkCeR03qVdXcr2NmoCVnblfrOTYY7AZ/3QCwtW93Y2Mldi3hq9WO+0YgMQKDitdxMnxbr5vlZPnGF+C1mcBuyWh7TnKbDeBGRER4T7dloe26wFmzZvXus99g8+1jD1SsWFErVqzQvn37vOWep06d6j3n9ttvlx0r9hq9Nut20qRJzrHAwEBvgNh7otmwa/zabF6bEXzo0CHlyZPH97AGDhzoPHx32r724bYyZcro/fffl11r2Aak8+bN6x5ynm1p6GeffdYJAp89e/aia8TozAsEEEAAAQQQQAABBBBAAAEEEEAAAQQQQACBBAWSFw1McNj022Hh8nUKvK6tCuXOobpVy2nVjFdVuXwpZ8J2zdo5455Sv6Ev69EX39XBI8f1YO+OCg3xrI9aNH8e9XpglMn4/VfHTpzSB688ppDgIJ09d6H0su07e9xI3f3oS3rgubedfs8M6aX6NSt7UVo2qaOPv1jhBHK9O5OwMbBnJ/1jSlKXad5LYWbt1mvMWryTXno0wRGKFS6g+pVKqdQN3fXZxGdMlu6FctIJnny+Q0L3Z9d/LHJNbpUscq0TBLanXV+zkpav/13ZQz3ZzzUrl9MTA7upXqdBCjXBhVNmPdnxzw5J7BToF4eALf9sHzYgXLZkcQLAcRixC4HkCtjyz3Yt4LF/rXYCvTZD2JaMts1mCdv9ttly0DYT2AaB4yoZ7XRKxg9bajmxzf432JZyjqvZY7GDwL79EnMdO0bsILDvGInZtkFl+4ivUQ46Phn2I4AAAggggAACCCCAAAIIIIAAAggggAACSRPIYjKKot2yjEk71dPbrg9c/9b7k3zqmEf7asjd3ZJ8XlqdcPjIMSdwaf/obZvNAB73wVwt+mCMjhw97hzz8/O75HRsP5uxa7OcfNuU6Qu0blOEXh15n+/uJG+fi4zUCROQtgHsxDZb0nr/wcPKkyvnRfNK7Bhuv/juzz2e0LOdy6HDRxVusodjGyV0bkodt2tVBgeHKSRbqPzMerhXah4pdT+Mg0B6Fjh5wjO7kGxpN8vIyCidPn1aucI9X0S53CvbrF8bCLZBX99mA8A2OBxftrBvX7YRQAABBBBAAAEEEEAAAQQQQAABBBBAAAEEMq7AwUMnneX8/P0vHSe80ne4Y/sfuuyM4DrVKioy4kvZgHBimz0nvbecYdnjnWJiA6+x+x09dkJfr1ijZ976UDPfGhHv+Ik9EGCC1LGvkdC5NtCZN3d4Qt0SdTyp1449qJ1LLrMuMw0BBBDIKAI20OsGe+16wLalZPZvRnFgnggggAACCCCAAAIIIIAAAggggAACCCCAAALpX+CyA8HuLWaE4K471+Q8lyhaUJ1aXp+cU73nHDDZr5+YktCvPnmvqlZIellm70BsIIAAAghccQECwFf8LWACCCCAAAIIIIAAAggggAACCCCAAAIIIIAAApcQuOzS0JcYm0MIpHsBSkOn+7eICWYigcxQGjoTvR3cCgIIIIAAAggggAACCCCAAAIIIIAAAggggEAyBDJSaej0Xbw6GficggACCCCAAAIIIIAAAggggAACCCCAAAIIIIAAAggggAACCFztAgSCr/ZPAPePAAIIIIAAAggggAACCCCAAAIIIIAAAggggAACCCCAAAKZToBAcKZ7S7khBBBAAAEEEEAAAQQQQAABBBBAAAEEEEAAAQQQQAABBBC42gUIBF/tnwDuHwEEEEAAAQQQQAABBBBAAAEEEEAAAQQQQAABBBBAAAEEMp0AgeBM95ZyQwgggAACCCCAAAIIIIAAAggggAACCCCAAAIIIIAAAgggcLULEAi+2j8B3D8CCCCAAAIIIIAAAggggAACCCCAAAIIIIAAAggggAACCGQ6AQLBme4t5YYQQAABBBBAAAEEEEAAAQQQQAABBBBAAAEEEEAAAQQQQOBqFyAQfLV/Arh/BBBAAAEEEEAAAQQQQAABBBBAAAEEEEAAAQQQQAABBBDIdAIEgjPdW8oNIYAAAggggAACCCCAAAIIIIAAAggggAACCCCAAAIIIIDA1S5AIPhq/wRw/wgggEAmF8iSJYsiIyMz+V1yewgggAACCCCAAAIIIIAAAggggAACCCCAAAKpLWD/1mz/5pxRWoCdaJaxGWW6zBOBlBX4u0PKjsdoCCCQvgTsP8h+flm0d98BFbg2X/qaHLNBAAEEEEAAAQQQQAABBBBAAAEEEEAAAQQQyFAC9m/NoaFhGSYYTEZwhvp4MVkEEEAAgaQI2C9m+fsHKChriCIitujs2bNJOZ2+CCCAAAIIIIAAAggggAACCCCAAAIIIIAAAgg4f1u2f2O2f2u2f3POKEnBTkYw7x8CCCCAAAKZUcCTEeynoOBghefKo6+/+VanTp5SdHR0Zrxd7gkBBBBAAAEEEEAAAQQQQAABBBBAAAEEEEAghQXs35mDQ4JVo0ZN52/Nfn5+GSYjmEBwCn8YGA6BtBaI2Lo93kuWKVE03mMcQOBqEbCloU1esLJly666dRso8txZRZv/oyGAAAIIIIAAAggggAACCCCAAAIIIIAAAgggkJBAFmWRf0CgAgMDzVKEfs5yhAmdk16OEwhOL+8E80AgiQLzFy/TrIXfJHhW59ZN1bb5DQn2owMCmVnABoOzZLH/QAdJQUFkBGfmN5t7QwABBBBAAAEEEEAAAQQQQAABBBBAAAEEUlDAZgTbZp/c7RQcPlWHIhCcqrwMjkDqCSQmCGyvbvuVLVlcZAen3nvByBlDwP4Dff7fazNhzz/cGWPmzBIBBBBAAAEEEEAAAQQQQAABBBBAAAEEEEAAgaQL+CX9FM5AAIErKXCpUtCPD+od79QudV68J5kD585FxXs4MjIqVTMr7TqukVGU8I33DeAAAggggAACCCCAAAIIIIAAAggggAACCCCAAAIIIBCPABnB8cCwG4H0KOCWg540eoQqli2pTZu3ONO02+1u/H/27gOwyvLs//iVRRJAIEwBmQZEkD1lDxdLXLXuFqtWRVurVau1Vf/qi6PaOtCKgwpuwMFwIcreCIiismQFRbaMELL+13UfnpOTk3USQnKSfO/3PTnPuJ/1OTHa/HLddz9X9Wv7vH7eM1g18JNjJ0irU5uEPEz0t2s3yJsffCI//bJL6taqKcPO6i29u3Z0p9yz71d5bdJU+W79j1JJx8Tv3bWDXDLkLImOjpJZC5fJ+MnT3faaNapLu9MT5YJz+ktcXKwk/fSL/OPJF9w57DhrETpk7wuP3OOWvS8pR1Pl3amfycKvvpY0DZvbtUqUay4ZKtWqVpVvftggz/3vHfn3/bdLfFycO+S5196VkyrHy+9+M9w7hVz71wfdNZ9/+G/+bWPfnCyROjzwdZdf6N9mCyu++V5efOM9GaN9R933qNt3NDXVvXv3ecmQQTLp45lyy+9+K2ecdqrb9/ncxWo9Tx6+c5RUqeK7F7eDLwgggAACCCCAAAIIIIAAAggggAACCCCAAAIIIIBAKQsQBJfyB8DlESgugYKGfrbQ2ILgUNquPfvkP6+8Jb8ddrb06NxO1m/cLM+Nnyj1ateSxKaN5Nlxb0mChrz/d/etcuDgQXl+/CSJiY6WizUszdDg1trDd42SffsPyMRpn8nTr74ld930O3/18G3XXiEN69fL81YmTZuhIfMmsQrnOJ3P1ULnF/Qad9/8e8nQKmEvpPVOkJaWpoFxurcqm7f95JaPHEmRnXv2Sp2aCW49NS1d54jNWeGckZHhP+cjd93i+r7/yUxZ9vV34q2fVLWyrN+8VabOmO2C4NTUNJn2xTw5q3dXQmC/PAsIIIAAAggggAACCCCAAAIIIIAAAggggAACCCAQLgIMDR0unwT3gUAIAjbXr7XgYZ69ymC3U798v2Gzt+gqh/0rIS4sWL5Kq4AT5Kw+3aWqVtp2OKOVDO7fU/b9ekDWb9omm5N+litGnCe1E6pLs0YNXbXw5/OX+IPeKnqM7UtseorccOUl8oMGyfbyWq2aNaRWQjX/y9tu7xawfrlouasibtTgZKmj93HZ8HPd8VZRHEqbv3yldOvQRlq3aCYLl38dyiH+Pt591dbwuG7tmv57rBQTLReeO0A2bElS300yb+lKF0qf1aeH/1gWEEAAAQQQQAABBBBAAAEEEEAAAQQQQAABBBBAAIFwEaAiOFw+Ce4DgRAErOr34sEDXE8bCjowALZweO3GTW5f4HarArZ9dtzQQX1DuIrIjp275eQ6tbL1tWpfa/OWrnDDPtfWMNdrDerWlZSUoy4o9rZ57xasVq1axQ0LfVpzX0Xyy2+/L4015LXWpV0badvKN9Syrf+ye69YhW7DenVs1bV6dWu79x27dkv0sSGlj+3K8ZamVb8Llq+WP1x6vhxKTpYPP5sjw8/qKxERETn6FnZDPTXp172TfPjpLNm5e59coOeNi61U2NPQHwEEEEAAAQQQQAABBBBAAAEEEEAAAQQQQAABBBA44QInJAgeeYpIT30FtusXBa6xjAACRRXIK8wdPWZcrqe0KmILkAsaOjrw4ExdKUxw6mWsdlxuLVOD3Uwd0tlrzbWK+JRjQ0PXqFbF25z9PSC3jRDfSsApsvcNWFu1Zq0OT52uwzcnSorO8/u/idPkB63gbZXYLKBX0ReHn91X7h79jFTX+Yr79Ohc9BNxJAIIIIAAAggggAACCCCAAAIIIIAAAggggAACCCBwAgVOSBB8azeRjvWz3zVBcHYP1hAoDgGr8p388Zd5nsr2FyYA9k5Ut1ZNWa7z4wa2j7+cp1W6dd08wTZH7+69v7phk63Pzzt3uSrhhGonBR7ilm2+4UOHk6XByVkVvgN7dZOGAeuBB9lQ0BZC//TLTp1HuK7bZZXA1urpUM3JKSlu+ejRVImPi3PLVo1sQ1lbGzP+Xff+pweecO9WXfzlwmXFFgTX0Gds2rC+NNIgOyY6yl2DLwgggAACCCCAAAIIIIAAAggggAACCCCAAAIIIIBAuAmckCA43B6S+0GgvAp41cG5hcFtWjYPeSjoYJ8endrKtJlz3TDQ3Tq01SGnN7vA+a83XCWnNmnkQtB3pn0iV180VH49cFimz5wnA3p29lcRW/B78NBhDXN3y7vTPpNTda7g07Ui15vj98ChQxoOV/Vf1uYU9prNxdu3W0c3pPMpOnx05fhYmThthl73FBcM29DPMdpn9uIVbt7iLdt/lh+3bpezeneX/TqHsbWrLhoi7Vu1cMsLV3wtU2bMlSNHfAFy8uEUF0y7nfoltlKstxjye2GqpUM+KR1PuIBVpXtV5YEV6if8wlwAAQQQQAABBBBAAAEEEEAAAQQQQAABBBBAoMwKeJmAjY7qLZeVhymWIPilHiLX6QipLy/3PXZwNbBttT7WOjfwvXd6z/deGl/toftp8eD+oyLLDhXfHdzQRGSEZk/xMSKfbRB5dG3xnbuwZ4rXb8bOWpw579fCHkn/siZgYbAN/2zzA1sgbAGwzR9clEpg79ltfuBR1/xGJrz3sbz6zhSpUb2aXHnhYH9V7a0jL9PtH8ptDzwp0VoV26tze7ng3IHe4e79T/c/IbVqVJf2p7eQiwYPyvbD8fEXXsvW96XH/iFRUZH+bb8dfo68+eEn8s8n/ytpaWlu+103XuPOYSHw7ddfKf97d6p88OmXUllD5CEDe0untq3kszmLxELlft07+893Vq/uMvXzubJs9Rp3nm/WbpBb//m4/1q3X3+Vf5mF8iuQkZEp0VGZ+kcE3veZ/pCkIYAAAggggAACCCCAAAIIIIAAAggggAACCCAQokBqaoZorZpERpad3y9HrFu3LrPFp4khPmLObl4InHNP/lssNC6N4aItrP0/zauSU0XiNLA9oEWCI6eLzN6f//0WtHeEjnr77sUi474S2abhq34vyGMlHAT/vzYikzeKrErWYL6RBtFnidQeV9CdV+z92y5Ikri4ahJfuYr7B7es/SVH8Kd37V8flHtGjTyuEDj4nFZJGxeXe9Xs0dQ0DVyjJOoE/dBLT8+Qo6lH5T0NuBeuWC0P3XGjJGgo7bUjOiR0bKWYbCGzt4/38BNIPuy7p/jKJXdvVvlr30cRkq5/NFCp5C7MlRBAAAEEEEAAAQQQQAABBBBAAAEEEEAAAQTKncDhw0clUzQX0eK2cM+Utm5ZL8ddEWyVwHm1FT/lnCvY62vHlXQQfKZWyD59nshdM0Se1cDU2itnirw6ROTUt3zrRf3ap6HINztEblxS1DMc/3F39hb5epcvCH55q8h72Ysuj/8CnKFCCuQVAhuGDeN8Ipv9II2PinPVyP3P7JItBLbrxsUS7J1I//JwbhsKOj09TapW0b/8oSGAAAIIIIAAAggggAACCCCAAAIIIIAAAgggcBwCcXHROjVmqhYXVtIg+DhOVEKHemNkFulyI0/J/TALgK/9UMSGf44YkzVkdHBvb7jo4O0nav36tiJfJWWFwHadJ7SCV0cMlW5VfFdtr5Vq07SS9scrRRYNF7m8ftbdzBwscs9pvu2bdf/4Xr59j7cXuUOXO+mw16u0KriR5g0fna2Vxsd8EjWr+nCQ75wzNIh+oatet4Pv2P92E3nojKxr/ON0DaZ7+taf6+IbUnvR+SJv9fFtu7Ol7xobr9Dq3wG+a52tw1zbdfV7T9640HePl56sQbBey2tFeS7vWN7DX2Ddj1t0nt457kZtiGhvOfzvPPQ7bHiylt3TECikgFUE27DQkZHH9a+7Ql6V7ggggAACCCCAAAIIIIAAAggggAACCCCAAALlUcB+12y/c7bfPZeFdlzlfOO26SNq4PvqiOyPuny7DpFs+441q/wNrhwujaGhm9cQ+U4rZgPb9zo0dIu3fVtsXt2JGrpakP27aSK9NQR+WcPgXRNFZuzVOXd1vV9TkUs14D5J5cYMFZmrlbf/+0HktNoirfR16wyRn1J1WTOr2pt9532uvy5rwHzrpyINNXD+7zCRd1b79jXTe4qJ8i3b1wZVtTpZg11rTXXfUA2e/zFTZMkvIlfo9e/rKzLqIw2VD4j8R8Pl0d1F/rLQd93ZV4v8XftO0esO0L6t6/rOU9TnemmL73i+hr/A6DFZY4DbPMHWbN7g45m1k+ZLAABAAElEQVQnOPyfmjtEIDSBsvIv5NCehl4IIIAAAggggAACCCCAAAIIIIAAAggggAACpSlQln7nfFxBsCFb4NtzefagN7chnwOHiS6NENjutVqcyMGjtpR7u6yhSC0NbK+fK/Jrhsic/SK9tKr3Wq0knqHFltXjRV5cqpW2OgS0tVt3athWU6t2NTDdrvMCV4vVY/Q9sFXTIrSzThW5eJJWGlsIra//6ltNPVcobbfO9/vw976eTbTSuO+bImt1Wys9fqlWN/dsLLIzXV963SNpIpv0fa0+oxYL+1tRn0sIgv2G4bhgVb9e6Jvb/XnhcJuWzeWOG/SvBGgIIIAAAggggAACCCCAAAIIIIAAAggggAACCCCAAAIVRuC4g2CT6twgu5cNiRxYEWx7O2qFqtesf259vP0n6n2vBqgWBufVrGJ4q4a/FgJ7bf0ekS4Bz7fGwtxjLU2D1xgNevNrbbUCWKc5laVaUey1PXofTfRaobRP1mb1Oqz3Naanz3K7VgS31+Gf1wbcT1bP7Esn4rmyX4G10hAYOqivq/otjWtzTQQQQAABBBBAAAEEEEAAAQQQQAABBBBAAAEEEEAAgfAWOO4gOHNUzge8Vee9DQyCg+cCtlDYDSetw0oH9st5puLdsm539lDXzt5eK2tn/FZk2ESRXw5rRXBQpW5dDXJ3anBr7ScNX9MCQmLf1vy/bjni299cK42tathada0cXqNDPVtL1yHEI3VIaq+d20KD44B1m7/Ya3dqZXKj6iKJr4sk6/YnO4qcq9XGBbUT8VwFXZP9JSPA0M8l48xVEEAAAQQQQAABBBBAAAEEEEAAAQQQQAABBBBAAIGyJlBAPWvRHseCXguIv7rI9x48P7B31pIMge2aL3yjQyrrvLn/PF3EEvCa+vT39/AFvEsOiUzfJlKlksjdLX132E9D18EazE5b51svytetOl/wVzpn8q0a2to1LXi2CuGkY6GwVfaeofdk8/gm6rWbJWQFxsHXi4vyVSBX1eNbaph8u1YH21DWXjui16qh5whuJ+K5gq/BOgIIIIAAAggggAACCCCAAAIIIIAAAggggAACCCCAAAIIhI+AZZPH1a7Vql5X3ZvLWQKHgw7ebfMEl3RbpRW/104RGa0T6N7RS8QKb7/ZIXLldN+dbDwqMupjkccH6X4NWWNV5xW9z5e3HN+d/m2WyNghInuuEzmk17DKZK/Qd+xqkUla1fvTSN81vv5Z5GgeVccvrxHp11Rki57nqM4LPOtH3/DQ3t3N2CDyzGCRNktFvtchrb12op7LOz/vCCCAAAIIIIAAAggggAACCCCAAAIIIIAAAggggAACCCAQXgIR69aty2zxaeJx3ZVV/lrou+InkeVa/ZpbBXDwvogxx3XJ4z64pVbOWrWuDbGcW2utcwmv1WGddRrg426NYnzXOkPP+Y2ec+kIHY5aQ9x7v846tVUKf6tDUIdyPasG3qqBcm73bufZrvt2alCcWyvO58rt/GVt27YLkiQurprEV64ikTpGd0SE/XkADQEEToRAsv4xjrX4gJEMfFtO3Nf09AxJSUmRhBr6w5GGAAIIIIAAAggggAACCCCAAAIIIIAAAggggMBxCuzdlyyxsbESZUMAh3HbumW9G634uG/x2SW+U3hDPXdu4AuGA0/c6T3f2vWLREaeErindJbXaliaX1tzbG7f/PqEuu/xM0VsruFPtWL3Hh0GulktkalfZD961bF5iLNvzX1tbUru221rQecpzufK+y7YgwACCCCAAAIIIIAAAggggAACCCCAAAIIIIAAAggggAACpSmggx8ff/MC4FDPVNj+oZ43XPv9Zb7In9rosM6NRbbpnMAXTxZZqO80BBBAAAEEEEAAAQQQQAABBBBAAAEEEEAAAQQQQAABBBBA4EQIFEsQHHxjNjy0vby2YJu3VDHff9ZhmgOHga6YCjw1AggggAACCCCAAAIIIIAAAggggAACCCCAAAIIIIAAAgiUlMAJCYJt+GcaAggggAAC5Vlg1b6f3OO1r1G/PD8mz4YAAggggAACCCCAAAIIIIAAAggggAACCCBQRgVOSBBcRi24bQQQQACBEyiQ8Ibv5EeuP4EXOcGnfmXzMlm8N0mm7d2a7UrDEhpJ94SG8ocmXbJtZwUBBBBAAAEEEEAAAQQQQAABBBBAAAEEEEAAgdISIAguLXmuiwACCCBQZgSs+nfMpiUuALbQ116jmnaTZfuT3DNYOPyPjYtcSGzby1qVcGpqqjz//PPSoUMH6devX5n5XLhRBBBAAAEEEEAAAQQQQAABBBBAAAEEEEAAgbwFCILztmEPAggggAACYiHw4BWTncRDzXtkq/r1Al+rBLZqYQuDrVr4444Xl6kwOCkpSZ577jnp06ePPwiePHmy7NixQ0aOHCnx8fF8JyCAAAIIIIAAAggggAACCCCAAAIIIIAAAgiUMYHIMna/3C4CCCCAAAIlKmCVwNYs3M1v6GfbZ32sece4lTLwpWnTpjJ9+nT597//7b/bSZMmufWUlBT/NhYQQAABBBBAAAEEEEAAAQQQQAABBBBAAAEEyo4AFcFl57PiThFAAAEESljAqnytwtcqgb3q3/xuwfpYX6sMtmPzC47zO4/tW7hwoSxfvlwSEhLk7LPPlgULFkhMTIwMHTrUf+imTZtkzpw5sm/fPjn99NNl4MCBEhUV5fZ//fXXsnr1aunfv78sXbpUtm7dKqNGjZK33npL6tatK4mJifLRRx9Jr1695NRTT3V96tevL507d5Zp06bJsmXL3Hlef/116dGjh3TpwvzHfngWEEAAAQQQQAABBBBAAAEEEEAAAQQQQKDMCmzZskUaN25cZu+/MDdOEFwYLfoigAACCFQoAZv71+YDLijQ9YaP9qqG7Th7FXRcXpjPPvusPPPMM2535cqVZezYsbJ9+3Zp1aqVPwi2EPeuu+4Sm9/X+hw8eFD69u0rL774okRHR8v8+fPlqaeeklNOOUW2bdsmNWvWlJtvvlkeeOABOemkk1xgbAFy7dq13T7bbkGyBcRjxozx39rTTz8t6enpBMF+ERYQQAABBBBAAAEEEEAAAQQQQAABBBBAINwFJkyY4G7x6quvznarFgKPGzfOTYlXEcJghobO9vGzggACCCCAQJaAVQN3T2iYtSGXJS8EDt5lxxalbd682QWx9h8hs2bNkhUrVsiNN96Y7VQ7d+6U++67T6yC1yqCrXr3lltucctTpkzJ1tdC4FdffVXeeOMN//YDBw6I/QfQhx9+KOecc45/uy3Yda362KsAtmriP//5z9n6sIIAAggggAACCCCAAAIIIIAAAggggAACCISzQL9+/WTjxo3iBcJ2r14I3Lx58wpTEUwQHM7fpdwbAggggECpCVjAG9xsuOfAFhgCWzWwN3z0qKbdXLfczhF4fG7LVslrFbgjR46Uhg0bSmRkpFx44YXZus6dO1cszL3qqqtcRa/tvOyyy1yfefPmZetrx/bp08dV+gbu+NOf/iStW7d2Q08HbmcZAQQQQAABBBBAAAEEEEAAAQQQQAABBBAo6wJW8GK/Y/XC4MAQOLhKuKw/a373TxCcnw77EECgWAUy9Wyp6aGdMtR+BZ0tv/PY/aRlFHSG4t+f3z0V/9U44/EKdKnuqwi2UNfm/r1h5YfulHmFwLZz2f6kIl82Kcl3rP1VWnDbu3ev22T/8WLt4YcfdsNF25DRvXv3dtusAjiw2XDRwa1OnTrBm1hHAAEEEEAAAQQQQAABBBBAAAEEEEAAAQTKlUBgGGzDQdvvXCtSCGwfZnS5+kR5GAQQOG6B2z4TSddw9Nnzsk716lciL60RmX25SL+3RFYkizQI+OkxZajIG9+KvLPJd8wpsSI96orc3VOkVmVf2PrkQpEX14oc0iD4HN33sGZTTWqIPKXb12q29d8hvmPf1+s8uULkW73GoJoiD2i2dYb2t3bm6/rS5acCRrJt/T+Rp/VcZwdlZtt+1WPniEz9WYe6jdNqSd1/Ww+RqEiRo2ki/1ksMn69yEG9nxGa8/2zj+9eN+zRc2nO93AXkSvausvKt7+IDJ8usuhSfa53fdu26zmseQ6vDRDZdVjkDj2vtRrq01Gf7y/d9P7r+bat0nt5YL7IDL1Gpyoid3bW857m23fPl/oDOULkof6+db6WvoBX3Ttm0xIZ22GEq/Z9qHkPfxjsDf0cWAkcfNfeOYK357depYp+c2hLTtZ/CIKaty8uTr+ptV1wwQUyePDgbL28Pt7GmJgYb9H/Xr16df8yCwgggAACCCCAAAIIIIAAAggggAACCCCAQHkV8MLg2bNnV7gQ2D5TF+VkjiqvHy/PhUD+AscK7/LvVMH2ntNMZORsDUJTRKproGttykaRoY1FKkX5gtwn2otc2tq3z74mxGvYq4HqsPoif9fgdv8RPX6ByL0abr6oIfEH32tQrKHrZ+eL1KuqIewikRs1cP5Yg1WryE3RY63N2aTBqe6zUNXC03c0XL70I5H5v/Vdw0Lk5zfrdfR+Bh4LfndrIGvBdWCz9T9+qkGsFj1+d4XIHs3TrtX1mnqfIzuKPLdU5PNtIpP13k7SZ3xorsifPxeZoPeXqWXCFvLepyMAD2gqUv+krG22b+FvfFd6Tve/8WPWeg3N5ab+IBKvRl9cJHJEz/G23v/5ev/fXy3y61GRCz8WuaedyMua2638WeRq9alTWcPlRj6/jIjAp2A5HASGJeiHE9D+0ET/QkCbVQZbyysEXrw3SYKPdQeE8KVFixaulw3xPGjQILe8b98+916pUiX3bhXA1izkHThwoFu2Lza/cJMmTfzrx7MQEeH7hszICPoH7HhOyrEIIIAAAggggAACCCCAAAIIIIAAAggggEAJC1gYXNEqgT1irY2jIYBAeRCwalOr3LXX8bT+TTXM1J8M8zRwtbZ1v8gnezUI9mVTblt9DXMt0PVeFhBbi9fCQ9vWsrZWKibqOXb7tlswXEP31a/mC15v7qqVs1oNGzwss1UV//5UrTpu5qvOvVEztwQ97uP1vvPY13MSNGzWkPlQata24KVVO0Rmam5m1bg1NWhNrKUBrF7Trmevf63R6uBOIqfpfTbQoPdvPUUm6TE/7Mw6UxvdPnp+1rq35D3zKfqc7fV5vPVY92c1Ipad2zardr70dF+ovEWrky0kbhYn8ge9rlVJD2ou8jt9vaX3Qgtfge4JDcUqfwPnBrYw2CqD8wqBra8dY8cWpfXv318aNWokr7/+ujz66KPy5ptvurksAs81YMAA6dixo0ycOFHuvfdemTp1qjz11FMyZMgQmTx5cmDXIi83bdrUHfvSSy/JkiVLinweDkQAAQQQQAABBBBAAAEEEEAAAQQQQAABBBAoHYFj0UXpXJyrIoDA8QlY+Pu8Br+vJWU/z2Ld3v1krYLV0LGwrbIGr5c11SB1k4a/LUVm6Xu3Khp66vm8dpUGpN8eC01P05D1sjN8ezYfFNmiAeyvKSIT14oMru/bfnFrkY+0erbf2zrccgsdilnPe5YGvsHtWz22f0ABZmSEVgZroLpJt3vtGg1XJ2kw/JzmUnf30mGevR0B79s0vG6kP90scPXaYL2uNRsyeo+Gwc31vF5rpKPkVtdrWWDrbf97d/WbqQ4bNdjV5w+1rdFnNwOrcn7zG61Kjtd70cD4Rz33GTVF7Jm81lLv4W11ooWvgIW+Vt1rFcA2V7A31LNXGRx85948wlYNnFef4GOC163K99VXX5Xbb79dXnnlFbFhoO2v1davXy9RUb6/urD3sWPHymOPPSbTpk1zgXBsbKxcddVVLgwOPmdR1q+88kr54osv5OWXXxabm7hbN/3LChoCCCCAAAIIIIAAAggggAACCCCAAAIIIIBAmREgCC4zHxU3ikCWQF4BsNfDgmF73bxcg2KtvC1sIDxcQ9orNQR9WKtup2/SylYNUQMDTKvKbVPHd7UGWv3qtQ9+0fl+p4qs0Qrgdlr9Onawb48Nm/zOhb6hnz9cJ9LlPR0eWqt9f9fBO9L3nqlvmQFBqW210WltSGZ/0/WHeov0fj97lbJ/vy5ozpvtfgP3SeC5su3Q6wSs19Xw9/9pFfF9Wn38ZN+AHSEsXnDMwLp+f4lWCetP2mzPcOwc9qiB1zy2mbcwExjVtJur8B28YrKrBM4r4LVKYG/IaDvmeFrDhg3lvffeExsSumrVqrJhwwaxylxvSGg7d40aNWT06NHy8MMPy+7du6VWrVr+oNj233TTTe5ly16zAHndOv2HMKjZ0CjB29u0aSPz58+XnTt3SkKC/kNPQwABBBBAAAEEEEAAAQQQQAABBBBAAAEEEChTAgTBZerj4mYrukBBAXBuPhYGFzYQ7naKDqmsPx3e/07n99Vw9+E+2c98TWuRS/QV3P6sQx0/NkirXLUS9lGtVPba3E06xHNl37y+NrfvAD3vyPkaMLfxevjeT9fK3I17srZlaEq6RqtrezfM2mZLLbQK+d62IvfPzb7dWztFK3A3a4i9N9k3t7Btn/WjyE8H9L71mlb9u0mrhlsdC7O3a7Xufr2WVe4Gtov0Ga36+KllgVvzX26tY0N/dbUOM71Lq6g1rN6roXhTPaSpnvsdrf614NcCYGsb9B5O02emhbeAVQHbMNBjNi1xQa9VCHvDPluVsG23ZsNBWyWwhcBe5XBRniw9PV1uuOEGsbmCzz//fElJSZEnnnjCnapv35x/lWDhbt26dYtyqQKPsXOffHLAcAAFHkEHBBBAAAEEEEAAAQQQQAABBBBAAAEEEEAAgXARiAyXG+E+EEAgfwGb+7e7VpoGDwOd/1FZey0Mjnspaz2/pRgdffa3Gtj+YbFW3epwxon6Cmz7NNy0eX+9l827G9guaiVSTYPk1772bV2k1cn3zhH55ZBvjt6f9b2m/vSJCvoJdIUGr+M2iCza6psD+LWVOpSzDrXsDesceI0bOons0nGhky1ZDWrt64n0PUnkBQ1wD2sgvFnD5IcWiRzQZXu2O3R46WfUc9NeX1j8lD7nBRoKt6qd/URWBW3Vx3P3ZN8eyprNP2zB+BNLfeHvMB0Oe+1hkfH6TDa/8YItIhM2ahiuVl6zIbU9U3tPTff28F7aAhbsju0wwlUE271Y5a+9rErYAmBrNm+w9TmeENjOY+GrBb7vvPOOXHjhhXLZZZfJqlWr5L777iu2YZ/tOjQEEEAAAQQQQAABBBBAAAEEEEAAAQQQQACB8i1ARXD5/nx5unIkYEFuSbYhiVpxq5W7F+p7cLtF78VeXps/1FvyvVfSnyx/1aD2Tzqs8qUa7t6io+Qe1OUOb/uC2zbxGvgOEKmkoWxgs2rhRzQsvfFLHVJZQ9EBWi076bzsc/16/eNjREb30irjT70tWe8W9r54ji98rvs/nfe3ksjleu6RHXx9btX7Oar3M0grdm2+4Iu14PHfg3IfTtqqj+9rK3LnsVA76yoFL92kBh0ni8z+Uec+buZ7lr/PFfmjhsNWOfx4d5E+TbPOM04D83ETstZn6bP3aJS1zlLpC9iw0N7Q0DYfsLXjDX5ze6qRI0fKpZdeKt99952bI9iqg20OYBoCCCCAAAIIIIAAAggggAACCCCAAAIIIIAAAqEKROicgJmJibkkPaGegX4IlGGBpKQkDVmqSXzlKhKp5Z8RNiFtmDarCD7eMLgo8wUXJ0e6hq5WoXtSCHmW9ausYe/xtmQ9j83RGzjHsXdOux+rZrb9JdmK69lK8p6L41peRfqR64vjbKGdI10/ZBtaOaGG/vUBDQEEEEAAAQQQQAABBBBAAAEEEEAAAQQQQACB4xTYuy/ZFe5EBQ97epznLe7Dt25ZL5HFfVLOhwACJ0bgWq0utQDNwtzCNjtm8XARO0dpNvuZGEoIbPdYHCGwnccqh3MLgW2f3U9Jh8B23eJ6NjsXDQEEEEAAAQQQQAABBBBAAAEEEEAAAQQQQAABBBDITaCE6+ByuwW2IYBAYQQszLWXVQhby69KuLQrgH13yFcEEEAAAQQQQAABBBBAAAEEEEAAAQQQQAABBBBAAIGSFiAILmlxrodAEQX++JHIa0m+imAvDA48lRcI/66hhsMaFLfXeW+9tupnPU6DYzu+JIfl9a7POwIIIIAAAggggAACCCCAAAIIIIAAAggggAACCCCAQMkKEASXrDdXQ6DIAt012LUg1wJfe3nVvt5wz9574AUCA+DA7SwjgAACCCCAAAIIIIAAAggggAACCCCAAAIIIIAAAgiUbwGC4PL9+fJ05UjAgt7ODUSWb88Kg71A2B4zMAi2YaMXaxWwBcfWcqsS9u3J/+vRdJFKUfn3Cd6bniESEZH3vLzB/VlHAAEEEEAAAQQQQAABBBBAAAEEEEAAAQQQQAABBBAofgGC4OI35YwInDABG+7ZXhb6WtjrVQd7FwwMf21bUQPg974TeUyrjlcliwysLvK3riLdG4kMnyRyYaLITV18V/xhl8jgqSKTzhNppP0emK3LGj7X0p8s5zcW+WcfXf9Wt68Q2auhcnKm77gGur9bTZG3R4ic+brICr2ObfPalKEi//ta5LkfRRYOE+lY39sj8oZu/8NikXE9RC5vm7WdJQQQQAABBBBAAAEEEEAAAQQQQAABBBBAAAEEEEAAgSyBgOglayNLCCAQfgIW/HrNgmDvlVsgnFsA7FUJvzjEO0vu7xv2iFwxT+TDgSJ9NMz9bL3IiJkiP1wucmM7kXuWiFx5hki1OJGXV2pQXEekkwa1d2uf/akia64QSdOq4FGfiTy9SORPGtiemyiSqkFw4rsaYOv6oGYi0ZG+6x/S7U+0F7m0ddb9JMRrVfGx1Q/XZg+C3/zBt8OuQUMAAQQQQAABBBBAAAEEEEAAAQQQQAABBBBAAAEEEMhdgCA4dxe2IhB2AsHVvnaDXhhs715QbMNHW9WwtdzmCH7RtyvPrweP+nY1qSZSOUargE8TmVjJN9SzLf93tcg7WuU7UMPcF7Rid8kFvv67taq3nga4FuJGaor7aD8R21ZFz2EvC4KtNayq/fQV2Ornss32X6UB8xsbRe7q6buXb38R2aTnHFYr8GiWEUAAAQQQQAABBBBAAAEEEEAAAQQQQAABBBBAAAEEggUIgoNFWEcgTAWskre7VgUHDgftzRHsBcLerecWAHtVwl6fvN7b1hP5awuRs6eIXNNch3jW5UGnZlXo3qnDRN+mFcOrd+oQ0RoGt9aKYGu36fZrPvMNH31ZS5EhelxiiIHtVfNFvtXzWTtNj7lMK46tJdYQOZgm8qUGzkP1nNPW6nDXei9Ldvj28xUBBBBAAAEEEEAAAQQQQAABBBBAAAEEEEAAAQQQQCB3gWODs+a+k60IIBBeAhb4Hrle5PnOWfdlYXDcS76KYAuA//iRBsZTRV5L8vWxAHjxcBELkr1K4ayjcy5ZNe/D/UU+0nl646O0KneGhryfiqQfG4rZhnU+XSt4J2zT4Z8D7uMMDZBnXyoyUod4nqJVvH3eFVl67B5yXiX7lnMSRNpooGyvxlqJ7LVkrSK+RAPg93Q46KMaCL+xQYNpXT+kyzQEQhWIiIiQ9PRjJemhHkQ/BBBAAAEEEEAAAQQQQAABBBBAAAEEEEAAAQSCBOx3zfY757LSqAguK58U94lAgIBXAewNB+2vEtZQ2GsWFgcOE+1tL+j9u19Efjkk0k8D37Y6xPTVOi/waRN13uDtGjCf4hv2+azGIoc1jG2qAa41C4mna7VuN91/SRvf6+9fijyj9zNBg+iC2jUaHl+ir+CWotndOVqV/Feda/jN1SItNIBupWExQXCwFOt5Cdi/kCP1rxt+2blH6p+s3zw0BBBAAAEEEEAAAQQQQAABBBBAAAEEEEAAAQSKKGC/a65SpVqZCYMJgov4QXMYAuEgYIFwYLN5hG/WbaFU/gYeF7j8s4bA12mI+2FlHfa5rshPB3x7Kwf8tAj+W5coHVvg5W90yGa9/r29fP3d/MABxwReI3h53xGR/fryWpVKvqWITJFqcRpCNxW5W0PlZ8/0evCOQGgC9odZUVHRElspXtat2yhNmzaSmJiY0A6mFwIIIIAAAggggAACCCCAAAIIIIAAAggggAACKpCamiqbNm2VWrXqut85l5Wi4BBjGj5jBBAIZwEvEL62GG5ygFYC379fh4TW4aA3HxWprcNDP6PhslUH59fGnC3ywByRhq/pD0QNcIdp8eWj/fI7ImvfLRry2str83VY6sB2gQ4H/b8ftTpY5wemIVAYAV9FcKTExsVJjYRa8sWXc+VI8hHJzNRvUhoCCCCAAAIIIIAAAggggAACCCCAAAIIIIAAAgUI2O+Z4+LjpFOnzu53zZGRkWWmIjhi3bp1mYmJiQU8IrsRKJ8CSUlJEhdXTeIrV3HDx5alcd1P9CdiMdkBrdKtGusbDjrU66XokNEZenA8RZehklWYfjaXtTWb57qkW4Z+U2ZkZLi/2kpPS5VM/T8aAggggAACCCCAAAIIIIAAAggggAACCCCAAAIFCURIhERFx7jRJi0EtukIy0LbumW9UBFcFj4p7hGBUhCwH2M2LHNhWyw/VQpLRv8SELB/MUdE2L+g9S8bYmOpCC4Bcy6BAAIIIIAAAggggAACCCCAAAIIIIAAAgiUBwGviNCGg/aWy8pzEdmUlU+K+0QAAQQQOC4B+xd01rwNZeMvto7rgTkYAQQQQAABBBBAAAEEEEAAAQQQQAABBBBAoEILRFbop+fhEUAAAQQQQAABBBBAAAEEEEAAAQQQQAABBBBAAAEEEEAAgXIoQBBcDj9UHgkBBBBAAAEEEEAAAQQQQAABBBBAAAEEEEAAAQQQQAABBCq2AEFwxf78eXoEEEAAAQQQQAABBBBAAAEEEEAAAQQQQAABBBBAAAEEECiHAgTB5fBD5ZEQQAABBBBAAAEEEEAAAQQQQAABBBBAAAEEEEAAAQQQQKBiCxAEV+zPn6dHAAEEEEAAAQQQQAABBBBAAAEEEEAAAQQQQAABBBBAAIFyKEAQXA4/VB4JAQQQQAABBBBAAAEEEEAAAQQQQAABBBBAAAEEEEAAAQQqtgBBcMX+/Hl6BBBAAAEEEEAAAQQQQAABBBBAAAEEEEAAAQQQQAABBBAohwIEweXwQ+WREEAAAQQQQAABBBBAAAEEEEAAAQQQQAABBBBAAAEEEECgYgtEV+zH5+kRQAABBEpKYO+VJXWl3K+TmZkp+v+u2TINAQQQQAABBBBAAAEEEEAAAQQQQAABBBBAAIGCBCIiIlwXe/OWCzomXPYTBIfLJ8F9IIAAAgicMIGMjEyJjsqUmBhvIAzfv7hP2AU5MQIIIIAAAggggAACCCCAAAIIIIAAAggggEC5EkhNzZC0dJHIyLLz+2XvN+Ll6oPgYRBAAAEEEDABq/xN038zZ2akBoTA2CCAAAIIIIAAAggggAACCCCAAAIIIIAAAgggUDgBKzSy3zW73zmXkVEnCYIL9xnTGwEEEECgDAnYv4vT09MkLo4BMMrQx8atIoAAAggggAACCCCAAAIIIIAAAggggAACYSlgv2u23zmXkRxYCILD8tuIm0IAAQQQKA4Bqwi2YaEjI/nXXXF4cg4EEEAAAQQQQAABBBBAAAEEEEAAAQQQQKAiC9jvmu13zva757LQ+M14WfiUuEcEEEAAgSILlJV/IRf5ATkQAQQQQAABBBBAAAEEEEAAAQQQQAABBBBAoMQEytLvnAmCS+zbggshgAACCCCAAAIIIIAAAggggAACCCCAAAIIIIAAAggggAACJSNAEFwyzlwFAQQQQAABBBBAAAEEEEAAAQQQQAABBBBAAAEEEEAAAQQQKDEBguASo+ZCCBSvwLoft4i9Qmmh9gvlXPRBAAEEEEAAAQQQQAABBBBAAAEEEEAAAQQQQAABBBAIf4Ho8L9F7hABBHITWLtxk0z++Etp07K53HHD1bl1cUHxlBmz5du1G/Ptl+vBbEQAAQQQQAABBBBAAAEEEEAAAQQQQAABBBBAAAEEECizAlQEl9mPjhuv6AJDB/WViwcPcCHvk2Mn5OCwKuDRY8a5/bbTwuDpM+fk6McGBBBAAAEEEEAAAQQQQAABBBBAAAEEEEAAAQQQQACB8idAEFz+PlOeqBwLWLgbGOZ+v2Gze1oLeUNpFh6XxZaall4Wbzvfe05Pz5DMzMw8+6SlZeS5jx0IIIAAAggggAACCCCAAAIIIIAAAggggAACCCCAQEECDA1dkBD7EQgzARsO2pqFwPkFwDYkdGCz6uFQ26yFy2T85OlykR4zLCA83rhlmzz8zCtyxmmnyu3XX+U/3cpvvpdn/veO/O3m30vL5k3c9qSffpGHnnlZzzFQzunbw22z4x9/Ybz8399ukZrVq/mPv/avD0pcXKw8//Df/NssJP187mL56Iv5sv/gQWlQr478dvi50rbVqWLn/seTL7i+lWJi3HtEZIS88Mg98vyEd2XZqu+y3Yt1+HT2Qnln6mdy+fnnytl6P7c9+KT8euCgeMdbn7tuukY+n7dY1v+4TR68448SHxdnm+XZcW+7+62VUF0++Gy2pKal+UNcO75h/Tryjz9d7/qu37RV/vWir0L7aGqq2+Zd41//+IscPZoqr02aKt+t/9Fdu3fXDnLJkLMkOjrK9bWwf8J7H8m2n3ZIDTW66Lz+0rtrR7dv7JuTJTIiUq67/EK3zhcEEEAAAQQQQAABBBBAAAEEEEAAAQQQQAABBBBAIC8BguC8ZNiOQBgKtGjW2M3164XBgbdow0N7cwVb1bAXEtscwq1ObSKFqQbO0GpVa3MWrZChA/tIRESEW1+47Gv3bmFkYJuzdKVbnbdspT8ItiDXgtD3Pv5COp/RSmrVrKHhqbhtmQHFrpu3/eSOPXIkRXbu2St1aia49a9WfycTP5opt1xzqSQ2bSR27qdffVOe1DDVq6S97dorNIStF3gr7hq2IfBebH3O4q/sTdIzfNXFqalpMnRAL+nfs5vbbl+qnVRFQ9502bV3n7yvgfsVFw52+yz4TdPt/c7sLF07tJW09DS559Fn5TINlTu3bS3RUT4f69z0lAbyyF23uOMefvZladaogVx5wRC3XlmD5SdfHC8JNarL/919qxzQgPv58ZMkJjpaLh4ySPb9ekCeHPu6DBnYS+64/kpZq6Hw2DfflxrVqrnw3e4tMjIAz52VLwgggAACCCCAAAIIIIAAAggggAACCCCAAAIIIIBAToHsaU7O/WxBAIEwE7CwN7fqXgt+vbmCLfS1ANj6Wf/ChMDe4zasV1eOaJC79sfNbpMFpwu+Wq2hclOvi3vfr1W1X3+3Tq6+aKgsWfmtWKAb2GprAPz6Bx8Hbsq2PH/5SunWoY20btFMFi73Bc3WYbYGt13bnS7tWreQypXj5Ow+3eW3w87Odn4Ll2slVPO/vBPbPbp7STnqNlklst1n44bZQ+OaCdmPjzlWlXtyndryhVZF23GBzSqE3fVq1HCb6xy7fvVqJ/m7WWWvd0/1aiVosJ11jQ2bt8nmpJ/lihHnSW2tLm7WqKEMO6u3fD5/iQu352ugXq1qFRl+Vl+xc3Zt30Zfp8sXC5b6z88CAggggAACCCCAAAIIIIAAAggggAACCCCAAAIIIBCKAEFwKEr0QSDMBCzYffVf97uXBb5eCwyDixoAe+dKz8iQPl3by/xlq9ymlWt+cMMjN254stfFvS9esdoN29xfq2Urx8fL8m++y7bfqmZ/2LBJh2v+1l+t63WwKtsFy1dL9w5nSI9ObWXukpX+at8du/ZI/Xq1XdejGkInJ6dIry4dxMJbr7389vsy7t0p7rX6+w3eZmlQt7Z7LdeqYmtWydyzUzv/fm9hwnvT/cd/Pmext1kaNayrw1l3l9cmThOby1fynsrXf0woCzt27XLDQVs47rUGdetKigbWVg38085dckr9uv4KbOtjgfxPO3Z63XlHAAEEEEAAAQQQQAABBBBAAAEEEEAAAQQQQAABBEISIAgOiYlOCISvgAW+eYXBx3PXNpdtz84d/JW185eukj7dO4pVBge2uYtXSo+OZ7jw8sxOZ7gwN3B/gs5ze7HOgfv6B5/I4eTkwF2yas1ayUhP12GPE6VDm1ayd/+vLjR2nSx8PRbAvv/JTPnrI/+WW/75mMxfusJ/juZaUWtDMdurRrUq/u1HdSjnPt06ad+V7n6tkrmXzsWbkpL93i1k9Y6vW7um/3hbOP/s/nq/R2TG3EXZthf3yrFRt32Pas/rbTh2IRt02obUpiGAAAIIIIAAAggggAACCCCAAAIIIIAAAggggAAChREgCC6MFn0RCFOBExEGH01PlYYn19FXXfl83iJZs36jnKlVuzZfrtc2bdsuSTt+kUk6l+9Nfx8tH3+5QNZu3CxWzRvYBpzZxQ2X/J4GuoFtzPh35YhWw/7pgSfkzkf+IxlahfylDslsrb5W9Sb94quE/e3wc+X5R+6RuLjYwMNlYK9uMqBnF/dq1CCrUvloWqp0a3+GrNehmGfMWeiGYW5ySv0cIfbAXl39x9sQ1IEtLraSXHXREPng01k6Z/D+wF1FXq5Xu5abI3n33l/95/hZq4ArxcRIgg4FfXKdWpL08y/+qmjrtP2XXXJy3Vr+/iwggAACCCCAAAIIIIAAAggggAACCCCAAAIIIIAAAqEIEASHokQfBMJUYPrMOf55gYs9DD5Whdq3W0cNQ2dLu9Nbykk6f21gW6DDRttctk/c+2d5+I6b5HF9rxwfp3P9+oaT9vpGRkbI7y8ZLtt+yhrieL8OhWzNwlY71l4X6ZzGK75d6+YBtqGml65cIyu//cENz7xj526xoaQD24FDh+TQ4WT/y79P771KlTjp3K6VvKdBbt/unfy7AhcOHDrsP9bO44aBDujQvnVLnaM4USysLY52apNG0qh+PXln2idi9570806ZPnOehtGdfRXVWoG9d/8B+WTWfEk+csTNvbxk1RoZ0KOz//LJh1Oy3XNamg5dTUMAAQQQQAABBBBAAAEEEEAAAQQQQAABBBBAAAEEggSig9ZZRQCBMiJgIfDkj790d/vk2AliQbC9bNnmCrbmzRls24vaunZoI2/osM59dWjlwObm99Uhly84q5/UCpjz9uw+3cWGi+7c9vTA7mIVu+f26+Gqhm3HohXfSJXK8dKve2eJivL9TcpZvbrL1M/nyrLVa6R3145yxQXnyasTp8jBg4clJiZaunVo7Sp99+zzVeg+/sJr2a7x0mP/yLbeW+cUXrbqO+muQ1fn1j749EsNuX2Gtv+uG6/J0e2KEYPlm4D5h3N0KMQGC8RvHXmZvPrOh3LbA09KdHSU9OrcXi44d6A7S62EavKX666Q8ZOmycTpM53Pb4edLe3bnOa/yjdrN8it/3zcv3779Vfp0Nqn+tdZQAABBBBAAAEEEEAAAQQQQAABBBBAAAEEEEAAAQRMIGLdunWZiYmJaCBQIQWSkpJ0uOFqEl+5ilhIFxE0P2u4ogSGwHaPNkdwYNgbGAbntj9cnyuv+zqs1bHxsbFl5vPJ6zkCtx/VuZajoqIkSr/vcmtHjqTkGAo7t35laVvyYd/dxlcuubu2Ku+UlBRJqBFfchflSggggAACCCCAAAIIIIAAAggggAACCCCAAALlVmDvvmSJ1czCK3IL1wfdumW9MDR0uH463BcCeQgUFALbYRYKWzjsNa8y2Fsva++V4+LKVQhs/pW0wjmvENj2B8+HbNto4SWwat9PYi8aAggggAACCCCAAAIIIIAAAggggAACCCCAAALhKMDQ0OH4qXBPCOQhsO7HLf7hoK1LcCVw4GG5DRNtx7do1jiwG8sIIFAIgVc2L5PFe5Nk2t6t2Y4altBIuic0lD806ZJtOysIIIAAAggggAACCCCAAAIIIIAAAggggAACCJSWABXBpSXPdREogoCFuF6lb34hsHfq4MpgbzvvCCBQOAGr/L1h5Yfyj42L3IEW/H7c8WJ5qHkP97KNts/6lESVcGpqqjz99NMye/bsfB/ksssukxYtWsj+/b55tfPtnMfOtLQ0d47Bgwfn0YPNCCCAAAIIIIAAAggggAACCCCAAAIIIIAAAuEoQEVwOH4q3BMC+QhYuGvDQw8d1DefXlm7vP4tmzelGjiLhSUEQhawYHfwismuvwW/gVW/7WvUd9ttm1ULWxhs1cIWEnv7Qr5QITra/ObPPfec9OnTR/r16+eOXLhwoaxYsULOO+88ad48a2j4QpyWrggggAACCCCAAAIIIIAAAggggAACCCCAAALlSIAguBx9mDxKxREINQT2RArb3zuOdwQQEBmzaYljKCjctTC4S/WGLjS2Y8Z2GHHC+Jo2bSrTp0+XevXq+a+xdOlSefbZZ6VVq1YEwX4VFhBAAAEEEEAAAQQQQAABBBBAAAEEEEAAgYorQBBccT97nhwBBBBAoAABq/K1Cl+rBA6lwtf6WF+rDLZjA6uHC7hUjt1W4bt8+XJJSEiQs88+WxYsWCAxMTEydOhQOXDggFjwW79+fRk4cKC89957LgS2k7zyyiuSnJzs+nknPXr0qEyZMkXWr18vzZo1k+HDh0t0tO8/AT7++GPZs2ePXHrppe78dsycOXNk69at7hxVq1b1TiNbtmyRmTNnip2vZ8+e0rZtW/8+FhBAAAEEEEAAAQQQQAABBBBAAAEEEEAAAQTCS4AgOLw+D+4GAQQQQCCMBBbvTRKbD7igQNcbPtqqhq2vHWevgo7L61GtsveZZ55xuytXrixjx46V7du3u2pfC4L37t0rDzzwgAuBLQgeN26c/1RLliyRqKiobEHwNddcIzacdEpKimRkZMiiRYvksccec8dYcLxq1SoZMWKEPwh+//33Zdq0adK1a1fxgmALkS+88EKxOYMPHz7srvHEE0+4UNl/cRYQQAABBBBAAAEEEEAAAQQQQAABBBBAAIEwE5g7d6588cUXMnLkSGncuHGY3d2JvZ3IE3t6zo4AAggggEDZFbBq4O4JDfN9AC8EDu5kxxalbd68WcaMGeP+g2TWrFlu3t8bb7wx31NNnTpVbr31VtfnxRdflPHjx2frb2GxzR88b948qVu3rqsgPnjwYLY+oaxYOG2h8QcffCDx8fEyevRoOXLkSCiH0gcBBBBAAAEEEEAAAQQQQAABBBBAAAEEEChxAS8EtgtbQY2NeliRGkFwRfq0eVYEEEAAgZAFLOANbjbcc2ALDIED5xAe1bSb65bbOQKPz215/vz5kp6e7v46rWHDhhIZGekqcXPrG+q26667zlXw1qlTRzp16uQO+/nnn0M93N+vV69ebrlNmzZy7rnnys6dO2XdunX+/SwggAACCCCAAAIIIIAAAggggAACCCCAAALhIuCFwFYoc//990vz5s0rXBhMEBwu343cBwIIIIBAWAp0qe6rCLZQ1+b+vWHlh+4+8wqBbeey/UlFfhYbwtma/UdJcLMhoYvSLEz2WqVKldyihc3H0xo1auQO37Fjx/GchmMRQAABBBBAAAEEEEAAAQQQQAABBBBAAIFiFwgMgfv06ePOf/XVV1e4MDjrN8PFTswJEUAAAQQQKLsC7WvUdzc/ZtMS927rDzXvITbks4XBg1dMdtsDK4GDn9Y7R/D2/NarVKnidicnJ+fo5u3LsaOYN9j8wAU1m2/Yms1hTEMAAQQQQAABBBBAAAEEEEAAAQQQQAABBMJNwCqBvRDYuzcvDLYp+ipCi64ID8kzIoAAAgggUBSBYQm+qlfv2D806eIWrTLYWl4h8OK9SRJ8rDsghC8tWrRwvWw+30GDBrnlffv2uXevmje300RERLjNGRkZue3Oc1tCQoLb9+uvv0rVqlXz7Gc7LPyNjY11fZYs8QXkXmVwvgeyEwEEEEAAAQQQQAABBBBAAAEEEEAAAQQQKEGB4AA48NIWBleURhBcUT5pnhMBBBBAoNAC3RMauuGgbW5gLwT23m3I6Nwqfq2vVQ1b9XBRWv/+/cXC1ddff92Fro0bN5YJEyYUeCovkJ00aZILbIcOHVrgMdahXbt2MmvWLHnwwQflnHPOkUWLfCF3bgffeOONMnjwYPnqq69k+fLlMmDAAHevufVlGwIIIIAAAggggAACCCCAAAIIIIAAAggggEDpChAEl64/V0cAAQQQCGMBC32tutcqgAODXy8MDr51bx5hqwbOq0/wMcHrMTEx8uqrr8rtt98ur7zyisTFxYn9hdr69eslKioquLt/3QLk9u3by8yZM+Wbb76RUIPg3/3ud7JixQr54osvXCBsfyl33nnnySeffOI/ty307t1bGjRoIPfff79Y1bGtjx49OlsfVhBAAAEEEEAAAQQQQAABBBBAAAEEEEAAAQTCRyBi3bp1mYmJieFzR9wJAiUokJSUpCFLNYmvXEUiIyPEG1q1BG+BSyFQYQSSD/seNb4Ep5RNT89w1bEJNeKL7GzhrjcfsFX55hXwWiVwQUNGh3oTqampYoGwDQltwzVv2LBBhg0bJhdffLE8+uij+Z5m586dEh8fX+Awz8En2b9/v7tmQXP+HjlyROz+TjrppOBTsI4AAggggAACCCCAAAIIIIAAAggggAACCJR7gb37kt1ojlFRkWH9rFu3rBcqgsP6I+LmEEAAAQRKW8CGf7a5gMdsWuKCXqsQtiGjrVmVsG23ZsNBWyXwqKbdch0y2nUK4Ut6errccMMNYnMFn3/++S7IfuKJJ9yRffv2LfAMderUKbBPbh2qV6+e2+Yc26xC2V40BBBAAAEEEEAAAQQQQAABBBBAAAEEEEAAgfAWIAgO78+Hu0MAAQQQCAMBC4PHdhghVvXrDRUdeFsWAOdXLRzYt6BlG/7ZAt///Oc/Mm7cONc9Ojpa7rvvPhkyZEhBh7MfAQQQQAABBBBAAAEEEEAAAQQQQAABBBBAAAEnwNDQfCNUaAGGhq7QHz8PX8ICZXVo6LyYbMhoaxYSn4h26NAh+e6771z1rVUHx8bGnojLcE4EEEAAAQQQQAABBBBAAAEEEEAAAQQQQACBQggwNHQhsOiKAAIIIIBAWRQ4UQGwZ1GlShXp0qWLt8o7AggggAACCCCAAAIIIIAAAggggAACCCCAAAKFEgjvWYwL9Sh0RgABBBBAAAEEEEAAAQQQQAABBBBAAAEEEEAAAQQQQAABBBAwAeYI5vsAgXIgsO7HLTJlxmxpdWoT9zRDB/UtB0/FIyCAAAIIIIAAAggggAACCCCAAAIIIIAAAggggAACCBRVgCC4qHIch0CYCDw5doK7Ey8Envzxl/L9hs1y/tn9pEWzxmFyl9wGAggggAACCCCAAAIIIIAAAggggAACCCCAAAIIIIBASQoQBJekNtdCoJgFps+c4854xw1XZzuzhcHfrt3o33bPqJGEwn4NFhBAAAEEEEAAAQQQQAABBBBAAAEEEEAAAQQQQACB8i9AEFz+P2OesBwKWABsVb8W9l48eIB7Qm94aFsJDH6t7+gx47JtKwxJalq6xERHFeYQ+iKAAAIIIIAAAggggAACCCCAAAIIIIAAAggggAACCJSyAEFwKX8AXB6Bwgp4IbANBW1BsM0HbNusCthCYVu3UNi22bI3X7DNIRxcOZzftdes2yhvvv+JbP9lp9SoXk3O6tVVhgzs7Q4Z++ZkWfTVN1IpJsZ/igvO7S9xsZXk7amfyV03XiPNG5/i9n06e6HMW7JSHrrzJn/fwIUJk6fLlwuXyfOP3OOOt30HDh6SOx95Wv5y/RVyWvOmgd1ZRgABBBBAAAEEEEAAAQQQQAABBBBAAAEEEEAAAQQQCEGAIDgEJLogEC4CFvBa4GsVv4HNqoMtBG6poanNGRw4LLQFwbbdjgu17dn3q/znlbd0nuE+MvDMbrIpabs88+rbcnKdWtKp7eliVcItmzeR6y+/yH/KyvGVZOGyr+Xo0VQZP2m6/OPP10tUVKRkZKTL0dRUf7/ABTvPklXfuk3LV38nvbq09++2YzIzMv3rLCCAAAIIIIAAAggggAACCCCAAAIIIIAAAggggAACCIQuQBAcuhU9ESh1gbUbN0mbls3dfL8WCge2wKDXGxraqoKv/euD7pjAvgUtL17xtVStUlmGDuwjERER0rpFc7nushESHx/nP7R6tSpSK6Gaf91biNWq4EOHk2XG3EVyXv+e3uZc31d/t1aiI6PEqonnLVmRLQjO9QA2IoAAAggggAACCCCAAAIIIIAAAggggAACCCCAAAIIhCRAEBwSE50QCH8BC4jPP7ufWFhscwJ7w0TbnVtIbPtDbb/s2isN6tZyIXBaWoZW+R7VMPhUiYqO9J9i6co1EldpiluPjoyUqy8Z5luOipKrLhoiL0yYJF3btZbMfIp65y1dKd06tpHuHdvKB5/Okp2790qdWgn+a7CAAAIIIIAAAggggAACCCCAAAIIIIAAAggggAACCCBQNIGsVKdox3MUAgiUoIAN8WzDPgdWA3tDQducwS2aNXbDQNstWfhr1cB2zKv/uj/Hcfnetoa3XoC7+vu18tdH/i1/euAJGTfRF/zasZEa/jY9pYF7NW5UP9vp2rduKe1aJ8qE9z/Ktj1wZf+Bg/L19+ula/szpF7tmnqe+rJg+arALiwjgAACCCCAAAIIIIAAAggggAACCCCAAAIIIIAAAggUUYAguIhwHIZAaQhY0GuVvVbxa80CXguArdk8wdasItia7bO+3rotT5kx2+0r6Eu9ujVl+y+7JF3n6O14Rit5/pF7pEOb07Id1rldKxnQs4t79eveOds+W7lixGC99madA/ibHPtsw5zFX+n8wRnyrxfHy01/Hy2btv0kH342WwNoTaFpCCCAAAIIIIAAAggggAACCCCAAAIIIIAAAggggAACxyVAEHxcfByMQOkIeGGwzQE8dFBfF/ranVgFsBcIB9+ZBcZeaBy8L3jdhmpOPnJEps6YJSlHU+Wgzvm7d//+bN2SD6e4uYBtPmB7Wb/AVqPaSXLxkLNkS9KOwM3+5cVffaPVwK3lkTtvlofvuEn+dvPv3b7v1v/o78MCAggggAACCCCAAAIIIIAAAggggAACCCCAAAIIIIBA0QSYI7hobhyFQKkK2FzA3nzAFv5aMGxDRtu8wN7w0cE3aAFxqEFwQvVq8pfrrpAJkz7SKuI5bhjollqNPHxgX/9pv1m7QW795+P+9RHn9JOTKlf2r9vCgDO7uOGeDx48nG37pq1JWnG8U2648iKpVbOG22fvLZs3kQXLVslvh5+TrT8rCCCAAAIIIIAAAggggAACCCCAAAIIIIAAAggggAAChROIWLduXWZiYmLhjqI3AuVEICkpSeLiqkl85SoadkZIRERE2D+ZzQls7Y4brnbvVhVs4a8NG21zB9vwzxYK29DQ1tcLfy0I9o5xB4b45ciRFImJiZGoKAYQCJGMbnkIJB/7e4D47H8vkEfv4tmcnp4hKSkpklAjvnhOyFkQQAABBBBAAAEEEEAAAQQQQAABBBBAAAEEKrTA3n3JEhsbG/a5ydYt64Vkp0J/q/LwZVHAKoEt6LUA2JoNDW3NQt/AuYNtm/Wb/PGXbrhoO64oLS4u/H+YFeW5OAYBBBBAAAEEEEAAAQQQQAABBBBAAAEEEEAAAQQQKM8CDA1dnj9dnq1cCljlrw0BbQGvvbxhoe39nlEjXWWwPbgXFAduK5cgPBQCCCCAAAIIIIAAAggggAACCCCAAAIIIIAAAggggEAOAYLgHCRsQCD8BawK2F42FLTXrPrXGwbaGx7aAmMLjmkIIIAAAggggAACCCCAAAIIIIAAAggggAACCCCAAAIVS4AguGJ93jxtORPwQl6b+9cqgG0eYK9KmErgcvZh8zgIIIAAAggggAACCCCAAAIIIIAAAggggAACCCCAQCEECIILgUVXBMJZwFclHM53yL0hgAACBZEKVAAAQABJREFUCCCAAAIIIIAAAggggAACCCCAAAIIIIAAAgiUlEBkSV2I6yCAAAIIIIAAAggggAACCCCAAAIIIIAAAggggAACCCCAAAIIlIwAQXDJOHMVBBBAAAEEEEAAAQQQQAABBBBAAAEEEEAAAQQQQAABBBBAoMQECIJLjJoLIYAAAggggAACCCCAAAIIIIAAAggggAACCCCAAAIIIIAAAiUjQBBcMs5cBQEEEEAAAQQQQAABBBBAAAEEEEAAAQQQQAABBBBAAAEEECgxAYLgEqPmQggggAACCCCAAAIIIIAAAggggAACCCCAAAIIIIAAAggggEDJCBAEl4wzV0EAAQQQQAABBBBAAAEEEEAAAQQQQAABBBBAAAEEEEAAAQRKTIAguMSouRACCCCAAAIIIIAAAggggAACCCCAAAIIIIAAAggggAACCCBQMgLRJXMZroIAAggggAACCCCAAAIIIIAAAggggEDZFnj55Zdl8eLFMmvWLPcg/fv3l+7du8t1111Xth+Mu0cAAQQQQAABBBAolwJUBJfLj5WHQgABBBBAAAEEEEAAAQQQQAABBE6MQFpaWo4Tp6en59hWUhvyuvYHH3wgmZmZxXYb119/vQuBR40aJRMnTpR169aJLVtr0aKFWEhMQwABBBBAAAEEEEAgnAQIgsPp0+BeEEAAAQQQQAABBBBAAAEEEEAAgTAVePvtt+W8886Tiy66yL1Wrlzp7vTnn3+WESNGuOUjR47I7NmzS+wJAq8dfNE777xTMjIygjcXad1CXqv8femll6RDhw7uZSeyZasGvvvuu+Wxxx4Tz6RIF+EgBBBAAAEEEEAAAQSKWYAguJhBOR0CCCCAAAIIIIAAAggggAACCCBQ3gTmz58v7777rntNmTJFHn30UbnxxhslOTlZTj75ZPnwww/dI+/fv18efPDBIj1+Uap3A69dpIuGcJA3HHTg8M+2zSqEveaFwWPGjPE28Y4AAggggAACCCCAQKkLEASX+kfADSCAAAIIIIAAAggggAACCCCAAALhLWBB7+9//3upVq2au9GWLVvKU089JSkpKbJ9+3a58sorZcuWLXL55ZfL1q1b5ZprrsnxQP369XMh8bBhw+Tiiy+WTZs2uT533XWX3H777dKjRw+xCt8ffvhBrrjiCrngggtcta2dPykpSS677DL/OSdNmiRjx471X9t22LFXXXWVDB06VO69915/X1v4/PPP5cILL5QhQ4bIM8884/ZZhfMtt9wiAwYMkE8//TRb/8AVmxPYqoEDmwW/3rDQ3nbbZnMHUxXsifCOAAIIIIAAAgggUNoCBMGl/QlwfQQQQAABBBBAAAEEEEAAAQQQQCDMBSzkbdSoUba77Nmzp9SoUcMNv7xv3z5p3LixvPXWW67f+PHjs/W1FQt0LYydNm2aXHrppTJ69GjXZ9euXWKvhQsXSp06deS2226Tv/3tb2Jz/Fr4a8MuN2zY0M33a/PyWrOq5D59+vivbduefPJJOeecc2T69OkycuRI2+Tatm3b3D67p6lTp8rSpUtl2bJlYsNYWwD80Ucfybnnnut1z/Fu4W5gNbB1sLDXzhHc+vfvH7yJdQQQQAABBBBAAAEESk2AILjU6LkwAggggAACCCCAAAIIIIAAAgggUHYEvKGbbVhkq7q1KtkFCxYU6gFatWrl+g8fPlyWLFnilm14aasojoyMdNXEcXFx0q5dO7fvrLPOku+//14OHjzoQmSr7N29e7fs3btXTj/99GzXtiDZzmutRYsW/n0W/K5fv17eeecdGTdunMTExMjq1avdfpvbOD4+3t+3MAtWKRzczCS3gDi4H+sIIIAAAggggAACCJSEAEFwSShzDQQQQAABBBBAAAEEEEAAAQQQQKAMCzRv3lx+/PFH9wRWHWtVt+3bt3cVuUV5LAt9MzIy3KFWVVy9enW3nJaWJtHR0dlOaevp6emu2tcqeGfPnu2Gjc7WSVfsfHbe4GbDV1swnJiY6F42bHX/Y5W7zZo1C+6eY936hjrcs4XDXbp0yXEONiCAAAIIIIAAAgggUBoCOf/ruDTugmsigAACCCCAAAIIIIAAAggggAACCIStwCWXXCJWCWxDOFuz0PXXX3/Ncb9WbWvBa17Nhmm2ZsMtd+7cOUe3Jk2auIrfjRs3un2LFi1yw0JbUFyzZk23/K9//UsGDx6c49hu3brJF1984bZv3rzZv79jx45uWGnbb6Fu7dq1/cGzv1MBC6FU+VpYbM/VoUOHAs7GbgQQQAABBBBAAAEESkYg+59Ylsw1uQoCCCCAAAIIIIAAAggggAACCCCAQBkS6NSpk9x8881y1VVXSa1atWTPnj1icwR37dpVdu7c6X8SL6y1OYBtvuCoqCj/Plt46qmnxOYT3rFjhzz33HPZ9tmKBcnWx+YJtvDX5vF99NFH/f2GDBkin332mTRo0MC/zVu444473D3adevVq+dtltNOO02uvvpqueiii9y9x8bGyuOPP+7fX9DCSy+95CqKrdLXC3ntfdSoUdkOHTNmjJvPONtGVhBAAAEEEEAAAQQQKEWBiHXr1mXa0Dg0BCqiQFJSksTFVZP4ylV0+KgIiYiIqIgMPDMCJSKQfNh3mfjKJXI5d5H09AxXjZBQo2hzfpXcnXIlBBBAAAEEEEAAAQTKjsCBAwekatWqef5vaJtL2KqFveGevSezOX1XrVolNvyzzctb0P8GP3z4sFSuXPj/AZHXcTa8tFUrF+WcVu37m9/8xgW9NjR2YLN9FgLb/MDB+wL7sYwAAggggAACCCBQPgT27ksW++PCqKjwHnh565b1QkVw+fie4ykQQAABBBBAAAEEEEAAAQQQQACBEhE46aST8r2OBbzBIXDgAaEGsaH2Czy3Led1nFUn57Uv+BzB61YBPHHiRBf4PvbYY26Iaa+PDQd99913EwJ7ILwjgAACCCCAAAIIhI0AQXDYfBTcCAIIIIAAAggggAACCCCAAAIIIFB+BcaPHy/R0WX3V1EWBtsw0dZsvmQbKtqat82t8AUBBBBAAAEEEEAAgTASKLv/9R1GiNwKAggggAACCCCAAAIIIIAAAgggUJEFdDToAluXLl1dn1D6FniyEuiQ3+xRxTkEdFnxKCx5fn6FPVd+/curX/Az4xksUrrrJfV5lO5TcnUEEEAAgfIgQBBcHj5FngEBBBBAoFgFbD6z5cuXS9++fXWehyh37nnz5smZZ57pXy/WC3IyBBBAAAEEEEAAAQTKgIAvcAsh8S0DzxLKLeYdMEbo/MahnCGrT0WzsyfHL+vzL44lPItDsfjOUZyfR/HdFWdCAAEEEEAgpwBBcE4TtiCAAAIIVHCB9PR02bVrl6xevVps+DdrFg57zfanpKT45xfLyMjQX3Jkir3bKzY2VtLS0twrLi7OO0zsuNTUVAnc5t/JAgIIIIAAAggggAACYSjgCztyD39z3ZrrxjB8sPxuKZeQN/umzICQM+9QuELamWt2LCedfRN++X375diXHQ/PHEAlvKGYPo8SvmsuhwACCCBQgQUIgivwh8+jI4AAAgjkLXDyySe7MHj37t1Sq1Ytf8edO3e6gLhGjRqyd+9e6d+/vyQlJcmqVavEjrH+1atXl8jISDlw4IA0a9ZMTj31VNm+fbv88MMPLiSuVKmSfz4x/4lZQAABBBBAAAEEEEAgzATsjx295payvnibJauHf5OWggYsl7VFC3mC7j/nJt3i+3/X2ZgigkqEK6SdfdY5sXLZhJ9RhdTwDImpxDoV0+dRYvfLhRBAAAEEEFCBSBQQQAABBBAoCYH4yiL2KivNfpHTtWtXWbZsmavk9e47JibGDRHdrl07iY+Pl3379rldVulr/Tt27ChbtmyR7t27S48ePWTr1q1u/9dff+2Gmu7Zs6ccPHjQVQZ75+QdAQQQQAABBBBAAIFwErBg0wsyLRN1ebB+cf93bJ/td318nX2dvGWXpLoj7eiy9fKeIeDde1bfuz2RQ3Au9nTW/PvcLt9W+2qnsS8Vwu6Yiw/GQfie3Z7f/9JN+Nk3RWgv+wYKemVZmiueIVuGap5fv6DPwj6Awnwe+qHTEEAAAQQQKHEBKoJLnJwLIoAAAgiUFQGr7G3UqJGsWbPGf8tHjx4VC3WrVavmKoat2tf+h5/1sxYdHS1NmzZ1yza/sA0Hba/9+/fLggUL/NttCGkaAggggAACCCCAAALhJmA5hy9YOfbVBR1Z2/xLLoDyr9mCd5hvuax/tco/f9Phn21Zv0S4EDPrUW17pv4RqXv34bn5g32MvqAuq/expfJud8zK3nwNP0+iyO/uG9A7Gk9PotTei/B52D/9mZn62WU7ttSegAsjgAACCFQgAYLgCvRh86gIIIAAAoUXaNWqlcycOVOOHDniDl6/fr1YNbANDW2Vv9aseji/eX8tELbg2KqEbVjo5ORkN0S0O5gvCCCAAAIIIIAAAgiElYCLMK3QTZuv2s235FZ91W9ug+6zd68dC0G91XLx7k9sMo8Fwb4Azg0DrWGOhcL22Jbr+Hp4dr4t9gej1txX/eIqB92GCmBnz4mfKRRfw7P4LIvjTIX8PHzd7acBSXBx8HMOBBBAAIHQBQiCQ7eiJwIIIIBABRSwuX67dOkiM2bMcE/fuHFjWbx4sT/4TUlJCUnFhoyeM2eOVK7sGx/7zDPPdAFySAfTCQEEEEAAAQQQQACBEhDIFly6kPNYkOmFmBpsemGm19dSzqBYswTutOQu4aLfY7mNBcC26N4t1bF1ffNZKIStWMvMGv3HsmBnVgHtjAI/Uyi+hmfxWRbHmUL9PNzPCd8/De7ngftjkuK4Ac6BAAIIIIBACAIR69aty0xMTAyhK10QKH8CSUlJGuZU03lLq0hkpP0PuGP/o638PSpPhECFFEhPzxALahNqxBfr83vDOltIXNhmw0RbhTANAQQQQAABBBBAAIFwEvAVr2pqqc0XXLolXRbJ8O2UKP3v36iowv83sDtpOfpi/zsj/dhUL5Hu9wj2+wSfnfeYNgSsSmLngQS8F9Zv1yGRlTuiZOuvEZKWlbEHnLHiLkbrP46NqmVKh3rpUruKCN+Ppf+9EPz97ftVo/2M8P0Rie8Ofeulf7fcAQIIIIBAUQX27vON+Bju/228dct6oSK4qJ8yxyGAAAIIVFiBogTAHhYhsCfBOwIIIIAAAggggEB4CXghsMWX1nzDHnshcKUYfoXkfV72Cz97HU1Nc0Gvmzc46A/LM7Uq2IuGsfPkfO+F8bMQeOq6aGlXT6Rvs+znYc0nsPrnCGc0vEWahsE2SLl+5/H9WGrfHsHf35FWCax/KOKGj/d/NPbTgWKUUvuQuDACCCBQwQT4M84K9oHzuAgggAACCCCAAAIIIIAAAggggEDeAhpQ2DDG2sEb0tgqgWk5BczFM7J3Vz5tdgEv7HK6eVtC8bNKYAuB257sHcV7sIDZmJFZBX7v8f0YLFWy69m+v+3S9jPC/+chJXsvXA0BBBBAoGIL8F/yFfvz5+kRQAABBBBAAAEEEEAAAQQQQKCCC7h8Qg2yxRSWa9r/6U6rcKPlFDCXjAyn5DIeG7XYXuZpW20fdjndvC2h+Nlw0ITAnlje72ZkVnw/5m1U0nvs+9sF8/qzwP7fmr0dW3Q/J9xGviCAAAIIIHCCBRjX5wQDc3oEEEAAAQQQQAABBBBAAAEEEECgTAgEpBS+EFhDCy8lLhMPUPI36avA9M0HrAPAupQHu9A/h4L8mBM4dEuzKsgz9LPRszgEvM8jU4eG9n4+uPMyKnRx8HIOBBBAAIEQBQiCQ4SiGwIIIIAAAggggAACCCCAAAIIIFA+Bfw1avp4FmNaoOSFSv+fvTuBk6OsEz7+zCSQkxwQIAnhCAlyhiPcl4QAHojgIrsKCsKKrK7neiP7rrLrivexCy4iawQUcUWRQ1CBAHIFOQSSQEISjoQEwpH7TiZ5+/dMnk5Np7tnOjPTmZ7+PZ/0dHUdTz3Pt6o7VfWv56k0rXvWvN214lnAGza1mI7PZ91oF3LTTK0I6NcKUIWT9awQrHNnbw4E535TN+R+GXLB3/j7EFfZfPOIzwnuXH9zV0ABBRRoFth0pKqIAgoooIACCiiggAIKKKCAAgoooIACUWBjANg4cNn9YRMPQxuD6Bs7f900rWwWdT1xk5F+HbEj6NkRih2YR36D5Ac6MHOzUkABBRRQoG0CBoLb5uRcCiiggAIKKKCAAgoooIACCiigQH0INMfkYjezBDc7Ij388MMdkU2XzINWf83NqHPFa2HXtuKunvpU4NVaaut8reXT1aa316+r1Wdrl0fPrb0FsuunNXDm9yE7yWEFFFBAAQWqJGAguErQrkYBBRRQQAEFFFBAAQUUUEABBRSoFYEU/k3vlZb78h9OCuefnev4tOGG0KPh/vD4Dx4K3TEYnB6hvDH+m+LAkStNa83utU+dHZb84ietzRbnact8rWbUhWZIRu3xK1adRx+ZFHjVW+osz3pz7Kj6pt/P9N5R+ZqPAgoooIAClQj4jOBKtJxXAQUUUEABBRRQQAEFFFBAAQUU6IYCHRWoIAD82CNHhWtuCOHH/zUnrFi1Nqxa96tw5Oe/HNY1zY3B4KOPPnqLBVeuXBmamppC//79tziPYguuWLEi9O3bt9ikLRrXVs+lv/55zH/VX++NrYJ77X9QyfUxD4mWweXmizMV/Fm3bl1Yvnx5dOvRo0d+Kq0VMS1Wd6Y98cQT4YADDgi9evXKL1NsYPLkyWG33XYLAwcOLDa54nFt9ctmTOD3sv/893Dnn+7Ijo7DX7/sO+HTn/38ZuPbOgI/9pH+/fqHxh6b2tVgtGrlqtCnb5+iWT0zdXIYsevuYcCAAUWnlxr5zJTccrtVvlyp/CrxfHpOCE/OLpXT5uPPO3bzcaXGrF27NmBJYj/cdtttW8zKvsi47D6aZnjxxRfDNttsE3bZZZc0qt3vL730UlzXiBEj2p1XJRmwPXhKsEkBBRRQQIFqCBgIroay61BAAQUU6FYCnLhy8anYxZA1a9YELoIccsghobFx0wWC1gC2dLnW8nW6AgoooIACCiigQP0IzJ49O9x3332xws8//3wYP358HD7++OM7HeHJx58Khxy2MjzceHQ4LLe2xn6PhU985rrw3tN3Db17Hh2OOvrSXGvZ3WI5HnwghEqDwUuXLo1BZAJFHIfzfuihh8bgY3srx7H97bffHt7+9reH7bbbLrz66quhT58+HRbUbG/5WD4FjBmmVfCOl/2YwVYT5y6PPvpoeOWVV0K/fv1iMHjPPfcMBx10UK61dkN4/fXXw6RJk8Lpp58e88rWnSDnzJkzwz777FP03Ce7cgJqO+6441Yz+9H3vxv+9eIvZIvUYjhNqzQYjN8Tjz2W2yfmNfstWx722HNUGHPggdHvjTfeyLU8fjicelqz32u5fadXn745h+bA7+yXZochO+xYcSD4pdkvhSFDKl+uRaW38MPfX1vZgpUEgv/617+G+fPnx4BuCgizL7JPkug1YOTIkfG1aNGisGrVqjB06NA4jX2V735HBoJfe+21GHiuJBC8evXq+H3aY489Yrn8o4ACCiigQFcXMBDc1beQ5VNAAQUU6HIC06dPD1yIOuqoo2LZXnjhhTB8+PB4UsrJLBdLDj744IrKvaXLVbQSZ1ZAAQUUUEABBRTotgLXXXddrNsJJ5yQfyc4R7r//vtDJcHgSloPxhWE/w0HH3ph+OmPJ4SrvvBYHLVk5xB+NfK34f23NAfIwsYgMBN/8O2Z4eib2t4qmIDkgw8+GI+5D8wF4EhvvvlmuOeee8LgwYNj8DaO3MI/tD4888wz8zdycjzf9qDmprZ9m7ttPqawiIuu+nZ+VLkA76on/5qfL7UMzo8oM/D0008HAldnnHFGbPlIYO3uu++OgUmCbzvttFM47bTT8jlUVvf8Yu0YaJ8fK84GgWn5e9+9E2Or4FPe/s78+wnjxsdA8THHHhcOP7L5PK4thZ6M35pV4V3vbvZbnfO7ZyJ+24U9Ru4Z95N3nvrufFbRL2eaAsH5CVUbaL/nKSNDuPOFthWYeStNb3nLW2Irc5YjKMzNK8OGDYs3X4wbNy7/PWQawd8UCK50PZ01Py3DaSlfaSB405bprJKZrwIKKKCAAsUFDAQXd3GsAgoooIACJQX233//sH79+vx0TgK5AFWshXB+JgcUUEABBRRQQAEFFOgkAQK9BCUKg7101UtiOoHic889t7ISELloc/pbOOyIhvDHndeFc0Z/P+w98Pq45FcO2jV846lDWuTy21vuDY/+9YRw+BHN5WsxscgHgkG0AOY4PKUddtghtmolsEkrXtKcOXPCc889FwgcU3cCTiRaGW6//fZx+t577x1bI7788suxRefixYsDwad77703tlJOrWfnzp0bWyPSWrHVtIURnmwrX9ZBgPf1i/+56OoKg79t6R6als6zZs0KJ510Ur6r3d69e4exY8fG4DArWrhwYXj22WfDMcccE/7yl7/Elo6p7mPGjGlRFgLK9H5EK1jyoaVwNkhHcH7atGmB3o7wZ3qb0hb6pbxTa18Cv7T4Ldbql2Axia6jf3fL7WnRsu/rm9aHF1+YFcaduMmvV67ehxwyNqzKWZAWLVgYpk9/Nhx59DHhwfv/kms5/ErOcG7Od1U4YEzzTQuLlywOM2bOCMuXLYutWfffOH7Sww+FfffZLwwcPCjmNfmpp8IOQ3YIw3dp7qb4zQVvhunP5TxXrwm7sj/vXR3PWJg2/jli9zbOWGK2IUOGxCnsM7TCf/LJJ2NQmH3smWeeidMIFKcbXPgd4PvM95ZluQG7Z8+ecb+lNTs9c5GYzk0Q6Tcx5cfy3OTBDSUsl00EeB/Ltf7ed9994zy0SGZ/p0v1nXfeOS4zb9688Mgjj8QewiZOnBgOO+yw1lt7V/Q7mi2RwwoooIACCnSMQGPHZGMuCiiggAIKdD8BLmL8+c9/jheFuIDCRSES3ezRKnhZ7kSekz9a8951112BrvhS4sISd9qzfBrPiSXzc2EqJVoxcGKZEq2LyYtl6b7NpIACCiiggAIKKKBAOQGCvDw7MwU8mJdxvFJK07Lj0rSOef9wLpuDc62CDwo3zjo0nPmnX4Y9/+PRMGvEe8PZo28Obx/26marmfRQc2vlzSYUGUFvPAR7C58butdee8WADYtw7EwQiUAQwRlaZqYW0QSBCArxrFuCQAQ0Ob6nq+TUkw/BZm72ZFmec0sQuc2BzCJlbsuoDc89stlsBHyLvbIz9uq/IWy448rsqKLDnH9Qp8Ln9tL6khsHSFgQwCW1VncCYHQnTVAOH/YnnvlK4n3q1KnRn21AQD75xxmq8KfYs4HTamkJTCo3T5o3va9YsXyjX3OgNo3fOee3+0a/NWvXBAK2pLGHHh4G5Pad0Xu9Jez1lr3juKbcuSIB3gMOGBMOze1bs2bNDHRHTFqw4I2wZqMfnxctXhRveGB4XW78s89MDQceNDYclPOcOeO5MHtjC3+md2a6qKAn+d+cF8L0S5pfDLc3LViwIJ5PE+glqEur9LSPcmMCN3ewf/EaNGhQOPzww/Or5LeOluzcuMDvwt/+9rc4jWVYNiXO0fnekzhv5yYHljvuuOPi+TtdVGcT3wMCzgSX+Y0gYMy5Ot8TlkmtgPnupJ7BeO/oZ5Vny+SwAgoooIACHSVgILijJM1HAQUUUKBbCRCQnTFjRryQwcUh7gxOJ+wEbpcsWRL69u3b4iSQ7qFT4k7hI488MowePTpwksmJKBdhuMCUTZycMi0lTl45oWQ5ur/LBonTPL4roIACCiiggAIKKJAECIwQrMgmAr+7796yqR7BO+atTnoyPLXwh+H07w8MSz97efjyf54cGsKmmybfe/q4cNQxLctXrly0Ftxmm23ysxDEJbDLi1aAJAKPtOSj5S/BI4JItBAmEcTZb7/9YutVWrKmRKCX+bOJY3yCO7x3do8//V6/Owzff10YsNOGQHC3tcQ8Q0Y2hR12bwrbzL67tdljy9zGxsZ8AB2r5IZhYWqt7gTkODfadtttY49ItKhMwTe2Ea2nCegRSKPldTUCwY8+MilfDbqFLpXoDpoWw6TsMqXmZzx1wq+xR/PlU7oqnjrl6fh64fnN/fr07RP69WXf6Zffd1blWgbvlwsCD8ztkzvknvnL/rZs6ZJyq43TWPeYA/EcEJ8VPHqvvcOc3HODt3Z6ctPXOBbl4LY16m9R7HTTBq1taX1OcLUw8d1jf+RmDd5JBGfZ52idO2DAgLi/tWUf49ye5wrzHGDyYz/NBnBpOc+N2JSD3wkSv5WsZ9ddd43zchMJvyesnzz4PaJc7B8mBRRQQAEFurpAyz4wunppLZ8CCiiggAJVEuDEjwtDXMQgcVGJLtOyiZM+Tv44GeREkndO2EncTc/JISeJjz/+eAzoFrZgyOaVhrl7PuVHS2JONju7JUJat+8KKKCAAgoooIACtSdAbzWFXT7TUrMwEExXvcxbnXRw7ubGX8RV5e5xDOGo/w1NH/pk+O8fLg2f/tzE8NubQ/iXL87NTWhbFIkuY2nxlxKBSII3HLPTQpXuiQlypkBnmo+AMIljcrqSzqbCz9lp1R7uv2NT6J9b6bLXe4QlrzUUXT3BYuarJBH05mZUWutybsKLcdyMyk2uo0aNqiS7eDMsLTA5XyFQx7kP+aeEc0oME4CvZkqtfltb50MPPtCm5wT37lPgF+vdJ7z5xuvh9ddeDyP3bJtf2g8pV0Njj9y+u8msXFmznv3798sF1qvjeeCuLUtF8LdwXJqj1Pg0vdg7XbwTWCWxD91+++3xBoJsN+PFlqO755Ym/ePvAK15yyVurk7dxzMf+2561jifuQGclN1O3PjNufjvfve7OC39yd7Encb5roACCiigQFcXMBDc1beQ5VNAAQUU2CoCXLTInixm7xhuS4HSncFcmOKV7Q663PLMmxLr5K5nkwIKKKCAAgoooIAClQrQUi49Izi7LDcbFhufnafjh+k6OoRPfiaEhx7YJtzw2xfj83jbuh4CNHQDSzCYQCat9Eip61eGBw8eHG+gLFa37DE283aV1LjPSWH9tLvzxWkO9G4eDC4WBG5898X55UoNcNMqQXN6JaL3IoLfvDhXIYheaaIbX3ovSgG7m266qUUW6aZYRhKc6+wW1S1WnvtQ7vm/PCM4dQvd1oBxnz59c8HzbcMbOb9hOb/tc3a8Ghtz7dvb2E1zv379Q2PmHC9b5sLzxNfmvxq3U5qnheea1aF3LoC5NdJfcw2RU8tfhjsysX/Supfvd9qvSuXP/kw3zymxj2HIDQ6FlpxHJz9+M9Iwy3Juzvl+Nqg8bty42CMXLbYpD/suvXQdeuihaXW+K6CAAgooULMC9l9Rs5vOgiuggAIKdKYAJ37ZO4uzw1u63nQBKhsUzt5BX5gvF7o4MTYpoIACCiiggAIKKFBKgOdeEtxtayoWKG3rsh0x3xe+TBPh94errmh7bgSCCRI9+uijLZ5JSzAnHWPT7ev06dPz02kd/PLLL7d9JZk56cmnGi3/Gv75fwLB4GwiGEz3z3QDnbqCLmwJzDINp1yQXazoMDZ0dUsrXlo4kjj/YDjduFq4YKm6cw7Dsun8he59s8E18pkyZUqcjh2tz4t1+Vu4vvZ+znb5TKB3u14NgaBv6v6Z4TNPPzX868VfyK+KZdqS8Nt3v/3D00/9LReobPbbsH7DRr9NN/Bm86K19Lp1zc9Nzo4vNkyQmOcEk7IBzjTvM1OnBNbX1LQuvDDr+bDTzpt3oZzm7ej3U0ZuyvHOF0L4+2ubXwynlJ0njavknX2J7ynPDE49cWWXz/a4xXhu1OYcOZ2b0x08vwuppy72a1q/ky+/BSnRLTS/kamFOl1FP/TQQ2lyvIGEbqDpzpybHehtgGW4mSZ9b2hVPG3atLgM3xHm4WVSQAEFFFCgFgRsEVwLW8kyKqCAAgpUXYA75ukiigtKXACYOnVqyaAsJ4KFF0GKFZg7kTlJ5UR3yJAh8XlIhfNxwWSvvfaKd0RzcYVnm5kUUEABBRRQQAEFFCgnUKr1b3YZuoseP358dtRWGR57GKudFP7pE0eFw44Moflz60WhJSoBzVtvvTV2TUwQhmN1gjck3mkFeNttt8Vn4nJjJ8tsSaLF8aRJk2IQ6Oijj96SLNq8TAwG3zkhrL/1svwy2/bNPQv42Obugze83PLZwTEInAsgtzWl84mJEyfGcxHcaD3No2yKpWzdjzwyt4E2Js6Jxo4dG10YRctJWlQSICMxTDDvlltuiQEyAnSc11QjXXzJv8XWvjwj+L57J8ZVpmAvrX+zQeByzxEuVtbRsQ4bwn333JPza8gFeXN+2w8Oh5TYcXfZdUT4a27fWbpkaTiilf1v3/0OCJMeeiA8P2tGbp/etkWPVH1znjvlPG+/7ZZ4U8JOOc/mshQr5dYZd8Tula+XmwQ4t+axS+xTPFOa/SzbLXPKleAsz7Rmnzr99NPj/ARo77zzzhjwpcv44447Ls6+0047BV78PpAvLd/TTdXslzxu6U9/+lP87eC8vNhvAzdN0Hqe3xm+HzxLmGcH0+KY701qHUxAmnJTLp69Xvic8VR+3xVQQAEFFOgqAg25i9wb6OrCpEA9CsydOzfXrdSA0Kdvv3hAz8GiSQEFuo8Az17ibuHBg/pUXClO9Lj4wx3KBHo5MSXY+7a3vS1Mnjw53k2cLoxwoshdxTzniItRnHyeddZZcTlWfOONN4aTTz455sGdySzP3c2cnBLsffvb3x5PLrloNXLkyBgg5gSZ5xLz/CSTAgoooIACCiiggALlBC699NJwwQUXtOjyOdsFNMMTJkwIX/3qV4tmQ2vPGG7kPb5CaNrY+pPWdf36Vn48XXRFG0eefdakXPfQIXzo/UeFn/+q3JybT6N8HJeX6naY8nIsT/CmPSm1COa4vVxatnxFDLByPSFdU4itZ3HMlaV/v77lFs9P25AJBjeMyD1aZnjzpIZ5ua5sNwaD6Q66LS2B85kWDHBuhEup1sBp9nJ1p25ML+WLP6/W3NK6WvO7Zkrf8KFD0tyl32n5SxD4hHHjw6c/+/kWM9IimNbCBIELp7WYsZUPa3LdM9NVdNrOpWYv51e4TPTkGc4leoJiOvtzWzyv+VvuO3VAx+yPT89pbgFcWN7s50vGhXDesdkxHT/MvkQr38LvO78BKdCbXSvzcv5ebB9vbd/N5pMd5ntTuH6mp67qs/MWDi9fsTKWhfL0yL247Bj3H34vcjO3ti8V5udnBRRQQIGuI7Bw0cr4/0OPHl274+U5s2cGA8FdZ7+xJFtBwEDwVkB3lQpUUaA9gWBOEjnp5J2TNrqdWrhwYclnmbX1ogrV50SefEudzDOdxAmsSQEFFFBAAQUUUECB1gRSoJcWv8cff3yL2WkJTGvQYtPSjBybVjMQ/MRjIRx6OGufFP77ByF84jNb1nI3lX9rvi9bTqCnOQicgjrxXALTXLe+/fu1PYgeg8Ezv5nrA7egRktz5wZv/78Q9jyoYELtf2zN75opfdoUCEaiVDCY8bQMTq2Ea1+teA2aA8Edtz8SDC6XDty13FSnIWAg2P1AAQUU6L4CBoK777a1Zt1MwEBwN9ugVkeBAoH2BILnzZsXu6yiKzXuNuZ5V3QLRxdnJgUUUEABBRRQQAEFuqJACvry3GASjx1hmO5Lyz0bmMAlKQaECWDmPnZmi2DWdf7Z/A257qEndctAcAwGVxgIbhbJ/Z3y89D0ZHNX0Q1DTw6NJ1fwQOV8JrUxUCoQnPwqCQSnGvN84O4e9E11zb6XCwQnz0puTMjm7fCWCZQKBKebRtL7luXuUgoooIACW1OglgLB5fu32ZqKrlsBBRRQQIGtKMAzgjkp44YRuj1761vfGrty3opFctUKKKCAAgoooIACCpQVoDUwL1oIk84999yy85eb2NkPTvrU50J47JEQLvp47bYGzvplvRhuDq1n56hg+IDzQ+wbaKexIex0YAUL1u6sHelXj0Hgwi3fkZ6Fefu5coHs9qh8aZdQQAEFFFCgfQIGgtvn59IKKKCAAt1YYNiwYYGXSQEFFFBAAQUUUECBWhIo1/q30np0VgBj7GEh8Kr1xDM/U4qDuT8bG1jH54GmaRW/54LB9ZA6za8e8IrUUc8iKFtxVObnYSuWwlUroIACCtS7QNd+inG9bx3rr4ACCiiggAIKKKCAAgoooIACClRbgOhFLqLU3G2poYzW+KMTEbhElbdrbUmnI6Bfx+4HenasZ/ty2/g7mv19aF+GLq2AAgoooEDFArYIrpjMBRRQQAEFFFBAAQUUUEABBRRQQIHuJEAEk86MmyOZDblhhuKn5lHdqbIdWpdcmGejVfN7sxqWGIrXGnZrfj1twtIaYX46Vq155md2oDoCuZ8AfgXSKzvUPFydYrgWBRRQQIH6FvBwqr63v7VXQAEFFFBAAQUUUEABBRRQQAEFNgmk2GWMXOTCSrmWbE1NTZumO5QXiC6xpV8Oa6NXPuKzcbx2ea7NBtriN2LAhjD51c0WdUSBAEZY0ZK/+ZWbIQ7znob9LhewdepH9u/NW2d36irNXAEFFFBAgaICBoKLsjhSAQUUUEABBRRQQAEFFFBAAQUUqA8B4kUxEUPKDzYHgQlkrF1nIHgjS4s3XBobm50ac065wfjCjBfTtGtB1uJDW/wO3nlteHp+MBjcQq7lB4LAGGHl/tjSZmt+Yv9OvwW5X4RYlPh3449s7ifCpIACCiigQFUEDARXhdmVKKCAAgrUksCECRMCL5LvOrgf+D3wd8DfAX8H/B3wd8Dfge74O0CdCtOmuASBzOYGhQQ4SatWr4ktgzcULlRnn6k/Lf3wIOHTbIVT8yuN0y4StfhTqd8OfUI4ba81YcHKDeEXT4Vwzd98ZQ0wwQYjrNK+RwDS/bHFrleVD6X3b1bf/Fva/LcqxXElCiiggAIKRIGGGTNmbBg9erQcCtSlwNy5c0Pv3gNCn7798ndN1iWElVagmwo0Na0Pq1evDoMH5c6ITQoooIACCiiggAIKKFBSYEOM8G6ITwoOuQ8beOXm3rB+Q1i/8fP69etzIzaOz02MQ3G55mybBzMjSq6tq09I7fc2ljMXuWFMDPgyKjfQ2NiYe6MVMBObWwNna5Vji1b1ZxeBNoa8Norol901tmDY/XEL0Dpxkcq2RwO9BuRKE4Pzud8KhuMvSvNA/OQfBRRQQIHaE1i4aGXo1atX6NGja7e3nTN7ZuhZe7yWWAEFFFBAAQUUUEABBRRQQAEFFFCgIwWIZ+ZivDFI0RzKJWCRG8oFMRqJ/7KyXPCTAHFD7sOG5j+5BZrn3kBQIw52k+hGrhobq5arGB/4t/E9Bn5znwjqbAzywJNNudE5ozq1AwKq5l1j4wf9svtHxcN6VkzWqQtUvD1yC+RS89/cexro1EKauQIKKKCAAs0CBoLdExRQQAEFFFBAAQUUUEABBRRQQAEFcgJEJ3KB3hiloFXwpmBwjAkT7c23CN4Y5dv4OcY1ultwI1ef5no1VywGftlPCAAzjXc+p7/NH2JAvXlszihGhHNv9Wa3kSWSxP0p46UfOpUn9jmW0rNyu85YooLtwSZr/l2NG7AzSmOeCiiggAIKlBQwEFySxgkKKKCAAgoooIACCiiggAIKKKBA/QgQrKBVcEwE63LR31xYONeyszk43NzqNzeWmXLTm2fN/U3LdEeq5sjbxlDvxmBOCgBR3+jU/J7waCXMcN3bRZ/mP5ExMjXjpc/64VNBinDpBgT3xwrkOmfWSrbHxhLwO2tSQAEFFFCgmgIGgqup7boUUEABBRRQQAEFFFBAAQUUUECBLixAq7XY/TNlJGJBkJe33HsM/eaG4zzNo3MTGMHM3ThtrF/LauaCcXFEes/VPxvh0W7TDqHfJouOGNKzIxQ7Lo+2bo/cGje1Cu641ZuTAgoooIACrQkYCG5NyOkKKKCAAgoooIACCiiggAIKKKBAHQmkYDBVbo5n0gKxOSIcG//GoDBT8wN86OZpU7Rn41DEyQ/nap+CPLHFdPyMkHbNO4Z+HfsF0bNjPdubW9u3R3vX5PIKKKCAAgpUKmAguFIx51dAAQUUUEABBRRQQAEFFFBAAQW6uUBzMJhKEsrMpWxrVz5vDAzHwbr5k5No/ldQ40yr4NwU7Qp48h/1y1N0yICeHcLYYZm0bXt02OrMSAEFFFBAgTYKGAhuI5SzKaCAAgoooIACCiiggAIKKKCAAvUk0Bz7patoah3/bAwK8zkX9Kj71DIAnOXQLqtRali/UjJbNl7PLXPrrKVKb4/OWqP5KqCAAgooUEzAQHAxFccpoIACCiiggAIKKKCAAgoooIACCkSBFNTkQ3NQOA7FafX1pzn4vVnj6DII2mVx9MtqtH9Yz/YbdmQOlW+Pjly7eSmggAIKKFBKwEBwKRnHK6CAAgoooIACCiiggAIKKKCAAgq0ENgUBG0OerSY6IeyAtqV5Wl1on6tElU0g54VcTmzAgoooIACNSvQWLMlt+AKKKCAAgoooIACCiiggAIKKKCAAgoooIACCiiggAIKKKCAAkUFDAQXZXGkAgoooIACCiiggAIKKKCAAgoooIACCiiggAIKKKCAAgooULsCBoJrd9tZcgUUUEABBRRQQAEFFFBAAQUUUEABBRRQQAEFFFBAAQUUUKCogIHgoiyOVEABBRRQQAEFFFBAAQUUUEABBRRQQAEFFFBAAQUUUEABBWpXwEBw7W47S66AAgoooIACCiiggAIKKKCAAgoooIACCiiggAIKKKCAAgoUFTAQXJTFkQoooIAC9Swwf/78cPPNN7cg+NnPfhaamppajGvtw0svvVTxMq3l6XQFFFBAAQUUUEABBaot8Oqrr4bp06fnV/v666+HZ555Jv/ZAQUUUEABBRRQQAEFFOiaAgaCu+Z2sVQKKKCAAltRYO3atWHBggUtSkBweMOGDXEc74sXL85/TjMyLgWLV69eHW644YbN8knz+q6AAgoooIACCiigQK0IcHy8cuXKfHHXrVvX4vOKFSvyx8FpJo6HmS8lhsln/fr1aZTvCiiggAIKKKCAAgoo0MkCPTs5f7NXQAEFFFCgWwm88cYb4Ve/+lUYPnx4mDdvXvjABz4QBg8eHCZMmBAGDBgQx73jHe8Ib775ZiB4fMcdd4Rzzz03NDQ0dCsHK6OAAgoooIACCiigAAL3339/6N27d7xR8oADDghDhw4NU6ZMCUuWLAmrVq0Ko0aNiuNuu+22sP3224cjjzwy9O3bVzwFFFBAAQUUUEABBRSogoCB4CoguwoFFFBAgdoTmDx5crjqqqvyBaf7O9Kdd94ZTjvttDBy5MgwY8aMcPfdd8fPTD/77LNjKweGjz766PD444+H9773vQaB84oOKKCAAgoooIACCnQnAVr4Llu2LBx11FGx9e/SpUvD8uXLAzdPjhs3LrYSvuuuu2IgmBbBJ554YneqvnVRQAEFFFBAAQUUUKDLCxgI7vKbyAIqoIACCmwNgTFjxoQLLrggv+rLLrssDhPk3XnnneMwrR1ee+210KdPn3D66afHrqCZcOqpp8bp/lFAAQUUUEABBRRQoDsK8KgUerzZZpttwkEHHRQeeeSRWE2OoQkG0zMOLYVJ/fv3j+877LBDfPePAgoooIACCiiggAIKVE/AZwRXz9o1KaCAAgp0A4Fhw4aFuXPnxprwzudFixYFnotG4JiWD7R6IHFxLD1XOI7wjwIKKKCAAgoooIACNSgwcODAsHDhwnzJGWYcx8Br1qwJxx13XNh7773DM888EwO/Q4YMCccff3x8jR07Nr+cAwoooIACCiiggAIKKFBdAVsEV9fbtSmggAIK1LjAKaecElv+Pvzww/HCF91B08qBi168eBYawWAS3Uf/4he/CBdddFFobPTeq4jiHwUUUEABBRRQQIGaExgwYEDYcccdwz333BNbAffo0SPss88+8cbHefPmBV4rV66M4zg2Hj58eJy3Z8+e8bnAo0ePrrk6W2AFFFBAAQUUUEABBbqDQEPu+YYbPCDvDpvSOmyJAK35evceEPr07ZcL0jTEk9gtycdlFFCgawo0Na0Pq1evDoMH9enwAtLyYdttt22RL889I+CbDfquWrUq9zvTu8V8flBAAQUUUEABBRRQoBYF6O1m/fr1gUBwNjU1NcVjYHrESYn5mL9w3jTddwUUUEABBRRQQAEFalVg4aKVoVevXrlj3a7d+GfO7JnBFsG1updZbgUUUECBrSpQGASmMLR4KEwGgQtF/KyAAgoooIACCihQqwIEeosFdouNy94cWav1tdwKKKCAAgoooIACCtS6QNcOVde6ruVXQAEFFFBAAQUUUEABBRRQQAEFFFBAAQUUUEABBRRQQAEFtoKAgeCtgO4qFVBAAQUUUEABBRRQQAEFFFBAAQUUUEABBRRQQAEFFFBAgc4UMBDcmbrmrYACCiiggAIKKKCAAgoooIACCiiggAIKKKCAAgoooIACCmwFAQPBWwHdVSqggAIKKKCAAgoooIACCiiggAIKKKCAAgoooIACCiiggAKdKWAguDN1zVsBBRRQQAEFFFBAAQUUUEABBRRQQAEFFFBAAQUUUEABBRTYCgIGgrcCuqtUQAEFFFBAAQUUUEABBRRQQAEFFFBAAQUUUEABBRRQQAEFOlPAQHBn6pq3AgoooIACCiiggAIKKKCAAgoooIACCiiggAIKKKCAAgoosBUEDARvBXRXqYACCiiggAIKKKCAAgoooIACCiiggAIKKKCAAgoooIACCnSmgIHgztQ1bwUUUEABBRRQQAEFFFBAAQUUUEABBRRQQAEFFFBAAQUUUGArCPTcCut0lQoooIACCtS0wIoVK8LatWvDwIEDN6vHkiVLwuWXXx6+9KUvhR49emw2vdSIxYsXhyuuuKLi5Url53gFFFBAAQUUUECB+hOYPXt2uO+++2LFn3/++TB+/Pg4fPzxx3cqxrp160JTU1Po1atXp67HzBVQQAEFFFBAAQUUaKvA/fffH1588cXAcTFpzz33DHvssUfo7GPjtpavWvM1zJgxY8Po0aOrtT7Xo0CXEpg7d27o3XtA6NO3X2hsbAgNDQ1dqnwWRgEF2ifQ1LQ+rF69Ogwe1Kd9GRUsfdVVV8WDiG984xtxyq233hre+ta3xsDw/Pnzw3HHHRemTJlS0YWwV199NR6EVLpcQdH8qIACCiiggAIKKFCnAtddd12s+QknnJAXeOmll/LDnXnBa+rUqWHp0qXhqKOOiut74YUXwvDhwys6Hs4X1AEFFFBAAQUUUEABBdopUHhsvNtuuwVumuT4eOLEifGGyfYcHy9ctDIe6/bo0bU7Xp4ze2awRXA7dyYXV0ABBRSoP4GPfOQjYf369fmKf/WrXw2/+tWvirYQzs/kgAIKKKCAAgoooIACnSRAa4dirRu44EViOhfDzj333E4pwf7779/i+PiJJ54IgwcPNhDcKdpmqoACCiiggAIKKFBOoNyxcTo+Jhi8++67h/S5XH61Pq1rh6prXdfyK6CAAgrUrMCGDRvCtddeG/7+7/8+XHTRReGmm24Kl156aazPzTffHKe9/PLL4YILLoitH/7hH/4h3Hnnnfn63nvvveG8886Ly991111x/Ouvvx7nzwaRCSrPmzcvvxyti88+++y47IMPPpgfXzhAGc4///xwzjnnxIt6aTpd8l199dXhfe97X1zXH/7whzQpTJgwIZb7K1/5Sjj99NPDJZdcEmiJ/B//8R/hPe95T/jUpz4VXnnllfz8DiiggAIKKKCAAgp0fYHU5V22RQPjeKWUpmXHpWmVvE+bNi38+c9/Dhzrzpo1Kzz66KNxcbrbmz59eli2bFlsYUFX0RwD0+rCpIACCiiggAIKKKBAtQRKHRunFsKUg2NjHqGSHqlSrbJtrfUYCN5a8q5XAQUUUKBLC9x2223h5z//eQyWfvGLXwy8Jk2aFMtM4JaLXUOHDg2XXXZZHPejH/0oHHvssfk6cSDxn//5nzFQ+9nPfjbwXOE1a9aEBx54IBBkTonPK1euTB8D3ep95zvfCe9///vDRz/60RZB4jTTHXfcEa688spYJrqnJnj8m9/8Jk7+wQ9+EB5++OHw7W9/O7DeH/7whyEFg3kmBkFfgseMf/bZZ+OBDwc/P/7xj+MzjRlvUkABBRRQQAEFFKgdAY7xaA2cTRzf0cIhm+gymnm3NNHdc+7xYuGQQw4JBx98cHjsscfCa6+9FrNbvnx5WLJkSejbt2++e2i6iaZ7aJMCCiiggAIKKKCAAtUSKHVsnH18CmXheJnru/Vw46KB4Grtfa5HAQUUUKCmBGhxSyCWi1yjR48On/70p8PMmTNb1KFnz54xGLzddtuFYcOGxQtfaQZa3e66667hjDPOCLTSpeVtW9IXvvCFMGLEiHDqqaeGcePGxZYUhcvRDfXHPvaxsN9++8WLfv/2b/8Wu92j5QWtfv/1X/81XvgbM2ZM+MxnPhOuueaamAUtmCnrAQccEPbcc89w0kknxfGsh4t0p512WnjuuecKV+dnBRRQQAEFFFBAgS4swAUsLmRlU7GWv3R7x7xbmriots8++4Qdd9wxDBo0KOy7776xBXA2v8bGxnhMzHFy//79A+8mBRRQQAEFFFBAAQWqJVDs2Dg9G7iwDFwfrYdkILgetrJ1VEABBRSoWGDu3LktnhGxyy67VJTHNttsE+fnYhgXwNauXdum5Xv06JGfj4t1xQLIc+bMiUHmNCOBXbp6nj9/fiAYnH22BUHsFMCmhQYB5pQICrNcSr169QqrV69OH31XQAEFFFBAAQUUqGGBl156qWjpt7TVAz3ccPyYEoFekwIKKKCAAgoooIACtSBQrGccetUpdcxcC3VqaxkNBLdVyvkUUEABBepKYPvttw8LFy7M13nRokX54S0dIChcmAjcZlO22+gFCxYEylGYaIWRLQ9dS7/xxhth8ODBgecPZ8vNeFork8grDRfm6WcFFFBAAQUUUECB2hSgJUMlwd3sTYOV1LjwpkFvIKxEz3kVUEABBRRQQAEFqiFQybExweHCx6lUo4zVXsfmV6SrXQLXp4ACCiigQBcUGD9+fPjlL38ZVq1aFbt25tm7Q4YMKVpSWtryXLTWEstvu+22YcqUKXFWniNcmOiSmsTFvD//+c/5Z6zxefHixXHa2972tkD30ASRCfzyLGLKSjne8Y53hKuvvjo+h5iLcz/72c9atPqNGfhHAQUUUEABBRRQoFsJtKUlA91Fc4y7pYlHifCMYB57wjHo1KlT47Ftsfzo5WbNmjXFJjlOAQUUUEABBRRQQIFOFWjLsTHXWulGektvkuzUCnRw5gaCOxjU7BRQQAEFuofAOeecE59/dswxx4QTTjghBmR55m+x9J73vCdceOGF4YYbbig2OT+O7qIvvvjicN555wXyvfHGG0O2K2i6kJ42bVo49thjw7vf/e74jGK6fSZ94xvfCClIfO6558ZnE/MsOJ7zS7D6Ix/5SJzva1/7WuBuNqaNGzcuHsycf/75cZp/FFBAAQUUUEABBbqfAMeGEydObNEqmGPBbOsGLnQxT+GzhCvR2HvvvUOfPn3C73//+3DLLbfEmyT79etXNAvW/cADD4Tnnnuu6HRHKqCAAgoooIACCijQGQLFjo0J9nJ9N5tooNOemySzeXX14Ybc3ZwbeH6gSYF6FOAZoL17Dwh9+vYLjY0NoaGhoR4ZrLMC3VagqWl9fObt4EF9Kq4jrRxoccuLbvCuu+66MH369HDZZZcVzYvWulwII5jbWiJwSxfQXEgrlphOgDg9Z5h5aHmRDRozjucOM7537958bJHoLpqyZPNoMYMfFFBAAQUUUIjXMocAAEAASURBVEABBbqNAIHeCRMmxItZhcFeWgITBOZCV+G0SgA4fuUYmXceeUKQl0eSHH300UWzoXcajkWLPR6l6AKOVEABBRRQQAEFFFCgAwTKHRszjSAwzwduz7HxwkUr4zXjHj26dnvbObNnBgPBHbBTmUXtChgIrt1tZ8kVaItAewLBXDC74oorAq1plyxZEugamtdRRx3VllU7jwIKKKCAAgoooIACVRdIQV+ejUaiuzuGaQHR3m7v5s2bF7uDfstb3hK7feZxJwSBhw4dWvV6ukIFFFBAAQUUUEABBcoJpIBvOh5O8/K5vTdIkpeB4CTquwJdXMBAcBffQBZPgXYKtCcQzKofeuih2Hpiu+22iwcIY8aMaWeJXFwBBRRQQAEFFFBAgc4X4MIXqb3B38KSvvLKK4HzaFr6jhgxIuywww6Fs/hZAQUUUEABBRRQQIEuJcDNkumxKR11fGwguEttYgujQGkBA8GlbZyiQHcQaG8guDsYWAcFFFBAAQUUUEABBRRQQAEFFFBAAQUUUECBjhOopUBw1+68uuO2iTkpoIACCiiggAIKKKCAAgoooIACCiiggAIKKKCAAgoooIACdSNgILhuNrUVVUABBRRQQAEFFFBAAQUUUEABBRRQQAEFFFBAAQUUUECBehEwEFwvW9p6KqCAAgoooIACCiiggAIKKKCAAgoooIACCiiggAIKKKBA3QgYCK6bTW1FFVBAAQUUUEABBRRQQAEFFFBAAQUUUEABBRRQQAEFFFCgXgR61ktFracCCiiggAJtFZgwYUJbZ3U+BRRQQAEFFFBAAQVqTuCCCy6oqMzp+JjlGPZdB/cDvwf+Dvg74O+AvwP+Dvg70N1+Byo6QK6hmRtmzJixYfTo0TVUZIuqQMcJzJ07N/TuPSD06dsvNDY2hIaGho7L3JwUUGCrCzQ1rQ+rV68Ogwf12eplsQAKKKCAAgoooIACCiiggAIKKKCAAgoooIACtS+wcNHK0KtXr9CjR9fueHnO7Jmha5ew9vcFa6CAAgoooIACCiiggAIKKKCAAgoooIACCiiggAIKKKCAAgpUXcBAcNXJXaECCiiggAIKKKCAAgoooIACCiiggAIKKKCAAgoooIACCijQuQIGgjvX19wVUEABBRRQQAEFFFBAAQUUUEABBRRQQAEFFFBAAQUUUECBqgsYCK46uStUQAEFFFBAAQUUUEABBRRQQAEFFFBAAQUUUEABBRRQQAEFOlfAQHDn+pq7AgoooIACCiiggAIKKKCAAgoooIACCiiggAIKKKCAAgooUHUBA8FVJ3eFCiiggAIKKKCAAgoooIACCiiggAIKKKCAAgoooIACCiigQOcKGAjuXF9zV0ABBRRQQAEFFFBAAQUUUEABBRRQQAEFFFBAAQUUUEABBaouYCC46uSuUAEFFFBAAQUUUEABBRRQQAEFFFBAAQUUUEABBRRQQAEFFOhcAQPBnetr7goooIACCiiggAIKKKCAAgoooIACCiiggAIKKKCAAgoooEDVBQwEV53cFSqggAIKKKCAAgoooIACCiiggAIKKKCAAgoooIACCiiggAKdK2AguHN9zV0BBRRQQAEFFFBAAQUUUEABBRRQQAEFFFBAAQUUUEABBRSouoCB4KqTu0IFFFBAAQUUUEABBRRQQAEFFFBAAQUUUEABBRRQQAEFFFCgcwUMBHeur7kroIACCiiggAIKKKCAAgoooIACCiiggAIKKKCAAgoooIACVRfoWfU1ukIFFFBAAQW6uMCGDRvCXXfdFWbOnBm22WabcNhhh4WDDz44rFy5Mtx8881h0aJFoVevXuEd73hHGDZsWPj9738fjjnmmLDTTjvFmk2bNi288cYb4bjjjmt3TSnLCy+8EPbcc89252UGCiiggAIKKKCAAgpsicD8+fPDpEmTwhlnnJFf/Gc/+1k477zzAu8kjoF333330KdPn3D44YeHRx99NKxYsSLMnj077LPPPnGej3zkI+G///u/Q+/evePnQYMGxWPqAQMGhMmTJ4cHH3ww9OjRI+y2227hbW97W2hoaIjztefP8uXLw9KlS8PQoUPbk43LKqCAAgoooIACCihQkwIGgmtys1loBRRQQIHOFHjuuefCq6++Gj72sY+FpqamcMUVV8SLUVz84qLU+9///rB48eLwk5/8JHzxi18MCxYsCOvWrcsXadWqVfFiU35EbmDt2rXxotayZctCv3794nCavmTJkhbjWJ4ANO/r168P1157bbj44otj8Dkt47sCCiiggAIKKKCAAtUS4FiWY95sIjhMuuiii+L7d7/73ThMIJh0yCGHxEDwlVdemZ+H8eTzta99jcHAcff1118fPvShD4XbbrstfO5znwvbbrttvPnyiSeeCIceemicjz+rV6+Ox8gEdQkcpyAxN05yPJ3G8XnNmjWBdxI3d06ZMiW8733vCz17ehksovhHAQUUUEABBRRQoG4EPAKum01tRRVQQAEF2ipAa18uJtGCoW/fvuHDH/5wvOjERanXX389BocHDhwYL2ilC0yt5c2FrRdffDGMGDEitvAlT/L4+c9/Ht+5kHbyySfH1hLf+973wpAhQ8KBBx4YXnnllVgWgtAnnHBCa6txugIKKKCAAgoooIACNSMwatSocOONN8abJLkBcuHChWHnnXcO73znO1vcaEmFLrvssrDXXnvFADDBZG7aZP5f/epXYfjw4WHevHnhAx/4QLx58utf/3psnXz00UfHAPObb74Ze/jZf//9a8bGgiqggAIKKKCAAgoo0BECBoI7QtE8FFBAAQW6lcAee+wRu3qm9cL2228fTjrppLDrrruGE088Mdx9992BQC0XoRifWiJcffXV+e7m5s6dG4466qgWJnSJd9BBB4Xx48eHJ598Mjz00EPxIhfrIgBMt9OXX355DARzoerTn/506N+/fww6z5o1yyBwC00/KKCAAgoooIACClRbgK6br7rqqvxquUFySxI3XHKTI4HfZ599NhCs5YZLupnmkSv0tHPsscfGwG02f5Y788wzY9fTBI9pTcxx9WmnnRZGjhwZZsyYEY/VTz311Nh6+KMf/WhcnBbKU6dODQaBs5oOK6CAAgoooIACCtSLgIHgetnS1lMBBRRQoCIBurLj9fLLL8dWBv/4j/8Ydthhh/isMgK3XEyia+jPf/7zMd8LL7wwtkTgAxekaMmbTXQ1TeCYtOOOO8ZnoNE1HV1Nk7hAxcUwuqLm+WWpS7040T8KKKCAAgoooIACCmxlgTFjxoQLLrggXwpa6G5J4kbK7bbbLjQ2Nob3vOc98RibfLjx8p/+6Z/iI1h++9vfxq6dOR7PJgLGJI6XFy1aFHvroQVxGvfaa6/FYQLDJgUUUEABBRRQQAEFFAihUQQFFFBAAQUUaCkwceLE2GKXsXTlPGzYsNjt3E9/+tP47GAuWtGigGf4ErhtS+JiFcFgEkFiun7mohWBZtLy5ctj99M9evTItzKOE3J/2tr9dJrfdwUUUEABBRRQQAEFuqoAQWCOpffdd998EJhHqFx33XWxyDw+hWkpqJutB88JJtEDDzdpcpzOcBrHZ1LqtYdhjt1NCiiggAIKKKCAAgrUq4Atgut1y1tvBRRQQIGSAnRF9+tf/zpMmzYtdk1HF820KuD9pptuCv369YstEHhmL61625Jo+fvUU0/FIPAbb7wRaGHMRbDrr78+XHPNNWHp0qWxRURhXgSGeU4xzxim2zuTAgoooIACCiiggALdTYDHpdBNNI9m6dWrV1ixYkX44Ac/2KKaAwYMiM8TputoAr08qmWnnXYKN9xwQ3j44YfjMmeffXaLZfjAPNOnTw9PPPFEGDt27GbTHaGAAgoooIACCiigQHcWaMg9Q2XD6NGju3MdrZsCJQW4c7h37wGhT99+ubuEG1rcNVxyIScooEDNCDQ1rY/PBxs8qM8WlTldZCIYm020RNhmm20qal1AAJmWDwSUWTabWE+xlsBpHloEr127Nj47LY3zXQEFFFBAAQUUUECB7ibAo1I4Nk5dQGfr9+1vfzt87nOfi49TKTyeXrNmTdFl0vKpF5/C4/o03XcFFFBAAQUUUEABBSoRWLhoZbyBsUePrt37zJzZM0PbmjFVUnvnVUABBRRQoJsIlGrtSyuFShN5ceGp8KIV+ZRaT1oHLR6KXQxL031XQAEFFFBAAQUUUKA7CNCNc6nj3jS+2PF0mlbKwABwKRnHK6CAAgoooIACCnR3AQPB3X0LWz8FFFBAgS4h8O53v7tLlMNCKKCAAgoooIACCihQiwKf+cxnarHYllkBBRRQQAEFFFBAga0q0LXbLG9VGleugAIKKKCAAgoooIACCiiggAIKKKCAAgoooIACCiiggAIK1KaAgeDa3G6WWgEFFFBAAQUUUEABBRRQQAEFFFBAAQUUUEABBRRQQAEFFCgpYCC4JI0TFFBAAQUUUEABBRRQQAEFFFBAAQUUUEABBRRQQAEFFFBAgdoUMBBcm9vNUiuggAIKKKCAAgoooIACCiiggAIKKKCAAgoooIACCiiggAIlBQwEl6RxggIKKKCAAgoooIACCiiggAIKKKCAAgoooIACCiiggAIKKFCbAgaCa3O7WWoFFFBAAQUUUEABBRRQQAEFFFBAAQUUUEABBRRQQAEFFFCgpICB4JI0TlBAAQUUUEABBRRQQAEFFFBAAQUUUEABBRRQQAEFFFBAAQVqU8BAcG1uN0utgAIKKKCAAgoooIACCiiggAIKKKCAAgoooIACCiiggAIKlBToWXKKExRQQAEFFFAgLFiwIKxatSoMHz58M41y0zab2REKKKCAAgoooIACCnSywOzZs8N9990X1/L888+H8ePHx+Hjjz++Q9fc1NQUXnzxxbDHHnuEHj16tMi71LRly5aFN998M4wYMWKzZVpk4AcFFFBAAQUUUEABBTpIoFrHxx1U3E7JpmHGjBkbRo8e3SmZm6kCXV1g7ty5oXfvAaFP336hsbEhNDQ0dPUiWz4FFKhAoKlpfVi9enUYPKhPBUs1z7po0aLwsY99LCxZsiReqFq/fn246qqrYkC43LSKV+QCCiiggAIKKKCAAgp0gMB1110XcznhhBPyub300kv54Y4MBl999dXhW9/6Vgw6F94wWTiNwPCll14aHnjggTB06NAwb968cPnll4cDDjggXzYHFFBAAQUUUEABBRToaIHOPD5euGhl6NWrV+66cdfueHnO7Jmha5ewo7e6+SmggAIKKNBGge9+97thzJgx4Q9/+EO45ZZbwsEHHxx++tOfxqXLTWtj9s6mgAIKKKCAAgoooECHCdx///2xde65554bdtttt/yL4G8KAKcLYe1dKcHlX/7yl0WzKTbtzjvvDFOnTg133HFHuP7668PHP/7x8O1vf7vo8o5UQAEFFFBAAQUUUKAjBKp5fNwR5e3MPAwEd6aueSuggAIK1KzAqFGjwtlnn50v/6GHHhroRYBUblp+AQcUUEABBRRQQAEFFKiCABe56KY5BXxZJeN4pZSmZcelaZW8b9iwIXz1q18NX/7ylzdbrNS0/fbbL3zve9+LLSZYiGPpWbNmbba8IxRQQAEFFFBAAQUU6AiBah4fd0R5OzsPA8GdLWz+CiiggAI1KXDBBReEkSNH5sv+xz/+Mf+MtXLT8gs4oIACCiiggAIKKKBAFQTSs3qzqyLwu/vuu2dHBbqMZt72pN/97ndh4MCB4eSTT94sm1LTaKHMs4QXLFgQnnnmmXDllVcGWi6bFFBAAQUUUEABBRToDIFqHh93Rvk7Ok8DwR0tan4KKKCAAt1O4Nprrw08F/iss87arG7lpm02syMUUEABBRRQQAEFFOhggeeff75Fa2CyL9byl4As825pmj9/fny27yWXXLJZFuWmpZmPPPLIcMYZZ4TJkyeH008/PY32XQEFFFBAAQUUUECBDhWo1vFxhxa6EzMzENyJuGatgAIKKFD7AnfddVcg2Hv55ZeHnj17tqhQuWktZvSDAgoooIACCiiggAJVFuB5vcXS7Nmzi41uddzXv/718KEPfSj07ds3LFu2LM6/dOnSsG7dulBuWsp4xowZgdcnP/nJcOGFFwa6kjYpoIACCiiggAIKKFAtgY4+Pq5Wudu7npZXtNubm8sroIACCijQjQQef/zxeFHrmmuuCTvuuGOLmpWb1mJGPyiggAIKKKCAAgoo0IkCe+65ZyC4S4vftqS2zpfNa968eWHq1KnxxU2STU1NcfJpp50WLr300pLTuJly5513jjdUHnDAAXGZU045JT5nmGDydtttl12NwwoooIACCiiggAIKtFugGsfH7S5kFTMwEFxFbFelgAIKKFA7ArRW+PznPx/+53/+Z7Pnq5WbVjs1tKQKKKCAAgoooIAC3UWA1g2tBXjpLnr8+PFbVOXhw4eHiRMn5pclELzPPvuE++67LzDtnHPOKTnt17/+dbjxxhsDN1fSmviBBx4Io0aNMgicF3NAAQUUUEABBRRQoKMFOvv4uKPL25n52TV0Z+qatwIKKKBAzQr84Ac/CK+++mr4wAc+EMaOHZt/TZs2LZSbVrMVtuAKKKCAAgoooIACNSlw7rnnxiBttsvn448/vsXNjEwjkMv4aqezzjorjBkzJq6bQPT//u//hu9///vVLobrU0ABBRRQQAEFFKgTga5+fFztzdCQa9W0YfTo0dVer+tToEsIzJ07N/TuPSD06dsvNDY2hIaGhi5RLguhgAIdI9DUtD6sXr06DB7Up2MyNBcFFFBAAQUUUEABBbqgAIHeCRMmxBa/hcFeWgITBCYIWzitmlXhWcLLly8PAwcOrOZqXZcCCiiggAIKKKBAHQp09vHxwkUrQ69evUKPHl27ve2c2TODgeA6/AJY5U0CBoI3WTikQHcUMBDcHbeqdVJAAQUUUEABBRQoJZCCvjwXjfT8888Hhk844YRWu44ulafjFVBAAQUUUEABBRSoVYHOOj42EFyre4TlrjsBA8F1t8mtcJ0JGAiusw1udRVQQAEFFFBAAQWiQOomurXnBsulgAIKKKCAAgoooEA9CHT08XEtBYJ71sMGto4KKKCAAgoooIACCiiggAIKKKBAvQgYAK6XLW09FVBAAQUUUEABBdoiUM/Hx1278+q2bD3nUUABBRRQQAEFFFBAAQUUUEABBRRQQAEFFFBAAQUUUEABBRRoIWAguAWHHxRQQAEFFFBAAQUUUEABBRRQQAEFFFBAAQUUUEABBRRQQIHaFzAQXPvb0BoooIACCiiggAIKKKCAAgoooIACCiiggAIKKKCAAgoooIACLQQMBLfg8IMCCiiggAIKKKCAAgoooIACCiiggAIKKKCAAgoooIACCihQ+wI9a78K1kABBRRQQIGOFZgwYULHZmhuCiiggAIKKKCAAgp0IYELLrigotJ4fFwRlzMroIACCiiggAIK1JhApcfHtVQ9A8G1tLUsqwIKKKBAVQS683/8VQF0JQoooIACCiiggALdSsDj4261Oa2MAgoooIACCiigQB0J2DV0HW1sq6qAAgoooIACCiiggAIKKKCAAgoooIACCiiggAIKKKCAAvUhYCC4PraztVRAAQUUUEABBRRQQAEFFFBAAQUUUEABBRRQQAEFFFBAgToSMBBcRxvbqiqggAIKKKCAAgoooIACCiiggAIKKKCAAgoooIACCiigQH0IGAiuj+1sLRVQQAEFFFBAAQUUUEABBRRQQAEFFFBAAQUUUEABBRRQoI4EDATX0ca2qgoooIACCiiggAIKKKCAAgoooIACCiiggAIKKKCAAgooUB8CBoLrYztbSwUUUEABBRRQQAEFFFBAAQUUUEABBRRQQAEFFFBAAQUUqCMBA8F1tLGtqgIKKKCAAgoooIACCiiggAIKKKCAAgoooIACCiiggAIK1IeAgeD62M7WUgEFFFBAAQUUUEABBRRQQAEFFFBAAQUUUEABBRRQQAEF6kjAQHAdbWyrqoACCiiggAIKKKCAAgoooIACCiiggAIKKKCAAgoooIAC9SFgILg+trO1VEABBRRQQAEFFFBAAQUUUEABBRRQQAEFFFBAAQUUUECBOhIwEFxHG9uqKqCAAgoooIACCiiggAIKKKCAAgoooIACCiiggAIKKKBAfQgYCK6P7WwtFVBAAQUUUEABBRRQQAEFFFBAAQUUUEABBRRQQAEFFFCgjgQMBNfRxraqCiiggAIKKKCAAgoooIACCiiggAIKKKCAAgoooIACCihQHwIGgutjO1tLBRRQQAEFFFBAAQUUUEABBRRQQAEFFFBAAQUUUEABBRSoIwEDwXW0sa2qAgoooIACCiiggAIKKKCAAgoooIACCiiggAIKKKCAAgrUh4CB4PrYztZSAQUUUEABBRRQQAEFFFBAAQUUUEABBRRQQAEFFFBAAQXqSMBAcB1tbKuqgAIKKKCAAgoooIACCiiggAIKKKCAAgoooIACCiiggAL1IWAguD62s7VUQAEFFFBAAQUUUEABBRRQQAEFqiqwZMmSzda3YsWKsG7dus3Gt3XE2rVrw8qVK9s6u/MpoIACCiiggAIKKFDXAgaC63rzW3kFFFBAAQUUUEABBRRQQAEFFFCgvMDUqVPDm2++GWdatmxZ+M1vfpNf4MknnwyLFy/Of84OPPjgg6GpqSk7KkybNi288cYbLcZV8uHVV18NM2bMKLrImjVrwsMPP5yfxrofeOCB+PmJJ54I99xzT7j33nvDpEmTAgFpEuOLBazjRP8ooIACCiiggAIKKFDjAgaCa3wDWnwFFFBAAQUUUEABBRRQQAEFFFCgMwX69u0b5s+fH1fxyiuvhA0bNgSCrqR58+aF7bbbLg6vXr26aGvfFHSNM238s2rVqs3mpbUvr2wimFuqBTDTsoHm9evXBwLVKVHOpUuXxo/Lly8PhxxySBg3blwYNWpUeOSRR/LjWc6kgAIKKKCAAgoooEB3FOjZHStlnRRQQAEFFFBAAQUUUEABBRRQQAEFOkZgxx13jC1nyY0Wufvtt18MDO+www6hT58+obGxMUyZMiW2rCXAS6B19913j0FdWt/27NkzBmhPPPHEWKDJkyeHQYMGhddeey0wjkDz008/HZcneLv99tuH/fffP8ydOze2ICbQTJD52GOPzVeI4DAtjo844ogwYMCA/Pi2DAwePDjfIrgt8zuPAgoooIACCiiggAK1KmAguFa3nOVWQAEFFFBAAQUUUEABBRRQQAEFqiDQv3//GMjl2b689thjj/Dss8/GNe+0006B1rZ090xrW1ro3nXXXTEQTLD2sMMOC7169YqBZFoT0w0zyxx00EExePz6668HAsoLFiyIy5Pp3XffHddBcPiUU06JgWSCx3PmzIlBZ1oj0+XzoYce2uYgMAFmgtXUhdbNBJpNCiiggAIKKKCAAgp0dwEDwd19C1s/BRRQQAEFFFBAAQUUUEABBRRQoJ0CtOCdOXNm2HnnnWMwlS6YCf7usssusftlgqv3339/XAvB1pRoDUxiHIFhgsIEgklMI3BMXgMHDozj+MO6CBjT0jgtz3TG8T5r1qzQo0eP2JI4v1BuoKGhIfuxxTDTKDstmF988cWw2267tZjuBwUUUEABBRRQQAEFuqOAzwjujlvVOimggAIKKKCAAgoooIACCiiggAIdKEDwdvr06WH48OExVwKydN1Ma16CvEOGDAnHH398fI0dOza/Zrp0Ji1evDj069cvBoILA7Z0/bxw4cL8MgynwHB6FjEthlMX0ASfjzvuuPicX1r6pkSQmWcM02qZxDIElVOii+sRI0bErqsJapsUUEABBRRQQAEFFOjuArYI7u5b2PopoIACCiiggAIKKKCAAgoooIAC7RQgiMrzf1NgddiwYWHGjBmxZS6BYALE99xzT2zBm57xy/gnn3wyBmZp3Tt06NBA99CFiQAxwd177703ENiltS7PDT744INjK+PevXvH1sG77rprePnll2NAmLx4xvC0adPCvvvum8+SZciHlr8EkQ8//PD8tDSwzz77hDvvvDOMHDkyjmL+VK+99torliXN67sCCiiggAIKKKCAArUs0JA7aN8wevToWq6DZVdgiwW4e7l37wGhT99+uZPKhrLdSG3xSlxQAQW2mkBT0/pAC4TBg/pstTK4YgUUUEABBRRQQAEF6kVg/fr1MZBLt83ZRPfPheOy09Mwy5MIGmdTW5dv7zLZ5R1WQAEFFFBAAQUUUKCUwMJFzY886dGj5XFrqfm31vg5s2cGWwRvLX3Xq4ACCiiggAIKKKCAAgoooIACCnQjgcIAbqpaW4LAzNve5dP6eG/rOrPLOKyAAgoooIACCiigQHcT6Nqh6u6mbX0UUEABBRRQQAEFFFBAAQUUUEABBRRQQAEFFFBAAQUUUECBKggYCK4CsqtQQAEFFFBAAQUUUEABBRRQQAEFFFBAAQUUUEABBRRQQAEFqilgILia2q5LAQUUUEABBRRQQAEFFFBAAQUUUEABBRRQQAEFFFBAAQUUqIKAgeAqILsKBRRQQAEFFFBAAQUUUEABBRRQQAEFFFBAAQUUUEABBRRQoJoCBoKrqe26FFBAAQUUUEABBRRQQAEFFFBAAQUUUEABBRRQQAEFFFBAgSoIGAiuArKrUEABBRRQQAEFFFBAAQUUUEABBRRQQAEFFFBAAQUUUEABBaopYCC4mtquSwEFFFBAAQUUUEABBRRQQAEFFFBAAQUUUEABBRRQQAEFFKiCQM8qrMNVKKCAAgooUNMCL7zwQpg1a1ZFdTj55JMrmt+ZFVBAAQUUUEABBRRQQAEFFFBAAQUUUEABBRToSAEDwR2paV4KKKCAAt1O4K677gq33357xfUaNWpUGDlyZMXLuUB9Clx99dXhkUceCffee28EGDduXDjyyCPDhRdeWJ8g1loBBRRQQAEFupzASy+9FHr27Bl22WWXrV62pqamsH79+rDNNtvEsqxduzY0NjaGHj16lCzbkiVLwosvvhgOPPDAkvMUm7Bu3brA+nr16rXZ5AULFoTXXnst7LPPPptNKzdizZo1YfLkyeGQQw6J5S43byXTKM/8+fPDvvvuW8lim83LtsZyxIgRm03Ljpg+fXoYMmRI2GGHHUI5p+wyW3O4rfXqzDJOmTIlug4aNKjTVtMV6tla5fjOPv300+Hggw+O36/O+D60VoauPn3FihWhb9++nVbMrb2f8Bu+evXq0KdPn06roxkroIACCMyePTvcd999EeP5558P48ePj8PHH398fK+HPwaC62ErW0cFFFBAgS0WmDlzZnjLW94SPvrRj7Y5j89+9rOxBbGB4DaT1fWMH/nIR2L9P/7xjwdeXAx58sknw2OPPRb22muv8KUvfcmAcF3vIVZeAQUUUECBriFAwJNgaLFAMBfzX3nllbDHHnvkC0uvOsOHDy8aQM3PtIUDBI369+8fRo8eHXO455574k10AwcOLJkjQRUCH5UGggl2Ll26NBx11FExaJGtJ+NffvnligPBBE05z+C4ryNTKk97A8Gvv/56DPq3Fgim7ttuu20MBGedOrJOreVVbN8rtQz7MOUtVq9XX301BqTK7UOl8q1kPBejt99++9CZgeBy9aykrJ05b/oOHHTQQfEmgs74PnRm+Ts7b24+4Yb0t7/97WG77bbrlNW19XveKSvPZcrvB78bp5xyyhavYtGiRWHVqlVh6NChW5yHCyqgQPcWuO6662IFTzjhhPw7x4Ok+++/P9RLMNhAcNzk/lFAAQUUUKBrC3AiSCuHhoaGTiko+RdrQfHmm2+GZ599Nhx33HGdst5spgsXLowtI9761rdmR8fhW265JbzrXe8qWsbNZm5lREfm1cqqWp1MS+BiLX+5KJguDH7rW98Khx12WP5zq5k6gwIKKKCAAgooUGUBgqxPPPFEi0AwnwcPHtzhgWBakRFMe8c73hFrSSCA4+TOCuDtv//+sfUxKytWzypTd9nVZZ2qWciO2iYEInfcccdO24+qaeK6al+Ac/MzzzyzQ3sM6Goqu+22W9GbMiopJz0gENA2EFyJmvMqUD8CBHq5SbEw2MvvD4npBIrPPffcbo9iILjbb2IrqIACCihQywIEYr/2ta/FYCwXvc4444zwiU98okMColmXb3zjG+GII46Idxxnx8+ZMycQrGxLIPjhhx8Ov/zlL8Pll18es6Cr4w9+8INhxowZ8fO0adNiXW644YbsKvLD3BF81VVXhWKB4Isvvjhe7CsWrM5n0MYB8uLO6lJ5XXvttYGuA3FO6aKLLgq8aB3OXYTpRJOLm3TfTLcyf/nLX8Jvf/vb8KMf/SgtVvY9dQf905/+ND9f4bjUNfQVV1wRsvPlF3BAAQUUUEABBRSoogBdGj/66KPhjTfeiAEzblbjQjzHfdxYOHHixNgtMTcS0uKPx6xwjEkrTFrSclMjLS9pzctNb7yTuJA/derU2LKLboZpJcgys2bNiuMIMqY0b968GLBjOomWx9meeAgM02J4+fLlYeedd44tgEsd96U8KSs9sqR60VqTbqdpcUwXgrQ6pazZelJ30oYNG+KxOsFpykR3zyxPfakrn0mLFy+OXeFmL0ZSdrqrxmW//fYLw4YNi/MW/ilXJ1rU0bKFdWdbmbLucubZdRTWn/MOugFPiXOC5557LtaVi6ccExem5LT77ruHv/71r/Gia3LHbc8994zbrVRdOFdgH+L8Z8CAATF73lmORBnYT8aOHRs/p3GF24RlSq0jv2BugAAyPfDQepr9Fau5c+fG/Y39j21O18WUp1+/foF9kJa8JM57aBmP+7Jly+JwqZbmTGffYn+khTy2KTFMvakbre3pYpzzjGeeeSa2Tk77NS182Ve4gTSbKq0nge5S37Vsvgzj89RTT0VLWqQecMAB+f2L8zb2B34Pdtppp/h9ZVunfa53797xZo3s94E8MaZufGeKtcou9X1ITmwf1sM+wYV9xk+aNCl+//nusM3YNvy2ZL8LrJtp/C7wHad8yRp/ypn2s9/85jfhmGOOyfd88MADD8T6YcDvEfs5iW3Jd7bwRm0M+I3i+0N92a78BjCO7cxNK+wruJHYhnQXTmt+9l3Kzv5G3e7NPTbo6KOPjuugXnzv0veE8qdARswo86fU97Xc95x8qQv7O+fCdPlOWbK/A6yC1reYs248qE/2t4ty8j2hDHvvvXfYdddd477AvHQHznZifrYj+zW/f/wfQSq3P7NvYM++Q57kzfZkfyLR5Svn6fyGMJ7tgD2/4cxfLJVyeuihh+L3kO83ZeY3jfWR0u89+yJe2d9DfkcYxw3u1IVrBWxrysh+x/8h7Ats38LE943fG5ZjPxgzZky+JXjaR/gtSXnSnfbKlSvjtuC7gC9lw5bE9mR78xtS7Pe6cP1+VqA7ChDk5TcmG+RlHCkdi/HOPIxP47qjBXVq7K4Vs14KKKCAAgp0B4EvfvGL4dhjj40X0f70pz/FAxSCre1JnCAUpq985SubBYEL52ntMxcHOPHj5IvESTOJk14SF0A4mWxPKlb29uRXbFnKzwlfNnHCy3jWzwWPO+64I76++c1vhksuuSReAOVknWltTVy0KryYQ+CX7qGziXFcBMDPpIACCiiggAIKbE0BLjYTwOEmQQJbBIO4sE+3ySTeCXBkPxMwIQjDvFzEZlkCMdxEx7EVF6sZHjVqVLwhkGMqgs0kWvmm4FsckftDMCAFyDg+42J+CohwYZxuorkwznpSa9G0bKn3xx9/PAb0CACRNxfkuehOop4ERgrrmYLYPJeXYAnH7ASLyIvE8SMBgZSoJ8GAbGI6VgQrHnzwwbiu7HSGy9WJ4AiuBBc4ziYonI5jy5kXrqOw/gT6UiKYxXEo6yD4TcvZ1KVimof35MQzTak7NwiQ2Abkx7YvVxcCYQTECLqwL2CZbiglH7Z7YQCl2DYptw7yIWFD4IhgF8FR6sW+RsCEABv7JdO5GYCbVNm/OB5P+0S6+YFgTTJJ9W1eQ/Nf9mXyoS7sH9jglBIBKwKzTGPdaR8orDvehXXfknqW+66lMqV3zlUINhFc4ztN/XEhUMj3k2A5Nmm7sVza54p9H7Cjfuzr7PPUuzCV+j4QkMaXcyfWy37ChXuCkGwbAvr8FjAfwb/CIDDroT4E6agP1lz057tCHdP+zLkc24ybOkiUmXJiT9CS7cX2phzs03wXChP7Pvst+zvbld+6P/7xjzFfPvN7SKCRRJn5veKmghNPPDEGADmfTol1Ux5erJ91sm4MudmC7VmYyn1fy33P+Y3je44N24fg49/+9rfC7GNZ2BbMT5Ca31rO+9N+zW8cv59cG+C7RcCUfPnM/Gzj9BvJ/pJ+I8vtz2wfgqn8BhE05jP2lJUX2/vwww+PZSUASp4EdAiKsq9Sl8JUzilNO/TQQ2MglwBv2kf4jeX6Bv9XsC+wPuYn8V1gH6RMTOfmn1tvvTUGlSkP+x/TCxPbl+8X33u+U3zfuKmK8fx+Msz/u0xjf2Wfye4XrBdbfjvZFux/7CcEoVkf28qkQD0K8P8Ev1HZxHeR70o28f8C83b3ZCC4u29h66eAAgooULMCnGxwMPK+970v1oELEZ/85CfD9ddfH0/CzzrrrHhCyEQuANFilUTLi7/7u78Lp556aviv//qvOI4TlLPPPjvmddlllwVa5dLilRNOAszf+c53wt133x3n5UT6ne98Z+yK6ic/+Ukcxx9OZHj+8Xve856YT7obOs3AiQsXztIJMSczlImTbhInkpwskYqVkfHcufvP//zPMShNXTnxIXGi8/3vfz+WibKldVOmf/mXf4lleu973xvviGV+TqppmXv66aeHd7/73YFWvoWJE+v3v//98UJC4bS2fubCAxeLUnnauhzz4ZNa/KblOEnGvzCNGzeucJSfFVBAAQUUUECBqgpw0Z4L2QTfOO4jeMEFZoI+BEo4ViXQRUsv3hlPsJR3AkgkLr6lVlFc+OcCPcdtvNLytPhMLYAJ1LG+lDg25KI3LX1JBBkYZlkSx858pgUY6yH4QKC4MDEuvVg3gR+CDLTESj2/ENDJpsJ6EoRKaa+99orr44JjJRfdWSflxIVyUyYCPqlsGJWrE4FgWrQScCEYQqs1fEjlzFP+vFN/zjsK68/2JnGewTrSc20JcrBcuYRDmofgFcEv/MrVhfwIcmDB/sU2xJL6ELDDhXFZH8Zn9z22SWvroL6c97BfpdZz7K9sB94JJBLMwp5ACuMoE4GYdJ6DDfsW5thjQznZZ5ItwTLyoYzkQ/4EuFNi+xCwSfsARpQpeRFYIxDJeRDjKEM2bUk9qTuvYt+1VG7eKRtBUeYjkMk25+I5ZaHOnGdSZ77r7LfcDJFNxb4P7GPUkXpgQZCtMCUL5knfB9aJO78LfD/pMQB79ksS24VxBFcJ0GVbjGfzJ1DIzRK0/iVIy/5IwJDvO8FtXFiefZdtx3rZ15jOfsV2pL6YUA48qE+plH6D0jZnX2Nf5TP7T/o9pacqzqHJO5WFdRdL1A075mcbpeBrdt5S31fyLPc957vG94/fXLYxAfcUEM/mn4a5CSLt03wH2EdJ/EZTV+rCvkN5+Mw8fK+5HsDvFp7ZVG5/ZvuTB/sc9uw7ePFd5fuJK+8k8mXbsp3Zh0466aRYr+y6GC7lxDQC7Owr6f8D9v9kQcvxcblzc6yoH2VK+z/bg/2D/ZEbS9L+wT5KGbl2UOz/B65LsP/x/x71INDPi98TrLBkv2QavyVse66bpMRy5M8yJPYxtk36v7rYOtOyvivQnQW4TsdvdTalFsHZcXw3t+SaXjaPWhjuWQuFtIwKKKCAAgrUowAn4Zx0cMEtJQ5QOIHjRIE7irk7lGAmFzM4wOEE7Hvf+174v//7v3iicP7558fAIicpBBhpbcEJwc9//vMYAOZuXU5iGM/JPvl+4QtfiN07c0Lx5S9/Od5tzPp/+MMfxpMuArLcqfzv//7vMZ9UNt6585S7TjnJ40UQli6NCUxzN+7nP//5kmXkRI660R0XJ+f/7//9vxj0JljKyRh31VIe8qN+DH/3u9+NJ0M/+MEP4oXAc845J9x8883xDm8urNx0003xZPBDH/pQvDBG+UhcdPzoRz8ag+FcSKgk4cTylIngNietXBwjiNsRicB5YYCYcrP92tuiuiPKZx4KKKCAAgooUJ8CHJNmg1FciC8VsCgU4vgpm1iWi9oEDVLLOY4haeXGRfMUCM4uwzDHinvkLoin42Mu3BEgSIkL3hxD/+53v0uj4nthyzkCPSlxIZ96cOE8JY6dU0A1jSv1TtAhJQJGXKRva0r1YH7WT/CR4FRaN4GIcnXCL1vu7HA582z98afM2WU5Lk9lIODAi/OGlAgUlUucs3CzKecWbI+0jcrVhfyy+xeBHAIpLE/Z2E7sM3xOZcOnMLW2Ds4RSOXqQACWvLPBfgI7BGxSyi7P/kxdCUIlW8rMfsR7djun5dl2LPPnP/+5xXo4hyI/Aomc27F90rlVWpb3Lakn25VzyGLftVRu8uYmD1qFcn7DuRUBNc530neefYEgKXXDhDKmVOr7QJCMeqRUzCQ7jrz5PuDE9zO7rdkWbKOUCFredttt8VyJOhZLeHHuRvmYh+8H+TLMtqQe3FhCMI3tSP0wScG8dOML59/sm/wOca5eLOGUEsPMn+qWprFu9i+2Mfsk+3bhzScpj/Se9kfy4lXst6bU95W8y33P8cE1JbYVv5tYENwsl9g2bCsSAUkCoSnxXc1uO+rJNigMYpfbn5mX/SEl8s+uI43nnf872G/ZH9iubM9svdK8pZzSdMqZEhb87pAw4Xyd/YfrKLQGTvlTL/aTlNju/H+WUvr+pM/pvfB3nPHp/0D285R/mp/PuBaOZ/9gHdnvGZ/5nTEpoMAmAY4lOU4pTNzwUWx84Xy1+nnT0Wqt1sByK6CAAgoo0E0Fip3YZU/43vWud4Wvf/3rMRDMBQSer0tXQNwx++tf/zqqcNJGF1bcAV3YooLnDXPykk2ciHLikE48aGXLc29Jv/jFL8KHP/zh+MxgTiYITFLGdFLLPNydS1k44eC5uZwc040Td1dzIsSdwARni5UxtRZOFxK405x1psTFCBJ3QKc7wAmAE1wmcdLFXdJcmOAuP8pOOXgRiKYrMgKqnLR94AMfiBcKuEN4S9KnPvWpeNLOCSH1zV4Iamt+3EnMSWpbgrucbBZ2Gd3W9TifAgoooIACCijQEQIcy5UKsrSWf7FAAi3iyI/jSrrCpGUcF8Q5duRY7uSTT94sW1pHcQxFYl4CBCybEvlx4b9Ya8M0D+/puJPhdJGc8qSL/xwvcuzcllR4MT4tkz1uZxyBEvItlQjUEDBJz6JM85WrE4FGyp1SNv9y5q3VnzyTK8fm5Z5HmtadfceR42MuthLIIJBIKlcXpmfPK/hMYJhnR+OSgsSFPqlrWeYntbYO5mEf4twgtTBkXDbhmgJbaTyfGU8qFdzlPCprS5Aou31SXrzzfSJxTld4TsZ46su5Avt5qjvjU9qSepb7rmXLzTkedaW7TAJfbEfOuzh/ZJggFOdqbC+CmKm1JGUr9X2gvFmLYue6qW68p+9DMudzcmI4jWdezg3Z3zjH5PvP+V9h4kZmzidpXUninDQlgr2cr9IymC522dZ8JjicWhjjwLktAXFuCuZcmCApLWMLU1vPDendim6u2QfwwfX2228vzK6iz6W+r8V+57LfczypY0pMI7CYDeynaYXvbI9U58LvMNuM6SmxDl6pvml8uf2ZsmX3HZbHPu0PKQ/e2a/4/edFMJ/nGfNbmLZ7mreUU5peaEH5SHwn+b8hbXd+R1JinmJlStNLvbNctn7Mx/ee8dS92G/Rlqyn1Podr0B3FaAFfyXB3e4cBGYbN3bXDW29FFBAAQUUqHUB7gLnZDZ7kkzgkbtKOSHjRJQLK7ScIMDKixMIuuLiBJjXeeedFy90YJG6pUouBFQLE3cmZ0+c013HaT7u5idfLsBcfvnlLcrGPAQ1U8tjWiizPCdhdGedArnlypjWwzvLUh5SulASP2T+cEKbLS/DLFNsfDr5ZXFaF/NsIu4ELkyFJ6tMp8zpZIuy0NU0d4Pz7LnUqqAwn7Z8xqq1xMnmvblupNsSMG4tL6croIACCiiggAKdIcAxGMda2eMtxqXAZDqm5OI26cVcjyokLsYTVKH1Fhe7CSASNEwXvnlPLce4qM/0FKwlKFx4PMuNgQSqaF1GYlkekVIuUU7WmW405LiP40lathWmYvUsnCd9ppyUg4AF+fFsycKUuiIkAETQsDBYwfzl6kQAi2NR3FkHQdMUsChnni1HsfozPTlz7pF99jDHz9w82lqixSQ9AnFhNZWlXF2K5UdPRpzvcCGXc6NiqXCbtLYOgtpsb85nCA6mfZZ8UvCH8yq2W2oFyH7EPlvpRWICRnwHaGlKygatCU5RDrZZOt9jH0z7LmUggMb2TXVn38SDtCX1LPddi5lu/MO+9Ic//CGeK3HeyX5GGalL2tf4jNETTzyR/75m8ygcJg880/eZ540XpmLfh7R+ntNKYv18p9O2IFjLtiFoTTCSm6BJ1CF5U1Y+8yLxXUu/TXxmP8OZ7cG+mr5XfAfS94npPO+Z9bMebiJIv2d8f7P5kWdbEuXJlo2bYEiMqyRRz1S3Ut/X1r7n6bc4fR/YF/k9IrBL3skylQtDEvsrQfNiv11MZzuRV/pusb+zb6dza+YhldufqRPXRZIX5/Hp95r9I2vPd5rgOtuRm1nYhikQ3Ran5tKEeEMSw5SbfZV9hIRPMuK7yG9hpduLfLLfZTz4vy61yucGgTvuuCOuh+8+3xv2MRLurLeUd5zJPwookBfgmLC1xM2HNGTp7skWwd19C1s/BRRQQIGaFeDiCSccv//972OLVk44rrzyytgCOFWK5/V+5jOfCV/5ylfiKJ6rdM0114QjjjginvRwEsRd2emEOy1X6p2TLO6E5mSa9d966635ICzP5uUka1zuDnpOiAhAp4s6KT9OiDlZZr2pqywCwp/73OfCN7/5zbJlTBc1OJnkrv977rknPpso5V3snbxpkXvmmWfGZ/NwsYkuo7kgwN3UTOeEkeHzzz8/n8Ull1wSu6ujNTFenBinRMCVcTyjmLv9OXDEg7u/08l+mpd68YxiTCpNdHFN0J6771OQl/fClr9XXHHF/2fvPsDlrAr8AZ+bBFNASCiCoAYhFGkColgI1d57WcWVXXV1fdRd6666ura17Nr1Weti731RQQEpCgIqighKQksIIC2hhgBJ/vzO/r/rZJhbc0mmvOd5bmbmm+873znvmXtz5/7mnK+88Y1vnGj19idAgAABAgQIbDCBzITM75w//OEPayCT3wkzizGr1eQyHPn9MF+5jmf+4J3fJfMhwfwOliU+E8rld7r8UT+/82Y1m5QEkPkjfvZN8JvZHSn5w3t+PzvssMPq4+af/EE9y8Rm9mKCttQ11uzgHJvfx9LWzBLMcQlFOpX2fnbap9mWECJf+X06YUr62frhxmxLMJff9eOR3zU7LXc6Wp/ilnAjdcQyAVbr76sjmTdtbG5b+5825pxNyTkyZgnrc47U2XzAs9mn023eV+T9Quts1tH60qmOnC/jEZ+ct1NpH5PxniMfcM17hiwXnP4ncMnswbwXyazQvI/I43woM+fPiknNLOlO7ei0LW2PVerJeKetTcCe/fOeLUZZfjmv6bS99cMNeT1kPJvZrwlK0+aDDz647jue13p7P0f6Xmttf9xjkA+tpt15D5jv43w4Iu1LsJ3vlbwXjFvaNFZJ3/L+MAFXvs/bg6zRvh8yPnHK6zxOeW3l+yXf39me66bGKO+Fjz322Boqpr5c/ijvl9POzOzNOKTk51P60rxHbr7fE0amNN+n2a8paXu+1/J9kPryeswy2ykJwxMi50MGEyk57453vudO6J4606+UjHmnD6J0qjvvdfO+OUF487N0pO/X0b7PMybpb/wS8Mcz3wMpuQZuY9m0IT9/872T10bGotWq2Se3eb+b/uTnYPqY74FOPz9G+77NazZBaL5P8trMByyaFczinhXB8n/Pk5/85PrzPuOc8+X7Ns/nNToRp9jnNZA6YpE68mH4lMwETmiU78W8BvIzoXkd1R3G+U/r93J+TuS1lFXAmpLvv7QhrvkbQf5PS9/zus6+eS5tUwgQGFngyCOPLG9/+9vr7yHNh4fyc611FYvczySPt73tbSNX1CfPDN35iaa1zQ+zPumTbhAYt0B+eZ01a/Mye86md/5CMlT/Qx33wXYkQKDrBVavXlM/aTlv7rrLH0+k4QleU3I92fGW17zmNXWprE7L2Y23jma/zHx4y1veUt9s51OjWco44WXeLKTk+bwRyB8omjeLmX2bGat5I5g3J+9///vrp7kTxDZLLX/+85+vb1ia0DHBaGa3JuzNm7z8EpQ3NXmjljdQ2T+f/s/1g/MmKn+0Ouqoo8ozn/nMpqnDt/llK23NdXxTsm/+mHfSnbNamzfXndqYT7e+4Q1vqG/sEgonhM2s4/xRMW/08kYzb3iOP/74GuL+53/+Z/2jQ47JG9C8MY993PNHgVzDOIF03iDl030JzFNSV96sxyb9Tj9f/epX1+eaf77+9a/XMDjnTl9yveL88SCfzs1s4nySuSk5Z/7okDeYL3nJS+qb3ea5F90ZPj/72c9uHt7lNuP2rGc9qwa97dcFznMJgbOcdftzd6nIBgIECBAgQIBAFwgktG1CqzQnv0fl99bMaMqMuvyelt/NEjrkD9rtJfvnd7TWkuAnXwlq83tv/hie38kyQ2y0kLdTXa31tt7P746pN79T5vfNzPxLKNO+ok5zTHs/m+2dbtPf1J0QpFPJuVOyz1hlpD7l9/Uc32qaDzOOx7z1nE3/W7c19/MeIG1t3oc02yd7O1Jf2uvL0qt5D5HAbLTSaUzGe46m3jim5PXZlIzf+vY5r9/UPVI9eS5jN57XQOpqHee0c6L9nMgxeU3Eo/31O9r3cWPX6Xas1/toz0/EKedutxprHDq1t31bp++D9vO0HzPW49H6PNaxeb7T+Tu1s6mr0/d5PlCdn70J1Ts935yjCXVb/w4wntdt2pOv1u+t/L+QWdC5LEBrGen1PJJT6s3rsfX/jk6vlaYPrefq5JSwP6F5/k7Q3ubm2E5GzXPjve3UntF+3kzFOcfbNvsR6BeBBL1HH310/Ztg8+GWpm/5UEdC4Py9sP25Zp+xbpevWFl/9kyf3vl3vLGO31DPL12yuAiCN5S283SlgCC4K4dFowhMmUA/BMENRv6wkT8cjOdNVo7Jm6S8gWr9xHlT13huc3zehLT+Ia85Lm/+8iZrvG1pjmu/Ha2NOcdE2p79s7xU+x9F8mYpf7RofcPZ3o7RHk+0HaPVNdJzTeCboPzQlpnFeZyZwELgkeRsJ0CAAAECBHpFoDWU7MY25/exzKJL+JvZb2lvQuuJ/D7abf3qdvOxvDLLLsuuZlZ4rkc72d/nxzqP5wkQKHUZ9yYIHs0j748zUzZB8Pr8PSAf5skS3wls8wGfbipNENw+a72b2qgtBAhMTKAJfZuVZTIrP/ezmkIzW3hiNf7f3r0UBP/1I26T6aljCBAgQIDAAAjk+jPNzOCN1d1OgexobcmbsvX5w1WOH+mN3frU29rm0do40XOMtH9mdKxPGane9amz/dgs9ZRlolM++9nP1k8f536zLfcVAgQIECBAgEAvC2Sll2bZ027sR5b7vOTOpU6zQk3amlV4NsTvgXenRbebj9X3rCqUUD7LIAuBx9LyPIH1E8js1/F8n2WfrCza/gHsiZ49q42ljuYSSRM9/u7cP8vZt1/D+O48n7oJELj7BTLjt3VZ6KxkOGjFjOBBG3H9XUfAjOA7fGS3AABAAElEQVR1ODwg0HcCUzEjONciu/DCC+vScxMBmshS0hOp174ECBAgQIAAAQIECBAgQIAAAQIECBAgsPEEzAjeePbOTIAAAQIEplTg/ve/f8nXVFzvd0obpjICBAgQIECAAAECBAgQIECAAAECBAgQIDCKQHdfxXiUhnuKAAECBAgQIECAAAECBAgQIECAAAECBAgQIECAAAECBDoLCII7u9hKgAABAgQIECBAgAABAgQIECBAgAABAgQIECBAgACBnhUQBPfs0Gk4AQIECBAgQIAAAQIECBAgQIAAAQIECBAgQIAAAQIEOgsIgju72EqAAAECBAgQIECAAAECBAgQIHCnwNFHH12/gpH7bjl4Hfg+8HPAzwE/B/wc8HPAz4F++zlQf8ntw3+GFi1atHbBggV92DVdIjC2wLJly8qsWZuX2XM2LdOmDZWhoaGxD7IHAQI9I7B69ZqyatWqMm/u7J5ps4YSIECAAAECBAgQIECAAAECBAgQIECAQPcKLF+xssycObNMn97d822XLllcuruF3TvGWkaAAAECBAgQIECAAAECBAgQIECAAAECBAgQIECAAIGuFRAEd+3QaBgBAgQIECBAgAABAgQIECBAgAABAgQIECBAgAABAgQmJyAInpybowgQIECAAAECBAgQIECAAAECBAgQIECAAAECBAgQINC1AoLgrh0aDSNAgAABAgQIECBAgAABAgQIECBAgAABAgQIECBAgMDkBATBk3NzFAECBAgQIECAAAECBAgQIECAAAECBAgQIECAAAECBLpWQBDctUOjYQQIECBAgAABAgQIECBAgAABAgQIECBAgAABAgQIEJicgCB4cm6OIkCAAAECBAgQIECAAAECBAgQIECAAAECBAgQIECAQNcKCIK7dmg0jAABAgQIECBAgAABAgQIECBAgAABAgQIECBAgAABApMTEARPzs1RBAgQIECAAAECBAgQIECAAAECBAgQIECAAAECBAgQ6FoBQXDXDo2GESBAgAABAgQIECBAgAABAgQIECBAgAABAgQIECBAYHICguDJuTmKAAECBAgQIECAAAECBAgQIECAAAECBAgQIECAAAECXSsgCO7aodEwAgQIECBAgAABAgQIECBAgAABAgQIECBAgAABAgQITE5AEDw5N0cRIECAAAECBAgQIECAAAECBAgQIECAAAECBAgQIECgawUEwV07NBpGgAABAgQIECBAgAABAgQIECBAgAABAgQIECBAgACByQkIgifn5igCBAgQIECAAAECBAgQIECAAAECBAgQIECAAAECBAh0rYAguGuHRsMIECBAgAABAgQIECBAgAABAgQIECBAgAABAgQIECAwOQFB8OTcHEWAAAECBAgQIECAAAECBAgQIECAAAECBAgQIECAAIGuFRAEd+3QaBgBAgQIECBAgAABAgQIECBAgAABAgQIECBAgAABAgQmJyAInpybowgQIECAAAECBAgQIECAAAECBAgQIECAAAECBAgQINC1AoLgrh0aDSNAgAABAgQIECBAgAABAgQIECBAgAABAgQIECBAgMDkBATBk3NzFAECBAgQIECAAAECBAgQIECAAAECBAgQIECAAAECBLpWQBDctUOjYQQIECBAgAABAgQIECBAgAABAgQIECBAgAABAgQIEJicgCB4cm6OIkCAAAECBAgQIECAAAECBAgQIECAAAECBAgQIECAQNcKCIK7dmg0jAABAgQIECBAgAABAgQIECBAgAABAgQIECBAgAABApMTEARPzs1RBAgQIECAAAECBAgQIECAAAECBAgQIECAAAECBAgQ6FqBGV3bMg0jQIAAAQJdInDxxReXCy+8cEKteeQjHzmh/e1MgAABAgQIECBAgAABAgQIECBAgAABAgSmUkAQPJWa6iJAgACBvhM4/vjjy49//OMJ92vnnXcu97///Sd8nAMIECBAgAABAgQIECBAgAABAgQIECBAgMBUCAiCp0JRHQQIECDQtwKLFy8uu+66a3nZy1427j6+5jWvqTOIBcHjJrNjFwt89rOfLWeccUY56aSTaisPPfTQcuCBB5YXv/jFXdxqTSNAgAABAgQIECBAgAABAgQIECBAwDWCvQYIECBAgEAPCNx+++3rtPL0008vV1111Trb8mD16tV32XZ3bbjgggvK+eeff5fqly9fXk455ZS7bJ/MhonUlb6vXbu242na/TrudDdsbB2P3M8M8y984Qvld7/73ZSdrfUcU1bp/6/oJS95SQ2BX/GKV5RvfetbZdGiRSX3U3bZZZeSkFghQIAAAQIECBAgQIAAAQIECBAgQKA7BQTB3TkuWkWAAAECBKrAd77znfKYxzymPPvZzy7Pec5zyh/+8Ie6/Ytf/GLH6xY/5SlPKVdeeeW49D7xiU/UULLZ+bWvfW150pOe1DwsX/3qV8uHPvSh4cftd375y1+WE088sX1zWbZsWfn0pz99l+2T2ZC6PvWpT4166NVXX11e+tKXlic/+cn16z3vec9wID6SX4LqV7/61SPWe+mll5ZDDjmk3HHHHevs87znPa+cdtpp62wb7UHreHzkIx8p3/zmN8vMmTPLRRddNNphoz73i1/8otxyyy11n+OOO66kv3dHScibmb+f+cxnyr777lu/cp7cz2zgN77xjeV973vflIbad0c/1EmAAAECBAgQIECAAAECBAgQIEBgUAUsDT2oI6/fBAgQIND1AgkjEx7+7//+b9liiy3KxRdfXP7mb/6mJAgcqfzgBz8o06dPH+npdbbvs88+5etf/3r527/927o99V9//fXD+/z6178uj3/844cfT+ZOZugODQ1N5tBxH/PBD36wPOxhDytHHXVUnRH8pje9qYbYBx988Ih+a9asKbfddtuI55g/f365973vXX71q1+Vgw46qO53ySWXlIxJwtGxStPv1vE44YQTysc//vH1vnb0u971rvK5z32uzJkzp35I4JGPfORYzZnw881y0AmBm9K+rVkaOh8oaN2v2d8tAQIECBAgQIAAAQIECBAgQIAAAQIbV8CM4I3r7+wECBAgQGBEgcz6zOzRfKXkmsMf+MAHyqpVq4aPybLAr3vd68o3vvGNui0zhzND9rzzzisveMELyj/+4z+WBIWZ/drMIm0OThCcsDeh6DXXXFND1N13372GndnnzDPPrLM/E2p+9KMfLU996lNrMJzljZty1llnlec///nl8MMPr/s026+77rqSGcaPfexja0B766231qf+/Oc/1zA7dSVIvPzyy+v2BND//M//XM/xjGc8owawTV3N7W9/+9t67IoVK5pN9famm24qm2++eb2f0Dl93X///Wt/x/Jbp6K2B09/+tPLj3/84+GtmX2bbQna095cCzr9yEztZobvG97whrr9oQ99aJ2Z3YzHW97ylpKltP/u7/6upB9vfetbh2cWZ5Z39nva055WXvnKVw6H8QlXsy3nyAcCUjLz+cILLyzPetazan3HHnts+fCHP1yfG8kwYX/C8QTlCcf/67/+q+4/2j+5JnB74J3xapaFbo7Ntlw7eCqXum7qdkuAAAECBAgQIECAAAECBAgQIECAwPoJCILXz8/RBAgQIEDgbhN4wAMeUB796EfX5Zqz1PLSpUvLwx/+8DoTNCdNQJuAcdttt61hZLYlgE2wm4A4Yd573/ve8rOf/axssskmw2Fx9kvJLOMddtihzjTOzNeEuQkKcz9LMidc3XrrrctPfvKTGnR+97vfLV/+8pdLZqQmfE3J8tBZpvpHP/pRvf5tEwjmWrL/8i//UhKeJjjNfmnTP/3TP9Xt3//+98tzn/vcurxw6kk4mWA62xM6Z9nh1sA3wXbCzCyDPHfu3BwyXF71qleVT37ykzWAzVLVW221Vdlzzz3LWH7DFYxwJ/aprwmx07Zm6eyErw960INqe9Ond7zjHbWWBOr5yjWct9tuu+HxiNl973vf8rWvfa2G1PHLdYuz9HSO/4//+I/yve99rz73P//zP+WKK66o4/3tb3+75CuB75IlS+qS2zvvvHO9Xu+uu+5aPxTQjMVIhml/ru+b11DqSRtabTt1P+FuM+O3eT5jmw8OtJdDDz20fZPHBAgQIECAAAECBAgQIECAAAECBAh0gYAguAsGQRMIECBAgMBIAq9//etLluRNiJolnP/7v/97eNd3v/vdNYjMjOCRSsLczJLNrNLMRG0vmfV5zjnnlFwzd+HCheURj3hEXXo625oZocccc0zJssgJKBMGJ9jNMtJ/+ctfyo477lgfz549u4bWOa4p22yzTb27YMGCsnz58hpszpo1qwa+eSIzlf/0pz/VUDnLJme2bUrC6czoberKbNtcazfBcpZsbi+77LJLDaKzjHXC2lwrOKF5ymh+7fW0P07gnCWnE2KnnWn7brvtVndLIJ5zZGzSzgSkCeZXrlxZZ0hPmza+X7Gy1PS8efNKjFIyizszd7MsdWYPH3300XUW+OLFi6t33WmEf0YyvPnmm8vee+9dPwyQ5aTjm/GYTMmHC9pLXiedAuL2/TwmQIAAAQIECBAgQIAAAQIECBAgQGDDCozvr5Qbtk3ORoAAAQIECNwpkJAwXwk/X/7yl9drBX/hC1+oyylnxm2WCM5y0aNdM7iBTHiboLK9ZFZrQrzf//73NSxMfQl5s+2AAw6ou2fW6l577VXDygSW//Zv/1buc5/71NmsqbcpCZwzGzmlCZGb53KbembMmNG6qT5OyJ2v1rpyv6krM2xf9KIXDQfirRWkT+l/6k2wnNnEWTY5yyqP5tdax2j3E6BnRnS+mqC62X+PPfaoJgmHc+3ftCXhcWZaj7ekj639zszt1JG2Z1nv/fbbr7zwhS8cHovR6h3JcNNNNy1HHHHEaIfe5bnM8m1md9/lybYNCYeb10rbUx4SIECAAAECBAgQIECAAAECBAgQILARBQTBGxHfqQkQIECAwGgCCXoTumYJ4ZTc3nbbbXVmZ4LYhJ0JIHO92SuvvLJjVc2yxlkeOksvt5cEjZnlm9smkEyIm2sOZ1vKIYccUs+d2wSE97jHPeqy0ZlZmjYmAE3Im+WEExiPVBJoX3vttcPX080S1KkjwWlmI//0pz+th2Z561x7uKkrQeub3/zmOvv4Yx/72DrVJ3zOdZNPO+204e1ZKjnXBh7Nb3jnMe5khnRC8a9+9avlcY973PDeuZ+xiMdBBx1UTcY7C3i4kjvvxCQzq5trJWfp5k996lPVKLOtE9RvttlmtQ1NkJ+wuHlNtNY1mmHrfuO9P55ZvgmLM+777rvveKu1HwECBAgQIECAAAECBAgQIECAAAECG0hg3Wk5G+ikTkOAAAECBAiMLZBr9mZZ5Cx1vOWWW9bAMIFollzOUsyZBbvTTjvVa8xmCeTPf/7z61SagDWzSm+88ca6f65F215yPd2EuAl5m5JAMdf93X777eumZz/72SXX6M2M2ISdCZSbGb9ZOjnP33DDDTUQzczQc889t6lqndsEmB/84Adre9O2hNS5hnFKrgn8hje8oXznO9+pyxYnAM/1iRNwNzNs0/fnPOc55cEPfnBdwrqp/EMf+lANwzMbOOFs+vS+972vHj+SX449/vjjS5aTbkpmHacvrSXGmQV98skn1/qa53K94pjnur653m6Wc55MSaie6x6/9KUvrUtExyhtzyzejEGuSZwlqXNd4KuvvrqeIq+LzBBPAN5aRjJs3We89/Mhgyy5nfFsQt7cvuIVr1inik984hPD13le5wkPCBAgQIAAAQIECBAgQIAAAQIECBDY6AJDdy4tuba5Lt1Gb40GENjAAsuWLbvzD+ybl9lzNr0z3Biq19HcwE1wOgIE7kaB1avXlFWrVpV5c2dP+iyf/OQn67Eve9nLxl3Ha17zmhowZqniqSiZCZqgtbne73jq/MMf/lADxVzL9pZbbim5Nuz6loSsKQkvW0uWN45zwunxlpHalO2pJzN9J1pyfd4cl+C0tUzGr/X40e6nvZl93MymHm3fsZ7rZNJpW+rJ6yEzhTvNQl4fw9Y2ZrZvltlOwPziF7+49am6bHRC4HwgoP25dXb0gAABAgQIECBAgAABAgQIECBAgECfCSxfsfL//02wuxdeXrpkcTEjuM9efLpDgAABAlMvcMEFF5QmEJ762seuMeFmMyt27L3vusdUhMCptT0Abs6UMHIiIXCOG6lNI21vzjXa7UhtWF+/0c65Pu1tr7dTXZ225bh8KGCkMtIxI+0/0vbMAP7Wt75VEvhmlnKWwW5KloPuFBA3z7slQIAAAQIECBAgQIAAAQIECBAgQGDjC5gRvPHHQAs2ooAZwRsR36kJbACBqZgRfPHFF9drzS5evHhCLZ7IDOIJVTzOnXOd3KVLl5YHPOAB4zzCbgRGF/jsZz9bl4rOXs1y0aMf4VkCBAgQIECAAAECBAgQIECAAAEC/SfQSzOCBcH99/rTowkICIIngGVXAj0oMBVBcA92W5MJECBAgAABAgQIECBAgAABAgQIECBA4G4S6KUguLsXr76bBki1BAgQIECAAAECBAgQIECAAAECBAgQIECAAAECBAgQ6GcBQXA/j66+ESBAgAABAgQIECBAgAABAgQIECBAgAABAgQIECAwkAKC4IEcdp0mQIAAAQIECBAgQIAAAQIECBAgQIAAAQIECBAgQKCfBQTB/Ty6+kaAAAECBAgQIECAAAECBAgQIECAAAECBAgQIECAwEAKCIIHcth1mgABAgQIECBAgAABAgQIECBAgAABAgQIECBAgACBfhYQBPfz6OobAQIECBAgQIAAAQIECBAgQIAAAQIECBAgQIAAAQIDKSAIHshh12kCBAgQIECAAAECBAgQIECAAAECBAgQIECAAAECBPpZQBDcz6OrbwQIECBAgAABAgQIECBAgAABAgQIECBAgAABAgQIDKSAIHggh12nCRAgQIAAAQIECBAgQIAAAQIECBAgQIAAAQIECBDoZwFBcD+Prr4RIECAAAECBAgQIECAAAECBAgQIECAAAECBAgQIDCQAoLggRx2nSZAgAABAgQIECBAgAABAgQIECBAgAABAgQIECBAoJ8FBMH9PLr6RoAAAQIECBAgQIAAAQIECBAgQIAAAQIECBAgQIDAQAoIggdy2HWaAAECBAgQIECAAAECBAgQIECAAAECBAgQIECAAIF+FhAE9/Po6hsBAgQIECBAgAABAgQIECBAgAABAgQIECBAgAABAgMpIAgeyGHXaQIECBAgQIAAAQIECBAgQIAAAQIECBAgQIAAAQIE+llAENzPo6tvBAgQIECAAAECBAgQIECAAAECBAgQIECAAAECBAgMpIAgeCCHXacJECBAgAABAgQIECBAgAABAgQIECBAgAABAgQIEOhnAUFwP4+uvhEgQIAAAQIECBAgQIAAAQIECBAgQIAAAQIECBAgMJACguCBHHadJkCAAAECBAgQIECAAAECBAgQIECAAAECBAgQIECgnwUEwf08uvpGgAABAgQIECBAgAABAgQIECBAgAABAgQIECBAgMBACgiCB3LYdZoAAQIECBAgQIAAAQIECBAgQIAAAQIECBAgQIAAgX4WEAT38+jqGwECBAgQIECAAAECBAgQIECAAAECBAgQIECAAAECAykgCB7IYddpAgQIECBAgAABAgQIECBAgAABAgQIECBAgAABAgT6WUAQ3M+jq28ECBAgQIAAAQIECBAgQIAAAQIECBAgQIAAAQIECAykgCB4IIddpwkQIECAAAECBAgQIECAAAECBAgQIECAAAECBAgQ6GcBQXA/j66+ESBAgAABAgQIECBAgAABAgQIECBAgAABAgQIECAwkAKC4IEcdp0mQIAAAQIECBAgQIAAAQIECBAgQIAAAQIECBAgQKCfBQTB/Ty6+kaAAAECBAgQIECAAAECBAgQIECAAAECBAgQIECAwEAKCIIHcth1mgABAgQIECBAgAABAgQIECBAgAABAgQIECBAgACBfhYQBPfz6OobAQIECBAgQIAAAQIECBAgQIAAAQIECBAgQIAAAQIDKSAIHshh12kCBAgQIECAAAECBAgQIECAAAECBAgQIECAAAECBPpZQBDcz6OrbwQIECBAgAABAgQIECBAgAABAgQIECBAgAABAgQIDKSAIHggh12nCRAgQIAAAQIECBAgQIAAAQIECBAgQIAAAQIECBDoZwFBcD+Prr4RIECAAAECBAgQIECAAAECBAgQIECAAAECBAgQIDCQAoLggRx2nSZAgACB8QqsXr26nH322eVrX/ta+d73vlcuuOCCkm13V3nMYx5Tdtlll7v1HGn77bffXj7ykY+Uk08+edxdSf/TtqOPPnrcx0x0x9/97nclXwoBAgQIECBAgAABAgQIECBAgAABAgQIrJ/AjPU73NEECBAgQKB/Ba6++uryxje+sZx66qnrdPKQQw4pH/3oR8ucOXPW2d6tD+64447y6U9/umy55Zbluc99bm3msmXLysc//vGycOHCkv5s7PLZz362vO9971unGbF/8YtfvM42DwgQIECAAAECBAgQIECAAAECBAgQIEBgfAJmBI/PyV4ECBAgMIACTQj8yle+spxyyinlxBNPLC996UvrLNp//dd/7RmRzP790Ic+VL7xjW8Mt3nHHXcsP/rRj+r24Y0b6U4TAsd70aJF9Sv3Ewy/5CUv2UitcloCBAgQIECAAAECBAgQIECAAAECBAj0toAZwb09flpPgAABAneTwK9+9as6E/jwww8vr3rVq4bP8vrXv778/Oc/Lz/96U/L9ddfX1auXFlOOOGEstdee5VbbrmlnH766eWFL3xh2XrrrevyzgmPzzvvvLLVVlvV2bfz588frit3/vSnP9WQeZNNNilHHHHEOs81D3KenOPSSy8tCXDTpi222KI+nWWU//jHP5ZHP/rRNUD9zW9+U2cqP/WpT63nTLDaLP987rnnlq985Su1HfPmzStnnXVWufe9713ra86V9qfONWvWlD322KMceuihZWhoqHn6Lrc33nhj+clPflKWLl1a7nOf+5QDDzywtvEuO46woTUEbp39m/sHHHBAedaznlXbs++++45Qg80ECBAgQIAAAQIECBAgQIAAAQIECBAg0ElAENxJxTYCBAgQGHiBc845pxo89rGPvYvFu9/97nL55ZfX6+wmAP33f//3ssMOO5QrrriiBqhPfvKTy6xZs8rLXvaycsYZZ5R73vOeJYHp7Nmzy8c+9rHhpZiPP/74ktnGWbo5y0xnqeYbbrhhnfP9+c9/Lv/wD/9QspRzU89973vf8sUvfrEGrwl5c1xm+yb0nTFjRrn11lvLl7/85fLjH/+45PgsY92UT3ziE/W4PE67EyrnK8FvQu4f/vCHtS9p01/+8peSvnzgAx9oDl/n9sorryzPfOYzy7XXXlt23333cskll9S+fPjDHx4x1G6tICFwfBI2t4bAzT4Jf/Pcr3/96yIIblTcEiBAgAABAgQIECBAgAABAgQIECBAYHwCloYen5O9CBAgQGDABBJqpmy77bb1tvWf/fbbrzzhCU+os36b7Qlq3/ve95ZjjjmmBq25Jm9Czje96U0ls3Qzi3izzTYrb3/722tYetttt5V3vvOdNbj95je/WX7/+9/XkLipL7cJZ9/2trfVQDZB729/+9uS8DTnSqDcWs4///wamJ599tnlsMMOK5dddlk588wzyxOf+MTajuybWcunnXbacBDdenyOS3D8pCc9qS6BnYD54IMPrsFwY9G6f+6nTQmL05bvfe97dWZw2pxgeqzSzATOfq94xStG3P0zn/lMx5B4xAM8QYAAAQIECBAgQIAAAQIECBAgQIAAAQJVwIxgLwQCBAgQINBB4Oabb65b73GPe3R4tvOmpz3tacNPfPvb364zeJ/3vOfVQDdLMD/ucY+rM3kvvvjikiA4s4qf8pSnlATLKQ9/+MOHj8+dJUuW1BD5UY96VHngAx9Yl5o+6KCDys4771zD2tadM5t30003rZsWLlxYg+fMUB5vedCDHlQSJqdkiesVK1aUzDxOyaziLEndXjLrOSUzdvfff/+y3Xbb1dA5YfBYJdf/zXWAO80Ebj22mTWcJafH2rf1OPcJECBAgAABAgQIECBAgAABAgQIECAw6AKC4EF/Beg/AQIECHQUuNe97lW3ty/V3HHnOze2hsA55uqrr6677r333nc5JEsqr1q1qm6///3vf5fnmw25JnDKz372s7r0crO9uW3C6jzeaaedms2lCa9Xr149vG08d7IsdJaOvuiii9bZfaR6jjzyyJKZxJ/73OfqV8LkzCh+7nOfu87x7Q9yDeKU8QS7mVWdWcE5Jl+WiG7X9JgAAQIECBAgQIAAAQIECBAgQIAAAQKdBQTBnV1sJUCAAIEBF5g/f34VyOzd9pJln88999zyute9bvipXL+3KZtssklzt3zqU58avt/cyfV0cz3flFzPd6TSBLrbbLNNede73nWX3WbOnDm8bdq09bvaw1lnnVVe+9rX1mvypn/bb799yW2u9ztSyXWNP/nJT5YLL7yw/OIXvyg/+tGP6nWHY/Oe97xnpMOGt48V7GY2cEr2y6zjJhQersAdAgQIECBAgAABAgQIECBAgAABAgQIEBhRQBA8Io0nCBAgQGCQBQ4//PAaZn7rW9+qM1ybZZevu+66Gu4m7N1hhx3qNXLbnWbPnl0e8IAH1LA3M3WbZZVvv/32OlM4we4dd9xRD/vlL39ZXvOa15ShoaG6XHRrXbvsskuZPn16XWI6yz03AXNmG6c9M2aM77/x1J3SnLP1HM39XMc45elPf3ppQvDMEB6t5FrAactb3/rWulz1C17wgvKYxzymXic5wXXa3qlkVu+hhx5aZx+PtuRzlo9OOemkk+pt/hkrPB7e0R0CBAgQIECAAAECBAgQIECAAAECBAgMuMD4/oI84Ei6T4AAAQKDJ5AZsS972cvKRz/60fL85z+/PPGJT6zLOR9zzDElSz+/853vHDHojFbC3Ze85CXlRS96Ub1NaPu9732vXHXVVeXYY48tuWbw4x//+PLjH/+4zsR96EMfWo477rh1oLfeeuvy93//93Vm7lFHHVWe8YxnlATRX/ziF0sC1Pe///3r7D/Sg1zLN6F1lnz+yle+Uh72sIfdJUTebbfd6uFZhjmBdWYsN0tEN8tYd6r/q1/9asls5Mc+9rHlkksuKcuWLSv77LPPqDap5xWveEWd5Zuwtwl8m/oTEqcdCgECBAgQIECAAAECBAgQIECAAAECBAhMXkAQPHk7RxIgQIBAnwu88pWvrIFtlj9OWJkwN9f8zXLJT3jCE0btfcLMHPfe9763LpecnTNLOPU0Sz6/4x3vqLOAs6TyT37yk3qd4QS8WQK5KQmU586dW7JM8hve8IYauh522GHl1a9+dbPLuG5f9apXlTe/+c21LQmQcz3f1pL2pr+53m+WiF6wYEG9hm/O2yxj3bp/7r/85S8vuX7wN7/5zfLlL3+5Pp22ve1tb2vf9S6PMys4XwcccMBdnrOBAAECBAgQIECAAAECBAgQIECAAAECBNZfYOjOP+6uzR97FQKDKJCZa7NmbV5mz9n0znBlqC7NOogO+kygXwVWr15TZ/HOmzt7vbt4/fXXl1yTN7NrJ1pybGbNtl5HuLWOm266qc6gzZLSo5Vrrrmm1tF6beDR9m9/LjN7ly9fXu51r3vV9rQ/n8cJdlesWFG22mqrTk+PuC1ty3LVY/VhxAo6PJEQujUUzy5mCneAsokAAQIECBAgQIAAAQIECBAgQIAAgQ0msHzFyvq34unTp22wc07mREuXLC6C4MnIOaZvBATBfTOUOkKgo8BUBsEdT2AjAQIECBAgQIAAAQIECBAgQIAAAQIECAyUQC8Fwd0dVQ/Uy0ZnCRAgQIAAAQIECBAgQIAAAQIECBAgQIAAAQIECBAgMDUCguCpcVQLAQIECBAgQIAAAQIECBAgQIAAAQIECBAgQIAAAQIEukZAENw1Q6EhBAgQIECAAAECBAgQIECAAAECBAgQIECAAAECBAgQmBoBQfDUOKqFAAECBAgQIECAAAECBAgQIECAAAECBAgQIECAAAECXSMgCO6aodAQAgQIECBAgAABAgQIECBAgAABAgQIECBAgAABAgQITI2AIHhqHNVCgAABAgQIECBAgAABAgQIECBAgAABAgQIECBAgACBrhEQBHfNUGgIAQIECBAgQIAAAQIECBAgQIAAAQIECBAgQIAAAQIEpkZAEDw1jmohQIAAAQIECBAgQIAAAQIECBAgQIAAAQIECBAgQIBA1wgIgrtmKDSEAAECBAgQIECAAAECBAgQIECAAAECBAgQIECAAAECUyMgCJ4aR7UQIECAAAECBAgQIECAAAECBAgQIECAAAECBAgQIECgawQEwV0zFBpCgAABAgQIECBAgAABAgQIECBAgAABAgQIECBAgACBqREQBE+No1oIECBAgAABAgQIECBAgAABAgQIECBAgAABAgQIECDQNQKC4K4ZCg0hQIAAAQIECBAgQIAAAQIECBAgQIAAAQIECBAgQIDA1AgIgqfGUS0ECBAgQIAAAQIECBAgQIAAAQIECBAgQIAAAQIECBDoGgFBcNcMhYYQIECAAAECBAgQIECAAAECBAgQIECAAAECBAgQIEBgagQEwVPjqBYCBAgQIECAAAECBAgQIECAAAECBAgQIECAAAECBAh0jYAguGuGQkMIECBAgAABAgQIECBAgAABAgQIECBAgAABAgQIECAwNQKC4KlxVAsBAgQIECBAgAABAgQIECBAgAABAgQIECBAgAABAgS6RkAQ3DVDoSEECBAgQIAAAQIECBAgQIAAAQIECBAgQIAAAQIECBCYGgFB8NQ4qoUAAQIECHS1wC233FLuuOOOrm6jxhEgQIAAAQIECBAgQIAAAQIECBAgQIDA1AnMmLqq1ESAAAECBPpD4IYbbihnnHFG2WSTTcrQ0FDZcssty5577lmmTfvr56fWrFlTTjvttHLQQQeNu9OpN3XOnj17zGP++Mc/lquuuqpMnz697LjjjuV+97tfuf3228tvf/vbklA39ey1115l7ty5dduCBQvK5ptvXuu94ooryo033lh23XXX4fP86U9/Kttvv33Zbrvthre5Q4AAAQIECBAgQIAAAQIECBAgQIAAAQL9K/DXv2j3bx/1jAABAgQITEhg9erVNaw99NBDy8EHH1zD4ASpCX/z3K233lq3PeQhD6n1ts60zf21a9fW7StXrhyehZvjFi1aVC6//PJaT3Zo6qo7t/yTIPf6668vhx12WA2aL7jggnLzzTeX8847r2y11VZ1+/77719OP/30elSeS9uactttt9U2No/bb9PGZv/WNuR+vprS2q9mm1sCBAgQIECAAAECBAgQIECAAAECBAgQ6A0BQXBvjJNWEiBAgMBGEsiM4G222abcdNNNZdmyZeWYY44pZ555ZknYevzxx9dW5bYJUE888cR6P7OFzz333HLKKaeUSy+9tFxzzTVl8eLF5Zxzzql1JRDOc5nh++tf/3qd3s2YMaMkRM45Mgt54cKFZdasWXUWcGb6JsSdM2dOOeSQQ9Y5bjwPrr766nre1NHehtR96qmn1moSRGdWskKAAAECBAgQIECAAAECBAgQIECAAAECvSlgaejeHDetJkCAAIG7WeDaa68tF154YZ3Ru2TJkvLABz6wrFq1qsycObPOEm5m1KYZO+ywQ7nyyivLPe95z/qV8HjnnXeuAXIC1d///vcls4v32GOPupRzlnBOUPyoRz2qLv180kkn1eWeE+6mJHjOUs/Zvummm5YHPOABdXnq3Xffvc4KPu6448q97nWvWl894M5/Eio3S0OvWLGi7LTTTs1Tw7fLly8vS5curW1J2JxQurUN97jHPWof08+E3ttuu+3wse4QIECAAAECBAgQIECAAAECBAgQIECAQG8JCIJ7a7y0lgABAgQ2kECC0szCzTV6szx0AuCEqLnObnuZP39+DWgTxOZ6vgmCL7nkkpIAOYFxru3bWjJ7OAFxwuCUnKN9GebUma+Et7leca5FvNlmm9XrAidQzmzek08+uTz2sY+tdaSNuV5wSmYgp/7WkjZkaersk+sLj9SGnPOyyy4rWZ56t912a63CfQIECBAgQIAAAQIECBAgQIAAAQIECBDoIQFBcA8NlqYSIECAwIYT2GKLLepM3/YzJuRtLwmAs5RzrtWbWbtZYjnBa8LbLAndLLfcHJfgN8cceOCBJbNwc+zs2bObp8v5559fw9rMCp43b17dN3X/5je/qTOTE+ZmFvLZZ589vCT18MGj3DnggANqG1N/wuRObUgAnpnIOUfaqRAgQIAAAQIECBAgQIAAAQIECBAgQIBAbwoIgntz3LSaAAECBLpMYOutt67LKeeavlkiOkFwlmteu3ZtSbiakn2yHHNm9u633371+WY56ITCTfC6yy671OsQZ1ZuZu5mNnKWi84M5VxTOI9vueWWsuuuuw4fMxZHZgFnmen73//+dSZx6uvUhrQnQfaee+45VpWeJ0CAAAECBAgQIECAAAECBAgQIECAAIEuFhi6c5nItZlxpBAYRIFcA3PWrM3L7DmblmnThupyroPooM8E+lVg9eo19Zq38+b+dbbthuxrQtwm3G3OmyWgs62ZWdxpn2bfPJcyVh3N/pO9bW/DCSecUK8j3H7eydbvOAIECBAgQIAAAQIECBAgQIAAAQIECPSLwPIVK+tknenTp3V1l5YuWVzMCO7qIdI4AgQIEOhlgU5BajM7uOlXp33Geq69jmb/yd42bbjtttvqLOVcJ7jZNtk6HUeAAAECBAgQIECAAAECBAgQIECAAAECG1dAELxx/Z2dAAECBAh0jUCuV3zEEUcMz1bumoZpCAECBAgQIECAAAECBAgQIECAAAECBAhMWKC75yxPuDsOIECAAAECBNZHoFmyen3qcCwBAgQIECBAgAABAgQIECBAgAABAgQIbHwBQfDGHwMtIECAAAECBAgQIECAAAECBAgQIECAAAECBAgQIECAwJQKCIKnlFNlBAgQIECAAAECBAgQIECAAAECBAgQIECAAAECBAgQ2PgCguCNPwZaQIAAAQIECBAgQIAAAQIECBAgQIAAAQIECBAgQIAAgSkVEARPKafKCBAgQIAAAQIECBAgQIAAAQIECBAgQIAAAQIECBAgsPEFBMEbfwy0gAABAgQIECBAgAABAgQIECBAgAABAgQIECBAgAABAlMqIAieUk6VESBAgAABAgQIECBAgAABAgQIECBAgAABAgQIECBAYOMLCII3/hhoAQECBAgQIECAAAECBAgQIECAAAECBAgQIECAAAECBKZUQBA8pZwqI0CAAAECBAgQIECAAAECBAgQIECAAAECBAgQIECAwMYXEARv/DHQAgIECBAgQIAAAQIECBAgQIAAAQIECBAgQIAAAQIECEypgCB4SjlVRoAAAQL9JLB27dp1utP+OE+2bxvr8WSPWachHhAgQIAAAQIECBAgQIAAAQIECBAgQIAAgTEEBMFjAHmaAAECBAZTYNmyZeW73/1uOfvssyvALbfcUn74wx+Wn/3sZ8Ph7/HHH19+8IMflBtvvLHuc84559RjlixZMulj2s87mPp6TYAAAQIECBAgQIAAAQIECBAgQIAAAQLrKyAIXl9BxxMgQIBAXwpcffXV5Y477ihXXHFF7d+KFSvKrbfeWq677rp6e9ttt9X7q1atKsuXL6/7XHnllfWYHJsymWPaz1sr8g8BAgQIECBAgAABAgQIECBAgAABAgQIEJigwIwJ7m93AgQIECAwEAK77rprGRoaKve+971rf7fddtuy9957l9mzZ9evbDzwwAPLTTfdVHbYYYe6z/77718uu+yysssuu0z6mPbz1or8Q4AAAQIECBAgQIAAAQIECBAgQIAAAQIEJigwtGjRorULFiyY4GF2J9AfAlmCddaszcvsOZuWadOGaujTHz3TCwIEIrB69ZqSGbvz5s4GQoAAAQIECBAgQIAAAQIECBAgQIAAAQIE1ltg+YqVZebMmWX69O5eeHnpksWlu1u43kOhAgIECBAgQIAAAQIECBAgQIAAAQIECBAgQIAAAQIECAyegCB48MZcjwkQIECAAAECBAgQIECAAAECBAgQIECAAAECBAgQ6HMBQXCfD7DuESBAgAABAgQIECBAgAABAgQIECBAgAABAgQIECAweAKC4MEbcz0mQIAAAQIECBAgQIAAAQIECBAgQIAAAQIECBAgQKDPBQTBfT7AukeAAAECBAgQIECAAAECBAgQIECAAAECBAgQIECAwOAJCIIHb8z1mAABAgQIECBAgAABAgQIECBAgAABAgQIECBAgACBPhcQBPf5AOseAQIECBAgQIAAAQIECBAgQIAAAQIECBAgQIAAAQKDJyAIHrwx12MCBAgQIECAAAECBAgQIECAAAECBAgQIECAAAECBPpcQBDc5wOsewQIECBAgAABAgQIECBAgAABAgQIECBAgAABAgQIDJ6AIHjwxlyPCRAgQIAAAQIECBAgQIAAAQIECBAgQIAAAQIECBDocwFBcJ8PsO4RIEBg0AWGytCgE+g/AQIECBAgQIAAAQIECBAgQIAAAQIECAyggCB4AAddlwkQIDBQAnLggRpunSVAgAABAgQIECBAgAABAgQIECBAgACB/xMQBHslECBAgAABAgQIECBAgAABAgQIECBAgAABAgQIECBAoM8EBMF9NqC6Q4AAAQLrCqxdu3bdDR4RIECAAAECBAgQIECAAAECBAgQIECAAIEBEBAED8Ag6yIBAgQIECBAgAABAgQIECBAgAABAgQIECBAgAABAoMlIAgerPHWWwIECBAgQIAAAQIECBAgQIAAAQIECBAgQIAAAQIEBkBAEDwAg6yLBAgQIECAAAECBAgQIECAAAECBAgQIECAAAECBAgMloAgeLDGW28JECBAgAABAgQIECBAgAABAgQIECBAgAABAgQIEBgAAUHwAAyyLhIgQIAAAQIECBAgQIAAAQIECBAgQIAAAQIECBAgMFgCguDBGm+9JUCAAAECBAgQIECAAAECBAgQIECAAAECBAgQIEBgAAQEwQMwyLpIgAABAgQIECBAgAABAgQIECBAgAABAgQIECBAgMBgCQiCB2u89ZYAAQIECBAgQIAAAQIECBAgQIAAAQIECBAgQIAAgQEQEAQPwCDrIgECBAgQIECAAAECBAgQIECAAAECBAgQIECAAAECgyUgCB6s8dZbAgQIECBAgAABAgQIECBAgAABAgQIECBAgAABAgQGQEAQPACDrIsECBAgQIAAAQIECBAgQIAAAQIECBAgQIAAAQIECAyWgCB4sMZbbwkQIECAAAECBAgQIECAAAECBAgQIECAAAECBAgQGAABQfAADLIuEiBAgAABAgQIECBAgAABAgQIECBAgAABAgQIECAwWAKC4MEab70lQIAAAQIECBAgQIAAAQIECBAgQIAAAQIECBAgQGAABATBAzDIukiAAAECBAgQIECAAAECBAgQIECAAAECBAgQIECAwGAJCIIHa7z1lgABAgQIECBAgAABAgQIECBAgAABAgQIECBAgACBARAQBA/AIOsiAQIECBAgQIAAAQIECBAgQIAAAQIECBAgQIAAAQKDJSAIHqzx1lsCBAgQIECAAAECBAgQIECAAAECBAgQIECAAAECBAZAQBA8AIOsiwQIECBAgAABAgQIECBAgAABAgQIECBAgAABAgQIDJaAIHiwxltvCRAgQIAAAQIECBAgQIAAAQIECBAgQIAAAQIECBAYAAFB8AAMsi4SIECAAAECBAgQIECAAAECBAgQIECAAAECBAgQIDBYAoLgwRpvvSVAgAABAgQIECBAgAABAgQIECBAgAABAgQIECBAYAAEBMEDMMi6SIAAAQIECBAgQIAAAQIECBAgQIAAAQIECBAgQIDAYAkIggdrvPWWAAECBAgQIECAAAECBAgQIECAAAECBAgQIECAAIEBEJgxAH3URQIECBAgQIAAAQIECBAgQIAAAQIECBAgQIAAAQIENoLAqaeeWi655JJy0UUX1bPvtNNOZccddywLFy6821uzZMmScumll26Qc93tnZnECQTBk0BzCAECBAgQIECAAAECBAgQIECAAAECBAgQIECAAAECowt86UtfqjsccsghJV/3u9/9ShPOvv3tby+HH3743RbS5jxHH330cAM3RPA8fLIuuSMI7pKB0AwCBAgQIECAAAECBAgQIECAAAECBAgQIECAAAEC/SKQmcCdZv4mDM5Xyoknnljmz58//Hiq+p4QOCWzjzMTOecRBE+VrnoIECBAgAABAgQIECBAgAABAgQIECBAgAABAgQIEBhIgWY56COPPHK4/+3bmmD25JNPLq37DR8wyTutM4GPOuqoWktmIw9imTaIndZnAgQIECBAgAABAgQIECBAgAABAgQIECBAgAABAgTuHoFcEzizgVtLgt/2QDbbMmO3mcHbuv9k7reGwDk+S0MnZG5mIE+mzl4+RhDcy6On7QQIECBAgAABAgQIECBAgAABAgQIECBAgAABAgS6TCDhbjPjt2laQtpLL720eTh8m+Wbp6K0h8Cps5kRPBX192IdguBeHDVtJkCAAAECBAgQIECAAAECBAgQIECAAAECBAgQINBjApkp3F4yc7hTQNy+32iPRwqBB3UmcGMlCG4k3BIgQIAAAQIECBAgQIAAAQIECBAgQIAAAQIECBAgsN4CmeWbcHY8JeHw/Pnzx7Nrx32EwB1Z6kZB8Mg2niFAgAABAgQIECBAgAABAgQIECBAgAABAgQIECBAYBIC45nlmxA3y0hPduauEHj0gREEj+7jWQIECBAgQIAAAQIECBAgQIAAAQIECBAgQIAAAQIEJiBw5JFHlhNPPHGdWcEJew855JB1ajn55JPL4Ycfvs62iTzI8a0l1wSebKjcWk+/3BcE98tI6gcBAgQIECBAgAABAgQIECBAgAABAgQIECBAgACBLhFIKHv00UeXU089dbhFTUibmbxf+tKXSq4PvHDhwuHnJ3ons4mbIgRuJP56O+Ovd90jQIAAAQIECBAgQIAAAQIECBAgQIAAAQIECBAgQIDA+gsk9E04m1m7mR2c6wY3JQFuZgKvTwiculJ/U5qQuXnstpShRYsWrV2wYAELAgMpsGzZsjJr1uZl9pxNy7RpQ2VoaGggHXSaQL8KrF69pqxatarMmzu7X7uoXwQIECBAgAABAgQIECBAgAABAgQIEOgJgcwMnj9/fm1rL4e2y1esLDNnzizTp3f3wstLlywuZgT3xLeGRhIgQIAAAQIECBAgQIAAAQIECBAgQIAAAQIECBDoXYH1nf3buz3feC3v7qh647k4MwECBAgQIECAAAECBAgQIECAAAECBAgQIECAAAECBHpWQBDcs0On4QQIECBAgAABAgQIECBAgAABAgQIECBAgAABAgQIEOgsIAju7GIrAQIECBAgQIAAAQIECBAgQIAAAQIECBAgQIAAAQIEelZAENyzQ6fhBAgQIECAAAECBAgQIECAAAECBAgQIECAAAECBAgQ6CwgCO7sYisBAgQIECBAgAABAgQIECBAgAABAgQIECBAgAABAgR6VkAQ3LNDp+EECBAgQIAAAQIECBAgQIAAAQIECBAgQIAAAQIECBDoLCAI7uxiKwECBAgQIECAAAECBAgQIECAAAECBAgQIECAAAECBHpWQBDcs0On4QQIECBAgAABAgQIECBAgAABAgQIECBAgAABAgQIEOgsIAju7GIrAQIECBAgQIAAAQIECBAgQIAAAQIECBAgQIAAAQIEelZAENyzQ6fhBAgQIECAAAECBAgQIECAAAECBAgQIECAAAECBAgQ6CwgCO7sYisBAgQIECBAgAABAgQIECBAgAABAgQIECBAgAABAgR6VkAQ3LNDp+EECBAgQIAAAQIECBAgQIAAAQIECBAgQIAAAQIECBDoLCAI7uxiKwECBAgQIECAAAECBAgQIECAAAECBAgQIECAAAECBHpWQBDcs0On4QQIECBAgAABAgQIECBAgAABAgQIECBAgAABAgQIEOgsIAju7GIrAQIECBAgQIAAAQIECBAgQIAAAQIECBAgQIAAAQIEelZAENyzQ6fhBAgQIECAAAECBAgQIECAAAECBAgQIECAAAECBAgQ6CwgCO7sYisBAgQIECBAgAABAgQIECBAgAABAgQIECBAgAABAgR6VkAQ3LNDp+EECBAgQIAAAQIECBAgQIAAAQIECBAgQIAAAQIECBDoLCAI7uxiKwECBAgQIECAAAECBAgQIECAAAECBAgQIECAAAECBHpWQBDcs0On4QQIECBAgAABAgQIECBAgAABAgQIECBAgAABAgQIEOgsIAju7GIrAQIECBAgQIAAAQIECBAgQIAAAQIECBAgQIAAAQIEelZAENyzQ6fhBAgQIECAAAECBAgQIECAAAECBAgQIECAAAECBAgQ6CwgCO7sYisBAgQIECBAgAABAgQIECBAgAABAgQIECBAgAABAgR6VkAQ3LNDp+EECBAgQIAAAQIECBAgQIAAAQIECBAgQIAAAQIECBDoLCAI7uxiKwECBAgQIECAAAECBAgQIECAAAECBAgQIECAAAECBHpWQBDcs0On4QQIECBAgAABAgQIECBAgAABAgQIECBAgAABAgQIEOgsIAju7GIrAQIECBAgQIAAAQIECBAgQIAAAQIECBAgQIAAAQIEelZAENyzQ6fhBAgQIECAAAECBAgQIECAAAECBAgQIECAAAECBAgQ6CwgCO7sYisBAgQIECBAgAABAgQIECBAgAABAgQIECBAgAABAgR6VkAQ3LNDp+EECBAgQIAAAQIECBAgQIAAAQIECBAgQIAAAQIECBDoLCAI7uxiKwECBAgQIECAAAECBAgQIECAAAECBAgQIECAAAECBHpWQBDcs0On4QQIECBAgAABAgQIECBAgAABAgQIECBAgAABAgQIEOgsIAju7GIrAQIECBAgQIAAAQIECBAgQIAAAQIECBAgQIAAAQIEelZAENyzQ6fhBAgQIECAAAECBAgQIECAAAECBAgQIECAAAECBAgQ6CwgCO7sYisBAgQIECBAgAABAgQIECBAgAABAgQIECBAgAABAgR6VkAQ3LNDp+EECBAgQIAAAQIECBAgQIAAAQIECBAgQIAAAQIECBDoLCAI7uxiKwECBAgQIECAAAECBAgQIECAAAECBAgQIECAAAECBHpWQBDcs0On4QQIECBAgAABAgQIECBAgAABAgQIECBAgAABAgQIEOgsIAju7GIrAQIECBAgQIAAAQIECBAgQIAAAQIECBAgQIAAAQIEelZAENyzQ6fhBAgQIECAAAECBAgQIECAAAECBAgQIECAAAECBAgQ6CwgCO7sYisBAgQIECBAgAABAgQIECBAgAABAgQIECBAgAABAgR6VkAQ3LNDp+EECBAgQIAAAQIECBAgQIAAAQIECBAgQIAAAQIECBDoLCAI7uxiKwECBAgQIECAAAECBAgQIECAAAECBAgQIECAAAECBHpWQBDcs0On4QQIECBAgAABAgQIECBAgAABAgQIECBAgAABAgQIEOgsIAju7GIrAQIECBAgQIAAAQIECBAgQIAAAQIECBAgQIAAAQIEelZAENyzQ6fhBAgQIECAAAECBAgQIECAAAECBAgQIECAAAECBAgQ6CwgCO7sYisBAgQIECBAgAABAgQIECBAgAABAgQIECBAgAABAgR6VkAQ3LNDp+EEvnArpQAAQABJREFUCBAgQIAAAQIECBAgQIAAAQIECBAgQIAAAQIECBDoLCAI7uxiKwECBAgQIECAAAECBAgQIECAAAECBAgQIECAAAECBHpWQBDcs0On4QQIECBAgAABAgQIECBAgAABAgQIECBAgAABAgQIEOgsIAju7GIrAQIECAywwNFHH13yleKWg9eB7wM/B/wc8HPAzwE/B/wc8HPAzwE/B/wc8HPAzwE/B/wc8HPAzwE/B/r750C+x/uxDC1atGjtggUL+rFv+kRgTIFly5aVWbM2L7PnbFqmTRsqQ0NDYx5jBwIEekdg9eo1ZdWqVWXe3Nm902gtJUCAAAECBAgQIECAAAECBAgQIECAAIGuFVi+YmWZOXNmmT69u+fbLl2yuHR3C7t2iDWMAAECBAgQIECAAAECBAgQIECAAAECBAgQIECAAAEC3SsgCO7esdEyAgQIECBAgAABAgQIECBAgAABAgQIECBAgAABAgQITEpAEDwpNgcRIECAAAECBAgQIECAAAECBAgQIECAAAECBAgQIECgewUEwd07NlpGgAABAgQIECBAgAABAgQIECBAgAABAgQIECBAgACBSQkIgifF5iACBAgQIECAAAECBAgQIECAAAECBAgQIECAAAECBAh0r4AguHvHRssIECBAoMsEbr/99rJy5cpJt2rNmjXl2muvLStWrBi1jhtvvLFk39ayatWqcuutt7ZuGvf9TvWN++Ae3rGT2S233FLuuOOOnulV2po2KwQIECBAgAABAgQIECBAgAABAgQIEJiowIyJHmB/AgQIECDQ7wIJan/3u9+VBL/XXXdd2XbbbWuXd9555xri7r333usQnHHGGWXfffctM2fOXGd7+4Nf/vKXZfbs2WXatGnlgQ98YJk+fXr7LvXxmWeeWR7+8IfXfZsdLr/88pJgc/fdd282jfu2U33jPXi8fRtvfRtyv05mf/rTn8r2229ftttuu3E15YYbbignnHBCmTdv3vD+j3jEI8omm2wy/Dh31q5dW66++upyr3vda53t6/sgHxxYunRpOeCAA8r1119ffv/739cPCeR1tN9++5V73OMe63uK4ePT1/QrdSsECBAgQIAAAQIECBAgQIAAAQIECPS+gBnBvT+GekCAAAECUywwd+7ccuihh5ZDDjmkBoC5n6+mJCBOKNuU/ffffzgEzgzOTrOGM5s3oV4C4ITGrWX16tUjzvbNc53qy4zhPNeUtKkp2b/TrNfs38w0zv3W43NM81xTT27H07fsl/Olvmb2aupq7uf5lLSxdVZz055sa29vpz5kW45p3TcBbPt5sk/2Ha209rfVLsfmqym5v80229Txb14HCfKbfdLPtCd9OP3009dpW14jrW3N/Zyruc050vZW96Y/rduatpx11ln19ZN23Oc+96kfVmieaz9Xtt92220jnj/Ppw/NeOT+okWLSsLzTufO/goBAgQIECBAgAABAgQIECBAgAABAr0lYEZwb42X1hIgQIDARha45JJLasi4fPnystdee5UddtihnHLKKXUGb2Zs/vGPfyz3vOc9a8B28MEHD7c2M1ET1l1wwQU1XL7qqqtqIJzg7c9//nMNkjO7MzM/m5KZyb/61a/KVlttVa644oqy6667Nk/VAPE3v/lNDasTaiaEPPzww8tpp51WZ3VmOejMYJ4/f/7wMWeffXa53/3uV2etph2Z+ZnHmak8a9asOuP0wQ9+cNliiy2GjxlP33L+Y445ptaVYHPGjBl1tnNCzYSmD3vYw2q/0+fMgk4/H/SgB9XZrZlxnfPlucMOO6zMmTOnYx8yqznBZuq77LLLyrOf/exy0003lWyPd/qb4D63I5k1ncps75gmmD/ooINqO3bbbbey9dZbl8yAzv08P1JJH7NfvDMGmQV8zTXX1DG/8MIL6/HnnntuyQzbBK0Zh8xAjtGWW25ZXzdpYwLmoaGh2uYjjjii9u8Xv/hFfX2kbQceeOA6TYhr6oxXZjU3s5Tbz5Uxz1hnXGJ23/vetwbHredPIN36uss+ixcvrmOTdm2++ebrnNsDAgQIECBAgAABAgQIECBAgAABAgR6T0AQ3HtjpsUECBAgsBEFEqA95CEPqcHlpZdeWoPgpjlXXnll2XHHHWvwl4A3Mz8T3qUkNP7LX/5S9txzzzrrsjnmnHPOKY961KNqQHrSSSetM7v1/PPPr4FpgrkEsgn2mrLZZpvVGZ0Jl5ctW1YD38zqTOiY/ZtlhFuD4ObY1tslS5bU0HOPPfaoYWYC4oTB7WW0vmXfzCJNcJk2fPvb3y7Petazamib8DElweKCBQvq88cdd1xdSjmhZtqaWdIJM7O0cma6tvchoezNN99cg+LU9Y1vfCM35bzzziv77LNPDXBzPwFx3BMydzLLMQnXE95nee/sn/AzRll+OcFq2tQeAsc3Y5OSQDfLcyc4zQzdvB5yfNqd9idETlsTDGfmbjyOP/74elxeDwm7UxImZ2Z4AvgTTzxxeGzzQYCMbQLlnDfBcVPim9dL+poAPx8M6HSu9COBeD6IkDA+x6S0nv/YY49d53WXMD2vgcyGFwI34m4JECBAgAABAgQIECBAgAABAgQI9LaAILi3x0/rCRAgQGADCyQATEnAm5CvtSRIS0iXYC+BYWZtjlZyfALbzOJNyWzZhHVNSVjYhHK5TbjXWhJAJvjM10Mf+tA6uzQzlhPuJphNSDlSSYCcEDLBaMLfzEBNaWaZth83Vt823XTTekj6kCAzM3dTcpu2pJ8XXXRRyX4JLxNQ5prKzTV1G8/MkG3vQ/ZvnaVcK77zn4svvrgGt821mRNmjmUWwwTNKWlnrO5973vXIDpBfULi9pJtmTncWlLH97///Rq2tm7P/ZwjdZ166qn1qZwnpTVgzqzo5jrD6XuMYpdrAGf/zJRuv45xZnAnDM5rJB8S+O1vf1sD6fZztRrEM0F7xrs5/1ivu9pY/xAgQIAAAQIECBAgQIAAAQIECBAg0PMCguCeH0IdIECAAIENKZDwdKSSWaWZLZp9fv7zn9dZok2Q2+mYBH95PuFegsHM+E3Y15QEmwlqt9122xoMts4OzT4JpTNTOMsp5/iErQl/E1pmRmoTRDb1JXBsguaEqPvtt1+dAZqQNzNkE0ZmKeFOZay+tba70/G5/uwTn/jEeo4sk52SADdBZWtJiNrehwSjWYo7JW1sSmZfJwxPYJp2xzNLaI9mlkA5IWuOi1eC6RyXZaGzZPTDH/7wpvpRbzODObN/c5tZvulHwu2UtDf1LVy4sD5uncldN9z5TyevzADOWKfeLHnd2teEt5lJ/ZjHPKZ+CCHtz4zkTufKvjFISZsSGjfhd7aN9brLPgoBAgQIECBAgAABAgQIECBAgAABAr0vIAju/THUAwIECBDoEoGEirnebkK+hK7NLNnRmpcwtglzs19C4aYkoM1s4QS9CUfbQ+iEv5nJ21w7OMFx9kt9CQDThtbSLGecmbnNcwkUc73atDthakLITjOZJ9O39nOfcMIJ9bwJIjNDtVPp1IecO8FqZlqnz03Jcttpe/qT+rKk9VhmCd4TBOdavAloH/GIR9TqstRylmPO0sjtpXVp6DwX7wTTCYBzTejMqI5bZvgmTM6SzzHMhwHinAA/y2KPVRJoZxwywzezerO8dVNilrD+pDuXqM7rK7Oksyx2guD2c2X58XjldZAweaeddmqqGb7t9LrLMVlGOnWONDN8uAJ3CBAgQIAAAQIECBAgQIAAAQIECBDoeoGhO2forB3PHye7vicaSGASAvnj/qxZm5fZcza9c/nSobvMTJtElQ4hQKCLBFavXlMDwnlz/zrLdkM0L7Num6B1vOfLLM6EfZ3KaM9NdP8EgwmJ28+Vc2QZ5/YZuu31T6ZvTR0T6Uf7vrl2bwLhbE/AmpmxTenUpvbjm32b2/bns7x2ZtEmSJ5siWvqbcZ+JOux6m9vW/v+CfubZaWb5zqdK9synqONafu5YpnXxmjHNOd0S4AAAQIECBAgQIAAAQIECBAgQGAQBZavWFlXO5w+/f8uj9etBkuXLC7rThXq1pZqFwECBAgQ6CGBJgicSJPbg9nWY0d7rnW/5v5o+zfX7m32bW5HO6bZJ7eT6Vtz/HjPkf3b982s3yzlnHAzM25bS6c2tR/fun/utz6fGb25VvDBBx/cvtuEHic8bW3LSNZjVdratk77tofA2afTuTpta6+v/Vyt7W/f12MCBAgQIECAAAECBAgQIECAAAECBHpLQBDcW+OltQQIECBAYCAF2sPfqUTYZZddhpfXnsp61UWAAAECBAgQIECAAAECBAgQIECAAIGNKdDdc5Y3poxzEyBAgAABAgMhYBnkgRhmnSRAgAABAgQIECBAgAABAgQIECAwcAKC4IEbch0mQIAAAQIECBAgQIAAAQIECBAgQIAAAQIECBAgQKDfBQTB/T7C+keAAAECBAgQIECAAAECBAgQIECAAAECBAgQIECAwMAJCIIHbsh1mAABAgQIECBAgAABAgQIECBAgAABAgQIECBAgACBfhcQBPf7COsfAQIECBAgQIAAAQIECBAgQIAAAQIECBAgQIAAAQIDJyAIHrgh12ECBAgQIECAAAECBAgQIECAAAECBAgQIECAAAECBPpdQBDc7yOsfwQIECBAgAABAgQIECBAgAABAgQIECBAgAABAgQIDJyAIHjghlyHCRAgQIAAAQIECBAgQIAAAQIECBAgQIAAAQIECBDodwFBcL+PsP4RIECAAAECBAgQIECAAAECBAgQIECAAAECBAgQIDBwAoLggRtyHSZAgAABAgQIECBAgAABAgQIECBAgAABAgQIECBAoN8FBMH9PsL6R4AAAQIECBAgQIAAAQIECBAgQIAAAQIECBAgQIDAwAkIggduyHWYAAECBAgQIECAAAECBAgQIECAAAECBAgQIECAAIF+FxAE9/sI6x8BAgQIECBAgAABAgQIECBAgAABAgQIECBAgAABAgMnIAgeuCHXYQIECBAgQIAAAQIECBAgQIAAAQIECBAgQIAAAQIE+l1AENzvI6x/BAgQIECAAAECBAgQIECAAAECBAgQIECAAAECBAgMnIAgeOCGXIcJECBAoF8E1qxZU2688cZ+6Y5+ECBAgAABAgQIECBAgAABAgQIECBAgMAUCgiCpxBTVQQIECDQXwKXXHJJOe644zZap1atWlWuv/76Ec9/++23lzPOOGPE5z1BgAABAgQIECBAgAABAgQIECBAgAABAoMrIAge3LHXcwIECBAYQyBB8Nq1a0sC19Zy2223lTvuuKN1U+m0LUFu+37Z1l7fLbfcUlavXr1OfTnvX/7yl3LeeecNP5dt2Te37aW9nStXriyZMZyS29Sf8+b8CgECBAgQIECAAAECBAgQIECAAAECBAj0v8CM/u+iHhIgQIAAgYkL3HTTTWWTTTYp97nPfcqll15aFixYUCs5++yzS0LWBL/3ve99y84771w6bTv33HPLDTfcUG699da6z/z582uoe91119Vgduutty577LFHOfXUU8usWbPqzN+99tqrbLfddvU8Occ555xTbr755nK/+92vbLHFFuVXv/pVmTt3blmxYkV52MMeVmbM+L//xhP0nn766bU9ae8vf/nL4Tof/OAH13b84Q9/KDnn8uXLS86zww47TBzFEQQIECBAgAABAgQIECBAgAABAgQIECDQMwKC4J4ZKg0lQIAAgQ0pcPHFF5eEt9tss00NaxMEJ9jNNXkPPvjgOis3QW2nbQlvr7nmmnLooYfWmbjHH398reuyyy4rD33oQ8vmm29ew+XM0E3gnG2ZOdx6vd85c+aUAw44oFx++eU1tE0I/MAHPrC258orr6yh8j777FNJ8lwC5ATGmcW81VZb1ZA5bbjgggvqcwmkH/KQh5SrrrqqnlsQvCFfTc5FgAABAgQIECBAgAABAgQIECBAgACBDS8gCN7w5s5IgAABAl0ukGWWsyTzbrvtVmfQXnvttSVfCW4T4qYMDQ3VYDahbKdtWdY5s31TNttss3p74IEH1noTyu6yyy51xnHC3eY6v3vvvXfdr9M/CYwzKzglt3/84x/r/aZtzYzlzPhN+JvtKfPmzau3mb2cklnE7ctQ1yf8Q4AAAQIECBAgQIAAAQIECBAgQIAAAQJ9JSAI7qvh1BkCBAgQmAqBhLiZCZwZtilZejnLQ++66651WeZsS1h8/vnn132yVHP7tizDvHDhwro9yzynLFu2rM7+TRB77LHH1pA2S0wfdNBB5eqrr64hcZZ8bkrC5uZ6wAl/s6x0Zv7mfFkiOiXB7uMe97gaOmcGcrZnyemEyml36k/dWX5aIUCAAAECBAgQIECAAAECBAgQIECAAIHBERAED85Y6ykBAgQIjFPgoosuKll2ecstt6xHJIRNcLvvvvvW6+yecsopNWTdaaed6mzfhL7t27bffvvy85//vAa1qWfPPfesdWW/lITMCWez9HO+Ehbvvvvu9bnmn8w0TiidEDrHZ+Zw2rZq1aqS2cUpaVuWkW5mFj/iEY+o++U6wQmBM6tZIUCAAAECBAgQIECAAAECBAgQIECAAIHBExhatGjR2mY5ycHrvh4PukBm582atXmZPWfTMm3aUF3qddBN9J9APwmsXr2mhqbz5s6e0m5lpm1m6+arKSNty4ze6dOnN7vVALl9W2YIT5s2bZ36mgOaZZybOvK4ud/s0+l2tDo77W8bAQIECBAgQIAAAQIECBAgQIAAAQIECIwtsHzFyjJz5sw7/047beydN+IeS5csLmYEb8QBcGoCBAgQ6E2BhLbtZX22jRbstj/X/ri9Hc3j8e7X7O+WAAECBAgQIECAAAECBAgQIECAAAECBPpL4K5/ye6v/ukNAQIECBAgQIAAAQIECBAgQIAAAQIECBAgQIAAAQIEBk5AEDxwQ67DBAgQIECAAAECBAgQIECAAAECBAgQIECAAAECBAj0u4AguN9HWP8IECBAgAABAgQIECBAgAABAgQIECBAgAABAgQIEBg4AUHwwA25DhMgQIAAAQIECBAgQIAAAQIECBAgQIAAAQIECBAg0O8CguB+H2H9I0CAAAECBAgQIECAAAECBAgQIECAAAECBAgQIEBg4AQEwQM35DpMgAABAgQIECBAgAABAgQIECBAgAABAgQIECBAgEC/CwiC+32E9Y8AAQIECBAgQIAAAQIECBAgQIAAAQIECBAgQIAAgYETEAQP3JDrMAECBAgQIECAAAECBAgQIECAAAECBAgQIECAAAEC/S4gCO73EdY/AgQIECBAgAABAgQIECBAgAABAgQIECBAgAABAgQGTkAQPHBDrsMECBAgQIAAAQIECBAgQIAAAQIECBAgQIAAAQIECPS7gCC430dY/wgQIECAAAECBAgQIECAAAECBAgQIECAAAECBAj0mcCSJUtKvlpLp22tzw/a/RmD1mH9JUCAAAECBAgQIECAAAECBAgQIECAAAECBAgQIECgtwUuvfTScuKJJ5ajjjqqduToo4++S4cOP/zwsnDhwrtsH5QNguBBGWn9JECAAIEJC6xdu7b8v/buBM6uq74T/KlXVVJpsS0Zm3hFXoQxq20wy5idQDtmSTrhk3TSHSAGh/E0A9Mhk3TC9AxMd2dgAiFhS4AYkw8kQ5JJCAxJaMAG3AQDxsbGBm+SbXmRDQgsCdnaapvzv1en6tXTK9WiqlfvVX0PeXXfu+s53/sk51M//c/t6+ubOK71c2xoXTfT524+prXv3dzX5da3hbIPF40AAQIECBAgQIAAAQIECBAgQIDAShCIgHfbtm0pAuAIg+P1uMc9bmLoX/va16qgOPZ5zWteM7F+Jb3pf8tb3vKO448/fiWN2VgJTAjs2bMnDQysToODq6qwpznwmdjJGwIEelYgwrXR0dG0ZmhwzmPYvn17+tKXvpQOHDiQTj755LR37970+c9/Pt1///3prLPOqv7OuOqqq9Itt9ySTj311LR69ep08803p69//etp/fr16bjjjpvXMa3XjY7PdJ2FOKbd+FrH03qdhTqmdXyzuU7rMa19bde3xTimta/zuV/t+to6ntbrtDtmzl9yBxAgQIAAAQIECBAgQIAAAQIECBDoYYGYBvorX/lKiqrff/iHf0gXXHBB9XvZCIA3bdpUvV70ohdVv7eN37edd955CzLa/ftHcrY0kBqNySKiBTnxAp/kp7sfTp4RvMCoTkeAAAECy0Ngx44daWRkJD300EPVgHbt2pX279+fHn744Wp58ODB6n0ExTt37qz2+cEPflAdE8dGm88xrdedzXUW4pjWvkb/W8fTep2FOKbd+Ga6TrtjWvva2rfFOqa1r7O5TusxrX2dr30cpxEgQIAAAQIECBAgQIAAAQIECBBYKQJRCVymfo5lfC7PDP7kJz85wRDVwHfffffEtokNK+CNiuAVcJMNcXoBFcHT29hCYDkIHE1F8LHHHpv/RVcjPeEJT0jr1q1La9euTf39/emMM85IJ554YvU+Kn83bNhQVQjHvlEFvGrVquqYWM7nmNbrxjVnus5CHNPa17j/reNpvc5CHNNufDNdp90xrX1t7dtiHdPa19lcp/WY1r7O1345/Jk1BgIECBAgQIAAAQIECBAgQIAAAQKzEYjA96abbkpR8Ru/G4wK4PjdXFQGx7qYATbWlRYzPbauK9vmuuyliuC+LVu2jG/evHmuY7Q/gWUhEFNtDg0dm9asXVeV8JsaelncVoMgMCEwOjpWTe28ccOaiXXeECBAgAABAgQIECBAgAABAgQIECBAgEDvC5Sq3+bn/5bnAjc/L7ise/vb374gg965a1/1qMD+/u6eePn++7aaGnpB7riTECBAgAABAgQIECBAgAABAgQIECBAgAABAgQIECDQMYESAEcgHGFvtOc///nVdNFlmuioHP7yl7+cIhheia27o+qVeEeMmQABAgQIECBAgAABAgQIECBAgAABAgQIECBAgACBGQUiDI7H+UXY2xwIx4ERBkdrrg6uVqygHwMraKyGSoAAAQIECBAgQIAAAQIECBAgQIAAAQIECBAgQIDAMhKIKuB4largbdu2VVXBMcQIg1dqNXCMXxAcChoBAgQIECBAgAABAgQIECBAgAABAgQIECBAgAABAj0rEGFwtLIsA7nmmmtSmUa6rFspS0HwSrnTxkmAAAECBAgQIECAAAECBAgQIECAAAECBAgQIEBgBQmUauEVNOQpQ/WM4CkcPhAgQIAAAQIECBAgQIAAAQIECBAgQIAAAQIECBAgQKD3BQTBvX8PjYAAAQIECBAgQIAAAQIECBAgQIAAAQIECBAgQIAAAQJTBATBUzh8IECAAAECBAgQIECAAAECBAgQIECAAAECBAgQIECAQO8LCIJ7/x4aAQECBAgQIECAAAECBAgQIECAAAECBAgQIECAAAECBKYICIKncPhAgAABAgQIECBAgAABAgQIECBAgAABAgQIECBAgACB3hcQBPf+PTQCAgQIEFhggY9//OMpXtEsOfge+HPg7wF/D/h7wN8D/h7w94C/B/w94O8Bfw/4e8DfA/4e8PeAvwf8PeDvgeX990D8GV+OrW/Lli3jmzdvXo5jMyYCMwps3749DQ0dm9asXZcajb7U19c34zF2IECgdwRGR8fSgQMH0sYNa3qn03pKgAABAgQIECBAgAABAgQIECBAgAABAl0rsHPXvrR69erU39/d9bb337c1dXcPu/YW6xgBAgQIECBAgAABAgQIECBAgAABAgQIECBAgAABAgS6V0AQ3L33Rs8IECBAgAABAgQIECBAgAABAgQIECBAgAABAgQIECAwLwFB8LzYHESAAAECBAgQIECAAAECBAgQIECAAAECBAgQIECAAIHuFRAEd++90TMCBAgQIECAAAECBAgQIECAAAECBAgQIECAAAECBAjMS0AQPC82BxEgQIAAAQIECBAgQIAAAQIECBAgQIAAAQIECBAgQKB7BQTB3Xtv9IwAAQIECBAgQIAAAQIECBAgQIAAAQIECBAgQIAAAQLzEhAEz4vNQQQIECBAgAABAgQIECBAgAABAgQIECBAgAABAgQIEOheAUFw994bPSNAgAABAgQIECBAgAABAgQIECBAgAABAgQIECBAgMC8BATB82JzEAECBAgQIECAAAECBAgQIECAAAECBAgQIECAAAECBLpXQBDcvfdGzwgQIECAAAECBAgQIECAAAECBAgQIECAAAECBAgQIDAvAUHwvNgcRIAAAQIECBAgQIAAAQIECBAgQIAAAQIECBAgQIAAge4VEAR3773RMwIECBAgQIAAAQIECBAgQIAAAQIECBAgQIAAAQIECMxLQBA8LzYHESBAgAABAgQIECBAgAABAgQIECBAgAABAgQIECBAoHsFBMHde2/0jAABAgQIECBAgAABAgQIECBAgAABAgQIECBAgAABAvMSEATPi81BBAgQIECAAAECBAgQIECAAAECBAgQIECAAAECBAgQ6F4BQXD33hs9I0CAAAECBAgQIECAAAECBAgQIECAAAECBAgQIECAwLwEBMHzYnMQAQIECBAgQIAAAQIECBAgQIAAAQIECBAgQIAAAQIEuldAENy990bPCBAgQIAAAQIECBAgQIAAAQIECBAgQIAAAQIECBAgMC+BgXkd5SACBAgQIECAAAECBAgQIECAAAECBAgQIECAAAECBFakwCOPPJL27NmTxsbGenL8jUYjHXPMMWn9+vU92f/ZdloQPFsp+xEgQIAAAQIECBAgQIAAAQIECBAgQIAAAQIECBBY4QIRAu/evbunFSLALmNYzmGwqaF7+muq8wQIECBAgAABAgQIECBAgAABAgQIECBAgAABAgQ6JxCVwMulLaextLsnguB2KtYRIECAAAECBAgQIECAAAECBAgQIECAAAECBAgQIHCYQK9OB33YQPKK5TSWduMTBLdTsY4AAQIECBAgQIAAAQIECBAgQIAAAQIECBAgQIAAAQI9LCAI7uGbp+sECBAgQIAAAQIECBAgQIAAAQIECBAgQIAAAQIECBBoJyAIbqdiHQECBAgQIECAAAECBAgQIECAAAECBAgQIECAAAECBHpYYKCH+67rBAgQIECAAAECBAgQIECAAAECBAgQIECAAAECK1Bg//79ac+ePenEE0+sRj86Opp+/OMfpxNOOKF67uvDDz9cve/v76+27969O/X19aVjjz023XPPPWlgYCCtXbs2rV+/Pq1evXqK4E9/+tP06KOPpqGhobRhw4bquCk75A/xbNm4xvDwcDrmmGOq88Q+u3btSoODg2ndunXVIc39Kn0ZGRlJ9913X9q0aVMq6+I8R+pznGzv3r0p+hbHRL/iOtHimjG+6G9p4RLj3blzZwqrGOtxxx3XdizlmMVejo+PV309ePBgWrNmTXUvmq8Z5jGWU089tVodfY8xxj0qraxrNBqVV/O9i/GtWrWq7GqZBVQE+xoQIECAAAECBAgQIECAAAECBAgQIECAAAECBAj0lMAjjzxSBbql0xHM3nXXXenAgQNp37591ft77723bE4//OEP049+9KPq80MPPVR9juD4pptuSvG5tG3btqU77rijCl3j/W233ZYiwGxuEe7efPPN1XFxrdhn+/bt1S6xjPOWFqFn9CvC39KiLz/4wQ+qILOsm6nPO3bsqK4ZYWkExtHvOCZaXDNeEYyXV/T51ltvrQLn6EOE31u3bi2XW5LlnXfemR588MEU/YkgPPrU3GIMZXusj9D7/vvvn9glDItlBMZx38KjvJqNJw5a4W9UBK/wL4DhEyBAgAABAgQIECBAgAABAgQIECBAgAABAgSWo0AEro997GOnVJSWcW7evLmqqo0Q8bvf/W5VLRvbIoi84IILqorVCHxvuOGG9JOf/KSqLi7HxnkjaH3KU55SVdgef/zx6fbbb08nn3xy2eWIywiko3o1lqWiuRzQrs9xrQhNzzjjjHTSSSdVu0aoG9WxUVkbLapoo8K4tAhFo0r4vPPOq6qTf+ZnfqYKUWNMpQq57NuJZfQngt0nPelJVX9i3BG0l/5ERXRsj+rqCNJPOeWU9JjHPKYyim1RGRzhb/Q97KI6OiqFw0SbXkBF8PQ2thAgQIAAAQIECBAgQIAAAQIECBAgQIAAAQIECPSowGmnnVZVwbZW9DYPJ6ZwjmmTI4SMatqYXrmEqxE6xlTSUX3c3GK/WB9TL0eLaZqf+cxnppiuOFpsj5C2vKqVh37EuaIiNoLoCGqjgrm5tetz7BNBalyntDg+wtLS4lzlehGSxtTXEZRGYBwVxDGFcgTXSxECRx9Lf6JKO/oZUzife+65E/2JsD1MI7CO99HKtN0RAEeL4yJ0L+5RER3b4hXm2uECguDDTawhQIAAAQIECBAgQIAAAQIECBAgQIAAAQIECBDocYESlEaV75FaBLhRdRpha2tQGp9jW3OLKtYINptb83ERKsfUz+XVvF9U/EaYGcFsBLtluuqyT7s+x7TX0eIaESLHtNTxap76OgLmOFe8Sij65Cc/uaqqjcrb66+/fiJgLdfq9PKcc85JGzduTA888EBVhR0BdWlRBRwuUe0b3iV8j6rgCIDDPFzjc2mxLo6LV+yjHS4w9Vt6+HZrCBAgQIAAAQIECBAgQIAAAQIECBAgQIAAAQIECHSVQIS3zZW+JSwtVbnR2agcPfvss9P3v//9quo3Kn9bW5wjKksjgI39o/o21pWq0/gc4WRzixC3uZI3AuQII2Ma6mjN0zTHuW+88cZqffQxguBoEehGFW9Us55++unVuvjRrs9xvWhxzahgjmrgeHbu/v37q/Xxo/ma8Tn6FNujwjheEUrHM3qf9axnHRZ2x/6L3Up/YvrseMUzj+++++7KNoziFSF2VANHwBvhfQTHEQ7Hs4AjNI7poaNKuLR4Hxba9AIqgqe3sYUAAQIECBAgQIAAAQIECBAgQIAAAQIECBAgQKALBSIEjMAwwtRoERRGlW5M7dzc4pmz8TzaUmHavC3C2Hj2bhwXlapl6uUITSMMjpC2tQo1jo+q1LheTMEc+23fvr0KK5tD6ObrlPelAjaekxvB7ROe8IRqUxlD2a+1z1EJHH2L8DfC5DJ1ddm/LKMv5VUqh8u4I0wu28r+nVxGle9tt92W4pnM0WJq6NKfCH/jHkQgHoF8PAc53OP+xlgjwN+Wq5qbq4E72fdevpaK4F6+e/pOgAABAgQIECBAgAABAgQIECBAgAABAgQIEFiBAhEkRrXvHXfcUYWj5Zmz7SjOOOOMKrht3nbrrbdWlbHxXNoIZsvUzvHc2rvuuqsKiKMC9fGPf3wVRDYfG6FshJa33HJLFWZG+FxC3eb9Wt9HxWuEnCVwju1R8Rrr49m4za21z1H5Gs/7ve6666qq4bjmWWedNXFIhNHxKi2eWRzbI3wt1dJnnnnmYVNal/0XexmBboxpy5YtEwHwpk2bqucqRxAc2yIAjxYhf5nu+YQTTqgC4AiQw6q5Rcj97W9/e2JVfB9a95nYuELf9GXwcWXTK/TuG3b1l+LQ0LFpzdp1+S+bvompHtAQILA8BEZHx6rpUjZuWLM8BmQUBAgQIECAAAECBAgQIECAAAECBAgcJhCVoyXIPWzjPFfM9pyz3W+e3TjssBLqzlR93HzgQvexOXBuvs5s38c00a3PWJ7tsYuxX1Rnz6Xt3LWvesZzf393T7x8/31bk4rgudxZ+xIgQIAAAQIECBAgQIAAAQIECBAgQIAAAQIECHSVwEKHwDG42Z5ztvstFNhcAuByzU73sVx3umU3hcDT9XG5rO/uqHq5KBsHAQIECBAgQIAAAQIECBAgQIAAAQIECBAgQIAAAQIEOiggCO4gtksRIECAAAECBAgQIECAAAECBAgQIECAAAECBAgQIECgEwKC4E4ouwYBAgQIECBAgAABAgQIECBAgAABAgQIECBAgAABAgQ6KCAI7iC2SxEgQIAAAQIECBAgQIAAAQIECBAgQIAAAQIECBAgQKATAoLgTii7BgECBAgQIECAAAECBAgQIECAAAECBAgQIECAAAECBDooIAjuILZLESBAgAABAgQIECBAgAABAgQIECBAgAABAgQIEOhlgUZj+cSLy2ks7b5Ty+dOtRuddQQIECBAgAABAgQIECBAgAABAgQIECBAgAABAgQILJjAMcccs2DnWuoTLaextLMcaLfSOgIECBAgQIAAAQIECBAgQIAAAQIECBAgQIAAAQIECLQKrF+/vlq1Z8+eNDY21rq5Jz5HJXCEwGUsPdHpeXRSEDwPNIcQIECAAAECBAgQIECAAAECBAgQIECAAAECBAgQWKkCEaAu9xB1OdxbU0Mvh7toDAQIECBAgAABAgQIECBAgAABAgQIECBAgAABAgQIEGgSEAQ3YXhLgAABAgQIECBAgAABAgQIECBAgAABAgQIECBAgACB5SAgCF4Od9EYCBAgQIAAAQIECBAgQIAAAQIECBAgQIAAAQIECBAg0CQgCG7C8JYAAQIECBAgQIAAAQIECBAgQIAAAQIECBAgQIAAAQLLQUAQvBzuojEQIECAAAECBAgQIECAAAECBAgQIECAAAECBAgQIECgSUAQ3IThLQECBAgQIECAAAECBAgQIECAAAECBAgQIECAAAECBJaDgCB4OdxFYyBAgAABAgQIECBAgAABAgQIECBAgAABAgQIECBAgECTgCC4CcNbAgQIECBAgAABAgQIECBAgAABAgQIECBAgAABAgQILAcBQfByuIvGQIAAAQLTCvT19aXR0dFpt9tAgAABAgQIECBAgAABAgQIECBAgAABAgRmIxC/a47fOfdKEwT3yp3STwIECBCYs0D8B7nR6Es/2vHwnI91AAECBAgQIECAAAECBAgQIECAAAECBAgQaBaI3zXH75x7JQwWBDffPe8JECBAYFkJxD/M6u8fSKtXrUlbttydhoeHl9X4DIYAAQIECBAgQIAAAQIECBAgQIAAAQIEFl8gfrccv2OO3zXH75x7pSh4YPFpXIEAAQIECCyNQF0R3Eirh4bSho2PSV/+ytfS/n370/j4+NJ0yFUJECBAgAABAgQIECBAgAABAgQIECBAoKcE4vfMQ2uG0tOf/ozqd82NRqNnKoIFwT31VdNZAgQIEJirQEzTkeuC09q169Ozn31RGh0ZTuP5fxoBAgQIECBAgAABAgQIECBAgAABAgQIEJhJIE8EnfoHBtPg4GCeFrpRTQ090zHdsl0Q3C13Qj8IECBAYNEE6mc2xH+gV6e0erWK4EWTdmICBAgQIECAAAECBAgQIECAAAECBAgsL4HyPOCYDrq875URCoJ75U7pJwECBAgclUD8B3ryuQ1RJawRIECAAAECBAgQIECAAAECBAgQIECAAIHlK9BYvkMzMgIECBAgQIAAAQIECBAgQIAAAQIECBAgQIAAAQIECKxMAUHwyrzvRk2AAAECBAgQIECAAAECBAgQIECAAAECBAgQIECAwDIWEAQv45traAQIECBAgAABAgQIECBAgAABAgQIECBAgAABAgQIrEwBQfDKvO9GTYAAAQIECBAgQIAAAQIECBAgQIAAAQIECBAgQIDAMhYQBC/jm2toBAgQIECAAAECBAgQIECAAAECBAgQIECAAAECBAisTAFB8Mq870ZNgAABAgQIECBAgAABAgQIECBAgAABAgQIECBAgMAyFhAEL+Oba2gECBAgQIAAAQIECBAgQIAAAQIECBAgQIAAAQIECKxMAUHwyrzvRk2AAAECBAgQIECAAAECBAgQIECAAAECBAgQIECAwDIWGFjGYzM0AgQIECAwITA+Pp7y/1Ut3msECBAgQIAAAQIECBAgQIAAAQIECBAgQGAmgb6+vmqXWJT3Mx3TLdsFwd1yJ/SDAAECBBZNYGxsPA30j6fBwTIRRv0f7kW7oBMTIECAAAECBAgQIECAAAECBAgQIECAwLISGB4eSyOjKTUavfP75fIb8WV1IwyGAAECBAiEQFT+juT/Mo+PDTeFwGwIECBAgAABAgQIECBAgAABAgQIECBAgMDcBKLQKH7XXP3OuUdmnRQEz+0e25sAAQIEekgg/ls8OjqShoZMgNFDt01XCRAgQIAAAQIECBAgQIAAAQIECBAg0JUC8bvm+J1zj+TASRDclV8jnSJAgACBhRCIiuCYFrrR8J+7hfB0DgIECBAgQIAAAQIECBAgQIAAAQIECKxkgfhdc/zOOX733AvNb8Z74S7pIwECBAjMW6BX/oM87wE6kAABAgQIECBAgAABAgQIECBAgAABAgQ6JtBLv3MWBHfsa+FCBAgQIECAAAECBAgQIECAAAECBAgQIECAAAECBAgQ6IyAILgzzq5CgAABAgQIECBAgAABAgQIECBAgAABAgQIECBAgACBjgkIgjtG7UIECBAgQIAAAQIECBAgQIAAAQIECBAgQIAAAQIECBDojIAguDPOrkKAAAECBAgQIECAAAECBAgQIECAAAECBAgQIECAAIGOCQiCO0btQgQIECBAgAABAgQIECBAgAABAgQIECBAgAABAgQIEOiMgCC4M86uQoAAAQIECBAgQIAAAQIECBAgQIAAAQIECBAgQIAAgY4JCII7Ru1CBAgQIECAAAECBAgQIECAAAECBAgQIECAAAECBAgQ6IyAILgzzq5CgAABAgQIECBAgAABAgQIECBAgAABAgQIECBAgACBjgkIgjtG7UIECBAgQIAAAQIECBAgQIAAAQIECBAgQIAAAQIECBDojIAguDPOrkKAAAECy0zgu7seSvHSCBAgQIAAAQIECBAgQIAAAQIECBAgQIBANwoMdGOn9IkAAQIECHSjwMfuvT59a+f29I8775/SvVduPD09e+Op6Q2bLpyy3gcCBAgQIECAAAECBAgQIECAAAECBAgQILBUAiqCl0redQkQIECgZwSi8veNN302/e93f7PqcwS/n7/g1em/nPWc6hUrY1vs04kq4eHh4fS+970vXXPNNUc0fNvb3pYe//jHp5tvvvmI+5WNIyMj1f6XXHJJWWVJgAABAgQIECBAgAABAgQIECBAgAABAj0qoCK4R2+cbhMgQIBAZwQi2L3kxr+vLhbBb3PV73kbTq7Wx7qoFo4wOKqFIyQu2xajl9u3b08f/OAH0/Of//z0whe+sLrEN77xjXTjjTemn/u5n0tnnXXWYlzWOQkQIECAAAECBAgQIECAAAECBAgQIECghwRUBPfQzdJVAgQIEOi8wIe2XVddNMLd5hC4tSexLfaJVo5p3WehPp9xxhnpn/7pn9If//EfT5zy29/+dvV527ZtE+u8IUCAAAECBAgQIECAAAECBAgQIECAAIGVK6AieOXeeyMnQIAAgRkEoso3KnyjEng2Fb6xT+wblcFx7JGC4xkunaLC94YbbkgbN25ML3vZy9K1116bBgcH0yte8Yq0Z8+eFMHvySefnF7ykpekT3/60+kDH/hAdcqPfexjad++fdV+7a7x8MMPpy9+8YspqopPPfXUqqo4lq3tvvvuS1dffXU6ePBguuiii9JTn/rU1l18JkCAAAECBAgQIECAAAECBAgQIECAQM8JxO8+H/e4x/Vcv+fTYUHwfNQcQ4AAAQIrQuBbO7eneB7wTIFumT66VA3HcfGa6bjpECPUff/7319tXrt2bfroRz+aHnzwwXTuuedWAe/OnTvTO97xjioEjiD44x//+MSprrvuutTf3982CP7ud7+bLr300nTgwIEUVcV33313WrduXbriiivS+eefP3GOrVu3pl/8xV9M8czgvXv3Vud797vfnV71qldN7OMNAQIECBAgQIAAAQIECBAgQIAAAQIEulXgk5/8ZNW117zmNVO6GCFw/D41fk+6EsJgU0NPuf0+ECBAgACBSYGoBn72xsOrZSf3SKmEwM3r4n0cO5927733pg996EPV/xPy1a9+tXru7+WXX37EU33uc59Lb37zm6t9PvKRj6RPfOITbfd/3/veV1ULRwVxTC0d/8/Q7t2706c+9anD9o8gOoLjz3zmM2nNmjXpne98Z9q/f/9h+1lBgAABAgQIECBAgAABAgQIECBAgACBbhN44QtfWBXClEA4+ldC4LPOOmtFhMAxZkFwKGgECBAgQKBFIALe1hbTPTe35hA4qoHL9NFvOuNZ1W7tztF8fLv3X//619Po6Gj1L9JiyuZGo1FV57bbd67rrrzyynTbbbelzZs3px07dqQTTzyxOsXNN9982Kme+9znVuue/OQnp4svvrjaf8uWLYftZwUBAgQIECBAgAABAgQIECBAgAABAgS6TSCqfaPqN2ZFjDC4OQRurRLutr4vZH9MDb2Qms5FgAABAstO4MLj6orgCHXj2b8x5fNHz/+FKZXAzSFwAFy/e/u8HeLZvdHiX6W1tpgS+mhahL9/+Id/mP7xH/+xmva5nGtsbKy8bbs8/fTTq/U//OEPPSu4rZCVBAgQIECAAAECBAgQIECAAAECBAh0m0AJg2Mq6AiE43euKykEjvuhIrjbvpX6Q4AAAQJdIVCqez+07bqqP/H5v5z1nGrK5zfe9Nl0yY1/X61vDYGbO1/O0bxupvfxzN5o+/btO2zXsu2wDbNc8du//dtVCPye97ynmnL6+9///qyOjGcKR4vnFWsECBAgQIAAAQIECBAgQIAAAQIECBDoFYESBq/EEDjukSC4V76p+kmAAAECHRd45ca6ErZc+A2bLpwIg2PddCFwVA23HlvOMdPy8Y9/fLXLv/zLv0zsumvXrur9qlWrJta1vunr66tWTVfdOzIykq677rq0adOm9IpXvCKtX78+7d27t/U0E59L+Bsr4rhopTK4+uAHAQIECBAgQIAAAQIECBAgQIAAAQIEekAgwuCVVglcboupoYuEJQECBAgQaBF49sZTq+mg49nAEQJHK8uYMrpdxW/s+487768C45bTzerji170oipw/cu//Mu0evXqFP9PSjzDYqZWQtq/+7u/SxHiRtjb3AYGBtITn/jEdOutt6YPfvCD6eSTT05/9Vd/Ve3Srvr48ssvT5dcckn6zne+k2644Yb04he/WBDcDOo9AQIECBAgQIAAAQIECBAgQIAAAQIEulxAENzlN0j3CBAgQGDpBCL0jereeDZwc/BbwuDWnpXnCEc18HT7tB7T+nlwcDBdeeWV6a1vfWv62Mc+loaGhqp/rbZ169bU39/fuvvE5wiQzzvvvHT11Ven733ve4cFwbHje9/73vRbv/Vb6X3ve1+KYPg3fuM30qOPPpq2bduWouo4qoSjPe95z0unnHJKevvb356iwjg+v/Od76y2+UGAAAECBAgQIECAAAECBAgQIECAAAECvSHQt2XLlvHNmzf3Rm/1ksACC2zfvj2HLMemNWvXpUajL5WpVRf4Mk5HgMASCYyOjlXVsRs3rJl3DyLcLc8DjmcETxfwRiVwBMbRppsyeradGB4eThEIl3D2rrvuSq985SvTq1/96vSud73riKfZsWNHWrNmzUSo227nOG/sExXHR2r79+9P0ZdjjjnmSLvZRoAAAQIECBAgQIAAAQIECBAgQIAAgRUjsHPXvup3q/393f0E3vvv25pUBK+Yr6WBEiBAgMB8BGL65wh2P7TtuirojQrhmDI6WlQJx/poMR10VAK/6YxntZ0yutppFj9GR0fTG9/4xhTPCv75n//5Ksh+97vfXR35ghe8YMYznHjiiTPus2HDhhn3iR2iGjleGgECBAgQIECAAAECBAgQIECAAAECBAj0noCK4N67Z3q8gAIqghcQ06kIdKHAQlQENw8rqn4jCI7Qt7lFABzh8HTVws37zub9xz/+8fQnf/Inae/evdXuMY3z7/3e76XXve51szncPgQIECBAgAABAgQIECBAgAABAgQIECCwSAK9VBEsCF6kL4HT9oaAILg37pNeEpivwEIHwc39iCmjo0XF8GK0eHbvbbfdVlXkRnXwTNM4L0YfnJMAAQIECBAgQIAAAQIECBAgQIAAAQIEpgr0UhBsauip984nAgQIECAwK4HFCoDLxdetW5cuvPDC8tGSAAECBAgQIECAAAECBAgQIECAAAECBAjMSaC7n2I8p6HYmQABAgQIECBAgAABAgQIECBAgAABAgQIECBAgAABAgRCQBDse0CAAAECBAgQIECAAAECBAgQIECAAAECBAgQIECAAIFlJiAIXmY31HAIECBAgAABAgQIECBAgAABAgQIECBAgAABAgQIECAgCPYdIECAAAECBAgQIECAAAECBAgQIECAAAECBAgQIECAwDITEAQvsxtqOAQIECBAgAABAgQIECBAgAABAgQIECBAgAABAgQIEBAE+w4QIECAAAECBAgQIECAAAECBAgQIECAAAECBAgQIEBgmQkIgpfZDTUcAgQIECBAgAABAgQIECBAgAABAgQIECBAgAABAgQICIJ9BwgQIECAAAECBAgQIECAAAECBAgQIECAAAECBAgQILDMBATBy+yGGg4BAgQIECBAgAABAgQIECBAgAABAgQIECBAgAABAgQEwb4DBAgQILCsBfr6+tLo6OiyHqPBESBAgAABAgQIECBAgAABAgQIECBAgMDiC8TvmuN3zr3SBMG9cqf0kwABAgTmLBD/QW40+tKPdjw852MdQIAAAQIECBAgQIAAAQIECBAgQIAAAQLdLTA+Pp6O9jWXEcbvmuN3zr0SBguC53J37UuAAAECPSUQ/zCrv38grV61Jm3ZcncaHh7uqf7rLAECBAgQIECAAAECBAgQIECAAAECBAhMCrSGvpNb5v9uNueM3y3H75jjd83xO+deKQoemD+LIwkQIECAQHcL1BXBjbR6aCht2PiY9OWvfC3t37e/+hdi3d1zvSNAgAABAgQIECBAgAABAgQIECBAgACBIhBhbadbqfqN5dCaofT0pz+j+l1zo9HomYpgQXCnvzWuR4AAAQIdFYhpOnJdcFq7dn169rMvSqMjwylPFtLRPrgYAQIECBAgQIAAAQIECBAgQIAAAQIECMxdYLYB8Hxy4tlW9Tb6Gql/YDANDg7maaEb1dTQcx/J0hwhCF4ad1clQIAAgQ4K1M9siP9Ar05p9WoVwR20dykCBAgQIECAAAECBAgQIECAAAECBAjMVWDmAHgxin2iqOjwViqDe+nZwGUUguAiYUmAAAECy1og/mM9+S+82v8HfVkDGBwBAgQIECBAgAABAgQIECBAgAABAgS6XGAyAD78d7hHqvqdPG72AywBb7sjJn+XPHVrXOdIx03de+k/CYKX/h7oAQECBAgQIECAAAECBAgQIECAAAECBAgQIECAAIEVLTBdmNsuAJ5+35krhUuQ23qOsj5uQrlmu0C4l8JgQfCK/iNl8AQIECBAgAABAgQIECBAgAABAgQIECBAgAABAgSWTqA1kC09KWFs+RzL5n2b3zfvU79vFwjXVcbtjosQuKyfTSDcbt/D+7D0awTBS38P9IAAAQIECBAgQIAAAQIECBAgQIAAAQIECBAgQIDAihMogWrrwJtD4NZ9pn5uF/hODYzLudtV99bbpobAzecvoXD0p93xsW/Zp1ynm5aC4G66G/pCgAABAgQIECBAgAABAgQIECBAgAABAgQIECBAYAUINAeuZbjNAXCsK/uUZb3fZPg7dX29f+u6cu5YRmjbGtw2B7zN14/94lxl/7Ktef84Z/M+8bmbmiC4m+6GvhAgQIAAAQIECBAgQIAAAQIECBAgQIAAAQIECBBY5gLtwtoStMbQm7dPvq8D4MnPKY2NjU1INa+fWNnypuxTwt3Y3Gg0JvaaDHknQ+DWY6Kfk/vVh8Y+zeecOOESvxEELzV27IkAACo8SURBVPENcHkCBAgQIECAAAECBAgQIECAAAECBAgQIECAAAECK0WgBKvN420XAk/uNzUALuHv5PYIjifPFuvjf60t1wJPhLWxTwlzR0dHJ9aXULhsK+dtVx1c9inXqc9ZP4e4rFvq5YoPgnft2pV279495V8MdPKm7N+/P5100kmdvOTEteJLOzQ0VL0mVnpDgAABAgQIECBAgAABAgQIECBAgAABAgQIECBAYBEEmsPbcvoStsbnsr0s85qJda0BcBwX+1WhbzlJfD70vlp/6CIRAkc0XFXtlgQ3LyfD4To4LteYGghPrQ4ulb9xmXKqQ5eprl22l3VLuVzRQXCEwHv27Enr1q1L/f39S3Ifog8bN25ckmvHl3nv3r0pwugIhDUCBAgQIECAAAECBAgQIECAAAECBAgQIECAAAECiyFQAtrmc0/mt3UQG9vq/erP8b6Es+X4sbHJ8Hc8Z13x6fYf96fv/aQ/3Z5fW/c00j178+tgX9qXT7MmF+meuWo8nbl2LG0+Ziyd+5jR9JT8OveEkToIjqmhD4XCZZbocs0IhEvYWwe/dSgc/YzAt9vD4BUdBEcl8FKGwPElWcoWX961a9emn/70p4LgpbwRrk2AAAECBAgQIECAAAECBAgQIECAAAECBAgQWGECrSFwCXqjCjhahLGxrqyvAuDx+pnAEQDftauRvnTP6vQP9w2mG/ZNPyVzhMG3HujLr1wUujO/8v7RnrFmPP3i44bTy84cTmdvGI2HBac8S3QOeBvxtmrRhwh86wrh6Eu9vg6B6+cCtwuD672W/ueKDoLj5i1VJfDS3/q6B/HFLX+AuqVP+kGAAAECBAgQIECAAAECBAgQIECAAAECBAgQILB8BFqzqBKolhFObj88BI4AONr42Ggay0HwHT9upP/n9qH0pw/UgW45x1yXER7fcMeq9J/y69+fdjD923MPpiecMJYafbkKOdUzCTcHwiUMzlFxla01TwHdGgbHeJq3z7VvC7X/oTx7oU7nPAQIECBAgAABAgQIECBAgAABAgQIECBAgAABAgQIEGgv0BwCR2DaHALH++ZK4FIFPDY6kvYPj6U//c7q9Lyr1h91CNzasz99YFV93nz+uE5cbzyHzvX16z6WfpWK5al9jymtW8+69J8FwUt/D/SAAAECBAgQIECAAAECBAgQIECAAAECBAgQIECAwLIUmAx6pw5v6vrDA+AqhM1VwKM5lL3lR33ptV9Yl95+5+qpJ1ngT3H+uE5cL65bVSHniuTWQLiEwXH5qeOY7NB06yf3WPx3guDFN3YFAgQIECBAgAABAgQIECBAgAABAgQIECBAgAABAitOoDUMLVWzZX29nKwKjs8ToWuEwPn1xbsH0ou/vD5dvaeernmxEeM6cb24blw/wuDmfsX12/W7Xj+1d/V+U9d18pMguJParkWAAAECBAgQIECAAAECBAgQIECAAAECBAgQIEBgBQqUELgMvYSksSyv1hD4c3cOpl//9rpySEeXcd24frswuPQ3OlTGUTrXOs6yfimWguClUHdNAgQIECBAgAABAgQIECBAgAABAgQIECBAgAABAstYoDUgLUOdun76EDgqct9w49py2JIs4/rTVQbX45h8MPDUcU12d7r1k3ss3jtB8CLZ3nzzzSleGgECBAgQIECAAAECBAgQIECAAAECBAgQIECAAIGVLFCqZEsoWkLU8rm1EviWH/QtWSVw632KyuDoT2tlcOzXOo4ynjLe1nN1+rMgeIHFI/x9y1vekl7/+tdXr8UMg++555704Q9/OF111VULPAqnI0CAAAECBAgQIECAAAECBAgQIECAAAECBAgQIDA/gRKItju6bItlvMbGxqrdxsfHqrB1/8HR9H99Z2mmg27X31gX/Yl+VWFw7me06HcZQ3wu44r3re1I21r3XcjPAwt5spV+rk984hPp/e9//xSGpz3taVM+L8SHCH7/+Z//eeJUd955Z/X55S9/ebXupS996cQ2bwgQIECAAAECBAgQIECAAAECBAgQIECAAAECBAgslUCpjm0OQyP0LSFqbB8bG03jOVgdGRlNV9w8lK7e079U3W173ehP9Ovy8/enRl8jRRTcaPQ3hb9jqS+vjxbj6uvry8uUl9WqJfshCF4g+hICX3TRRenCCy+sAuGoDF6oFtW/X/jCF1KEvs0twt8SCpfl1q1b0+bNm5NAuFnKewIECBAgQIAAAQIECBAgQIAAAQIECBAgQIAAgW4SmAiDD4XAd/ykkf7zXUv7XODpfKJfLz79YHriCaNpICes4zn4rcPeJU57p+twXm9q6CPgzHZTuxA4AuHXvva1sz3FjPt94AMfOCwEPuecc6rjyrKcpFQIR3isESBAgAABAgQIECBAgAABAgQIECBAgAABAgQIEOiUQHPlb+s16+C3rgaup1aOCtqxNFZNCz2S/vqO1a2HdNXnv75jKE8PPVL1t65qbp4iuh7XdB0+kst0xxztehXB8xRsfvZvTAfdXAkc71uniJ7nZarDmgPdUgEcy7PPPrvaHsvLL7984lnBUREcYXBUEMd6jQABAgQIECBAgAABAgQIECBAgAABAgQIECBAgECnBaJiNtp0IWgVDOdq4NGRsbT14b70kYfW1Ad06c+PPDSU/u3Dj6ZzHjOWp4jOwW+uCo5poFtbjKsbpocWBLfemVl8LhXAMfVzBL5lCujyfiErgaM7d91110SvYvrn9773vSnC4agSfvOb31wFvrFDCYNbp4+eONgbAgQIECBAgAABAgQIECBAgAABAgQIECBAgAABAksgUIfBdTJcBcD57Xh+NnBUA4+Nj6ar7xuaV68uPa0+7KJDy9me5NoHUvp4fs21XX3f6rT5+P25zzkEjmcb9w1UQXcdCI931XTRguC53t28//XXX1+Fv2UZp1isELi1e1EJfNVVV1Wr4/2ZZ56ZLr744moZ60uVcOwQgXAExrGPRoAAAQIECBAgQIAAAQIECBAgQIAAAQIECBAgQGAxBeqwd/or1AFwhKX1K/aMauDR0bH0/22fXzXwlb8w/fWOtOWyZ+Stn517GBz9vOype6uK4P5V/YfGMln13K5CuPQjxn2k7WW/hVoKguchedlll6WbbropXXjhhdXRJRA+//zz53G2mQ+JKuDWFtM/RwXwhz/84SoIjsA39osKYY0AAQIECBAgQIAAAQIECBAgQIAAAQIECBAgQIBANwhMhsOT1cDRrxwF5+ft5oraNJZu29GXbjrQP+fu/vlz6kOuuCGlqPCdS4sAOaqI51oVHP2M/j715Bxg5/73Nxr5sn1TqoKnfp5LrxZ23+iZNkeBCIFLixA4AuGoCH7a055WVi/Ysvn5wOecc05V8RtVv1EFHNtKNXBMHx0hcFT/RqVw7BstnhOsESBAgAABAgQIECBAgAABAgQIECBAgAABAgQIEOikQHk+cLtrVtvys4HzrNC5Gng0ff/hVe12m/W6uUzzHMHvXMPf1o5Ef6Pf0f8U4zj0LOTW/eLzkba1238h16kInoXmzTffXIW8sWzXyrTQ7bYt9LoIdqMS+K1vfWsV+Mb5I/yNCuFoEQhHZXAJgjdv3lyt94MAAQIECBAgQIAAAQIECBAgQIAAAQIECBAgQIBANwiUqaHHcog6Njae7tx19JFlPCt4NtNEX5Srh3/zm0enEP0dG8vPCa5C4EZVDRxVwN3Wjl6120a0CP15/etfXz0TOALfqAAuLSqAYzroWL9YrVT4Rrgbz/yNFs8CLtW/EQiXaaKjQvgDH/hAtU/Zt/mZwdUGPwgQIECAAAECBAgQIECAAAECBAgQIECAAAECBAh0UKBMD10C4JgWuv5fBMFj6e5HFyayjCmiZ2pznUK63fmiv1UInKe1LiMpY4tnAMf7Tj4LuF0fY93CqE539mWwvrkK+KKLLqoC4WuvvXYiEF6M6aBb2V760pdWYW8Jd8uzgCP4bX4mcAmBy/ElLC6fLQkQIECAAAECBAgQIECAAAECBAgQIECAAAECBAh0XiDHpYfmSC5TJcfnCFNHR0fS/fsXJrJ8xikzj2whguDob/R7bGyg7bhyFpzb0lcIL4zqzKY9u0d5HnBU/pbnAcczgTvdYjroD3/4wxNVwWUK6NKPmAo6XiUsjucERzWxRoAAAQIECBAgQIAAAQIECBAgQIAAAQIECBAgQKAbBEoYnBPUNDZah8MxNfS2kf6Ode+iPIX00T4jOPob/a7C7DyO/kZ+WHB/PUV0N1QCF0xBcJGYZhnhb1QCX3HFFdUenXwecGuXLr744omgN6qCm1sJgGNdhMBRRawRIECAAAECBAgQIECAAAECBAgQIECAAAECBAgQ6FaBqA6OMHVfXh5ti3A3Qt52LaqAjzb8bT5v9Df6Hf3v5iYInuHuxDTQ0SIMvuyyy6pXJ6aDbtetqPCN6Z6/8IUvtNtcrdu8ebMQeFodGwgQIECAAAECBAgQIECAAAECBAgQIECAAAECBJZSoFQFNy/X5FmUjzYMvjSHwJc9o/3IFmI66OYzR3+b+x/b6s9LPx10cz8Fwc0abd5feeWVaamC3zbdqaZ7jmmiNQIECBAgQIAAAQIECBAgQIAAAQIECBAgQIAAAQK9KNAcosb7MwZG023DRzc9dFXx+9n2GgtZDRxXiP5Gv5vH0V0RcO0gCG7/fZhY200h8ESnvCFAgAABAgQIECBAgAABAgQIECBAgAABAgQIECDQQwIlNC1dbn6W7mmrh486CI6K4OnakbZNd8yR1kd/S2seR6yLcbauK/t2eikI7rS46xEgQIAAAQIECBAgQIAAAQIECBAgQIAAAQIECBBYYQLThaOxftOagyk9MjRvkTc/K6ULTp734XM+MPrbbjyxrt36OV9ggQ4QBC8QpNMQIECAAAECBAgQIECAAAECBAgQIECAAAECBAgQIDA3gQhOz1q3L6Udx87twKa9IwS+8aGUbniwaeUMb+O5wfOdMjr6202B73RDFQRPJ2M9AQIECBAgQIAAAQIECBAgQIAAAQIECBAgQIAAAQILIBBP0B2vztMcoDYadQXtE47LQfBRtCtuSOk3v3kUJ5jjodHfvr5Giv6X1jyulCbXl+1LsWwsxUVdkwABAgQIECBAgAABAgQIECBAgAABAgQIECBAgACB5SuQC32nbX2NxkRFbYSpm487kJ46OPnc3WkPbLOh0yFw9DP6W0LgCIBjPNO1IzlMd8xCrV/RFcGNfFNGR0dTf3//Qnn23HnGxsYm/qD1XOd1mAABAgQIECBAgAABAgQIECBAgAABAgQIECBAoKsFIigdHx+v8qhYVq0KT3PdbCzzKzK7i0/cnW558IQ5jaWTVcClY9HP6G/pey4MjoGUzdX6+BDbl7pNH08vdc86cP3jjjsu7du3rwqDO3C5rrtEhMB79+5NQ0Pzf/h21w1KhwgQIECAAAECBAgQIECAAAECBAgQIECAAAECBJZEYKbwsw59JwPSCFQbjf5ctNlIzz1x55L0ea4XjX5Gf6Pf0f/SyjTX5XO75Uw+7Y45mnUruiJ4w4YNld3u3btThKJL0fbv35927lyaL3Z82SIEFgQvxZ13TQIECBAgQIAAAQIECBAgQIAAAQIECBAgQIDAShKIAPjQc4LzM3QbdSltFab29w+kTesfTb++YWf6y10buxYl+rdp/XAOgtcdCoHrceS65qY+N79vWr0Eb1d0EBzeEQaXQHgJ/F2SAAECBAgQIECAAAECBAgQIECAAAECBAgQIECAwIoTiILF/lxVO9Y/WoWqAwMD6VWn7OjqIDj6F/2MSuCoCo7+d7rKdy5flMl65bkcZV8CBAgQIECAAAECBAgQIECAAAECBAgQIECAAAECBAi0CDQHo+UxuVPXxTOBc9VsPGc3J5V1qNqfBgYH0ubjDqS3PPaHLWfsjo/Rr+hf9LO/v54Wuipqrqa3rp91XHpaxlvGH+vLurJPJ5aC4E4ouwYBAgQIECBAgAABAgQIECBAgAABAgQIECBAgACBFSpQQtC+nJxOvM/TKcf7Rl8OgXOV7UCeHnpgcFX6ldMfShet2tdVUtGf6Ff0r+pnVAXnfkf/y7TQ1fsqGV6a0LcdmCC4nYp1BAgQIECAAAECBAgQIECAAAECBAgQIECAAAECBAgctUCpii0BcJwwqoCrEPjQ1MpRITww0J8GVw2mNav60+Vn3HvU113IE0R/ol/Rv+hn9Hdq/ycj1zLOMu6F7MdczzXZq7keaX8CBAgQIECAAAECBAgQIECAAAECBAgQIECAAAECBAjMQWBKUBoVwf3xrOBcDTwwmFYNDuawdXU6d8OB9O7T75rDWRdv1+hH9Cf6Ff2LfkZ/o985DY7/q1oZ1+L1ZO5nFgTP3cwRBAgQIECAAAECBAgQIECAAAECBAgQIECAAAECBAhMI9AaikZYGuvq9aWatpGnV86vXBXcP9CoKm378/TQg1UYvCo972d2pz845Z5prtCZ1XH96MfgqlVVv6J/UREc/Y1+1/0v013X46rHObV/rR5Tty7eJ0Hw4tk6MwECBAgQIECAAAECBAgQIECAAAECBAgQIECAAAECLQIlGK2qafOP/pgiOtVh8Ko8/fLq1avya3V60Uk/Sf/3qVtaju7Mx7huXD/6Ef2JfkUIHP2M/nZ7NXAoCYI7811xFQIECBAgQIAAAQIECBAgQIAAAQIECBAgQIAAAQIrRqCEvWXAVeibP5T1sYxnBUdVbYSqVVVwf54aejBC1zoIXjM0VFXkfuzMW9JzBveWUy3qMq4T14tK4Lh+BMHRn+jXQO5f9DP6O7UauHlcU7tXxjt1bWc+DXTmMq5CgAABAgQIECBAgAABAgQIECBAgAABAgQIECBAgMBKFohQdHx8PBPUz9aN941GrKurbPOiqrodGxvM69KhfVN64vEH0n9de3P6+wdPT3+289RFI/yfNm5Prz7l/rR2aDANrR5Kq6oQeHXuU10NHMF1Vb1cTWldPxy4Dnqb3y9a9+Z8YkHwnMkcQIAAAQIECBAgQIAAAQIECBAgQIAAAQIECBAgQIDATAKTwW+9Z86Bc6tD0wh6I1gdGxurwuCx1J8D17x5JOXq2wiL6yC4CloPVeD+6un3p2cetyN98cenpr9+5MRqn4X48avrf5z+1QkPpLOP3Z9Wr8oVwIempo4q4OqZxYMDOQCunw/cF88GzuF19Cv6X4fa5fnAU3tTh8RT13XyU8eC4Drd7+TQXKvXBZb6D0ev++k/AQIECBAgQIAAAQIECBAgQIAAAQIECBAgQGCpBSLvac4JIwyOELisj2W8IlMdjefv9o/n7TnCHKz3KaFrX1WF20jn9B9MZ67fki559P70zZ0npmseeWy6dWT1nIf5pIED6YXrf5Ses3FHety6/VXgu2pwzaEq4MHJ6aDzc4EjBO7vzx3MnZzsz9Qq4BhXc4sxLXVb9CC43NjW5VIP3PW7V6D1D0br5+7tuZ4RIECAAAECBAgQIECAAAECBAgQIECAAAECBAjMJBDZT2SHEe6mFBXBdWVwf16O5jVVgJkrg/sGS0gcAWxUDOeq3OGBNHxwOJ09eDBtWv9A+qXhe9K9e49NWx9dn+7df0x6YHht+sHoUNo2mvfL1cd5kul0Rv9IOql/fzotP/9309CetHndI2nT2p9W4e9ADnoHB9amwVX184mjAnhVfj8xHXRfXLc/9fVHINyYqASOMdT9rwPrmca8FNsXNQiOG1heMbjm90sxWNfsDYH6D075C2Dqv6bojRHoJQECBAgQIECAAAECBAgQIECAAAECBAgQIECAQBEowe/k57oqOD4fKQweHc050UCprO3LVbk5jI0K3f6BNDg6mEaGR9Lw4HB6wtCBtPm4fWl09AfVVNORSba26EP1jN84R67ubTRy+BvP/o1pn+N8EQTnz3GNKnDOoXM8Dzj2PVIIXI9h6tXiWt3QFi0ILqFvLD95Y0rvvLE/3XmwG4asD70gcM6qlH7/gtH0mgsm/6B2yx+aXvDTRwIECBAgQIAAAQIECBAgQIAAAQIECBAgQIBANwm0hsExxfLYWJ0DTRsGR9XtWA6L8/8ikB0ZyZNH5+MGcnA7MjKcRgfH0uDISBofG622xfOGx8bHDitOjWvHq3FoeumqwvdQhXGcN6p/yzK2NXIVcP9AnqY675MvOG0lcPhGf5pbN+VZixIER/hbQWfsT+QQ+LJv50m8NQJzEIh/NHDpt/rT6Nhweu0F9cPC419pdNMfnjkMx64ECBAgQIAAAQIECBAgQIAAAQIECBAgQIAAgRUvEDlPc7Vucxhcxb05U22dJrq/CnFH09ho5ETxDOE8ffToWDVdcywjkxwdHTmUTdYZZV2wmhPkQy2Oq4LgnDXFNevK4IFDyzhn/QzgmH46wt9Gf+yTQ+B87dbpoKOfpXVzCBx9XPAguIatp4QeHh5O77ppTbGwJDBngXfdNJB+7Sn7qgdyl78YhMFzZnQAAQIECBAgQIAAAQIECBAgQIAAAQIECBAgQKArBUoYXIfEVfZaBbQlF6pmea6qefOzhMf70uhIhLljVSAcFcV1cepgXo7mkHnyUbXl+Bh0nHvyFWFzDnurULgEw1EFnAPhXAUcy7yxWubDqv3KsRECx/torSFwtbLLfix4EBzjC9hAH8ml2FuHJ1PxLhu77vSAQHx/4nsUc7FP/iHrgY7rIgECBAgQIECAAAECBAgQIECAAAECBAgQIECAwGECkfc0h7SxQ4SqVeBb7R3ZYkwZHWFvf5U5prFGGo9K3hwENwYb1fTPEQiPN3Jxat4vcsnx8YHqHPF+ulbPPlsHw9X7VFcKTwTAVWBcqofryuE4V6kort9HGHz4FUpAfPiWpVuzKEFwGc6RoMs+lgRmEvA9mknIdgIECBAgQIAAAQIECBAgQIAAAQIECBAgQIBA7wiU0LQ5EK7D1Tokrrfnytwc89bhbZnyub8KkUsgXBWn5mcCj43Wzxou54twuLXlWLdaVa5dTf98aMroSHZL2Bv9qK9Zqn/LslQWTz1zOd/Utd3xadGC4Ar+CIl7dwxfL3pBoP5XHPUf4F7orz4SIECAAAECBAgQIECAAAECBAgQIECAAAECBAjMLBAhaglvY+/WMDiqhOugta4OLvnj+HgdCEdhbl8OgvtzZXC0cq6oE25tOc6tVk0Et4fC31gZ6+LaJQCu100Njss+1UkO/Zg4V/PKLnq/aEFwF41RVwgQIECAAAECBAgQIECAAAECBAgQIECAAAECBAgQ6EKBCFNLgBvdi0A2/4wfTa0OZct00WX/upiwv9ov1sVREQK3Hl1O1BoGl/A3tpdQNyqDp36uz1b3q9o0Zfvkmu57JwjuvnuiRwQIECBAgAABAgQIECBAgAABAgQIECBAgAABAgRWjEAJYUvAOxm6tka6JaTNcW8OfuMZwuWYsgy0eB/VxKXF+co1Yl15P3VZAt/WZTlLvSzHTF3bnZ8Ewd15X/SKAAECBAgQIECAAAECBAgQIECAAAECBAgQIECAwIoSiJC1OdCdLhCOkLcEsn19U6eFDrDmcxTAsn98nnw/GTSXdZPLcuTksmybXNPd70oddXf3cgF7d2JdHb6AZ+yuU510hPEdn+/2YiT/y920u+6w3hAgQIAAAQIECBAgQIAAAQIECBAgQIAAAQIElq9Au7C1ruitA9zYXp7lW+8bYW4847cx8Wo0+vM+U1/N22P/+pg4bur5yrVahdv1q3Wfbvu8GLnggo/xz59Tn/I3vzm/U8cg//jClF7ztJSOGUrprodTevs1KX3qoZT+8PyU/pdD598/ktK2nSn9Ub7OJ7bX237nuSkdHJ287o15/XM+N/l5/E0p7R1Oad1H63XX/UJK552c0qqmQDaO//StKd3/05RmOt+R+vOvH5vSP/xyfZ3Sp7H8jxzWfCSlS09L6f94YUpnbEhp576UPnN7Sm+8NqU8pPSCY/OYXpLS+SeldCD35fN35jF/PaUH88ZP5PFdeEpKT/p/J8e05zfz/vnYm3ak9De/VK8fHUvpgdz/v8/j+P2b63Uv25jSe/J5n5z79cjBlK66K6XX//eUfpr3/fIlKb34rKl2V9yQ0pu+PXkd7wgQIECAAAECBAgQIECAAAECBAgQIECAAAECBAi0CjSHrs3VvRHSRptaEXxoZbW+rg6udprmR/O5m3cp5566bvLczet75X1PBMHPyEHl0bTff2JKb3h6Sm/9Ykrf+FFeXpDSFa9K6Vt/kdJgvn/DORx9+d+mtD5rvPG8lP48b7vqinpbBK0v+9Tk1fdGsnqo/ZscrEZbO5jSz+ZQ9OocIv/7q/LnfJ6LH5fS216Q0q/+fUoP5WB2Vw5KLz03P8L6COeLcx2pP43YIbf/8N9SuvHH9fv4uSaP4U8uzte/O6VL/i4Hu4+px3B3Drz/6I6UrnxFSj9+JKWX5nGcujaH4nnfP8xj/vV/yRXC+aSDTaF1nG8ofx7I54zrRaD9pn9K6Y7deYyn5xD4+fl9Pu+nH6zPe0fux0WfSOm09Sl95OU5GM5jfeO36nN+74f52C/FGev2o/3lnSUBAgQIECBAgAABAgQIECBAgAABAgQIECBAgACBmQVKcNsuEC5Hl+cBl33L+iMt2wW/Zf+5nKcc043LngiCjxbul5+c0pfuSunD2+oz/Z+5KvW0XCX7tFw9Gy3C2f+eg85o/bek9As5OH728fXnR3OAW7bVayZ//kre75p7UjouVxn/u/z+6lxFe/2j9fYn5urZaLfn5Xf31u/j55HOV/Y6Un9in235nM19iumgI4zentfffiC/ckh77BdS+lEOZf/NqSmdfXwOZz+f+xpjzK/zbkzpLc9J6TdyEDybtj2PKULueL3pWdntxBz05pT4tONS+uXPpHRd3h6vp12X0uPyutIeztdv7mdZb0mAAAECBAgQIECAAAECBAgQIECAAAECBAgQIEBgLgLN4WxzKBznOFKoO9trNJ9/tsd0+34rIgiO0PerObAt7e4c7v5sDkajvTAHpceszpW0uYp2XdZ4w9PqqZWvz6HnCw5t+/zL6n3j57tziPzlXSmdkvf9V5tT+s/XpLQhH3/ZM3Jl7jdS2pdD5SO1uFa78zUfM11/nrmx3us9P5vS5T+p3/9zDrg/kCuB3/+teorr521K6XO5CvjP78xTUQ+n9F+fWk/PHH0u7bZ87FDu/7OPKWuOvDw3X3c0j+ulucp5/aqUvvlQnmY6Twd9IFdHfzNXGpf2ju+Xd/XyBWdMjnUkH/+qXC2tESBAgAABAgQIECBAgAABAgQIECBAgAABAgQIEDgagdbQtjUYns25W88xm2N6bZ8cB3Zfi2cCN08HfcHJdR+/80uTfb0hV73O9pnBeZbjaq7wyaMPf/fXv5iraHNIG+1Vf1OHqPWnlL6/o7zLz7/N4Wq015yVq4fzif8qh7An5mrc//i8vC4HpR+9t95+pJ/tzte6f7v+PPPQTrfl6ZjvzK9oD+VK3Gi/fWNK/21bnu75SXl66ly1e9nT62rdGHtrmyyPb93S/vO7moLwt+Uw929/kNIFOQjO2e4RW1Q2l7FGkKwRIECAAAECBAgQIECAAAECBAgQIECAAAECBAgQWGiBlRDqzsesK4Pg+QzkSMfElMmnN01ZvCkHt3+cg9sr8zTQ0fbk6ZSPuyKlXzkppb95dUonranXl23/602Tn8u7Eo7e9YZ6TX+eKvnXnzJzEBzXane+ct5YHqk/sf1j303ps03h9PNyxfPLz8hVwbki93Vfz2PNUzRf92sp/Y+5uvmr99XP+X1BHn+ZpvmcPFX0wdGUbtiT0iO5OnpN07cgpplu5LHsyetL+9d/m9JNuaL4ptektDkfG23b7rqq+Bnr8nkOhdG/e06+du7Lm6+v9/mXHIrPNNZ6Tz8JECBAgAABAgQIECBAgAABAgQIECBAgAABAgQIEFhIgaYIcCFPe3Tnaq30LZXAT//0/M77mdtT+g//Q36O7x0pfSNX0v5+rpZ9xRNS+r1r8xTRTaeMStc3bcvhZd73L+6vN8QUyuetndzpQA5QN+QgOdp78/Gfu6d+/+/OzSHs+Smdk6uK7zxQr2v3s9354rm+7Vq7/sR+j81BdXOfotr2d56bA90c4r4th9Zn53A2wt19Iyl96oGU/lOe5voPnp8NvpKntM5juTT387O31dNYfzNXVl92YUr/85kpfTqP+a05zI72le35GcD5PKXdmyuhP/ad7PPslP7s5rxvPu87cpD8jmz121/LAfH6fGx+//kt5Yg81faqqf3clc8R59EIECBAgAABAgQIECBAgAABAgQIECBAgAABAgQIEFhcgRwXLv/2B7lS9tRcqfrnr8xVrDnEvT9Xt/7m59oHtu/Oz9r97K/kUPOc2mUwh6s3XTpp9L0fpnTNtrpq9w9yZe7DY/W2B3NI+tocsL4uH/e/3TK5f+u7dud76t+17jX5ubk/W3O/o330VfWy/HzMn+Xw+osp/e5FKb0lh7HRrs2VwO/O00XHM4sv++dcAf2zuUr4dSmN5P5+aWsOjq+t97syh7/nfSM/S/gl+VnDQyntyNW9v5PPdV1eNgfBsfd78rh+/bwcpOepp1+dQ+U35ucs/1E+7+2XpbQ3B7xfztNk/272Ky2m9262+4vcn0sPXbfsY0mAAAECBAgQIECAAAECBAgQIECAAAECBAgQIECAwMIL9G3ZsmV88+bNC3bmeBjz2NhYGhkZSY8++mh6zKcOzSV8FFc42orgcuk1+YG5J+cg+O6DZc3yW56bK5J/kiuBd+TK5dZ2eh777rz+p4fC69bt56zK4fg8bM7Kxz2Ug+AInRej/eTXHk7r1q1LAwMDedrqRlrIed63b9+ehoaOTWvWrsvn7lvQcy+GhXMSIECAAAECBAgQIECAAAECBAgQIECAAAECBAgQmEng/vu2pp6oCL7hwZmGMrvtEVQu5xA4FKabZjq23T/DtMzzCYHjvMvdNMaoESBAgAABAgQIECBAgAABAgQIECBAgAABAgQIEOglgZ4IglufGdxLwPpKgAABAgQIECBAgAABAgQIECBAgAABAgQIECBAgACBTgs0On1B1yNAgAABAgQIECBAgAABAgQIECBAgAABAgQIECBAgACBxRUQBC+ur7MTIECAAAECBAgQIECAAAECBAgQIECAAAECBAgQIECg4wKC4I6TuyABAgQIECBAgAABAgQIECBAgAABAgQIECBAgAABAgQWV0AQvLi+zk6AAAECBAgQIECAAAECBAgQIECAAAECBAgQIECAAIGOCyxaENzX15fipRE4WgHfpaMVdDwBAgQIECBAgAABAgQIECBAgAABAgQIECBAgMBKE1i0IDggI8A7a2BspZka7wIKxPfHPyhYQFCnIkCAAAECBAgQIECAAAECBAgQIECAAAECBAgQWBECixIElwrOWL558+4VAWmQiyMQ35/m79PiXMVZCRAgQIAAAQIECBAgQIAAAQIECBAgQIAAAQIECCwvgQUPgkto12g00uDgYPqVJ+5L//H4O9LpfcPLS85oFlUgvi/xvYnvT3yP4vtUvluLemEnJ0CAAAECBAgQIECAAAECBAgQIECAAAECBAgQILAMBAYWawwR2kWAt27duvS683enn33gq+ngwYNpfHx8sS7pvMtEIL47q1atSqeddlr1/YnvUazTCBAgQIAAAQIECBAgQIAAAQIECBAgQIAAAQIECBCYncCiBMEltOvv709r1qxJp556atqwYUM6cOBAGhvzzODZ3ZqVu1dU/65evboKgYeGhlJ8j+I7Vb5XK1fGyAkQIECAAAECBAgQIECAAAECBAgQIECAAAECBAjMTmBRguC4dAntBgYG0tq1a6sKz9HRURXBs7svK3qv+O5E+BvfHVNCr+ivgsETIECAAAECBAgQIECAAAECBAgQIECAAAECBAjMU2DRguDoTwmDI9SLQM+00PO8SyvwsPjulO9PWa5ABkMmQIAAAQIECBAgQIAAAQIECBAgQIAAAQIECBAgMC+BRQ2Co0fNIV7z+3n11kErSsD3ZUXdboMlQIAAAQIECBAgQIAAAQIECBAgQIAAAQIECBBYQIFFD4JLX4V6RcKSAAECBAgQIECAAAECBAgQIECAAAECBAgQIECAAAECiyvQWNzTOzsBAgQIECBAgAABAgQIECBAgAABAgQIECBAgAABAgQIdFpAENxpcdcjQIAAAQIECBAgQIAAAQIECBAgQIAAAQIECBAgQIDAIgsIghcZ2Om7X8C05d1/j/SQAAECBAgQIECAAAECBAgQIECAAAECBAgQIEBgbgKC4Ll52Xs5CvT1LcdRGRMBAgQIECBAgAABAgQIECBAgAABAgQIECBAgMAKFujbsmXLWB6/JGwFfwkMnQABAgQIECBAgAABAgQIECBAgAABAgQIECBAgACBZSUw/v8DyScY7ltd/EwAAAAASUVORK5CYII=;" vertex="1" parent="1">
          <mxGeometry x="-61" y="48" width="1922" height="1114" as="geometry" />
        </mxCell>
        <mxCell id="53FAQnl19w3FAYiEGPFC-2" value="&lt;font style=&quot;font-size: 26px;&quot;&gt;Git Server status and name&lt;/font&gt;" style="rounded=0;whiteSpace=wrap;html=1;strokeWidth=4;strokeColor=#FD7F27;" vertex="1" parent="1">
          <mxGeometry x="160" y="-190" width="370" height="50" as="geometry" />
        </mxCell>
        <mxCell id="53FAQnl19w3FAYiEGPFC-4" value="" style="endArrow=none;html=1;rounded=0;strokeColor=#FD7F27;strokeWidth=4;entryX=0.5;entryY=1;entryDx=0;entryDy=0;" edge="1" parent="1" target="53FAQnl19w3FAYiEGPFC-2">
          <mxGeometry width="50" height="50" relative="1" as="geometry">
            <mxPoint x="392" y="400" as="sourcePoint" />
            <mxPoint x="350" y="-130" as="targetPoint" />
            <Array as="points">
              <mxPoint x="345" y="400" />
            </Array>
          </mxGeometry>
        </mxCell>
        <mxCell id="53FAQnl19w3FAYiEGPFC-5" value="&lt;font style=&quot;font-size: 26px;&quot;&gt;Open documentation&lt;/font&gt;" style="rounded=0;whiteSpace=wrap;html=1;strokeWidth=4;strokeColor=#FD7F27;" vertex="1" parent="1">
          <mxGeometry x="650" y="-190" width="370" height="50" as="geometry" />
        </mxCell>
        <mxCell id="53FAQnl19w3FAYiEGPFC-6" value="" style="endArrow=none;html=1;rounded=0;strokeColor=#FD7F27;strokeWidth=4;entryX=0.5;entryY=1;entryDx=0;entryDy=0;" edge="1" parent="1" target="53FAQnl19w3FAYiEGPFC-5">
          <mxGeometry width="50" height="50" relative="1" as="geometry">
            <mxPoint x="729" y="179" as="sourcePoint" />
            <mxPoint x="840" y="-130" as="targetPoint" />
            <Array as="points">
              <mxPoint x="835" y="179" />
            </Array>
          </mxGeometry>
        </mxCell>
        <mxCell id="53FAQnl19w3FAYiEGPFC-8" value="&lt;font style=&quot;font-size: 26px;&quot;&gt;Undo/Save changes&lt;/font&gt;" style="rounded=0;whiteSpace=wrap;html=1;strokeWidth=4;strokeColor=#FD7F27;" vertex="1" parent="1">
          <mxGeometry x="1940" y="957.5" width="370" height="50" as="geometry" />
        </mxCell>
        <mxCell id="53FAQnl19w3FAYiEGPFC-12" value="" style="rounded=0;whiteSpace=wrap;html=1;strokeWidth=4;strokeColor=#FD7F27;fillColor=none;" vertex="1" parent="1">
          <mxGeometry x="1656" y="965" width="154" height="35" as="geometry" />
        </mxCell>
        <mxCell id="53FAQnl19w3FAYiEGPFC-13" value="" style="rounded=0;whiteSpace=wrap;html=1;strokeWidth=4;strokeColor=#FD7F27;fillColor=none;" vertex="1" parent="1">
          <mxGeometry x="384" y="430" width="1432" height="524" as="geometry" />
        </mxCell>
        <mxCell id="53FAQnl19w3FAYiEGPFC-19" value="" style="endArrow=none;html=1;rounded=0;strokeColor=#FD7F27;strokeWidth=4;align=center;verticalAlign=middle;fontFamily=Helvetica;fontSize=11;fontColor=default;labelBackgroundColor=default;entryX=0;entryY=0.5;entryDx=0;entryDy=0;exitX=1;exitY=0.5;exitDx=0;exitDy=0;" edge="1" parent="1" source="53FAQnl19w3FAYiEGPFC-12" target="53FAQnl19w3FAYiEGPFC-8">
          <mxGeometry width="50" height="50" relative="1" as="geometry">
            <mxPoint x="1870" y="990" as="sourcePoint" />
            <mxPoint x="1920" y="980" as="targetPoint" />
          </mxGeometry>
        </mxCell>
        <mxCell id="53FAQnl19w3FAYiEGPFC-20" value="&lt;font style=&quot;font-size: 26px;&quot;&gt;Git Server settings&lt;/font&gt;" style="rounded=0;whiteSpace=wrap;html=1;strokeWidth=4;strokeColor=#FD7F27;" vertex="1" parent="1">
          <mxGeometry x="1948" y="667" width="370" height="50" as="geometry" />
        </mxCell>
        <mxCell id="53FAQnl19w3FAYiEGPFC-21" value="" style="endArrow=none;html=1;rounded=0;strokeColor=#FD7F27;strokeWidth=4;align=center;verticalAlign=middle;fontFamily=Helvetica;fontSize=11;fontColor=default;labelBackgroundColor=default;entryX=0;entryY=0.5;entryDx=0;entryDy=0;exitX=1;exitY=0.5;exitDx=0;exitDy=0;" edge="1" parent="1" target="53FAQnl19w3FAYiEGPFC-20" source="53FAQnl19w3FAYiEGPFC-13">
          <mxGeometry width="50" height="50" relative="1" as="geometry">
            <mxPoint x="1818" y="692.5" as="sourcePoint" />
            <mxPoint x="1928" y="689.5" as="targetPoint" />
          </mxGeometry>
        </mxCell>
        <mxCell id="53FAQnl19w3FAYiEGPFC-22" value="&lt;font style=&quot;font-size: 26px;&quot;&gt;Add a new Git Server&lt;/font&gt;" style="rounded=0;whiteSpace=wrap;html=1;strokeWidth=4;strokeColor=#FD7F27;" vertex="1" parent="1">
          <mxGeometry x="1948" y="197" width="370" height="50" as="geometry" />
        </mxCell>
        <mxCell id="53FAQnl19w3FAYiEGPFC-23" value="" style="endArrow=none;html=1;rounded=0;strokeColor=#FD7F27;strokeWidth=4;align=center;verticalAlign=middle;fontFamily=Helvetica;fontSize=11;fontColor=default;labelBackgroundColor=default;entryX=0;entryY=0.5;entryDx=0;entryDy=0;" edge="1" parent="1" target="53FAQnl19w3FAYiEGPFC-22">
          <mxGeometry width="50" height="50" relative="1" as="geometry">
            <mxPoint x="1820" y="222" as="sourcePoint" />
            <mxPoint x="1928" y="219.5" as="targetPoint" />
          </mxGeometry>
        </mxCell>
      </root>
    </mxGraphModel>
  </diagram>
</mxfile>
